<svg xmlns="http://www.w3.org/2000/svg" width="167" height="251.6" viewBox="33.4 40.8 167 251.6">
  <path fill="#e2cf00"
      d="M63.858 288.754c-.903 1.19-4.794-7.119-7.291-13.416-1.227-3.093-2.868-5.644-2.188-6.456 1.787-1.667 6.406-.168 9.762 2.219 3.587 2.552 6.117 6.3 6.117 6.3zm-31.488-6.193-.102-4.634c3.097-2.57 7.516-6.28 12.019-11.077l-11.667.054-.91-4.03.126-176.062s12.773 12.257 13.1 12.26c.192.004-.081 73.098-.078 121.977.104.23-6.741.079-7.195 3.276-.3 2.113 7.422 1.83 7.544 1.972-.047 21.97-.398 37.744-.233 37.744 5.863.007 7.094.224 7.094.224-6.623 6.31-13.504 11.47-19.698 18.296zm41.711-22.57c-1.03-1.897-2.66-9.19-3.917-9.017-5.77 1.759-7.619-6.106-1.649-6.503 2.261-.15 4.781 2.573 6.192 5.959.678 1.774-.035 10.272-.626 9.561zm1.316-10.932c-1.698-2.568-3.313-11.946-6.414-11.419-2.831.592-4.64-1.7-4.361-3.706 1.46-5.633 11.823-.267 14.543 1.035-1.353 2.827-3.268 9.88-3.768 14.09zm-21.716-25.744c-.74-.281 1.158-3.109 1.181-6.367.028-3.695-1.788-7.776-1.572-8.369 6.794-4.91 16.03-10.198 17.703-7.38 1.71 11.989.808 18.65-1.141 27.596l-1.28.617s-2.143-.376-3.734-1.136l-8.353-3.894ZM162.98 132.98c-1.244-9.235-.31-23.6 1.48-29.282.688-1.923 13.601 6.052 14.632 6.646.966.557 1.433.474.844 2.901-.679 2.805-.578 6.105.372 9.862.355 1.403.631 1.949-.322 2.562-.99.638-16.679 8.244-17.006 7.31zm-6.08-38.325c.268-.591 1.345-7.501 1.676-7.527 1.083-.085 2.661 6.771 5.42 9.036 5.214-.55 5.82 2.713 4.798 4.289.252.693-1.686 2.194-3.494 2.048-4.493-1.626-10.552-3.068-8.4-7.846zm-69.72-5.712c-1.469-.959 1.33-7.843 9.265-6.253 3.422-5.94 3.628-19.341 5.28-20.17 2.485-.845 27.82-7.312 27.058-1.648-.818 6.08-2.167 35.374-11.714 42.56-.959 1.051 15.077 11.105 15.077 11.105s16.94-9.722 15.973-9.578c-.417.104-.759 8.287-1.025 21.519-.258 12.772 1.752 21.918 5.941 35.433-.537 1.634 3.209 9.81 7.398 17.916 4.751 9.194 11.184 18.475 11.184 18.475-11.076-3.463-21.257-2.131-33.677-6.091l-.672 45.401s6.426 3.11 7.665 4.54c.605.698.672 1.67.74 2.55.263 3.428-2.878 7.502-8.839 6.151-1.877 6.045-4.58 20.263-4.682 20.257-9.105 1.122-18.332 2.328-27.552 1.862 0 0 1.385-4.566 1.923-11.432.197-2.502.337-5.195.658-8.06 1.182-10.552 4.557-22.074 9.982-22.807-1.071.39-13.748-9.741-15.478-10.467-7.14 3.432-16.524 9.194-16.524 9.194s1.248-8.36 1.315-17.124c.073-9.394-.63-19.78-.947-22.48-2.439-15.485-9.261-29.583-14.773-40.132-2.216-4.24-5.528-11.021-5.528-11.021 8.15-.858 17.378-.435 31.774 3.558 0 0-.745-45.823-.751-45.568.13.409-3.7-1.463-7.206-3.528-1.88-1.107-1.682-4.043-1.865-4.162zm71.887-10.186c.06-.466.3-5.64.3-5.64 2.25 2.445 4.058 9.609 4.506 9.489 0 0 2.896-.417 3.795.47 2.933 2.892.04 6.3-2.893 5.658-2.918-.697-6.122-5.316-5.708-9.977zm29.726 155.391s-.653-80.866-.58-121.596c3.142-.47 6.39 1.465 9.337-2.662-1.552-2.982-5.994-2.079-9.334-2.685l.023-37.553s-5.572-.097-5.577-.435c-.003-.31 2.876-2.81 8.327-8.063a200.153 200.81 0 0 0 2.471-2.434c2.751-2.765 7.12-7.37 7.327-7.183 1.71 1.344 1.528 3.526-6.43 10.34-5.8 4.968-6.023 4.635.385 4.56 6.11-.096 6.888-.565 6.028 1.468.012.83.71 1.479.544 1.609-.178.14-.21 176.667-.21 176.667zm-18.4-188.366c.041.104.842.385 1.703 1.268 3.515 5.337 5.333 12.097 8.094 16.762-5.735 2.347-13.679-2.888-15.59-7.461-2.322-5.756 4.506-13.741 5.793-10.57z" />
  <path fill="#131f67"
      d="m30.387 38.126.185 256.832 173.043-.052-.382-256.866Zm57.33 53.961c.234.414.618 1.01.618 1.01s-.418.1-.71.276c-20.072 6.837-41.79 22.097-42.166 22.547l.407-16.921-13.435-12.944.116-45.853 52.173.063 15.267 23.673c-.928 6.196-3.327 18.189-3.327 18.189-1.405-.316-6.143-.733-8.706 2.657-1.224 1.617-1.879 3.822-.237 7.303zm97.737 52.892 1.986-2.319-3.494.144 2.402-2.403-3.865-.087 3.017-2.363-4.068-.049 3.027-2.323-4.454.18 3.194-2.528-4.402.012 3.287-2.544-4.306-.06 2.801-2.284-3.76-.046 4.254-2.753c1.814.735 4.248 1.154 6.696 1.206l.025 18.572zm3.093-32.2c9.936.042 12.066-4.862.06-5.657 0 0-.905-24.354-.62-34.434.004-1.231.131-2.614.131-2.614l-6.54-.162s17.559-17.478 19.213-18.9c1.414 58.823 1.155 195.391 1.155 195.391l-13.38-12.41-.094-38.615c-4.478-4.206-7.038-10.335-9.701-14.306l-7.322-3.3 1.73-5.44-.735-1.549-2.298 7.698 8.01 3.53.846 1.595-1.36 7.253 7.582 2.415 1.312 1.67-.486 7.085 1.569.446.013 1.404-1.574-.125-.573 7.955 2.14.584-.007 1.796c-.003-.032-1.248.005-1.86-.045-.846-.424-2.237-2.101-2.237-2.101l.77-8.833-9.613-1.794-.714-.937 1.781-8.827-10.09-2.867c1.032 2.358 2.402 4.564 3.542 6.886-1.387.37-2.835.451-4.239.727-.395 11.928.025 24.34-.393 35.559-8.125.532-4.312-.18-7.845-.133-1.383-.002-2.506 1.034-2.508 2.313-.001.818.455 1.535 1.147 1.95l-1.401.46-2.445-2.564 5.123-4.532-.029-1.304-6.361 5.867 2.745 2.939-1.636.782-2.507-2.446s-5.409 5.104-5.072 5.197c.167.048.466.306.668.568 3.836 7.682-1.418 11.343-7.758 9.212-1.623 7.063-3.17 13.437-4.448 20.753-4.743 1.65-27.038 2.58-27.283 2.2 0 0-.564-.5-.588-.748.101-.327-.64.68-.64.68 0 .436-19.433-.47-29.015-2.172 0 0-.195-.85-.115-1.97.16-2.249-.027-2.228 2.186-1.898 4.52.285 8.028-1.144 9.427-4.82.784-2.058.42-3.914-.764-9.425-1.15-5.352-1.163-4.776-1.024-5.498.162-.85 1.155-1.795 2.58-2.862 1.074-.803 1.184-2.324.319-1.483-.595.8-1.641 1.085-2.578 1.533-2.201 1.061-2.13 2.088-.838 6.484.607 2.062 1.241 4.284 1.262 4.543.064.808-.25.478-1.559-.356-.838-.568-1.805-1.038-2.666-1.506-2.63-1.301-1.466.121 1.066 1.684 1.99 1.367 2.319 1.956.601 1.3-1.77-.671-4.313-.385-6.303.304-.39.202-.679.178-.74-.152-.088-.514.254-1.807.405-4.792.383-7.55 2.317-15.595 7.756-20.24 7.785-6.647 20.557-2.115 27.638 4.061l.768-1.077c-4.754-3.7-12.997-8.317-21.033-7.432 3.363-2.586 10.78-6.869 10.78-6.869 5.077 3.414 8.82 6.819 14.394 10.516l.972-.595-15.329-11.268-16.544 10.058s.7-9.667.964-13.2l-7.18 5.852 5.52 7.578-5.87 5.57s.99-.127-.095 1.594c-1.655 3.092-2.659 8.077-3.428 13.14.143 3.782-.87 7.965-1.187 11.296-.537-3.121-1.176-4.761-2.421-7.595-1.144-2.73-1.592-2.71-2.886-2.313-7.015.536-3.823-11.97 4.453-3.778.364.348.963.773.991.692.173-.502-2.19-7.094-3.106-8.614-.967-1.606-.975-1.832-2.415-1.697-2.696.254-3.607-.635-3.876-3.259.365-4.96 6.167-2.857 9.883-1.328.336.239-1.742-1.754-2.486-2.456-1.01-.954-1.173-1.566-1.173-1.566l.223-2.632 5.696-4.796-4.668-6.391.198-2.283 5.007-5.538-5.32-5.353-.063-1.904 4.337-5.322-5.795-4.308-.279-1.716s3.733-6.367 3.634-6.599c-.084-.195-6.282-4.162-6.282-4.162l-.62-2.68 2.704-6.8-6.44-3.41-1.177-3.074 1.823-6.298-6.682-2.863-1.901-3.552 1.251-6.62-7.49-2.061-1.984-2.914.269-5.823-1.835-.177.028-1.437 2.044.017s-.159-.215.07-3.092c.391-4.89.427-4.702-.836-4.907-2.66-.43-2.048-1.941.672-1.658.418.043.77.077 1.068.129.717.125 1.267.984 1.267.984l-.611 9.032 9.582 1.491.908 1.136-1.617 8.369 8.993 2.416 1.208 2.03-2.563 8.703 9.063 3.698.596 1.617-3.86 7.723 8.326 3.754.519 1.853-4.637 7.964 9.595 6.473s-.256-.633-.637-1.689l-7.608-5.038 3.868-6.797s.307.498.634.394a37.92 37.92 0 0 1-.43-3.395l-3.917-9.477 12.727-7.891c-5.444-3.04-12.32-2.948-18.63-4.093 0 0-.275-.813-.749-1.542-1.833-2.725-3.48-6.19-5.523-9.766 1.51-.657 2.164-.57 3.785-.862 0 0 4.13-23.727 7.354-35.32 0 0 .494.138.736.145 1.56.002 2.824-1.168 2.826-2.61 0-.788-.378-1.493-.974-1.972a28.018 28.11 0 0 1 1.11-.268c.515-.007 2.598 2.125 2.598 2.125l-5.368 4.88-.033 1.617c2.141-2.056 6.848-6.495 6.848-6.495l-2.828-2.754 1.402-.604 2.291 2.338 5.154-4.886 1.318.834c-1.737 2.103-2.867 2.788-5.467 5.272 1.354 1.486 6.6 6.172 6.6 6.172l-.012-1.617-5.172-4.647 5.042-4.64.292-.307s3.994 1.602 4.248 1.6c-1.697-1.296-4.747-2.407-6.403-3.527-7.505-4.105-.358-12.57 6.567-10.457.196.683 3.845-17.87 3.44-18.895.37-2.873.45-2.467-.626-4.115-3.215-6.877-12.607-19.895-12.607-19.895l84.682-.399c-.884 1.59-1.775 2.878-2.446 4.735 0 0 4.752 4.589 6.484 10.617.966 3.364 2.357 6.514 4.801 8.755.038.08-.086.18-.235.274-6.699 2.174-14.322-3.117-16.658-9.146l-3.85 5.786c1.735.183-25.57-2.897-32.27-2.135.593.11 1.293.565.896 2.303-.686 2.995-1.916 13.823-1.916 13.823-1.362 10.535-2.419 23.774-9.944 28.143 0 0 1.15 1.136 2.142 1.715.024-.015-.884-.866-.913-.965.005-.306.194-.5.415-.661 1.594-1.192 3.54-3.665 3.47-3.73 6.199 4.99 15.904 9.293 21.76 7.518 2.31-.445 3.337-2.502 4.56-.831-1.603 9.062-1.51 19.033-.902 26.865.933 17.456 5.087 27.464 9.2 39.835-2.125.69-13.034 7.434-13.034 7.434-.068.86 13.143 3.68 18.328 3.19 0 0 1.065.962 1.07.759a8.186 8.186 0 0 1-.102-.19c.77-.395 1.29-1.154 1.29-2.026.002-1.279-1.113-2.317-2.496-2.319a2.715 2.723 0 0 0-.746.103 341.102 342.222 0 0 1-1.202-2.771l7.336 2.963-2.403 7.422.8 1.651 2.932-9.667-9.364-3.722-.631-1.717 3.895-7.33-8.371-4.6-.35-1.461 4.518-7.87-8.103-5.77 5.944-7.084-7.296-5.68.083-.94 6.061-6.436-6.248-5.954-.17-2.406 6.826-5.597-5.877-7.915c2.457-1.521 3.83-3.259 5.44-4.99l1.436.584-5.234 3.657 5.576 7.47 5.9-4.914-3.187-4.82 1.946.82 1.78 2.583-.294 2.637-5.83 4.894 4.995 6.709.04 1.229s-3.117 3.304-5.386 5.76l6.334 6.478-5.197 6.115 6.52 5.146-.182-1.542-4.81-3.763 3.702-4.136c.269-2.495-.311-6.778 1.07-8.656-2.225-2.019-1.054-6.875.043-8.448-2.125-2.333-.9-7.446.457-7.66-1.622-1.885-.97-5.702.39-6.942.435-.214-5.798-2.301-9.728-4.804 3.28-5.628 2.525-10.928 3.56-12.836 1.41 3.78 3.218 7.802 4.78 10.697.164.3.512.233 1.032.243 6.503.543 5.876 5.5.997 6.763 0 0 9.91 6.843 14.935 7.606.052.121.015.282-.154.605-.716 1.363-1.131 3.722-1.24 5.798-.367 3.088 1.24 7.829 1.24 7.829l-2.061 1.174c-.412 1.63-2.714 1.661-2.938 2.823.48 4.99 10.992 24.114 13.213 26.276.863-13.636-.727-28.44.098-42.048zm-2.454 34.771 1.71-1.295-.043 2.063zm1.663 3.163-.86-.594.868-.889zm-106.018 24.21a51.947 52.117 0 0 0 .554 2.785c-1.213.292-2.108 1.309-2.11 2.521-.001 1.442 1.264 2.616 2.823 2.618.223 0 .436-.03.644-.075a78.676 78.934 0 0 0 1.196 3.593l.572.38c-1.538-4.974 1.46-7.643-2.958-11.778-.065-.207-.39-.15-.72-.044zm91.508-134.718 27.56.201-.013 9.405-21.268 20.854 8.188.103-.137 35.814c-2.246.86-4.389 2.194-6.46 3.485l-12.908-6.624-.93-.44s.357-.094 1.115-.552c1.462-.884 2.023-3.06 1.361-4.697-1.08-2.675-3.323-2.196-5.19-2.204-1.55-1.109-2.87-4.815-3.956-7.288-.502-1.075-.981-1.898-1.106-2.521-.114-.576-.11-1.079-.11-1.079s.25.073.617.768c2.052 4.01 6.857 5.953 9.418 2.166 1.297-2.322.407-4.977-1.767-5.722-.665-.227-2.929.011-2.929.011-.132.073-1.638-1.97-3.76-8.677-.87-2.77-1.091-8.78-.257-9.643 1.414-1.582 1.781-3.807 2.978-5.404.544-1.003.514-.376 1.364.744 2.895 3.821 7.99 6.785 12.657 6.604 3.313-.128 4.337-1.172 3.555-2.056-1.816-1.72-3.001-4.132-3.595-6.243-1.381-4.916-2.847-9.301-6.575-13.125zm-14.024 23.316c.349.305.073.773.008 1.621-.163 2.153-.213 2.178-1.551 1.634-2.566-1.045-6.198-.139-8.39 2.055-2.766 2.767-2.857 5.617-1.141 11.248 1.96 6.333 1.912 7.169-.452 8.46-1.422 1.117-2.88 3.459-2.335 3.452.075 0 .273-.141.435-.311.162-.17 1.46-1.134 2.46-1.765 2.745-1.73 3.605-2.616 2.35-5.82-1.24-3.162-2.237-6.253-1.719-6.445.248-.091 1.193.94 1.777 1.25 1.198.638 3.726 1.817 4.036 1.816.428-.003-.029-.287-1.261-1.037-3.298-2.008-4.646-3.824-1.463-2.672 1.705.617 3.51.26 4.528-.047 1.187-.357 1.808-.718 1.933-.305.17 1.95.001 3.959-.131 5.918-.04.125-.201 1.459-.362 2.958-.611 5.695-1.669 10.492-4.38 13.58-9.069 10.329-19.37 7.302-30.933-.988 4.334-11.055 4.048-19.675 5.119-23.183 1-.277 2.17.267 2.898.646 1.61.85 3.444 1.363 5.206 1.453 1.64.084 1.926-.13 1.778.32-.113.345-2.758 1.06-4.377 1.369-2.946.563-2.73 1.193-.251.99 2.61-.215 5.13-1.17 7.803-2.81 1.852-1.135 1.92-1.137 1.425-2.565-.12-.343-.37-.859.513-1.157.914-.31.786-.655.267-1.04-.128-.094-.456-.117-.588-.213-.165-.12.013-.655.01-.728-3.364-2.638-9.304-2.71-14.19-.011-.244-.082-.497-.435-.258-.918.515-1.039 5.77-2.277 9.5-2.328 1.701-.024 2.034.176 4.595.903 1.052.299 1.64.377 1.737.23.219-.338-.16-1.341-.969-1.879-2.732-1.815-6.715-1.676-12.155.312-2.912 1.064-2.609 1.43-1.66-3.878.262-1.473.564-2.598.564-2.598s25.442.868 29.624 2.483zm-3.922 4.982c1.345.01 2.575.323 3.29.968 1.047 1.073-.054 1.407-1.718.82-2.13-.75-4.553-.328-6.432.749-1.205.69-1.464.32-.448-.672 1.229-1.2 3.343-1.88 5.308-1.865zm-19.35 1.824c2.346-.011 4.494.38 5.376 1.297.805.838.028.922-1.983.192-2.833-1.029-6.613-.709-9.734.72-1.604.735-2.096.884-1.881.046.943-1.358 4.794-2.237 8.222-2.255zm18.764.7c2.235.006 4.134.483 3.78 1.563-.126.385-.236.153-1.835-.304-1.596-.457-3.638-.288-5.69.262-1.913.513-2.28.63-1.42-.134 1.045-.928 3.192-1.395 5.165-1.388zm4.551 1.043c2.26 3.228 2.652 7.959 5.057 10.524 4.456-.761 6.559 3.115 2.807 5.69-1.908.976-4.23.236-5.935-2.352-1.625-2.466-2.071-3.958-2.122-5.522.152-3.283-.045-5.04.193-8.34zm-26.084 1.45.986.11c.713 2.245 2.317 2.383 3.282.031l.746.115c-1.138 2.882-3.982 2.997-5.014-.257zm-1.529.04c.411-.021.753.38.935.909.382 1.195-.054 1.044-.947.537-.903-.509-1.598-.846-1.077-1.05.39-.192.697-.322 1.089-.396zm8.474.776c.34.39.417.69-.022.974a9.03 9.03 0 0 1-1.161.476c-.397.11-.642.022-.474-.507.105-.453.414-1.102.645-1.356.387-.063.8.19 1.012.413zm11.966-.26.782.053c.818 2.054 2.734 1.997 3.476.217l.7-.004c-1.324 3.177-4.009 2.6-4.958-.266zm-1.41.268c.75 0 1.477 1 1.065 1.51-.415.319-2.264-.048-2.427-.68-.064-.38.611-.83 1.361-.83zm7.237.202c.362.08.337.333.347.375.19.84-.898 1.132-1.141.81-.134-.176.439-.847.794-1.185zm-17.235 8.97c-1.832.471-2.686 1.933-2.573 3.565.091 1.32.832 2.397 1.917 2.626 2.184.46 3.698-.948 5.93-1.515.965-.232.742-1.382.125-1.883-.792-.643-2.01-.244-3.644.91-3.207 2.263-3.971-2.097-1.05-2.864.453-.119.246-1.084-.706-.84zM45.817 183.81l1.245.333-1.247 1.362s.007-1.178 0-1.695zm3.462 4.668-2.57 2.666 3.487-.238-2.368 2.268 3.628.14-2.67 2.546 3.565-.062-2.64 2.459 3.365.092-2.227 2.251 3.703-.258-2.706 2.691 3.965-.06-3.01 2.51 3.957-.02-1.19 1.248 1.053.49c1.076-.461 7.281-2.237 7.489-3.58-1.37-.341-5.405 1.552-5.672 1.236-1.608-6.598-8.562-21.195-13.156-25.454l-.372 41.26c-.11.093-.237.13-.363.185-.688.302-1.583.123-2.19.348-2.333-.115-6.235 3.485-4.2 4.202 1.065.219 6.96 1.16 6.976 1.431.706 11.95-.48 23.961.04 36.717 1.648.228 7.038.519 7.038.519s-19.794 19.049-20.181 18.664c.49-20.441.304-60.404-.083-60.552.005-1.2.462-3.724.462-3.724L32.163 91.32s-.115-.568-.352-.931c-.405-.62-.434-.78-.461-2.686-.156-1.177.028-1.484.028-1.484l13.505 13.223.107 36.935s12.63 17.51 15.564 25.584c6.442 12.023 5.718 29.533 9.625 36.241.082 0 .16-.003.24-.009.093.978.104 1.37.258 1.523.291 2.185.606 5.171.606 5.171l-1.418 2.078 1.577 1.874.002 4.991-2.109 1.978 1.924 2.262-.543 4.66-1.505 1.236.852 1.065s.14 1.68-.204 3.602c-.233 1.305-1.625 1.127-4.518-.238-4.1-1.443-8.295-4.02-11.533-5.965.197-2.426 3.454-7.955-1.06-14.063-1.67-1.16-6.525-.74-6.95-.916l.065-18.794m-.003-2.17 2.189-.351-2.212 2.043zm104.35-93.695c-.18.019-.403.173-.69.472-.305.315-.79.228-2.02.158-1.317-.076-1.652-.042-2.52.248-.99.33-1.012.33-1.698.059-1.072-.424-1.743-.474-2.73-.216-1.209.316-1.973.228-2.718-.112-.755-.345-.994-.276-1.258.357-.11.266-.648 1.298-.897 1.649-.808 1.14-.614 1.33 1.077.852 1.163-.329 3.304-.536 4.897.077 1.211.466 2.655.319 4.381-.373 1.515-.607 3.008-.798 4.457.331.844.658.799.161.584-1.2-.24-1.52-.408-2.35-.866-2.302zM92.816 97.52c-1.56-.002-2.829 1.164-2.83 2.606-.002 1.442 1.263 2.615 2.822 2.617.74-.568 1.129-5.117.008-5.223zm54.548.087c-1.72.538-4.082 1.258-6.742.533-2.09-.592-1.591.861.678 1.046 1.578.128 1.472.127.239 1.191-1.039.896.26.833.97.275.838-.657 3.11-.484 4.391.058.563.237.626-.747-.044-.965-1.687-.547-1.282-.588.56-1.14.682-.141.71-1.236-.052-.998zm-54.55.787c.892.312.33 3.34-.005 3.475-1.037-.002-1.88-.783-1.878-1.742.001-.96.846-1.734 1.883-1.733zm-15.068.09c.72-.226 1.225.882 1.224 1.628-.001.96-.842 1.739-1.878 1.737-1.267-1.146-1.497-2.422-.028-3.139.212-.073.44-.149.682-.225zm7.423 2.567-6.045 5.636 5.917 5.556 5.942-5.664zm71.496 2.322c.864.001 1.563.654 1.562 1.453-.001.8-.702 1.445-1.566 1.444-.865 0-1.569-.648-1.568-1.448.001-.8.706-1.45 1.572-1.449zm-71.553 1.809c.865.001 1.563.653 1.562 1.453 0 .8-.701 1.445-1.566 1.444-.864 0-1.563-.648-1.562-1.448 0-.8.702-1.45 1.566-1.449zm64.162 1.463 4.317 5.388-5.307 4.39.275-2.732c1.169-.194 2.056-1.143 2.058-2.28.001-.988-.667-1.829-1.607-2.162zm-72.01.21-.064 1.465 5.442 4.998-5.4 5.17.044 1.432 6.72-6.6zm15.4.023-6.669 6.312 6.416 6.497.084-1.644-5.038-4.828 5.149-4.715zm96.11 1.128c1.356 0 2.517.413 2.87 1.233.278.46.426.859.832 1.031.79.336 1.865.107 1.917-.14.093 0-1.261-.121-1.492-.313-1.059-.884-.879-1.44.625-1.327.485.02 1.839.04 1.868.53.299 1.69-2.133 2.924-5.24 2.694-2.217-.342-2.229.449-2.385 1.542-.098.36-.44.94-.717 1.398-.786 1.3-1.045 1.118-.498 1.621.529.64 1.214 1.435 1.203 2.18l-.034 6.853s-4.651-.025-6.267-1.108c-1.689-2.859-2.831-9.02-.34-12.398.87-1.012 2.145-1.495 3.612-2.567 1.132-.827 2.69-1.228 4.045-1.229zm-26.3.739-.172 1.98c-1.181.185-2.086 1.13-2.088 2.276-.002 1.016.71 1.877 1.694 2.19l-.151 1.72-3.444-4.583zm-13.547 1.321c.51.264.852.765.852 1.343-.001.681-.476 1.261-1.137 1.464zm-71.976.636c-2.389 1.144-1.574 5.59-.007 5.223 1.56.002 2.823-1.168 2.825-2.61.001-1.442-1.259-2.61-2.818-2.613zm15.59.085c-1.56-.001-2.828 1.164-2.83 2.606-.002 1.442 1.263 2.615 2.823 2.617 2.074-.601.907-5.136.008-5.223zm69.689.746-.25 2.85c-.549-.253-.924-.776-.923-1.381.001-.691.494-1.275 1.173-1.469zm-85.28.044c1.038.001 1.875.777 1.874 1.737-.002.959-.842 1.738-1.879 1.737-.618.112-1.007-3.175.005-3.474zm15.59.085c1.257.096.21 3.054-.005 3.474-1.038-.002-1.88-.783-1.879-1.742.002-.96.846-1.734 1.884-1.732zm63.323 1.726-6.239 5.735 6.146 6.28 5.13-5.75zm-70.861 1.006-5.984 5.684 5.641 5.404 5.968-5.81zm-39.27 3.067 2.179 2.144-2.254.016zm109.64.346c.864 0 1.563.653 1.562 1.453-.001.8-.702 1.445-1.566 1.444-.865 0-1.563-.648-1.562-1.448 0-.8.701-1.45 1.566-1.45zm-70.406.7c.864 0 1.568.648 1.567 1.447-.001.8-.707 1.45-1.571 1.45-.865-.001-1.564-.654-1.563-1.453.001-.8.702-1.446 1.567-1.445zm7.72 1.7-6.612 6.303 6.37 6.29.09-1.49-5.106-4.761 5.19-4.9zm-15.528-.01.064 1.598 5.294 4.866-5.579 5.173.223 1.395 6.858-6.542zm71.282 1.817 4.773 4.402-4.771 4.9-.002-2.548c.983-.312 1.689-1.176 1.69-2.191.002-1.016-.705-1.873-1.689-2.185zm13.177.243.048 1.796c-1.074.26-1.872 1.159-1.874 2.233-.001 1.118.857 2.052 1.996 2.272l.038 1.423-3.776-3.862zm-110.49.674s1.593 1.575 2.133 2.22a2.48 2.48 0 0 0-.687 1.69c-.002 1.443 1.263 2.616 2.823 2.618a2.989 2.999 0 0 0 1.247-.272c.29.398 1.562 2.03 1.562 2.03l-7.513-1.125zm41.518 1.095c-1.56-.001-2.828 1.164-2.83 2.606-.002 1.442 1.264 2.615 2.823 2.617 2.837-.53 2.284-5.094.008-5.223zm-15.733.08c-1.56-.001-2.828 1.164-2.83 2.606-.002 1.442 1.263 2.616 2.823 2.617 1.56.002 2.823-1.168 2.825-2.61.002-1.442-1.258-2.61-2.818-2.613zm84.773.75.082 2.898c-.662-.205-1.138-.786-1.137-1.466 0-.651.437-1.207 1.055-1.431zm-69.04.045c1.825.617 1.264 3.59-.006 3.474-1.037-.002-1.88-.783-1.878-1.742.001-.96.846-1.733 1.883-1.732zm-15.734.08c1.037.002 1.875.778 1.874 1.737-.002.96-.841 1.738-1.879 1.737-1.037-.001-1.88-.782-1.878-1.742.001-.959.846-1.733 1.883-1.732zm71.53.252c.508.263.852.765.851 1.343 0 .578-.343 1.083-.85 1.346zm-94.59.628 2.195 2.616a2.008 2.015 0 0 1-.65.108c-1.037-.001-1.879-.782-1.878-1.742a1.622 1.627 0 0 1 .334-.982zm101.707 1.31-5.17 5.731 6.335 5.212 4.506-5.147zm-70.55.604-6.34 5.938 4.466 4.302-2.474-.253-3.573-3.38-.084 1.12 1.945 2.064-2.078-.069.362.894c5.13.139 10.008 1.541 14.983 2.46l.305-.62-1.844-.44 1.745-1.925-.018-1.466-3.02 2.984-1.022-.219 4.279-4.07-.285-1.242-5.261 4.966-1.528-.324 5.348-5.032zm70.805 3.507c.864.001 1.563.649 1.562 1.449-.001.8-.702 1.445-1.566 1.444-.865 0-1.569-.648-1.568-1.448.001-.8.707-1.445 1.572-1.445zm-71.025.666c.865.001 1.563.649 1.562 1.448 0 .8-.701 1.446-1.566 1.445-.864-.001-1.563-.649-1.562-1.448.001-.8.702-1.446 1.566-1.445zm-35.474.373s-.412 4.757-.644 7.046l8.18 2.034 1.029-7.6zm-3.568.355 1.14.04-.15 4.385-1.154-1.05zm15.137 1.942s.822 1.224 1.76 2.574a2.498 2.498 0 0 0-.82 1.832c-.002 1.442 1.262 2.616 2.822 2.618a3.033 3.043 0 0 0 .824-.113c.367.643 1.05 1.665 1.05 1.665l-7.01-1.908zm87.799.593 5.5 4.152-4.286 4.863-.283-2.09c.965-.32 1.657-1.173 1.659-2.176.001-1.204-.992-2.191-2.261-2.305zm-95.232-.044c.865 0 1.563.649 1.562 1.448 0 .8-.701 1.45-1.566 1.45-.864-.002-1.568-.654-1.567-1.454 0-.8.707-1.445 1.571-1.444zm110.034.591c-1.383-.001-2.511 1.03-2.513 2.309-.002 1.279 1.123 2.322 2.506 2.323.546.372.703-3.975.007-4.632zm0 .776c.147.689.324 3.244-.005 3.081-.92 0-1.67-.696-1.67-1.547.001-.85.754-1.535 1.674-1.534zm-100.31 1.42a70.927 70.927 0 0 1 1.82 2.785 1.89 1.89 0 0 1-.347.028c-1.037-.001-1.88-.782-1.879-1.741a1.64 1.64 0 0 1 .406-1.073zm85.943.5c.753.148 1.318.764 1.316 1.505 0 .604-.38 1.126-.927 1.38zm7.456 1.366-4.66 5.765 7.052 5.1 4.006-6.31zM50.39 142.04l5.258 1.43-.999 4.975c-.083-.29-.376-.816-.77-1.442a2.434 2.442 0 0 0 .36-1.266c.001-1.442-1.258-2.611-2.818-2.613-.075 0-.15.004-.225.009-.468-.64-.806-1.093-.806-1.093zm7.794 1.22-1.724 7.934 7.908 2.954 1.94-8.383zm99.284.181c.865.001 1.563.649 1.562 1.449 0 .8-.701 1.445-1.566 1.444-.865 0-1.568-.649-1.567-1.448 0-.8.706-1.446 1.571-1.445zm-105.608.605c.824.184 1.435.87 1.434 1.69 0 .108-.016.213-.037.316a80.776 81.041 0 0 0-1.397-2.006zm112.322.352-4.252 7.384 7.205 4.665-.492-1.58-5.153-3.504 3.006-5.078zM61.69 146.946c.865 0 1.563.654 1.562 1.453 0 .8-.701 1.445-1.566 1.444-.865 0-1.563-.648-1.562-1.448 0-.8.701-1.45 1.566-1.45zm7.467.746 1.678 2.711c-.695.474-1.147 1.233-1.148 2.092-.002 1.442 1.263 2.616 2.823 2.618.233 0 .458-.03.674-.08l1.213 2.388-7.34-2.981zm96.657.14c-.658-.14-1.289.247-1.74.649a2.23 2.23 0 0 0-.768 1.665c-.001 1.279 1.119 2.317 2.502 2.32 1.891-.422.881-4.444.006-4.633zm-15.197.62 5.965 3.955-3.495 6.216s-.348-1.257-.788-2.946c.848-.37 1.437-1.166 1.44-2.092 0-1.28-1.12-2.317-2.502-2.32h-.031a62.032 62.032 0 0 1-.59-2.812zm15.196.156c1.037.294.682 2.984-.004 3.082-.91.13-1.666-.692-1.664-1.543 0-.85.748-1.54 1.668-1.539zm-94.566 2.608 1.525 3.004a2.24 2.24 0 0 1-.26.018c-1.038-.001-1.881-.782-1.88-1.742 0-.506.24-.963.615-1.28zm80.147.835c.847.073 1.507.73 1.506 1.533-.001.557-.326 1.042-.805 1.313-.23-.897-.47-1.876-.701-2.846zm7.875.798-4.1 7.469 7.55 4.267 3.486-7.223zm-101.167 1.315 4.654 1.962-1.32 4.442-.566-1.088a2.46 2.46 0 0 0 .441-1.389c.002-1.347-1.1-2.456-2.516-2.598zm7.352 2.117-2.295 7.47 7.253 3.502 3.323-7.516zm-6.114.262c.61.287 1.027.87 1.026 1.547 0 .118-.017.233-.042.345zm101.268.727c.864.001 1.568.654 1.567 1.454-.001.799-.706 1.445-1.571 1.444-.865 0-1.564-.649-1.563-1.448.001-.8.702-1.45 1.567-1.45zm6.894.421-3.476 7.818 7.95 4.068-.596-1.427-5.876-3.146 2.529-5.657zm-99.14 2.488c.865.001 1.563.649 1.562 1.448 0 .8-.701 1.446-1.566 1.445-.865-.001-1.563-.649-1.562-1.448.001-.8.702-1.446 1.566-1.445zm101.634 1.281c-1.383-.001-2.506 1.034-2.507 2.313-.002 1.279 1.119 2.365 2.5 2.32 2.515-.05 1.24-4.65.008-4.633zm-93.856.147c.475.796.83 1.628 1.157 2.483-.75.468-1.244 1.259-1.246 2.158-.001 1.39 1.174 2.53 2.655 2.612.055.004.317.038.317.038l.447 1.575-6.242-3.037c.879-2.174 1.63-3.68 2.912-5.83zm93.856.628c.73.284.922 2.996-.005 3.082-.92 0-1.665-.692-1.664-1.543 0-.85.748-1.54 1.669-1.539zm-15.397.88 6.134 3.26-3.091 6.145-.911-2.818c.663-.417 1.1-1.116 1.101-1.913.002-1.27-1.101-2.302-2.47-2.32zm-76.971 1.845.972 3.007c-.993-.048-1.604-.788-1.603-1.718 0-.514.246-.973.63-1.29zm77.993 1.313c.782.128 1.374.755 1.373 1.515 0 .441-.2.838-.523 1.119zm-91.607.088 4.745 2.572-2.15 5.122-.62-1.85a2.488 2.488 0 0 0 .687-1.7c.001-1.218-.9-2.237-2.118-2.527zm99.12.224-2.887 7.129 8.32 4.056 2.092-7.295zM64.93 169.08c.483.314.801.835.8 1.424 0 .21-.044.409-.118.595zm6.22.362-3.389 7.232 7.022 4.291 3.67-7.539zm94.59 1.291c.866.001 1.564.65 1.563 1.449-.001.8-.701 1.445-1.566 1.444-.865 0-1.563-.649-1.562-1.448 0-.8.701-1.445 1.566-1.445zm8.233 3.19c-.701.416-1.118 1.22-1.12 2.047 0 1.279 1.119 2.325 2.502 2.319a4.154 4.168 0 0 0 .832-.084c.723-.893-.295-4.32-2.214-4.281zm-100.728-.328c.865 0 1.563.648 1.562 1.448 0 .8-.701 1.45-1.566 1.449-.865-.001-1.563-.654-1.562-1.453 0-.8.702-1.445 1.566-1.444zm102.482 3.85a.761.761 0 0 1-.37.068c-.92-.04-1.666-.692-1.665-1.542 0-.485.244-.917.622-1.2 1.44-.995 1.646 2.874 1.413 2.674zm-93.237 1.119c.286 1.187.6 2.315.91 3.366a1.999 2.006 0 0 1-.394.042c-1.037-.001-1.88-.782-1.878-1.741 0-.793.576-1.46 1.362-1.667zm87.261.956-2.189 8.019 8.328 2.818 1.605-7.59zm-101.57-.014 4.418 2.827s-1.434 3.185-2.645 4.884l-.34-1.475c.733-.471 1.213-1.251 1.214-2.14.002-1.278-.985-2.342-2.296-2.569zm93.488.496c.92.001 1.66.688 1.66 1.538-.002.558-.182.788-.662 1.058-.364-.762-.866-1.516-1.32-2.54.136-.032.176-.056.322-.056zm-92.913 2.005c.664.268 1.128.88 1.127 1.594 0 .453-.187.863-.493 1.172zm6.638 1.18-4.022 6.443 5.882 4.171 4.61-6.446zm97.153.335c.864.001 1.563.654 1.562 1.453-.001.8-.702 1.446-1.567 1.445-.864-.001-1.568-.649-1.567-1.448.001-.8.707-1.45 1.572-1.45zm7.204 2.013 1.02 1.467a2.19 2.19 0 0 0-.513 1.394c-.002 1.279 1.124 2.317 2.507 2.318a2.702 2.71 0 0 0 .547-.05l.82 1.177-5.22-1.736zm-103.162 1.596c.865 0 1.563.648 1.562 1.448 0 .8-.701 1.445-1.566 1.445-.864-.001-1.568-.65-1.567-1.449 0-.8.707-1.445 1.571-1.444zm104.682.59 1.54 2.218h-.046c-1.458-.027-2.074-1.138-1.494-2.218zm-97.174-.018-5.694 6.964 7.532 5.176-.115-1.541-5.505-3.646 4.199-5.157zm83.002 2.459 7.5 2.188-1.615 6.88-1.764-2.72a2.228 2.228 0 0 0 .784-1.677c.002-1.28-1.113-2.318-2.496-2.32a2.704 2.713 0 0 0-.803.122zm-81.744 1.097c-1.425.131-2.542 1.24-2.544 2.591-.002 1.442 1.263 2.616 2.822 2.617.719.08.823-.935.001-.874-1.037-.001-1.88-.782-1.878-1.742.001-.92.78-1.67 1.76-1.727l-.136-.865h-.026zm91.933.853-1.315 7.962 8.498 1.689.644-7.222zm-106.283.065 4.01 2.746-3.053 3.939-.162-1.13c.727-.473 1.203-1.256 1.204-2.14.002-1.13-.775-2.087-1.862-2.45zm98.502 1.112c.92 0 1.66.692 1.659 1.542 0 .38-.15.724-.395.993l-1.617-2.498c.113-.022.232-.038.353-.037zm-26.96 1.012c.181.061.695.098.613.25-.067.129-1.427 1.507-1.427 1.507l.15 1.286 2.417-2.526.97.332-3.393 3.182-.16 1.186 4.52-4.093 1.926.494-5.257 4.772 6.04 5.675 6.06-5.698-4.293-4.349 2.126.187c.895.947 1.88 2.452 3.527 3.256l-.162-1.134c-.084.053-1.998-1.67-1.694-1.95l1.692.116s2.444-.655-.618-.658c-4.017-.004-8.346-1.274-11.794-2.226-.384-.107-.971-.393-1.257-.403-.706.651-1.575.512.015.794zm-71.253-.106c.464.317.766.821.765 1.396a1.662 1.662 0 0 1-.41 1.082zm109.102 1.517c.864.001 1.563.649 1.562 1.449 0 .8-.702 1.445-1.566 1.444-.865 0-1.563-.649-1.562-1.448 0-.8.7-1.446 1.566-1.445zm-102.858.018-4.895 5.737 5.53 4.918 5.676-6.138zm109.73 1.602.389.062.015 3.919-.629-.124zm-38.149 1.774c.865.001 1.563.649 1.562 1.448 0 .8-.701 1.446-1.566 1.445-.864-.001-1.568-.649-1.567-1.449 0-.799.707-1.445 1.571-1.444zm-70.83.325c.865.001 1.563.654 1.562 1.453 0 .8-.701 1.446-1.566 1.445-.865-.001-1.563-.649-1.562-1.448.001-.8.702-1.45 1.566-1.45zm7.543 1.149-6.322 6.95 6.768 6.479-.018-1.447-5.258-5.11 4.94-5.312zm70.583.723-6.505 6.061 6.468 6.214.155-1.394-4.993-4.671 4.689-4.466zm-14.282.612.008 1.65 4.068 3.837-4.176 3.933.023 1.673 5.922-5.632zm33.28.763 7.65 1.347-.48 6.683-1.837-2.058c.314-.387.502-.868.502-1.39.002-1.278-1.118-2.312-2.5-2.314a2.662 2.67 0 0 0-1.1.235zm-103.126 1.067 3.767 3.672-3.608 3.762-.03-1.28c1.005-.4 1.71-1.324 1.711-2.4.002-1.113-.75-2.06-1.81-2.436zm13.984.943c-1.254.264-2.195 1.3-2.197 2.54 0 1.24.936 2.281 2.19 2.55l.002-.912c-.726-.242-1.246-.884-1.245-1.637 0-.752.524-1.39 1.249-1.629zm55.444.313c-1.162.705-.65 4.696-.007 4.632 1.383.001 2.5-1.034 2.502-2.313.002-1.28-1.113-2.318-2.496-2.32zm14.817.396c-1.383-.002-2.506 1.034-2.508 2.313-.001 1.279 1.118 2.317 2.501 2.319 1.101-.335.658-4.4.007-4.632zm22.214.324c.92.001 1.666.688 1.664 1.539a1.45 1.455 0 0 1-.226.765l-1.98-2.224a1.798 1.804 0 0 1 .542-.08zm-37.033.055c.92 0 1.66.692 1.66 1.543-.001.85-.744 1.54-1.664 1.539.085-.551-.309-3.146.004-3.082zm-69.378.27c.513.31.848.843.847 1.453a1.703 1.703 0 0 1-.785 1.416zm84.196.126c.207.624.464 3.19-.004 3.082-.92-.001-1.666-.693-1.665-1.543.001-.851.749-1.54 1.67-1.539zm-7.578 2.236-6.106 5.603 6.217 5.892 5.897-5.802zm-70.344.217-5.467 5.443 5.25 6.322 6.178-5.674zm-29.596.163c1.679.005 3.246.272 3.883 1.305 2.566 3.186 1.818 9.725.034 11.972-4.006 3.353-6.269 4.239-10.78 3.466.52-1.886-1.646-2.906-1.96-2.489-.039.007-.207.337-.005.36 1.554.177 1.43 1.893 1.246 1.9-1.72-.051-2.836-.025-3.01-.734-.108-.436.17-1.11 1.172-1.867 1.178-.869 6.595-.842 6.595-.842.02.007-.01-1.425.535-2.245.479-.72 1.141-1.52.687-1.852-.78-.336-1.308-1.146-1.418-2.081-.208-1.96.132-6.676.056-6.726.912-.079 1.958-.17 2.965-.167zm99.923 3.76c.865.001 1.569.649 1.568 1.449-.001.8-.706 1.445-1.571 1.444-.865 0-1.564-.649-1.563-1.448.001-.8.702-1.446 1.566-1.445zm-70.293.478c.865 0 1.563.649 1.562 1.448 0 .8-.701 1.45-1.566 1.45-.865-.002-1.568-.654-1.567-1.454 0-.8.707-1.445 1.571-1.444zm77.748 1.455-6.382 6.004 6.784 6.508-.212-1.763-4.885-4.662 4.79-4.607zm-14.399.096-.176 1.664 4.507 4.392-4.104 3.89-.064 1.89 6.04-5.873zm-69.79 2.184 3.598 4.68-4.294 3.473.114-1.328c1.246-.271 2.175-1.306 2.176-2.54.002-1.094-.724-2.028-1.755-2.418zm13.493.939c-.084.969-.143 1.752-.197 2.467-1.17.318-2.026 1.319-2.028 2.502-.002 1.05.67 1.954 1.638 2.37a77.997 77.997 0 0 1-.326 2.618l-4.3-5.833Zm101.876.397.146 16.35 12.756 12.309.073 45.888-52.75.232-13.541-21.31c-.296-.402-.66-.27-.955-.672l4.05-19.861c6.33 2.704 11.668-4.265 8.219-9.921 19.532-6.57 42.002-23.015 42.002-23.015zm-31.149.052c-1.383-.002-2.506 1.03-2.508 2.308-.001 1.28 1.118 2.322 2.501 2.324 1.384.002.861-.79.863-2.069.001-1.278.527-2.561-.856-2.563zm-14.583.12c-.697.73-1.099 4.662-.007 4.632 1.382-.038 2.506-1.04 2.508-2.318.001-1.28-1.118-2.313-2.501-2.314zm14.582.655c.92.001.499.834.498 1.685-.001.85.418 1.398-.502 1.397-.92-.001-1.666-.697-1.665-1.548.001-.85.749-1.535 1.669-1.534zm-14.583.12c.92 0 1.66.687 1.659 1.538-.001.85-.744 1.54-1.663 1.539.099-.256-.415-2.973.004-3.077zm-69.875.525c.533.306.889.852.888 1.476-.001.72-.476 1.338-1.153 1.6zm13.457 1.566c-.08 1.11-.137 2.022-.22 2.945-.474-.317-.785-.828-.784-1.41 0-.665.408-1.244 1.004-1.535zm63.432.611-5.952 5.49 6.181 5.954 5.892-5.75zm-70.714 1.342-6.232 4.615 4 5.687 1.394.776 5.705-4.502zm-24.994.353 14.643 7.25s-3.803 1.467-3.701 3.814c.147 2.626 1.846 4.773 5.224 3.972.775-.103 1.127.194 1.873 1.808 1.425 3.087 2.832 6.48 2.28 6.374-1.795-1.33-1.526-1.402-3.64-2.283-3.946-1.01-6.352 2.382-5.11 5.132 1.16 2.536 3.094 2.683 5.032 2.426.284.06.524.35.715.682.614 1.154 1.545 3.21 2.27 6.369 1.12 4.873 1.364 10.97.54 12.503-1.139 2.119-2.711 4.988-2.711 4.988-3.048-5.391-9.702-10.12-17.188-8.458-.252.145-.305.905.034 1.352 2.423 2.949 2.83 5.648 3.693 8.545 2.214 7.425 6.696 11.68 6.636 10.92l-2.357 3.936s-20.35.07-28.677-.034l.012-9.042 21.845-20.636-8.641-.349.35-35.619c3.16-.605 6.878-3.65 6.878-3.65zm95.81 2.399c.864 0 1.563.648 1.561 1.448 0 .8-.7 1.45-1.566 1.449-.864 0-1.568-.653-1.567-1.453.001-.8.707-1.445 1.572-1.444zm-71.486 1.379c.864 0 1.568.648 1.567 1.448 0 .8-.706 1.45-1.571 1.449-.865-.001-1.563-.654-1.562-1.453 0-.8.701-1.446 1.566-1.444zm64.484 1.406.151 1.427 4.283 4.16-3.977 3.73c-.58.732-2.06.57-2.526.62-.002.047.098.542.449.686.37.152.814.125.991.219.413.218.68.251.68.251l5.778-5.452zm.062 3.228c-1.041.302-.863 4.395-.007 4.632 1.383.002 2.506-1.034 2.508-2.313.001-1.279-1.118-2.317-2.501-2.319zm14.704.646c.105.38.255 3.048-.004 3.082-.92 0-1.665-.692-1.664-1.543.001-.85.749-1.54 1.669-1.539zm-14.705.13c.92 0 1.665.691 1.664 1.542 0 .85-.748 1.54-1.669 1.539-.224-.355-.591-3.032.005-3.082zm-51.566.679c-.249.087-.592.032-.863.032-.87.001-1.95-.57-2.188-.466-.272.118-.18.645-.167.881.03.219.692.293.963.458.437.267.318.36-.18.467-.441.096-.797.122-1.079.491-.174.23-.191.631.108.627 1.735-.021 3.94-.68 6.016-.033 1.186.394 1.96.64 2.15.488.396-.313-.993-1.543-2.323-1.775-1.34-.233-1.821-.14-1.387-.508.225-.191.527-.117.55-.254.062-.384-.244-.781-.607-.836-.39-.059-.697.32-.993.428zm7.463 3.866c-.141.002-.345.093-.62.297-.791.485-2.032 1.134-5.02.372-1.641-.501-3.485-.067-4.559.21-.837.217-2.036.428-2.995.022-.937-.418-1.963-1.051-1.773-.4.048.166.103 1.121.115 1.688.029 1.333.126 2.445 1.168 1.4.452-.452.996-.455 2.014-.082.727.266 1.236.446 1.8.106.798-.481 1.487-.601 2.96-.138.697.22 1.43.24 2.315-.262 1.47-.834 2.4-.02 2.964.835.445.678.67-.287 1.496-2.295.424-.958.558-1.758.134-1.753zm-7.048 7.458c-.8.417-1.917.541-2.729 1.035-1.718 1.092-.11 2.005 1.082 1.778.487-.102 1.053-.325 1.679-.708 2.15-1.316 3.34-1.122 3.54.475.217 1.726-2.657 2.5-2.39 3.303.36.522 1.755-.194 2.62-1.276 2.567-3.208-.248-6.457-3.802-4.607zm11.115 9.068c-2.915.302-7.304 1.597-9.508 3.125-1.733 1.245-2.207 1.557-1.475 2.055.67.455 1.186.472.264 1.342-.329.31-.887.96-.886 1.087.009.624 4.118 2.484 6.477 2.777 1.82.226 4.764-.027 6.35-.616 2.09-.778 2.162-1.31.187-.777-1.542.417-3.404.73-5.237.605-1.65-.112-3.267-.579-4.287-.917-2.525-.838-2.083-1.81.466-.978 2.937 1.177 6.744 1.162 10.126-.243 1.365-.567 1.748-1.014 1.995-.82.06.048.198.358.234.444.086.207.095-.53.217-1.7.102-.973.203-2.274.203-2.274s-.204.55-.2.808c.024 1.7-.868 1.707-3.39.402-2.963-1.51-4.405-1.365-7.224-1.352-1.235.005-1.29-.325.448-.853.828-.251 2.098-.658 3.99-1.214 1.565-.46 1.988-.978 1.25-.901zm-22.359 3.403c1.074.001 2.034.846 2.307 2.484l-1.068-.072c-.353-2.443-2.271-1.891-3.025-.439l-.94.023c.74-1.343 1.778-1.997 2.726-1.996zm2.73.154c.435-.036 2.456.873 2.58 1.152.134.306-.636.634-1.31.816-.776.21-.618.24-.862-.185-.34-.594-.939-1.76-.409-1.783zm-5.158.112c.02.264-.595 1.223-1.04 1.346-.524.146-.935-.496-.504-.823.386-.185 1.464-.898 1.544-.523zm20.788.153c1.36-.05 2.621 1.22 2.726 2.721l-.685-.015c-.63-3.125-3.227-2.42-3.813-.194l-.807-.213c.675-1.613 1.65-2.265 2.58-2.299zm-2.669.219c.372-.022.324.257-.124 1.087-.21.392-.362.614-.731.6-.502-.07-.838-.22-1.093-.588-.175-.364.234-.648 1.105-.902.398-.115.675-.187.843-.197zm5.71.238c.238.003.672.144 1.354.423 1.743.713 1.95 1.006 1.035 1.41a9.503 9.503 0 0 1-1.012.395c-.819.251-.793-.172-1.011-.696-.125-.296-.275-.565-.433-.88-.222-.44-.23-.654.067-.652zm-25.566 2.616c.29-.002.918.354 2.181.773 1.813.602 3.643.384 6.053-.323.993-.291 1.333-.475.94.058-.31.422-2.004 1.193-3.386 1.508-2.588.59-6.004-.54-6.003-1.765.019-.178.083-.25.215-.25zm8.558 2.029c.263.005.007.37-.543.935-.85.877-2.15 1.478-3.473 1.693-2.784.452-5.089-.252-5.109-1.694-.015-1.038.182-1.052 1.555-.395 1.165.558 3.785.696 5.898.069.694-.17 1.406-.56 1.53-.59a.555.555 0 0 1 .142-.018zm21.395 1.42c-2.113.513-4.356 1.03-6.407 1.392-2.197.395-5.397.025-7.068-.737-1.233-.563-1.666-.232-1.125.86.352.712.888 1.46 2.47 1.973 2.3.745 7.695-.454 11.704-2.363 2.331-.954 1.885-1.535.426-1.125zm-34.804 14.634 3.613-5.658c24.404 4.4 50.82 1.259 58.904.234 0 0 8.808 13.513 11.974 18.258.299.505 1.117 2.213 1.117 2.213l-83.348-.162c1.17-2.17 2.282-4.972 2.282-4.972-2.545-.947-4.516-4.468-5.735-7.439-1.07-2.607-2.918-8.971-5.36-12.074 4.281-2.238 15.03 2.78 16.553 9.6z" />
  <path fill="#d40000"
      d="m145.5 293.088-82.55-.097 10.785-19.868c20.063 2.834 39.846 2.507 59.406-.33l12.36 20.297zM32.718 277.106l-.231-9.598 10.716.033zm89.774-62.877-.078-30.954 15.094 9.208-.595 31.428zm-36.116-7.342c.558-11.07-2.291-21.403-4.484-31.878l15.656-9.483.804 34.946zm-41.141-29.14.48-39.913c14.045 18.732 22.571 37.377 24.987 63.04-3.828 1.423-7.562 2.993-11.487 4.26-4.505-9.596-9.05-18.888-13.98-27.388zm142.554 17.355c-12.982-15.293-20.797-36.251-24.855-61.33l11.911-5.33c3.94 8.857 7.77 17.87 12.757 25.223zm-51.304-27.272-1.219-33.5 11.925-6.68c.617 11.495 2.565 22.276 4.9 31.334zm-25.894-17.91-12.85-6.934.772-30.282 11.747 8.536zm80.401-83.876c.925-3.17 7.132-7.21 9.79-9.388l-.123 8.968s-9.196.59-9.667.42zm-90.132-4.958-13.312-21.07 83.632-.548-10.775 21.187c-22.143-3.771-41.095-2.103-59.545.43Z" />
  <path
      d="M138.92 250.501c.192.057 2.78-1.558 4.124-3.939 1.452-2.63.146-5.219.576-5.228 2.668.74 1.893 5.443.963 6.9-.79 1.267-2.298 2.119-3.857 2.361-1.54.239-1.806-.094-1.806-.094zm4.363-10.28c-.537.006-.77-.078-1.124-.417-.491-.472-1.08-.79-1.394-.749-.423.056-.615-.014-.618-.222-.003-.17.185-.199.88-.141.422.035 1.315-.58 1.315-.58l.072-44.468c3.778 1.454 9.429 2.295 13.77 2.777l.236 39.635s6.375-3.078 8.69-4.308l.134-35.478 4.514-.45-7.108-13.4c-1.001.71-15.028-.52-18.528-2.631l12.81-7.37c-1.295-3.668-2.472-7.174-3.554-10.889-.033-.114-.27-.102-.303-.216-.262-.906-.449-1.314-.694-2.227-.046-.17.029-.447-.024-.616-2.745-8.787-4.61-20.43-4.978-30.852.04-.099.448-.013.448-.013l-.073-6.367-.455.28.049-2.882.463-.421c.011-.559.055-1.613.055-1.613l-.592-.343.313-4.826.61-.083.346-7.641-16.224 9.683s-10.569-7.018-15.19-10.656c5.095-3.195 6.454-9.434 7.723-14.612 1.297-5.124 1.727-9.355 2.1-13.644.409-4.726 1.264-10.769 1.946-13.747.412-1.8.398-1.997-.176-2.028-.198-.01.007-.07.455-.132 10.395-.371 21.554 1.073 31.464 2.277 0 0 2.458-4.222 3.312-5.778 0 0 .496 1.43 1.026 2.425 1.202 2.11 3.949 4.349 6.3 5.556.877.535 3.402 1.32 5.109 1.59 1.004.154 2.622-.138 3.819-.577.412-.158.734-.357.737-.557.003-.202-.32-.406-.735-.771a5.64 5.64 0 0 1-1.051-1.34c-.718-1.352-1.813-3.622-2.425-5.745-1.722-4.224-2.997-9.322-6.964-11.572l2.747-5.066-86.266-.083L99.57 59.74s.403.62.534.84c.394.658.555.564.555.564a198.887 198.887 0 0 1-3.77 21.454s-.173-.562-2.708-.531c-7.419.09-10.028 7.71-3.829 11.093.585.322 1.579.939 2.56 1.417.281.135 3.835 2.07 3.835 2.07l-4.26-1.78-.373 45.75s-8.885-2.48-14.745-2.72l.115-39.667-8.19 4.074-.422 35.464-4.483.262s1.693 3.343 2.07 4.046c.755 1.407 2.658 4.535 3.957 6.513.46.7 1.535 2.256 1.535 2.256 5.973.154 12.085.99 17.637 3.28l-12.868 7.72c5.35 13.998 12.018 34.478 8.24 67.517l.901-.527.253-3.56 16.019-10.166 19.723 14.728s-1.433-.038-1.754-.05c-5.035-.17-8.589 4.587-9.811 8.562-2.154 7.006-2.438 8.735-3.441 19.848-.397 4.395-1.344 8.634-2.308 12.82-.509 2.105-.434 2.315-.434 2.315 10.042.308 20.531-.66 28.4-2.258 0 0 3.342-14.572 4.535-20.758 1.118.595 2.112.855 3.119.836 7.789-.773 7.135-10.648 3.12-10.93zM108.906 40.358l4.064 13.249-10 .843-8.28-14zm61.462-.111-10.306 20.148c-21.557-2.824-34.001-3.105-59.033.142L88.05 40.419l3.423-.023 9.786 16.06 14.57-1.325-4.005-14.69 3.849-.106 3.963 14.417 22.55-.083a15519.045 15569.981 0 0 0 2.165-14.27l4.163.048-2.794 14.588 13.316 1.56 7.719-16.302zm-28.918.152-1.331 12.257-18.652.11-2.966-12.403zm22.6-.208-6.354 14.542-9.225-1.151 2.538-13.204zm11.356 14.27c.407 1.243.822 2.461.921 2.71 1.5 3.774 2.117 5.02 3.1 6.276.161.207.21.183-.029.36-4.533 2.043-12.718-3.007-14.684-7.627.248-.446 1.347-2.319 1.347-2.319.57 1.033.14 2.052.515 2.979.091.395 1.033-2.668 1.033-2.668s.902 1.36 1.009 3.977c.016.404 1.179-1.753 1.179-1.753 1.456 1.817 1.37 4.965 1.37 4.965 1.645-1.842.622-2.9 3.154 1.803.294-.488.152-1.007.537-.87 1.114.401 2.68 1.125 3.252.981-.744-.863-2.187-1.319-2.582-2.464 0 0 1.145.09 1.22.04-1.297-.655-2.543-1.22-3.515-2.475.29-.098 1.464.089 1.413-.026-1.755-1.47-4.389-2.658-.577-2.322-2.476-1.615-5.236-2.732-.932-2.607-3.068-1.344-3.895-2.173-3.323-2.4.323-.128 1.24.384 2.705-.047-2.466-.933-3.482-1.36-3.58-1.666-.118-.372 1.054-.574 1.858-1.377 0 0-.993.207-1.427-.22 0 0 .485-1.284.857-2.025 3.138 2.64 4.368 6.373 5.179 8.775zm26.469-5.085s-13.899 13.81-20.78 20.663l6.714.1.254 37.441c2.34.294 6.397.014 7.93 1.456.952 1.306-2.741 3.866-4.818 3.326-1.385-.348-3.098-.076-3.098-.076l.081 41.72c-4.42-7.611-7.8-12.429-12.687-25.642 1.423-.912 2.886-1.615 3.13-1.769-1.88-4.207-3.175-10.82-.535-16.58l1.814 1.003c-1.336 3.515-1.833 8.714.335 13.523l.5-.484s-.537-.96-.882-2.018c-.306-.945-.749-2.163-.75-3.424-.085-2.234-.009-4.153.565-5.945.197-.585.478-1.456.626-1.724.146-.268.288-.517.287-.59-5.337-2.007-9.16-4.938-13.76-7.036a9.935 9.967 0 0 1-.437-.207c-.583-.301-.43-.404.484-.739 1.923-.704 2.707-1.561 2.667-3.286-.056-2.453-1.473-3.41-4.575-3.253-1.126.057-1.2.043-1.4-.314-.467-.833-2.083-4.143-2.084-4.275-.003-.078-.338-.823-.75-1.655-.635-1.328-1.369-2.698-1.667-4.084-.15-.689-.581-.96-.693-.249-.828 5.28-1.587 8.066-3.067 11.237-.44.944-.773 1.738-.739 1.766.142.117 2.61 1.18 3.765 1.621 4.507 1.722 6.555 2.783 5.858 3.037-.484.178-.659.488-.783 1.375-.327 2.324-.293 3.514.126 4.249.44.773.43.827-.293 1.262-.627.377-.492.378-.665 2.32-.204 2.304-.07 3.77-.07 3.77l1.122 1.334-1.145 1.313-.271 6.036 1.54 1.084-1.444 1.315.508 5.506s-.19.508-.44.76c2.41 23.285 11.813 46.76 25.925 62.768l.087 38.248 13.834 12.834zm-1.088 2.461-.004 3.015-11.78 11.7 11.763.204-.003 2.555-18.06-.055zm-.188 5.117.017 8.442h-8.792zm-80.682 4.157 1.834-.068c-.075 1.701-.815 9.558-1.697 16.438-.994 7.756-3.015 14.446-3.4 14.445l-1.77-.994c2.945-8.896 3.742-20.349 5.034-29.821zm8.32-.233c-.266 4.802-1.36 8.16-1.7 13.84-.422 6.935-1.723 15.57-5.108 22.728-1.14 2.411-3.243 4.673-6.191 5.739-5.169 1.867-9.545-4.06-6.047-8.41 2.765-3.439 7.086-3.39 8.393.095 1.08 2.88-2.408 6.49-5.185 5.363-1.93-.783-1.434-4 .737-4.754.9-.312 1.66.744 1.215 1.69-.351.743-.39 1.21.084.893 1.964-1.276.49-4.325-1.946-3.188-3.25 1.516-2.71 5.986.562 6.185 4.141.381 7.344-4.332 9.403-13.287 2.259-10.022 1.714-18.997 3.876-26.866zm-5.294.161 2.177-.057c-.174.744-.207 1.538-.357 2.448-.865 5.258-1.384 12.933-2.272 18.948-1.253 8.488-3.484 13.645-3.54 13.016-.247-1.03-.95-1.865-1.487-2.68 2.252-5.642 3.165-10.778 3.748-15.614.681-5.651.878-10.894 1.73-16.06zm-9.308.476 1.91-.089c-.76 11.254-2.557 21.455-3.618 25.833-.328 1.32-.437 1.892-.708 2.002-.301.122-.8-.326-2.018-.953 1.853.245 3.366-19.13 4.434-26.793zm2.98-.158 2.073-.186c-.313 4.069-1.065 10.464-1.904 16.23-1.017 6.973-2.342 13.15-2.998 13.057l-1.729-.556c1.157.336 4.036-20.463 4.557-28.545zm-3.937.193c-1.367 8.519-1.51 18.474-4.328 26.426l-1.941-.838c.531.161 1.92-5.174 2.396-11.212.414-5.256 1.449-10.974 1.757-14.142zm-3.203.309c-.776 3.008-.782 7.441-1.366 11.139-.723 4.578-1.5 13.877-2.646 13.662l-1.982-.932c1.04.291 2.88-17.326 3.994-23.583zm-5.223.74 2.014-.25c-.98 6.878-2.755 22.916-3.793 23.034l-1.886-.928c.74-2.817 2.618-12.395 3.665-21.856zm-1.252.266c-.845 7.561-1.638 15.218-3.39 21.096l-2.064-.864s1.443-6.466 2.129-11.007c.677-4.483.78-5.122.995-6.29.476-2.576.606-2.672.606-2.672zm88.443 7.858-.25 36.31-2.29-.083.145-36.287zm5.407.293c.865.001 1.563.649 1.563 1.449-.001.8-.702 1.45-1.566 1.449-.866-.001-1.564-.654-1.563-1.453.001-.8.701-1.446 1.566-1.445zm-36.898 13.28c1.617 2.744 2.86 3.75 4.286 4.276 2.576.95 6.133-1.376 4.844-4.64-.677-1.715-2.402-1.972-4.591-1.633 0 0-.942-.62-2.046-3.729-1.308-3.68-3.363-7.466-3.363-7.466-.137 4.613-1.317 9.416.87 13.192zm39.209-9.907c.865.001 1.568.649 1.567 1.448 0 .8-.707 1.446-1.571 1.445-.864-.001-1.563-.649-1.562-1.448.001-.8.702-1.446 1.566-1.445zm-4.294.052c.865 0 1.564.648 1.563 1.448-.001.8-.702 1.45-1.566 1.45-.865-.002-1.569-.654-1.568-1.454.001-.8.707-1.445 1.571-1.444zm-35.088-.39c1.449 2.786 1.752 4.883 3.157 7.408a136.373 136.373 0 0 0 1.168 2.046c4.604-1.994 6.365 3.046 2.632 4.65-3.675 1.578-7.8-4.443-7.39-10.92.114-1.786.433-3.184.433-3.184zm37.144 3.805c.864 0 1.563.648 1.562 1.448-.001.8-.702 1.45-1.567 1.45-.865-.002-1.563-.654-1.562-1.454.001-.8.701-1.445 1.567-1.444zm4.14 2.723-.005 3.094L192.871 91l.004-2.993zM93.537 82.831c1.563.02 2.312.45 1.276.828-3.435 1.257-4.963 3.265-5.157 6.777-.011 1.776.218 2.008-.962 1.016-3.013-3.909 1.343-8.649 4.843-8.62zm2.868 1.274a3.598 3.61 0 0 1 1.135.143c.92.268.583.287-.97 1.238-2.959 1.811-3.862 3.588-3.998 7.222-.039.547.084 1.002.033 1.231-.042.174-.27.118-.408.11-.565-.086-.911-.64-1.073-1.106-1.87-3.463 1.603-8.714 5.281-8.838zm3.201 1.206c.255-.004.478.034.66.119.722.334.456.382-.87 1.254-2.354 1.547-3.52 3.823-3.797 6.367-.177 1.632 1.182 3.574-1.227 1.972-1.692-1.302-1.349-4.68.452-6.997 1.11-1.43 3.408-2.702 4.783-2.715zm101.45-.585-.004 3.523-8.188 7.173.005-3.606zm-98.825 1.717c.929.01 1.345.561.259 1.191a8.279 8.279 0 0 0-4.095 7.534c.147 1.852.223 2.184-1.054.959-2.057-1.973-.598-7.321 3.397-9.317.543-.263 1.07-.372 1.493-.367zm2.707 1.029c1.526-.032 1.736.68.371 1.56-2.605 1.677-4.347 4.635-4.309 7.326.018 1.25-.088 1.406-.686.982-3.003-2.126.23-9.528 4.302-9.85.113-.009.22-.016.322-.018zm53.778.297c.373.025 1.038 1.25 2.08 3.812 1.004 2.47 2.627 5.586 2.972 5.704.106.036.565-.11 1.017-.33 3.434-1.66 5.842 3.066 2.457 4.82-2.408 1.246-4.677-.097-6.767-4.012-2.463-4.616-3.135-8.041-1.938-9.886.05-.077.109-.113.179-.108zm-50.988 1.195c.413-.017.813.056 1.19.237.888.427.758.742-.605 1.48-1.406.76-1.96 1.235-2.769 2.364-1.261 1.76-1.474 2.437-1.479 4.706-.002 1.849-.596 1.95-1.789.305-2.055-2.836 2.083-8.959 5.452-9.092zm3.422 1.663c1.347-.026 2.234.483.944 1.112-4.104 2-5.832 4.875-5.052 8.417.245 1.11-1.125.168-1.956-1.345-1.213-2.21 1.037-6.475 4.1-7.775a5.426 5.426 0 0 1 1.964-.409zm46.28 3.313c.256.017.553.648 1.208 2.204.427 1.013.998 2.227 1.274 2.695.275.47.467.91.423.98-.232.355-2.132-.253-2.77-.888-.985-.98-1.295-3.172-.627-4.425.196-.365.337-.577.492-.566zm39.385 2.718c.864 0 1.562.649 1.561 1.448 0 .8-.701 1.45-1.566 1.45-.865-.002-1.563-.654-1.562-1.454.001-.8.701-1.445 1.566-1.444zm-160.54 2.14c.865.001 1.564.654 1.563 1.453 0 .8-.702 1.446-1.566 1.445-.865 0-1.563-.649-1.562-1.448 0-.8.701-1.45 1.566-1.45zm64.675.514c1.71-.054 2.237.694 2.521 3.094.195 1.648.579 1.802 3.382 1.37 2.96-.456 3.949.287 4.156 3.12.164 2.247.143 2.229 3.509 2.254 3.312.025 3.667.335 4.043 3.474.28 2.333.184 2.267 3.442 2.23 3.608-.04 3.932.207 4.172 3.158.194 2.393.365 2.547 2.644 2.376 2.233-.167 6.35-.18 7.12-.024 1.92.39 2 .317 2.416-2.077.548-3.152 1.223-3.545 5.412-3.15 2.06.193 2.298.155 2.593-1.52.392-2.235.878-2.889.876-.953-.004 4.89-.372 5.117-3.9 4.243-2.65-.657-2.693-.155-2.974 2.205-.247 2.08-.628 2.932-1.456 3.264-.643.258-2.807.034-3.675-.194-.329-.087-2.388-.136-4.825-.115-5.87.05-5.933.063-5.923-3.75.006-1.605-.375-1.951-3.448-1.87-3.856.103-3.654.199-4.303-4.082-.226-1.484-.355-1.541-3.545-1.502-3.478.041-4.269.087-4.06-2.623.19-2.463-.459-3.11-3.36-2.49-3.092.662-3.68-.552-3.98-2.755-.275-2.04-.463-1.53-1.938-1.638-1.635-.12-1.441-1.82.294-1.975.296-.027.564-.063.807-.07zm98.277.86c.865.002 1.563.65 1.562 1.45 0 .798-.701 1.444-1.566 1.443-.864 0-1.563-.648-1.562-1.448 0-.8.702-1.445 1.566-1.444zm-4.406.076c.864 0 1.563.653 1.562 1.453 0 .8-.702 1.445-1.566 1.444-.864 0-1.563-.649-1.562-1.448 0-.8.702-1.45 1.566-1.45zm-156.204 2.221c.864.001 1.568.649 1.567 1.449 0 .799-.707 1.445-1.571 1.444-.865-.001-1.564-.649-1.562-1.449 0-.799.701-1.445 1.566-1.444zm-4.396.028c.865 0 1.563.649 1.562 1.448-.001.8-.702 1.445-1.566 1.445-.865-.001-1.563-.65-1.562-1.449.001-.8.701-1.445 1.566-1.444zm81.795 1.33 16.258 11.25 15.417-9.514-.098 3.477-15.306 9.386S119.284 109.09 113 104.583zm80.993.266c.864 0 1.562.654 1.561 1.453 0 .8-.701 1.445-1.566 1.445-.865-.001-1.563-.65-1.562-1.449.001-.8.701-1.45 1.566-1.449zm-26.659 1.864 3.853 5.804-3.857 2.58 3.5 4.151-3.787 3.58 4.154 2.447-3.894 5.001-5.385 2.204 5.392-6.533-4.45-2.832 4.23-4.204-3.783-4.599 3.927-2.83-4.236-6.443.278-.31zm-71.345-1.367 28.566 19.815s2.638 1.84 3.395 2.285c1.604.943 1.925.567 3.528-.448 3.616-1.98 12.37-7.472 12.37-7.472l-.074 2.85s-8.806 6.075-13.679 8.594c-.691.352-1.432.017-1.95-.347-10.61-7.791-21.466-15.345-32.222-22.978zm65.704.394c.12.2.505.272.69.538a894.237 894.237 0 0 0 3.557 5.04l-4.025 2.945 3.686 4.487-4.62 4.33 4.708 2.97s-2.932 4.139-5.147 6.03l-.05-3.217 1.894-2.106-2.167-1.382v-4.424l2.208-2.145-2.018-1.89.368-4.838 1.927-1.407-1.586-2.015zm-128.389.832c.865 0 1.569.648 1.567 1.448 0 .8-.706 1.445-1.571 1.444-.864 0-1.563-.649-1.562-1.448.001-.8.702-1.445 1.566-1.444zm164.388 5.475-7.964 6.788.004-3.088 7.965-7.21zm-159.844-3.514-.006 3.726-8.504 7.242.005-3.597zm159.843 4.466-.005 3.698-7.965 6.903.005-3.663zm-9.36.57-.006 120.228 9.223 9.048.003 2.998-11.674-11.212-.095-120.966zm-150.49-.54-.006 4.185-8.504 7.156.006-3.94zm58.112.838 11.223 8.1-.087 28.192c-4.545-3.168-8.194-5.058-11.644-6.666zm98.024 9.237c.865 0 1.563.648 1.561 1.448 0 .8-.7 1.445-1.566 1.444-.864 0-1.568-.648-1.567-1.448.001-.8.707-1.445 1.572-1.444zm-83.422 1.277v28.767l-2.21-1.873-.088-28.53zm-76.723.183c.865.001 1.564.649 1.562 1.449 0 .799-.701 1.45-1.565 1.448-.865 0-1.569-.653-1.568-1.453.002-.799.707-1.445 1.572-1.444zm162.23 2.248c.864 0 1.563.649 1.562 1.448-.001.8-.702 1.45-1.566 1.45-.865-.002-1.563-.654-1.562-1.454 0-.8.701-1.445 1.566-1.444zm-4.458.174c.865.001 1.563.649 1.563 1.448-.001.8-.702 1.446-1.567 1.445-.864-.001-1.563-.649-1.562-1.449.001-.799.702-1.445 1.566-1.444zm-79.797-.236 6.844 5.933-7.068 6.184-.053-2.859 3.933-3.497-3.942-3.79zm2.608.526 5.708 3.907-.897 1.002zm-78.272.78c.865 0 1.563.648 1.562 1.448 0 .799-.702 1.445-1.566 1.444-.865-.001-1.563-.649-1.562-1.448 0-.8.701-1.446 1.566-1.445zm-4.585.064c.864.001 1.563.654 1.562 1.453-.001.8-.702 1.446-1.566 1.445-.865 0-1.564-.649-1.562-1.448.001-.8.701-1.45 1.566-1.45zm112.3.662c1.085 11.51 1.837 19.476 5.037 30.332l-14.794 8.722.182-33.333zm40.7 26.383-.114 39.526c-13.924-18.371-21.415-39.836-23.807-60.172 0 0 7.494-3.182 11.132-5.135 3.84 8.352 2.177 8.34 12.79 25.78zm9.597-24.65c.865.001 1.563.654 1.562 1.453 0 .8-.701 1.445-1.566 1.444-.865 0-1.563-.648-1.562-1.448 0-.799.701-1.45 1.566-1.449zM36.9 131.12c.865.001 1.564.649 1.563 1.449-.001.799-.702 1.45-1.567 1.449-.864-.001-1.563-.654-1.562-1.453.001-.8.702-1.446 1.566-1.445zm87.212-.027 5.424 3.838.009 2.904-6.486-5.783zm-1.862 1.532 6.779 6.212-7.126 6.557-7.01-6.16zm51.108.278-6.548 2.474c2.474 20.979 8.947 36.709 17.687 49.465l.24-29.42c-4.51-6.623-7.923-14.598-11.379-22.519zm27.511.467-.004 3.3-8.156 6.899.004-3.287zm-78.628 1.72-4.33 3.899 4.35 3.9 4.196-3.89zm-81.414-.53-.005 3.508-8.098 7.213.005-3.73zm91.063 2.076.02 33.572-1.801.785.175-35.073zm-9.734.496 1.96 1.827-2.057 1.907-1.93-1.827zm78.708.446-.005 3.805-8.157 7.024-.13-3.628zm-90.158 14.16c8.398 6.736 14.842 16.955 21.927 22.671 2.865 2.302 9.875 5.9 13.658 7.007 4.302 1.26 7.65 1.777 11.969 1.854 3.41.06 3.425.078 3.425.078l1.44 2.375-2.387-.033-.168 8.379c2.527.116 5.003-.01 7.447-.288l.88 1.527c-17.392 2.16-34.382-3.955-44.593-11.754-4.657-3.55-8.44-7.882-13.043-14.187-8.858-12.813-24.483-19.013-39.042-19.175l-1.205-1.736 2.434.078s.248-1.61.284-4.346c.04-3.082.02-3.623-.24-3.712-1.763-.192-7.08-.097-6.925.112l-1.092-1.81c17.36-1.635 34.433 3.973 45.231 12.96zm-69.886-12.72-.005 3.442-8.097 7.044.005-3.446zm88.9.4-.218 3.076-3.86 3.522 4.096 3.687-.1 2.57-7.226-6.211zm-52.83 1.03c-.373 0-.597.029-.64.094-.095.148-.044 1.47-.366 6.253-.118 1.753-.25 1.76 1.34 1.938 1.334.044 4.318.754 6.304.974 1.673.207 1.324-.264 1.798-1.501.515-1.352.796-2.552 1.438-4.482.587-1.768.318-1.825-3.449-2.481-2.605-.454-5.309-.793-6.425-.795zm37.62-.247 6.538 6.048-6.454 6.045-.109-2.925c1.245-1.02 2.728-2.183 3.823-3.337l-3.794-3.59zm-32.83 1.918.7 1.07 1.686.258-.296 1.087.856 1.122-1.056.731.035 1.353-1.32-.045-1.149.758-.906-1.067-1.323-.041.074-1.516-.857-.671 1.026-.848-.13-1.344 1.628.254zm-10.633 1.808 1.039.632-1.059.673-.048 1.034-.648.509-2.369-4.301 1.544.581 1.181-.723zm19.057-.97c-.83.011-.941 1.431-1.844 4.116-1.261 3.747-1.35 3.4 1.057 4.185 1.072.349 3.121.992 4.206 1.464 2.642 1.152 2.656 1.148 3.645-.411.439-.692 1.272-2.39 1.855-3.272 1.453-2.197 1.492-2.091-1.171-3.281-1.567-.7-2.516-.987-5.812-2.228-.915-.344-1.5-.58-1.936-.574zm2.635 2.489 1.154.67 1.298-.498.258 1.29 1.419.511-.406 1.27.623.951-1.208.216-.881 1.758-1.326-.862-1.408.468-.39-.968-1.44-.646.525-1.065-.718-1.44 1.65-.114zm29.024 1.354 7.216 6.556-6.587 6.09-7.215-6.578zm75.378 1.284c.865.001 1.563.649 1.562 1.449 0 .799-.7 1.445-1.566 1.444-.865-.001-1.563-.649-1.562-1.448.001-.8.701-1.446 1.566-1.445zm-94.676.204c-.419.005-.66.361-1.024 1.048a41.731 41.731 0 0 1-1.873 3.021c-1.862 2.688-1.863 2.55-.01 3.607.785.448 2.594 1.828 4.148 3.13 1.438 1.205 1.282.92 4.388-1.944 2.026-1.869 3.274-2.393 2.488-3.38-1.916-1.522-3.486-2.634-5.563-4.09-1.372-.948-2.08-1.398-2.554-1.392zm19.633.755-4.268 3.856 4.798 4.03 3.988-3.778zM49.1 147.644l.004 30.204c4.675 7.415 9.476 14.898 11.968 23.239l6.879-3.107c-3.253-24.68-10.883-38.37-18.851-50.336Zm-12.242 1.882c.865 0 1.563.648 1.562 1.448 0 .8-.702 1.445-1.566 1.444-.865 0-1.563-.648-1.562-1.448.001-.8.701-1.445 1.566-1.444zm85.287 1.715 2.053 1.746-1.894 1.898-2.072-1.987zm76.907.376c.864.001 1.568.649 1.567 1.449 0 .8-.707 1.445-1.571 1.444-.865 0-1.563-.649-1.562-1.448 0-.8.701-1.446 1.566-1.445zm-4.202.142c.865 0 1.568.649 1.567 1.448 0 .8-.706 1.446-1.571 1.445-.865-.001-1.563-.649-1.562-1.449 0-.8.701-1.445 1.566-1.444zm-91.425-.205 1.187.816 1.397-.553.098 1.52 1.27.58-.802 1.075.481 1.417-1.374.04-1.07 1.294-.96-.853-1.87.115-.296-1.477-.809-.587.63-.976-.458-1.301 1.602-.1zm-68.872 1.528c.864.001 1.563.649 1.562 1.448-.001.8-.702 1.446-1.566 1.445-.865-.001-1.564-.649-1.562-1.448.001-.8.701-1.446 1.566-1.445zm4.503.048c.865.001 1.563.654 1.562 1.453-.001.8-.702 1.445-1.566 1.444-.865 0-1.563-.648-1.562-1.448 0-.8.701-1.45 1.566-1.449zm90.59 3.561-3.737 3.217 3.673 3.55-.115 2.717-6.516-6.025 6.639-6.011zm-36.89-.744L78.74 164.52l-.848-2.15 12.494-7.545zm104.169-.574c.866 0 1.563.653 1.562 1.453 0 .799-.7 1.445-1.566 1.444-.864-.001-1.563-.649-1.562-1.448.001-.8.702-1.45 1.566-1.45zm-83.954.771c-.648.042-1.31.75-2.569 1.982-1.234 1.21-2.69 2.632-3.002 2.834-.973.631-.926.785.764 2.544a58.466 58.466 0 0 1 2.153 2.427c.671.802 1.741 1.807 1.954 2.014.686.666 1.063.528 4.224-1.565 3.838-2.54 3.82-2.163.3-6.375-2.025-2.425-2.992-3.914-3.824-3.86zm-76.17.798c.865 0 1.564.648 1.563 1.448-.001.8-.702 1.445-1.566 1.444-.865 0-1.569-.648-1.568-1.448.001-.8.707-1.445 1.572-1.444zm82.13.624 2.527 2.513-.227.25zm81.807.658-.007 4.35-7.804 6.649.006-3.979zm-87.3 1.165.945 1.207 1.607-.093-.239 1.419.853.578-.834 1.074-.07 1.357-1.325-.293-1.089 1.207-1.067-1.16-1.26.134.045-1.41-1.285-.676.91-.917.03-1.58 1.87-.062zm38.565.137.775 2.195-19.505 11.703-1.7-1.811zm-51.022 1.407 1.55 1.082-20.474 12.138-.614-1.587zm-59.83-.539-.006 3.616-8.64 7.679.006-3.734zm81.001.966.25-.19 6.68 5.947-1.265 1.241zm-18.476 1.72.134 35.078-1.782-1.142.182-33.28zm1.098.812 1.45 1.183-1.392 1.256zm95.956-.183-.006 3.557-7.804 6.836.005-3.72zm-159.586 1.515-.005 3.343-8.64 7.616.004-3.377zm80.424.553c-.224-.003-.465.13-.819.386-.32.233-1.106.736-1.745 1.118-2.35 1.408-4.342 2.728-4.43 2.923-.182.404 2.17 3.25 5.435 6.66 1.284 1.342 1.248 1.6 2.54.41 1.027-1.075 4.79-4.02 4.682-4.808-.206-.904-1.496-1.932-4.698-5.946-.426-.506-.678-.738-.965-.743zm-14.493.349 5.12 6.794-.684.63-6.286-5.75zm-10.026.789-.035 32.727-9.641 6.313c.177.086-1.154-19.664-4.822-30.2zm23.948 1.182.941 1.629 1.428-.22-.19 1.495 1.208.88-1.192 1.52.156 1.082-1.4-.295-1.278 1.22-.874-1.555-1.84.025.26-1.491-1.283-1 1.402-.763.197-1.36 1.207.097zm8.357.263.157 1.338-.858-.691zm-24.624 2.346-.011-1.913 6.132 5.487-6.278 5.427.047-2.58 3.574-3.14zm50.745-.997.868 2.441-12.624 7.167-2.54-1.225zm41.552 4.083c.865.001 1.568.649 1.567 1.449 0 .799-.706 1.45-1.571 1.449-.865-.001-1.563-.654-1.562-1.453 0-.8.701-1.446 1.566-1.445zm-80.292 4.61-4.427-4.107.558-.557zm11.424-3.672c-1.505 1.185-4.714 4.606-4.71 5.171.004.564 4.432 4.113 7.097 5.689.836.494 1.168.51 1.492.063 4.616-6.358 4.811-6.144 2.99-7.388-1.852-1.313-4.016-3.266-5.495-3.938-.623-.284-.731-.11-1.374.403zm-16.612.29 7.297 6.486-6.784 6.034-7.022-6.868zm-74.598.398c.865.001 1.563.649 1.562 1.448 0 .8-.701 1.446-1.566 1.445-.864-.001-1.563-.649-1.562-1.448.001-.8.702-1.445 1.566-1.445zm92.307 1.414 1.228 1.013 1.466-.351.328 1.339 1.413.482-.76 1.362.102 1.717-1.423-.248-.99 1.408-1.443-1.348-1.657.127.094-1.502-1.464-.656.93-.986-.579-1.35 1.753.256zm69.846.687c.865.001 1.563.649 1.562 1.449 0 .8-.702 1.445-1.566 1.444-.865-.001-1.568-.649-1.567-1.448 0-.8.706-1.446 1.571-1.445zm-91.401 3.304 4.32 4.098 3.985-3.524-4.213-4.125zm87.087-3.252c.864 0 1.563.648 1.562 1.448 0 .8-.702 1.45-1.566 1.45-.865-.002-1.563-.654-1.562-1.454 0-.8.701-1.445 1.566-1.444zm-160 1.314c.864 0 1.563.654 1.561 1.453-.001.8-.701 1.445-1.566 1.445-.865-.001-1.563-.65-1.562-1.449.001-.8.702-1.45 1.566-1.45zm4.584.02c.865 0 1.563.653 1.562 1.453 0 .8-.701 1.445-1.566 1.444-.864 0-1.563-.649-1.562-1.448.001-.8.702-1.45 1.566-1.45zm72.437.41 1.965 1.88-1.824 1.773-2.032-1.94zm26.725 1.32c-1.008.666-3.752 5.457-4.223 6.511.003.254 1.32 1.029 2.967 1.743 1.405.609 5.963 2.306 6.382 2.4.917.207 1.075-.114 1.228-.666.082-.292.446-1.406.851-2.617 1.419-4.242 1.842-4.041-.26-4.688-.723-.223-2.996-.935-4.429-1.547-1.418-.607-2.06-1.144-2.516-1.137zm58.354.838c.865 0 1.568.649 1.568 1.448-.001.8-.707 1.45-1.572 1.45-.864-.002-1.563-.654-1.562-1.454.001-.8.702-1.445 1.566-1.444zm-74.728 1.895.205 28.45-2.405-1.744-.025-28.544zm-10.774 4.835-6.655 6.247-.038-3.186 3.726-3.112-3.784-3.669.082-2.462c2.422 1.837 4.488 4.097 6.669 6.182zm-74.478-5.548c.865 0 1.563.648 1.562 1.448 0 .8-.701 1.45-1.566 1.45-.864-.002-1.568-.654-1.567-1.454.001-.8.707-1.445 1.571-1.444zm102.577.062 1.34 1.036 1.123-.623.644 1.066 1.612.21-.725 1.624.945 1.257-1.573.267-.393 1.733-1.54-.85-1.172.468-.85-1.47-1.824-.07.998-1.594-.936-1.263 1.323-.079zm-20.514.088-.015 2.51-2.896 2.706 2.899 2.926-.02 2.917-6.003-5.666zm30.834 1.686c-.605.015-.612.607-1.078 2.53a62.362 62.362 0 0 1-.714 2.486c-.88 2.88-.99 2.933 1.711 3.432 1.564.218 8.334 1.684 8.474.687.173-1.696.288-5.688.314-7.044.06-.455-.055-.883-.547-.938-3.087-.345-6.52-1.099-8.16-1.153zm-26.38.09c3.842 2.432 7.56 4.91 11.977 7.13l.07 29.259-12.114-8.366zm77.179.177-.005 3.586-8.093 7.128.005-3.426zm-47.354 1.187.698 1.389 1.473-.452-.01 1.658 1.31.768-1.583.672-.142 2.017-1.603-.458-1.322.754-1.167-1.137-1.431-.026.527-1.793-.923-.82 1.344-.608.111-1.601 1.436.796zm-111.965-.402-.005 3.458-8.81 7.478.004-3.022zm122.98 2.316 1.97 3.09-.715 1.246-1.322-.599-1.455.495.225-1.65-1.121-.827 1.137-.963-.05-1.212zm-52.122.956 6.738 6.473-6.883 6.554-6.737-6.565zm88.45 4.154-8.093 6.933.005-3.378 8.093-7.077zm-159.314-3.017-.005 3.374-8.81 7.613.004-3.126zm70.877 1.292-4.387 4.004 4.34 4.039 4.395-3.93zm.056 2.298 1.874 1.783-1.796 1.72-1.932-1.741zm-7.528 2.455 6.68 6.36-.768.837-5.922-4.265zm14.36.532.173 2.867-3.653 2.876 3.328 3.238.088 2.978-6.333-6.044zm77.942 3.004c.865.001 1.563.649 1.562 1.449-.001.8-.701 1.445-1.566 1.444-.865-.001-1.564-.649-1.562-1.448 0-.8.701-1.446 1.566-1.445zM37.072 201.09c.864 0 1.563.648 1.562 1.448-.001.8-.702 1.45-1.566 1.449-.865 0-1.564-.654-1.563-1.453.002-.8.702-1.445 1.566-1.445zm32.027.925-4.946 6.82 3.886 2.415-3.69 4.573 3.826 4.268-3.862 3.055 3.906 6.202c-1.556-.287-3.138-1.248-4.569-1.916l-2.945-5.196 3.4-2.696-3.44-3.702 3.618-3.954-3.62-2.355 3.96-5.615zm129.753 1.067c.864 0 1.563.648 1.561 1.448 0 .8-.7 1.445-1.566 1.444-.865 0-1.563-.649-1.562-1.448.001-.8.701-1.445 1.566-1.444zm-97.078-.23 34.034 24.322-.144 3.221-34.04-24.256-14.482 9.428.134-3.437zm92.906.418c.865.001 1.563.649 1.562 1.448 0 .8-.701 1.446-1.565 1.445-.866-.001-1.564-.649-1.563-1.448 0-.8.701-1.445 1.566-1.445zm-79.3 3.004-.359.062-3.713-2.513.812-.843s2.433 2.492 3.26 3.294zm-75.998-1.49c.864 0 1.568.654 1.567 1.453-.001.8-.707 1.445-1.571 1.444-.865 0-1.563-.648-1.562-1.448 0-.8.701-1.45 1.566-1.45zm-4.217.014c.865 0 1.568.648 1.567 1.448-.001.8-.707 1.445-1.571 1.445-.865-.001-1.563-.65-1.562-1.449 0-.8.701-1.445 1.566-1.444zm161.81 2.105c.865.001 1.563.654 1.562 1.453 0 .8-.7 1.445-1.566 1.445-.864-.001-1.563-.65-1.562-1.449.001-.8.702-1.45 1.566-1.449zm-159.929 1.409c.865 0 1.563.653 1.562 1.453 0 .8-.702 1.445-1.566 1.444-.865 0-1.563-.648-1.562-1.448.001-.8.701-1.45 1.566-1.45zm163.52 2.892-.003 3.195-7.65 6.838.004-3.084zm-103.123.835c1.136-.01 2.659.047 4.707.114 1.755.058 3.694.095 4.31.08 2.428-.057 3.22.708 3.261 3.134.036 2.157.027 2.15 3.079 2.273 3.68.147 4.651 1.022 4.697 4.236.017 1.251 1.11 1.743 3.254 1.464 3.378-.44 4.034-.01 4.422 2.893.322 2.423.147 2.299 3.242 2.282 3.328-.017 4.07.5 4.106 2.87.02 1.375.383 1.789 1.669 1.897 1.374.116 1.966.77 1.286 1.415-.124.117-.76.189-1.764.201-2.12.026-2.82-.59-3.211-2.84-.273-1.56-.444-1.642-3.264-1.573-3.597.088-3.878-.113-4.264-3.016-.33-2.492-.783-2.749-3.876-2.212-2.25.39-3.439-.528-3.728-2.869-.323-2.627-.45-2.723-3.64-2.83-3.197-.11-4.086-.63-4.111-2.407-.04-2.753-.415-3.003-4.346-2.898-1.908.051-3.86.018-4.983-.09-2.382-.231-2.37-.242-2.61 1.872-.36 3.16-.862 3.45-5.382 3.137-1.888-.131-2.022-.05-2.154 1.278-.164 1.664-.831 2.688-1.342 2.06-.267-.329-.269-.36.005-2.794.304-2.724.338-2.745 4.179-2.467 2.603.188 2.477.275 2.758-1.911.342-2.66.29-3.273 3.7-3.3zm-56.067-.317-.006 3.506-8.938 7.654.005-3.397zm27.731 4.153 1.94 2.457-.636 4.563-1.652 1.147 1.166 2.17-.378 2.666-.463.244-3.234-5.822 3.841-3.117-3.925-4.437 3.72-4.625-3.851-2.51 4.64-6.3c.804-.9.846 2.678.846 2.678l-1.922 2.684 2.143 1.715h.005l.001 4.25-2.24 2.237zm2.455-2.063.217-5.722-1.671-1.201 1.294-1.983-.081-5.069-.389-.247c-3.167-36.291-22.347-57.755-25.347-62.622 0 0-.667-.497-.543-1.744.054-.541.085-3.739.066-7.108-.097-17.2.077-28.984.077-28.984L31.082 85.195l.075 5.093.692.463-.035 23.189-.587.03s-.19 6.234-.15 10.516l.84.023-.073 15.934-.715.079.026 10.323.778-.001s.167 10.824-.12 16.088l-.579.031.025 10.262.657.047.022 14.678-.81.112.207 9.69.66.034c.23 5.987.102 16.336.102 16.336l-.756.03.172 9.62.542.034-.182 16.887-.494.054.175 9.975.533.046-.101 8.295-.367.057-.092 3.102.39.822.009 11.052-.297.12-.095 5.551 21.93-20.45-8.062-.234.015-6.617c.018-10.921.187-19.735-.152-30.388-.105-.095-.905-.214-1.778-.262-4.15-.23-5.275-.542-5.288-1.462-.017-1.14 1.867-2.548 3.428-2.567.353-.004.946-.328.946-.328l-.33-121.176-9.786-9.502.046-3.013L44.56 99.6l.283 121.115.458-.2.091-40.673c6.176 8.565 9.635 17.05 13.065 25.535 0 0 1.218-.386 1.268-.41a6.52 6.52 0 0 0-.435-.143c-3.495-10.843-7.928-18.707-13.678-26.917l.138-39.418c14.728 19.291 21.837 36.632 24.766 61.617l-7.473 3.44-.726.894-5.643 2.601-.54-.833-3.422 2.186c2.635 4.265 2.529 10.39.371 13.632l.926.534c.063.234 3.552-6.629-.33-13.619l2.55-1.448c3.665 7.03 1.948 14.595.214 16.542 0 0 2.66 1.571 4.569 2.533 2.076 1.046 3.922 2.002 6.411 2.748 1.534.58 2.511-.099 2.506-.113l.751-3.92-1.183-1.497 1.383-1.026.637-6.005-1.481-1.387zm128.999 1.759-.005 3.868-7.65 6.685.005-3.807zm-159.196 3.95-8.938 7.567.004-3.152 8.938-7.74zm156.146 5.344c.865.001 1.568.654 1.567 1.453-.001.8-.707 1.445-1.571 1.444-.865 0-1.564-.648-1.563-1.448.001-.8.702-1.45 1.566-1.449zm-152.592 2.159-.042 35.696h-2.356l.16-36.135zm-7.884-.335c.865 0 1.563.649 1.563 1.448-.001.8-.702 1.446-1.566 1.445-.865-.001-1.564-.65-1.563-1.448.002-.8.702-1.446 1.566-1.445zm158.244 1.572c.864 0 1.563.648 1.562 1.448-.001.8-.702 1.45-1.566 1.45-.866-.002-1.569-.654-1.568-1.454.001-.8.707-1.445 1.572-1.444zm4.217.066c.864.001 1.563.649 1.562 1.448-.001.8-.702 1.446-1.566 1.445-.865 0-1.569-.649-1.568-1.448.001-.8.707-1.446 1.572-1.445zm-160.023 1.98c.865.002 1.569.654 1.568 1.454-.001.8-.707 1.445-1.572 1.444-.864 0-1.563-.648-1.562-1.448.001-.8.702-1.45 1.566-1.45zm80.598.141c8.154.944 5.983 8.852 2.542 10.491-4.684 2.01-8.427-2.054-5.431-6.165 2.197-3.016 6.367-1.014 4.75 2.292-.91 1.862-2.793 1.642-2.773-.242.675-1.79.057-1.153-.469-.521-1.652 1.982 1.674 4.092 3.387 2.135 1.052-1.2 1.274-2.628.916-3.77-.61-1.948-3.041-3.09-5.795-1.29-3.293 3.641-5.057 8.356-6.035 13.631-2.083 11.227-2.204 23.042-3.983 26.036l-1.93-.045c2.826-12.849 2.856-23.849 5.867-33.977 1.49-5.021 5.28-8.59 8.955-8.575zm-84.876-.041c.865 0 1.563.653 1.562 1.452-.001.8-.701 1.446-1.566 1.445-.865-.001-1.563-.649-1.562-1.448.001-.8.701-1.45 1.566-1.45zm33.091.238c-2.15.037-4.336 1.681-4.17 3.786.2 2.555 1.835 3.695 4.528 3.441 1.44-.135 1.402-.156 2.37 1.45.87 1.445 3.164 7.615 3.177 8.55-1.104-1.36-3.683-3.882-6.067-3.78-2.56.17-4.717 2.41-2.787 5.588 1.027 1.56 2.856 1.866 4.718 1.354 2.778 4.008 3.298 8.022 4.177 12.678 0 0 1.114-9.963 1.452-13.938.642-6.091 1.547-10.035 4.103-14.862-2.124-1.137-4.398-2.03-6.687-2.849-.908-.325-1.864-.331-2.765-.876-.621-.388-1.332-.554-2.049-.542zm129.387.969c.864 0 1.563.649 1.562 1.448-.001.8-.702 1.45-1.566 1.45-.866-.002-1.564-.654-1.562-1.454 0-.8.7-1.445 1.566-1.444zm-124.987 3.044c1.608 2.424 3.175 5.921 3.311 8.123.053 1.456-.261 3.244-.53 4.916-.134.827-.47.02-1.079-1.767-2.524-7.416-3.192-8.836-4.955-8.467-1.003.209-2.047.244-2.73-.106-2.231-1.142-2.43-4.96.83-5.687 2.579-.516 4.235 1.603 5.153 2.988zm-.055-1.842c3.248 1.188 5.32 2.974 4.724 5.877-.262 1.092-.438 1.991-.754 1.875-.366-.135-.867-1.446-1.873-3.7-.228-.73-2.54-4.038-2.097-4.052zm53.78.19c.172-.021.441.128.808.446 2.559 2.336 1.16 7.592-2.254 9.102-1.405.892-3.99.742-4.003-.122-.004-.336.078-.426.437-.43 2.87.023 5.927-3.662 5.088-7.592-.104-.59-.296-1.375-.075-1.403zm-89.32 1.17c.865.001 1.563.649 1.562 1.448 0 .8-.701 1.45-1.566 1.45-.864-.002-1.568-.654-1.567-1.454.001-.8.707-1.445 1.571-1.444zm92.01.556c.18-.025.802.223 1.214.683 2.41 2.693.444 7.272-3.353 8.838-1.45.723-2.67.222-2.361-.523 2.586-.989 5.028-3.552 4.778-7.061-.096-1.231-.54-1.901-.277-1.937zm-51.163.426.877.387-.364.702c-.168-.42-.165-.584-.513-1.089zm53.908.357c.192-.004.622-.063 1.029.303 1.559 1.405 1.8 5.336.298 7.278-.705.91-2.89 2.564-3.54 2.73-.759.085-1.286.188-2.546-.344-.423-.013.19-.382.986-.806 2.828-1.505 4.706-4.194 4.219-6.72-.302-1.564-.814-2.434-.446-2.441zm2.86 1.272c.749.06 1.327.669 1.683 1.186 1.851 2.465.303 7.646-3.495 8.716-2.53.712-3.471.034-1.422-1.068 2.943-1.583 4.473-4.681 3.626-7.145-.406-1.177-.79-1.665-.392-1.69zm3.06 1.807c.884.013 1.567.64 1.878 1.287.73 1.591.612 3.82-.344 5.387-.953 1.563-2.774 2.862-4.795 3.05a2.995 2.995 0 0 1-1.385-.188c-.887-.355-.581-.407 1.09-1.213 2.665-1.285 4.242-3.959 3.843-6.916-.15-1.109-.632-1.405-.288-1.407zm-96.427-.655-.005 3.82-8.7 7.575.005-3.731zm73.835.584c.165.159 1.144 2.327 1.266 2.773-2.039 2.705-2.62 7.148-2.94 10.513-1.162 9.537-2.372 21.054-2.894 21.16l-2.262.044c.861.533 1.99-15.816 3.759-26.172.136-.812 2.025-8.803 3.07-8.318zm26.287 1.723c2.982 1.871 1.38 7.699-2.772 9.135-1.508.534-2.061.602-2.742-.012-.43-.387-.84-.518.255-.874 3.07-.737 5.24-3.384 4.727-6.462-.06-.749-.819-2.727.532-1.787zm-24.146 1.585 1.357.809c-1.47 4.034-2.018 8.793-2.623 13.4-.733 5.572-1.379 11.31-2.264 16.78l-2.078.068c1.09-3.382 1.603-12.826 2.688-20.739.632-4.005 1.322-9.513 2.92-10.318zm2.354 1.321 1.74.935c-.619 2.251-1.35 4.719-1.713 7.08-.806 5.252-1.13 11.622-2.982 21.423l-1.882.145c.478-3.148 1.385-10.16 2.16-16.61.898-7.49 2.302-13.155 2.677-12.972zm-78.337-.347-.005 3.75-8.7 7.387.005-3.454zm81.28 1.536s1.496.782 1.685.873c-1.136 4.137-1.693 7.983-2.256 11.734-.758 5.059-1.322 9.981-2.367 15.541l-2.007.115c1.005-4.264 2.162-14.283 3.07-21.347.528-4.101 1.612-6.996 1.875-6.916zm-47.851 8.365c.021 2.827-.655 7.208-.655 7.208-.264.14-1.076-6.419-3.936-9.389-3.492 1.532-6.497-2.075-4.114-4.55 4.65-3.688 8.706 4.206 8.704 6.731zm50.467-7.234 2.426 1.039c-.298-.048-.873 1.499-1.435 3.911-1.713 7.35-3.421 21.84-3.697 21.834l-1.873.14c.612-3.891 1.454-10.04 2.334-15.479.997-6.161 1.926-11.414 2.245-11.445zm3.372 1.413 1.844 1.028c-.16-.108-.83 1.717-1.156 2.988-1.672 7.332-2.431 13.762-3.468 20.874l-2.013.24c-.151.206 1.757-13.998 3.324-21.172.536-2.45 1.321-4.04 1.47-3.957zm2.875 1.28 1.977.906c-2.158 5.625-2.365 11.01-4.443 22.303l-2.09.346c.852-7.23 2.056-14.996 3.78-22.072.238-.95.755-1.463.776-1.483zm2.827 1.325 2.224.828-4.689 20.734-1.878.233c1.178-5.978 1.793-12.89 3.378-18.338.336-1.155.525-2.453.965-3.457zm-96.905 3.167c.865.001 1.569.65 1.567 1.448 0 .8-.706 1.446-1.57 1.445-.865 0-1.564-.649-1.563-1.448.001-.8.702-1.445 1.566-1.444zm2.04 3.397c.865 0 1.568.653 1.567 1.453 0 .8-.707 1.445-1.571 1.444-.865 0-1.563-.649-1.562-1.448.001-.8.701-1.45 1.566-1.45zm-4.074.085c.865 0 1.568.648 1.567 1.448-.001.8-.707 1.45-1.571 1.45-.864-.002-1.563-.655-1.562-1.454.001-.8.702-1.445 1.566-1.445zm1.948 3.339c.864 0 1.563.653 1.562 1.453 0 .8-.702 1.445-1.566 1.444-.865 0-1.568-.648-1.567-1.448.001-.8.706-1.45 1.57-1.45zm14.149 4.85-18.795 17.559-.053-3.514 12.882-11.666-12.965-.198.034-2.378zm-8.608 3.342-10.07 8.864-.071-9.027zm10.742.662s-.056.323.887 1.854c2.737 4.413 3.365 8.488 5.784 13.218 1.203 2.587 3.919 5.202 4.526 5.35l-3.029 5.108 85.243-.061-13.614-22.042c-21.663 3.68-41.12 3.007-59.407.022-1.05 1.301-2.203 3.95-3.307 5.866-2.722-6.8-11.452-11.198-17.083-9.315zm3.102.594c4.504-.054 8.255 1.931 11.584 6.135 1.059 1.34 1.47 1.944 1.465 2.506-.113.65-1.513 2.725-1.513 2.725s-.807-2.063-.997-3.061c-1.217 4.122-1.694-.658-2.158-1.919-1.483 3.983-2.272-1.495-2.195-2.972-2.015 2.552-1.88-1.644-2.858-2.425-.028 2.214-1.434.698-3.258.224.953 1.238 2.81 2.071.437 2.342 2.364 1.514 3.55 1.284 1.252 2.115 1.768.905 4.681 1.995 1.458 2.585 1.968 1.15 5.133 1.637 1.727 2.73 2.57 1.457 5.993 1.357 1.177 2.52 1.743.945 4.817 1.302 1.375 2.118.532.22 1.452.793 1.452.793l-1.49 2.17s-.535-.04-.9-.394c-1.577-1.528-3.11-4.335-4.48-8.268-1.007-2.894-2.207-5.95-3.532-8.488-.715-1.343-.649-1.41 1.454-1.436zm76.12 5.052 11.755 18.655-2.795.037-10.379-15.972-14.035 1.449 4.601 14.273-4.17.1-4.121-14.04c-7.834.283-15.308.354-21.823-.137l-2.228 14.235-3.98-.128 2.541-14.09-13.165-1.573-7.166 15.798-4.114.068c2.661-4.14 9.31-17.505 10.551-18.821 28.68 4.28 43.577 2.009 58.529.146zm-2.758 4.318 8.899 14.351-14.329.043-4.794-13.284zm-53.61.356c2.825.765 5.867.934 8.93 1.042l-2.623 12.827-12.695-.04zm35.736 1.553 3.35 12.463-23.9.085 1.99-12.418c6.272.355 12.4.042 18.56-.13z" />
</svg>
