<svg xmlns="http://www.w3.org/2000/svg" width="167" height="251.6" viewBox="33.4 40.8 167 251.6">
  <path fill="#e2cf00"
      d="m84.26 272.006 56.898 1.413c5.005 6.492 15.051 19.728 15.051 19.728l-91.946.68zm-23.84 4.385c2.484-4.595 2.985-9.033 2.553-15.435-.342-4.912 2.987-8.72 6.39-7.238 2.633 1.146 1.389 5.786-1.334 4.79-1.042-.382-1.96-.045-1.833 2.163.213 5.44 1.738 11.573.368 16.78-.963 5.062-8.448 2.691-6.144-1.06zm-23-7.217c-2.874-4.051 2.339-7.809 5.578-5.93 1.538.678 1.312 2.134-.627 1.348-2.705-1.098-5.645 2.724-3.294 4.277 1.082.715 1.497.622.675-.27-2.185-2.386 3.445-3.408 3.273-1.845-.395 1.904-.447 2.706-.636 3.08-1.155 1.658-3.352.798-4.969-.66zm8.175-16.937c-3.108-3.644.496-6.48.447-6.376.934-.93-7.369-15.49-6.309-15.58 10.595-.995 21.292-.152 31.902.207.003 0-5.711 9.425-7.993 14.091-.919 1.88 1.193 4.109.306 5.505-2.747 2.76-1.066 5.84-2.77 5.97-4.774-.593-9.492-1.353-14.795-.393-.39-.002-.42-2.073-.788-3.424zm46.4-100.653c5.213 25.345-2.83 52.145-21.027 69.762-2.541-2.292-4.476-6.63-7.007-9.465-7.062-2.008-12.163.29-17.135 2.54-4.393-2.381-9.348-3.793-14.186-3.757l-.134-3.917c4.895-.074 10.062.371 14.407 2.899l6.834-2.538-21.15-20.6.308-3.502 25.668 24.316 3.322.126c-7.202-18.072-.652-46.689 30.1-55.864zm35.803 31.935 3.638 16.552s-19.833 19.642-32.08 28.952l-9.184-.822s12.668-20.68 10.357-19.106zm74.018 23.039c-8.81 9.07-19.308 14.812-30.967 21.14-4.62-4.846-10.23-10.178-13.46-14.95 10.168-4.985 19.856-8.837 29.834-17.6-.547.566-12.69 4.329-12.649 3.89-.447 1.878-.19 3.04-2.166 3.525-2.318-3.042-4.562-5.513-8.236-6.885-1.545.121-3.59-.836-3.59-.836 1.033-.192.643-11.822.07-11.958 0 0 .304-.344 3-.28 4.82-.284 7.962-5.682 10.96-7.522 9.343-.668 17.61.228 26.812.042-.129 10.35.453 21.083.392 31.434zm-59.154-26.504c-.232-.44-2.493-17.601-.193-28.345.426-2.52 4.709-3.355 5.539-5.23 1.383-4.077-.632-9.132.472-13.705 1.123-4.654 3.507-7.264 5.6-10.717 2.266-3.741 5.507-8.407 9.087-11.188 1.05-.946 4.687 2.137 7.387 7.448 7.904 4.682 18.106-1.26 18.106-1.26s3.93 3.013 12.845 4.693l-.171 3.221c-.05.937-10.032-1.046-12.172-2.927 0 0-7.468 2.283-7.47 2.706-.009 1.806 19.576 18.857 19.576 18.857l.087 4.181c-2.929-3.833-25.909-22.303-25.909-22.303 4.962 27.954-7.36 45.287-32.784 54.57zm-32.991-5.627-.35-16.45 16.817.268.599 16.622zm-76.86-18.156c.453-.581-.482-30.658-.413-30.658 10.76-9.85 21.26-15.333 31.79-21.303 4.721 4.395 8.734 8.104 12.201 13.417l-14.527 8.224c.539 2.024-.893 2.745 8.398 10.661.16-.538 3.244-2.125 3.768.275-1.293 5.052.509 9.362.734 12.083-1.284 1.587-4.124-.138-4.124-.138-1.835-1.796-9.11 6.994-11.178 7.97-9-.356-27.157.123-26.649-.53zm101.62-53.127c.117-.106 9.153.11 9.03.41-1.669 4.098-5.797 11.365-9.583 19.755-4.35 7.146-10.352 11.338-15.482 16.01-4.102 3.734-7.772 9.633-10.551 8.084-1.673-5.095-2.041-9.608-3.886-15.252-.84-3.343 4.389-5.493 30.471-29.007zm39.701-28.002c3.303 1.33 12.607.688 14.086.104 1.884 1.203.695 2.79.45 3.672 1.93 2.296 2.988 3.112.763 6.788-.504-.003 6.692 15.286 6.888 15.298 0 0-7.677-3.435-10.378-5.744l-5.345 6.541-6.125-7.445c-.026.67-11.927 7.932-12.069 7.579-.37-.35 10.896-11.517 8.71-18.116-.527-1.59.709-3.198 1.554-4.592.58-.958-.182-2.817 1.466-4.085zm-6.148-1.397c.505-.534-2.796-14.343.897-19.892 1.563-2.017 4.369-2.107 5.532-.444.883 2.31-1.805 5.505-2.35 7.069-1.76 4.357.786 10.13-.496 14.249-3.82 8.994-10.44-.938-3.583-.982zm25.127-6.002c-1.988.07-.57-5.448-.233-7.028-.007-.314 3.643-1.087 4.944 1.092 2.102 3.258-.47 7.341-4.711 5.936zm-23.538-27.97-18.835 21.09c-18.913-2.12-37.896-3.501-57.262-.84l-15.45-20.278z" />
  <path fill="#131f67"
      d="M203.544 38.388 30.386 38.04l.461 256.918 172.767-.109zm-39.847 1.378c1.899.01 3.798.023 5.697.037l-20.864 23.63-.51.157c1.36 3.773 3.305 8.477 5.168 12.052 2.967 5.777 10.444 16.404 5.695 24.852-.465.724-.896 1.075-1.472 1.07-.8-.008-.782-.444-.301-1.291 1.057-1.867 1.793-6.3 1.388-8.65-.259-1.5-1.14-3.813-2.82-7.313-7.803-13.577-10.224-20.806-9.777-20.804a1.902 1.902 0 0 0-.565-.21l-.772-.244c2.682 8.572 7.077 15.79 10.55 22.47 2.846 6.205 3.141 8.61 1.61 13.11-.592 1.742-1.653 2.854-2.69 2.844-.776-.007-.731-.152-.196-1.035 2.785-4.597 2.175-9.633-1.223-15.504-4.927-9.693-7.882-15.824-9.623-22.036-.044-.002-.907-.277-1.218-.348 1.442 6.464 5.53 13.93 9.33 21.57 3.144 5.882 4.036 10.163 2.87 13.536-.383 1.462-1.593 3.637-3.109 3.693-.592-.005-.684-.293-.12-1.044 2.376-3.747 2.813-7.21-1.356-15.122-3.834-7.273-7.675-15.41-8.963-22.51-.081-.582-1.761-1.28-1.404-.314 2.032 8.388 6.127 16.986 10.479 25.371 2.448 5.204 2.685 8.528.81 11.424-1.048 1.62-1.314 1.988-2.093 2-.921.013-.905.046-.391-.94 2.271-4.355 1.924-8.204-1.044-14.528-4.07-8.674-7.5-15.852-8.938-23.474-.265-.073-1.657-.583-1.46-.201 2.02 7.265 4.618 14.01 7.977 20.837 1.17 2.368 3.062 6.973 3.669 9.279 1.15 4.39-1.533 10.395-5 10.682-1.292.107-1.128-.492.319-1.733 2.49-2.136 2.99-5.559 2.171-9.538-.614-3.063-1.684-6.352-3.16-9.696-2.986-6.763-6.238-13.84-7.243-20.074.037-.558-1.348-.566-.96.02.722 4.382 2.48 9.379 4.41 14.02 2.11 5.079 5.263 10.773 6.27 16.998.825 5.094-2.61 9.881-6.748 10.148-4.984.321-5.94-4.277-4.729-6.425 1.973-3.205 7.64-1.34 5.934 1.938-.982 1.888-3.946 1.376-3.808-.699-.033-.189.29-.756.232-.788-.102-.056-.54.314-.68.545-1.018 1.676 1.998 3.945 4.11 2.605 7.073-3.526 2.371-14.405-.665-21.053-2.943-6.193-5.094-11.787-6.009-17.51-.256-.169-1.42-.45-1.257-.253.837 3.057 1.216 5.634 2.052 8.203 1.31 4.03 3.674 8.544 5.598 13.063 1.747 4.448 3.504 8.227 2.668 12.85-.078.428-.268.94-.583 1.25-.319.308-.58.259-.667-.92-.032-.16-.253-.373-.285-.578.183-1.737.066-3.462-.406-5.1-.405-1.371-1.183-2.773-2.826-5.442-.648-.995-2.342-4.032-1.754-1.936.338 1.186 1.498 3.823 2.708 5.734.752 1.187 1.531 4.42 1.292 5.043-.253.61-.831.641-1.1.43-.241-.19-.235-1.055-.294-1.59-.244-2.195-2.632-6.036-4.295-7.547-1.194-1.255 2.799 5.324 3.084 7.074.121.74.365 1.344.092 1.706-.18.238-.542.238-.896.152-.34-.084-.324-.303-.68-1.43-.607-1.93-1.365-2.905-2.94-4.65-.54-.598-.907.145-.047 1.115 1.187 1.767 2.08 2.898 2.372 5.166-.781 1.023-1.162.822-2.77-1.785-1.063-1.722-1.704-2.166-1.985-2.155-.712.028-.045.852 1.935 3.794 1.025 1.57 1.045 2.543-.13 2.532-.399-.004-2.618-2.304-3.172-3.3-.46-.825-1.031-1.46-1.039-.453-.002.4 1.369 2.513 2.31 3.54 1.486 1.62 1.913 1.946 2.1 2.661.088.341.265.937.391 1.325.377 1.163.18 1.493-.591.876-.346-.861-.63-.952-1.589-1.619-.808-.562-1.925-2.013-2.657-3.037-.276-.386-.513-.876-.795-1.27-.717-1.264-1.679-1.378-.99-.103.326.592.855 1.563 1.411 2.283.932 1.25.734 1.899-.38 1.888-.476-.004-1.8-1.64-2.627-2.918-.539-.834-1.385-1.426-1.286-.602.025.205.674 1.668 1.653 2.815 1.063 1.245 1.2 1.905.16 1.895-.708-.006-1.315-.64-2.213-1.929-.852-1.225-1.385-1.657-1.629-1.52-.309.175 1.218 2.602 2.475 3.93 1.19 1.255.308 1.962-1.061.844-.743-.606-2.227-2.411-2.64-3.268-.741-1.531-1.226-1.117-.75.096.526 1.337 1.35 2.8 2.35 3.753.525.5 1.609.894 2.136 1.324 1.495 1.218 2.44 2.34 2.317 2.54-4.284.203-7.776-4.071-8.724-6.653-.673-1.699-1.452-1.952-.725.445 2.055 5.956 8.546 9.076 13.062 6.433 2.725-1.595.349-5.794-1.881-4.455-.606.363-.64 1.403.132.85 1.449-1.038 2.886 1.548 1.306 2.303-2.22 1.062-4.665-1.05-3.144-3.587 1.503-2.606 7.462-1.08 6.27 3.135-.717 1.891-3.828 4.244-6.484 4.277-4.935.063-8.322-3.478-10.202-6.967-.241-.449-.673-1.33-1.03-2.05-.308-.622-.552-1.084-.577-1.08.525 4.228 4.829 9.473 8.704 10.356 6.44 1.443 8.224-2.128 12.463-5.807 0 0 3.08.388 3.188.327.285-.16 6-.37 6.169-.22-23.3 38.87-21.802 85.157-2.15 120.382 1.297 2.577 1.53 2.09-.641 1.556-2.243-.556-4.284.272-6.106-.129-3.77-.736-4.587 1.659-7.493 2.926-3.624 1.255-2.819 3.6-3.693 5.86-.274.349-.472.635-.324.589.24-.073 1.015-.734 1.076-1.318.157-1.497.737-2.68 1.394-3.272.625-.566 1.062-.85 1.211-.604.117.193.025.862-.286 1.402-.885 1.54.249 6.709.342 3.034.074-2.916 1.99-6.16 4.652-7.477 2.131-.959 2.79-.856 1.051.627-1.977 1.942-3.326 4.21-3.42 7.04-.04 1.174.455 2.155.64 1.104-.045-5.39 5.77-11.366 11.954-8.352.307.21.566.602.473.822-5.999-.968-11.24 2.062-10.511 9.302 0 0 .547-1.415.857-2.83.971-4.425 6.362-6.338 10.129-5.105.708.282 1.26 1.218 1.16 1.343-4.607-1.372-9.695 2.666-10.013 7.067-.104 1.43-.074 2.658.727.079 3.035-9.765 12.204-5.288 11.07-4.491-7.112-.826-9.712 3.621-9.577 8.779.1.471.358.63.57 1.07.938 1.948 1.36 3.616 1.416 7.142-.077.908.696 6.694-.115 6.446-2.58-.903-4.538-1.964-9.027-.11-.403.019-.534-.19-.394-.514.189-.437.894-1.298 2.122-2.57 2.766-2.719 1.182-1.994-1.09-.11-1.468 1.215-1.146.38.253-3.79.567-1.692.221-1.899-2.172-3.046-2.464-1.18-4.172-1.368-2.082-.133.82.472 1.693.968 2.624 1.32 1.09.561.964.794.144 3.232-1.594 4.734-2.149 6.464-2.085 9.654.156 7.76 8.098 7.028 12.626 5.306l.16 5.109 16.891 22.407s-59.484-.348-91.311-.017c1.84-4.056 21.176-21.178 22.338-24.252.11.015-2.098-6.304-3.26-9.054-5.492-12.987-12.775-18.47-8.492-26.964.92-1.683 1.082-2.251 1.775-2.245.94.009 1.238.592.17 2.238-4.587 7.08 5.048 19.384 8.282 27.217.518 1.255 2.682 7.131 3.056 9.108.034.604 1.573.818 1.146.11-1.186-4-2.68-8.37-3.375-9.943-2.559-5.784-5.263-9.736-7.756-15.389-1.392-3.571-2.12-7.692.09-11.377.805-1.342 1.036-2.088 1.563-2.156.453.004.718.149.745.495.03.378-.224.996-.825 1.938-3.857 6.043 2.884 15.87 6.212 22.87 2.169 4.563 4.094 9.36 4.76 13.683.009.298.427 1.09 1.273.555-1.411-8.073-5.648-15.916-9.355-23.471-3.17-5.903-4.344-11.041-.036-15.868.374-.332 1.173-.273 1.227.224.029.337-.251.974-.927 2.263-3.813 7.327 1.993 13.322 4.693 20.34 2.64 5.868 5.098 10.8 6.062 17.043.754.271 1.126.608 1.212-.275-1.905-8.827-6.075-16.772-9.688-24.425-1.67-3.325-2.259-4.919-2.361-7.141-.14-3.056 1.532-6.914 3.018-7.926.386-.262.626-.308.975-.13.48.246.382.408-.578 2.077-1.832 3.188-2.009 6.78-.347 10.587 2.873 5.848 5.295 10.648 7.006 14.946 1.872 4.7 2.916 8.78 3.326 12.459 0 0 1.29.541 1.102-.26-.778-5.148-2.572-10.496-4.516-15.022-1.835-4.273-4.141-8.388-6.005-12.625-2.261-5.08-.334-10.612 4.376-13.357l2.16.054c-.125-.053-4.936 1.7-5.223 8.089-.274 6.089 2.801 9.847 5.011 15.016 2.695 6.235 5.107 11.704 5.65 18.355.213.233 1.395.288 1.376.19-.556-4.475-1.934-8.734-3.907-13.97-2.096-5.564-4.198-8.038-6.14-13.878-1.314-3.952-1.104-9.295 1.885-11.723 4.477-4.17 10.674-1.155 9.09 3.635-1.22 3.371-6.181 2.676-6.137-.488.006-2.043 2.708-2.582 3.592-1.036.207.301.338 1.616.43 1.665.093.05.379-1.032.382-1.274.018-1.678-2.419-3.103-4.244-2.26-2.5 1.155-4.133 3.83-3.99 7.422.153 3.821.883 6.296 4.204 12.303 3.87 6.999 5.125 14.563 5.931 19.66.361-.139.794.044.934.005-.53-6.946-2.94-14.09-5.96-20.033-3.66-7.198-4.672-11.597-3.42-14.808.185-.473.359-.827.582-.858.414-.055.538.562.915 1.852.115.396-.037 1.018-.125 1.497-.339 2.944 1.842 9.08 3.887 11.813.599.779 1.37.756.711-.625-2.102-3.57-3.376-6.802-3.522-11.13-.042-1.272 1.544-.693 1.576-.055.104 2.067.312 4.502 1.362 6.24 2.133 3.438 3.33 3.594 1.15-.245-.485-.89-1.863-4.653-1.292-5.94.315-.262.697-.308.885-.044.61 2.126 1.46 4.232 2.975 5.874.794.854.927.47.514-.593-.695-1.233-2.867-5.353-1.85-6.274.327-.25.135-.114 1.013 1.238 1.224 1.883 1.893 2.621 2.49 3.173.794.734.99.244.173-1.043-1.633-2.57-2.558-4.704-1.976-5.237.574-.527.711-.28 2 1.788.574.92 1.404 2.276 1.69 2.597.282.318.542.402.55.14-.29-2.49-2.57-5.34-3.491-5.838-.132-.232-.074-2.198-.074-2.198 3.44 1.671 3.57 3.537 5.838 6.422.234.214.57-.045.473-.442-.078-.539-1.416-2.936-2.258-3.99-.662-.827-.69-1.3-.123-1.536.916-.38 2.185.89 3.531 3.155.625 1.05 1.464 1.662 1.47 1.113.004-.303-1.154-3.01-1.96-3.795-1.342-1.306-.67-2.212.885-1.002.706.55 1.664.965 2.643 2.957.571 1.163 1.066 1.314 1.074.388.009-1.04-1.856-3.592-3.115-4.3-.975-.55-1.527-1.162-1.25-1.566.864-1.169 4.316 1.84 5.484 4.629.345.823.955 1.245 1.107.884.268-.183-.424-2.192-1.14-3.124-1.178-2.129-3.98-4.193-5.65-3.954-.322.046-1.198-1.697-1.198-1.697 4.257-.619 8.361 4.14 9.086 5.917 1.376 3.372 2.088 2.98.885.023-2.35-5.779-9.738-9.046-13.862-6.276-2.349 1.578-.97 5.385 1.44 4.752.959-.33 1.89-1.232.206-.941-1.873.165-2.455-2.49-.543-3.012 3.075-.84 3.753 3.715 1.268 4.717-2.58 1.014-5.132-.53-4.876-3.156.483-4.966 7.051-6.37 13.505-2.32 1.815 1.139 4.036 4.834 4.793 7.172.25.773 1.106 1.047 1.212.95.247-.227-1.774-4.338-2.441-5.383-2.786-6.021-12.98-6.368-12.982-6.057 0 0-4.006 2.318-7.575 6.153l-9.108-.825c23.411-34.57 25.521-85.557 1.91-121.775.304.185 4.571 1.234 6.05.162 1.09-.479 1.403-.645 2.6-.238 1.349.459 2.775.066 4.253-1.179 1.114-.938 1.138-1.229 1.852-1.139 2.113.265 3.523-.879 3.974-3.713.177-1.114.301-2.27.128-2.102-.1.098-.351 1.06-.51 1.665-.437 1.665-.836 2.273-1.537 2.814-1.155.89-1.817.385-1.33-.97.46-.875.85-3.129.231-4.158-.108-.184-.138.514-.299 1.072-1.28 4.438-2.608 6.688-4.885 7.197-1.07.24-1.562.086-1.214-.485 4.035-3.958 3.792-8.367 3.488-7.991-.867 2.546-2.474 6.339-5.085 7.889-2.254 1.338-5.547 1.45-7.372.309-1.036-.649.536-.831 2.89-.85 3.964-.03 7.696-4.936 7.104-9.09-.14-.768-.37.055-.7 1.315-1.487 4.488-4.013 7.631-9.738 6.662-.447-.076-.745-.352-.988-.51-.93-.607-.583-1.018 1.268-.784 4.142.524 7.77-3.073 7.771-7.441.002-2.096-.322-2.073-.69-.514-.516 2.199-2.395 8.94-9.086 6.703-1.203-.615-1.857-1.397-1.427-1.51 3.906.753 7.493-.029 8.912-4.799.612-2.06.48-4.074-.122-5.765-.188-1.147-.598-2.023-.73-3.188-.357-3.121-.873-6.569-.693-9.982.323-.295.378-.23 1.499.47 2.201 1.376 3.875 1.07 6.125.271 2.896-.957 2.633-.782-.407 2.38-.634.659-1.276 1.464-1.349 1.59-.777 1.337.671.36 1.76-.899 1.511-1.748 1.828-2.151 2.124-2.148.09 1.898-.658 4.201-1.048 5.754-.509 1.722-.505 2.12.673 2.569.51.194 1.496.576 2.043.823 2.466 1.11 2.243.215.278-.83-2.654-1.413-2.676-1.342-1.9-3.662.907-2.72 1.359-5.078 1.857-7.773 1.233-6.663-4.153-10.358-11.349-8.064-.412.19-.866-3.51-.794-4.488.065-.352-1.084-.28-2.019-1.36.289-.238-10.517-12.972-15.54-20.686 28.403.106 56.936-.2 85.423-.055zM145.9 63.506c.07.042.11.076.11.076-.046-.052-.083-.076-.11-.076zm24.748-23.101 30.462.149.096 61.328-2.7.048s-5.04-8.165-6.358-12.018c-.329-.962-.906-2.287-1.131-2.807-.51-1.179-.872-1.326-.181-2.042 1.384-1.433 1.13-4.346-.2-5.756-.411-.457-.626-.304-.599-1.41.023-.952.122-1.56-.145-2.052-.448-.822-.753-.882-.101-1.782.682-.942 1.59-2.472 1.976-3.675.624-1.943.195-2.309 1.558-1.845 3.422 1.033 6.305-1.23 6.233-4.447-.06-2.708-2.767-5.135-5.936-4.41-.73.167-.874.108-1.994-.553-.32-.19-.809-.59-1.224-.739-.52-.187-.95-.173-1.165-.52-.42-.683-1.738-1.77-3.352-1.708-.985.037-2.262-.3-2.6-.467-.56-.276-2.14-.061-4.144-.35-.89-.13-1.611.19-2.043.192-1.235.008-.73-.131-.96-1.006-1.522-4.56-6.045-4.04-8.136-.626-.767 1.34-1.329 3.331-1.627 5.388l-12.172-.23zm-94.207-.329c4.517 5.406 8.834 11.462 13.388 16.98 5.603 6.685 5.785 7.451 4.232 14.143-.868 3.783-1.236 4.656-2.951 4.361-1.61-.276-2.98.897-3.208 2.39-.428 2.802 2.466 4.542 5.391 3.154 1.543-.733 1.594-.812 1.068 1.63-.754 3.5-2.244 6.509-3.19 6.406-2.42-4.844-8.389-1.436-6.441 3.598-.624.874.183 1.99.489 2.909 0 0 .012.109-3.393 1.139-16.714 4.517-37.452 16.42-48.8 27.633l-.297-84.325Zm95.699 11.973c.7-.013 1.373.198 1.927.666 1.448 1.224 1.097 2.923-.934 6.114-2.137 4.45-1.58 7.967-1.122 12.653-.03 2.72-1.03 5.298-2.61 6.408-2.557 1.798-5.685-.642-4.35-3.092.684-1.218 2.117-.5 2.461-1.652.125-.69.118-1.776.2-2.29-.292-2.055-.886-8.32-.876-10.493.037-1.873.71-4.221 1.63-5.979.9-1.464 2.337-2.31 3.674-2.335zm3.972 7.297c-.58.445-1.544.45-1.653-.11.006-.586.509-2.454.85-2.66 2.09-.443 1.41 2.29.803 2.77zm3.136-2.901c1.724-.054 2.838 4.06 1.329 6.456-.285.048-2.376.025-2.387.064-.032-.43.11-1.286.27-2.106.137-.702.218-1.234-.004-1.99-.555-1.884-.922-2.24.792-2.424zm3.286.073c.062-.002.13 0 .202 0 1.75.017 2.73 3.172 2.162 6.612-.082.494-.13 1.012-.325 1.128-.73-.189-2.767.476-2.803.47-.19-.182-.107-1.16.158-2.043.489-1.63.63-2.716.075-4.407-.397-1.462-.41-1.74.53-1.76zm4.357.928c1.922.31 2.02 5.277 1.22 6.886-.19.237-.915.176-1.174.263-1.638.429-1.275.658-1.072-1.768.14-1.663.178-2.957-.082-4.333-.127-.603-.177-1.024.294-1.061.273-.05.564-.04.814.013zm-9.61 1.895c.76.982.131 3.244-.458 4.082-.673.924-.941 1-.58 1.408.154.173.471 1.051.27 1.419-.37.68.571.807 1.425 1.226 1.384.683 2.05 1.934 3.073 4.21.357.793 1.1.548.745-.306-.304-.73-.417-1.805-.626-2.523-.218-.737.027-1.104.937-.884 1.368.331 1.18.026 1.682-.143 1.102-.562 1.835.245 1.17.686-.384.254-1.197.405-2.098.63-.765.193-.592.88.177.88.71.001 2.746-.521 4.075-.89 3.808-1.055 3.94-1.625 3.572.391-.484 2.667-2.056 4.661-4.64 5.326-2.25.578-7.434.44-9.74-.26-2.188-.939-2.33-1.587-2.984-3.393-.894-2.472-1.406-6.651-.348-9.074.93-2.045.837-1.83 1.718-1.722.783.259 1.839-.02 2.075-.467.12-.214.42-.603.555-.596zm14.555 1.55c.21 1.099.224 2.227-.19 3.075-.238.397-1.57.37-2.084.373-.305.065-.26-3.71.068-4.12.781-1.08 1.777-.204 2.206.672zm-38.582-.84 3.766.06-.005.855-4.443-.05zm13.178.21-.001 1.11-5.672-.018-.039 6.955 6.344.05.027 1.446-8.492-.07.078-9.506 7.755.033zm28.83-.08c5.808 1.22 3.18 7.211 1 7.564-2.72.44-5.021.143-4.256-2.086.764-1.509.25-3.395.472-4.77.527-.45 1.898-.895 2.784-.709zm-43.849 1.892 5.596.08-.007 1.147-6.394-.045Zm12.424 1.12c.894.004 1.614.684 1.61 1.519-.005.835-.733 1.508-1.627 1.504-.893-.004-1.613-.685-1.609-1.52.005-.835.733-1.508 1.626-1.504zm15.784.676c1.04.112 1.121 1.6.695 2.033-.548.503-1.565.282-1.871-.493-.277-.7.355-1.574 1.176-1.54zm-29.783.502 7.158.054-.005.93-7.23.022-.188-.601zm40.292.599c.992-.017 1.596.766.972 1.427-.94.965-2.838-.528-.972-1.427zm-76.286 1.66c-1.609 1.255-.332 2.503 1.802 1.317 4.592-2.55 11.332-.478 15.721 1.687.86.417.984-.545.139-1.214-4.047-3.364-12.702-5.324-17.662-1.79zm69.37-1.42c1.118.011 1.095 1.313.375 1.774-.72.288-.844.206-1.32.03-.652-.24-.155-1.803.945-1.803zm3.96.04c1.325.067 1.164 2.558-.833 1.65-.721-.733-.246-1.66.833-1.65zm-37.003 1.102 6.955.091-.006 1.058-6.505-.093zm-44.969 2.27c1.893 1.419 1.303 1.502-1.842.45-2.057-.44-4.109-.176-5.4.294-1.53.556-1.882.392-1.216-.558 1.785-1.852 6.672-1.452 8.458-.186zm9.127 2.379c-.194.439-.84-.356-1.723-.207-1.26.213-.896.27.425 1.689 1.323 1.42 1.755 1.756 1.67 2.3-.123.8.115 1.241.97 1.157.41-.04.896.406 1.521.943 2.166 1.86 3.26 2.783 3.967 3.072 2.875 1.176 1.585-.141-.25-1.339-3.06-1.995-4.12-3.32-1.942-2.603 2.313.762 6.003.354 7.824-.66.896-.499 1.466-1.268 2.724-.885 1.767.537 2.45-.434 1.962-.983-.8-.485-2.631-1.069-4.365-2.171-3.716-1.785-7.633-1.752-10.25-.343-1.543.83-2.075.239-.563-.584 6.065-3.017 10.833-.076 14.693 2.132.669.384 1.139.355 1.142.086-.097-.885-1.817-1.436-2.512-1.836-5.377-3.095-11.041-4.1-15.293.232zm36.74-2.518 6.046.034-.007 1.115-5.6-.05zm-49.199 1.181c1.675.001 5.31 1.423 5.243 2.587-.072.441-.983.04-1.772-.415-1.527-.882-3.877-1.128-6.092-.753-1.701.288-2.243.547-2.484.356-.581-1.235 3.55-1.775 5.105-1.775zm65.367 1.152v1.998c-3.284.208-3.978 3.613-1.884 5.52 1.718 1.565 4.574.966 6.02-1.233.253-.391.284-.628.437-.432.095.122.176.494.253.856.221 1.05-.103 1.317-.852 2.212-1.21 1.446-1.384 3.275-.638 4.641.206.376.637.914.56 1.16.42-.01-3.787 10.816-9.875 16.25-1.017.626-1.748-.118-1.22-1.133 4.994-10.514-4.392-20.35-8.002-29.786l15.201-.053zm-43.873 1.604.864.075c-.722 4.852-5.758 4.046-5.935.09l.728-.02c.962 3.683 4.341 2.193 4.343-.145zm-28.475-.04s.36.544.36.847c-.007 1.13-.036 2.765-.07 3.26-.318 4.67-6.665 5.506-6.16 1.51.387-1.695 2.682-1.872 3.237-.333.812 1.935.972-.46.987-1.21.679-1.174 1.179-2.6 1.646-4.074zm30.56.48c.26.008.726.222 1.09.591.414.422.258.63-.72 1.093-1.057.502-1.534.456-1.149-.568.24-.635.446-1.125.78-1.116zm47.446.478c.143.007.51.185.42.692-.147.847-.934 1.325-1.138 1.124.134-.447.298-1.641.718-1.816zm-55.028 1.37c-.127.343-.343.193-.894-.25-.607-.487-.574-.797.057-1.143.907-.504.953 1.078.837 1.393zm-19.197-1.36c1.04 3.131 3.2 2.745 4.18.172l.925-.01c-.227 4.024-5.678 3.926-5.703.034zm-1.913.378c.323-.046.085.998.085.998s-.892-.436-.364-.89a.75.75 0 0 1 .279-.108zm8.005.304c.111-.006.32.074.545.215.528.33.436.523-.172.992-.936.721-1.355.316-.846-.657.19-.361.331-.543.473-.55zm69.62 1.021c.393-.02.946.149 2.115.445 3.222.817 7.54.809 11.219-.12 1.162-.293 2.012 1.613 1.378 2.993-.28.61-.232.686.608 1.51 1.192 1.17 1.373 3.047.454 4.75-.67 1.241-.625 1.13.149 3.257.353.973.81 1.966.892 2.234.974 3.134 3.4 6.842 4.878 9.942 1.479 2.18-2.674.01-2.674.01s1.111 1.408 2.594 2.465c1.438 1.032 4.28.352 5.572 1.605.302.394-.344 8.689-.651 8.918-12.822-.62-34.217-.286-34.217-.286l3.976 5.86c6.293 2.385 12.325 1.825 18.111-1.537-.145.487 6.995 3.793 12.872 4.178l.014 3.931c-4.36-.478-8.779-.594-12.818-2.997 0 0-3.733 1.438-7.47 2.51l20.784 20.307-.01 3.376s-8.877-7.825-18.009-16.643l-.044 43.142 18.08.419c-.631 11.225-.442 18.364-.393 31.224-8.59 8.151-20.393 16.291-31.283 21.16-5.1-4.645-9.308-9.67-12.984-15.04-.077-.114.376-.328.299-.442-.113-.165-.755-.23-.87-.393-2.242-3.155-7.443-11.899-6.61-12.1 1.605.112 9.056-.712 10.562-4.876.013-.264-.156-1.009.05-1.88.537-2.259.824-5.69-.051-7.876-1.578-3.942 3.229-2.658 3.39-2.393l.078-14.86c-6.29 4.663-12.636 9.252-21.02 11.143-5.072-24.564 3.359-55.04 27.023-75.62l-1.29-.11c-24.326 23.278-30.814 48.976-26.838 76.093 0 0 .148.847.17 1.134.053.674-.121.93-.765 1.414-.614.373-1.172.774-1.12 1.237.1.87-.796.895-1.966.884-.537-.444-1.265.109-1.7.308-.607.081-.897-2.236-1.68-.542-.302 1.07-.862 1.147-2.152.608-.812-.226-.832.151-.057 1.035 1.073 1.09 1.976 2.717 1.797 3.202-.402 1.09-.236 2.19 1.41 2.823-.094.007-1.015 3.323 1.544 3.24.814.011 2.874.41 2.874.41.13.636-.09.995-.412 1.274l-1.774-.84-.477 1.977-2.37-.167 5.731 6.685.701-5.189 6.74.831c1.067 2.631 7.798 17.267 20.76 28.196 0 0-7.135 2.86-9.136 3.758l-1.215-4.144-1.126 1.497-1.989-.487-.242 1.7-1.777.525 3.081 2.198-7.964 2.22c-22.524-34.355-32.537-81.972-3.966-132.135l7.147.12-1.407 2.223 2.034-.292.565 1.627 1.495-.65 1.491 1.764 1.733-4.686s5.064.132 5.696.075c.496-.05 10.748-8.004 10.53-8.311-.156-.221-11.157 7.21-11.523 6.922 0 0-1.102.24-.239-.715 1.549-1.712 2.64-3.015 4.216-5.479 2.599-3.269 3.78-7.267 4.404-9.976.01-.19.07-.625-.101-.945-.974-1.83-.75-3.02 1.03-5.164.623-.75.662-.937.488-1.4-.393-1.048-.005-1.94.813-2.638.325-.277.536-.41.842-.426zm-60.27 6.99c4.476 1.745.852 5.54-2.46 2.2-1.737-1.75-3.117-1.647-4.073-.38-.432.572.186 1.583.74 1.266.516-.294 1.046-.643 1.79.004 5.646 4.91 9.758-1.904 4.879-3.628-.604-.263-1.466.309-.876.539zm-18.477-.255c.042-.002.092.02.156.057.212.125.218 1.85.001 2.575-.73 3.673-3.581 12.201-9.31 7.992-2.276-1.672-.175-5.83 2.551-4.4 2.13 1.116.673 3.748-1.63 2.221-1.118-.74-.77.778.175 1.216 1.603.793 4.519-.538 5.896-2.93.55-.953 1.069-2.64 1.656-5.07.296-1.223.321-1.653.505-1.661zm.45 6.366c.458 2.66-1.732 7.304-4.817 7.976-2.362.514-5.27-.936-5.053-2.264.063-.386.229.125 2.363.465 2.982.475 4.89-1.02 6.628-4.48.548-1.092.783-1.672.879-1.697zm7.418 1.308c-.003.3-.16 1.09-.297 1.614-.325 1.244-.527 1.716.934 1.106.966-.41 2.378-.816 3.832-.053 1.604.842 3.141.695 5.04-.046 1.65-.504 2.451-.505 3.367-.007 1.673.91 1.1.331.896-1.942-.14-1.6-.609-1.392-1.214-.79-.397.395-1.196.478-2.083.027-1.057-.537-2.533-.292-3.033.085-.5.375-1.218.423-2.188-.195-.643-.41-1.003-.199-1.796.128-1.305.538-1.802.242-2.505-.272-.64-.441-.942-.305-.953.345zm-6.47 1.877c.169 0 .184.613.06 1.848-.568 4.554-4.401 7.074-8.884 4.846-1.963-1.06-1.692-1.799.244-1.132 3.085 1.062 6.215-.387 7.762-4.125.397-.958.667-1.437.817-1.437zm10.95 3.304c2.218.87 4.684.61 5.316-.15.708-.85-.373-.715-.939-.59-1.947.427-3.283.261-4.069-.071-2.299-.843-2.159.06-.308.811zm-23.201 2.443c2.862 3.31 3.238 3.955 5.7 7.715 17.982 28.874 23.589 65.283 11.475 98.252-3.324 9.097-7.994 18.362-13.212 25.798l-6.213.031 2.146-2.262-2.893.185-.168-1.504-2.198.651-1.044-2.273-2.015 5.183-11.516-.028c27.107-24.364 32.586-54.024 27.689-77.88 0 0 2.261-1.307 2.58-2.076.077-.187.25-.982.405-1.1 1.006-.607 1.676-1.2 2.17-1.08.284.069.43.192.634.475.943 1.306 1.147 1.51 1.672.202.378-.938.22-1.28 1.442-1.093.714.358 1.667.353 1.58.22-.063-.1-1.073-1.22-1.55-1.855-1.13-1.503-1.456-1.775-1.347-2.43.165-.999-.68-2.081-1.21-2.355.168-2.69-.936-2.965-4.065-3.582a2.35 2.35 0 0 1 .295-1.255l1.833 1.379.681-2.539 2.497.14-7.202-6.584c.026 1.848.109 3.716-.082 5.495-3.392-.19-6.734-1.229-6.786-1.035-4.921-10.99-12.462-20.3-20.437-27.575l8.027-3.556 2.247 4.055.569-2.289 1.985.336.342-1.468 2.195-.277-2.41-2.162zm47.657 4.962c.304.362.55.389.957.719l-.822.539c.041-.514-.005-.778-.135-1.258zm-53.282 1.091c-.68-.003-1.237.512-1.24 1.147-.004.635.548 1.15 1.227 1.154.679.003 1.231-.507 1.235-1.142.003-.635-.543-1.156-1.222-1.159zm6.68.215c-.682-.003-1.237.51-1.24 1.147-.004.637.545 1.156 1.227 1.159.68.003 1.236-.51 1.24-1.147.003-.636-.546-1.155-1.227-1.159zm-21.528.738c3.948 3.099 7.57 7.13 11.956 13.43l-.095.845 1.347.474s7.303 9.084 6.892 13.102c-2.527.48-4.476-.4-9.012 3.524l-2.899-.605-3.057.68s.034.894.792 1.199c.33.132.883-1.116 1.24-1.076 1.482.167 2.978.197 2.7.632-.311.123-1.16 9.108.379 11.03.852 1.952.233 1.933-.544 2.288-.845.51-3.49-.588-3.49-.588l.532 14.276c7.037-7.424 21.839-12.326 20.787-11.79 7.21 36.643-10.556 60.979-29.11 78.79l9.67.098s-8.407 12.459-9.046 15.912c.467 1.15 1.765 3.536-.459 5.195-.754.764-.853 4.248-.853 4.248-5.086.139-9.485-1.533-15.36.36-.607.187-.722-2.988-.748-3.562-1.793-1.584-2.06-4.79-.495-6.447.58-.61.334-.286-.138-2.363-.754-3.314-3.3-7.866-5.242-10.789-.637-.958-1.274-2.076-1.428-2.421-1.39-1.558-5.073-.86-5.518-1.27-.405-.32-.62-8.785-.207-8.987 14.487 1.145 37.175.026 37.175.026l-6.041-7.977c-7.482-2.768-17.81 1.845-17.315 2.094.025.028-8.21-4.25-13.941-3.675l.21-4.15c5.09.006 9.78.915 13.865 3.194l6.977-2.389-21.226-21.03.267-3.448s5.421 5.482 11.316 11.338c5.057 5.024 6.953 5.874 6.953 5.874l.259-43.4-18.35-.133-.44-8.87-.471-.777-.182-6.366.514-.644-.162-2.723-.17-.388-.195-6.502.397-.546.084-4.092c8.912-8.069 31.882-21.601 31.882-21.601Zm15.67 1.31 2.088 8.77 1.445-1.657 2.2.658.164-2.016 2.01-.642zm72.912 1.813c-.682-.003-1.237.51-1.24 1.147-.004.636.545 1.155 1.227 1.159.68.003 1.236-.51 1.24-1.147.003-.637-.546-1.156-1.227-1.159zm-5.777.693c-.682-.003-1.237.51-1.24 1.147-.004.637.545 1.155 1.227 1.159.68.003 1.236-.51 1.24-1.147.003-.637-.546-1.156-1.227-1.159zm-70.713.675c-.68-.004-1.236.51-1.24 1.146-.003.637.546 1.156 1.228 1.16.68.003 1.236-.51 1.24-1.147.003-.637-.546-1.156-1.228-1.16zm75.13 1.062-8.626 7.503 2.407-.083.418 2.204 2.159-.91 1.734 1.51zm3.638 2.553c-.68-.003-1.236.51-1.24 1.147-.003.637.546 1.156 1.227 1.159.682.003 1.237-.51 1.24-1.147.004-.637-.545-1.155-1.227-1.159zm-68.27 1.151c-.68-.003-1.236.51-1.24 1.147-.003.637.547 1.156 1.228 1.159.68.003 1.236-.51 1.24-1.147.003-.636-.546-1.155-1.227-1.159zm5.333.99c-.68-.003-1.236.51-1.24 1.147-.003.637.546 1.156 1.227 1.159.682.003 1.237-.51 1.24-1.147.004-.636-.545-1.155-1.227-1.159zm-4.852 1.692c.219 3.084.584 6.741.653 9.83l1.636-1.49 1.876.723.678-1.891 2.048-.084zm52.836 2.83c-.681-.003-1.236.51-1.24 1.147-.003.636.546 1.155 1.227 1.159.681.003 1.236-.51 1.24-1.147.004-.637-.546-1.156-1.227-1.16zm-56.39-.074c-.681-.004-1.236.51-1.24 1.147-.003.636.546 1.155 1.227 1.158.681.004 1.236-.51 1.24-1.146.003-.637-.546-1.156-1.227-1.16zm61.277.58c-.681-.004-1.236.51-1.24 1.147-.004.636.646 1.156 1.227 1.158.581.003 1.236-.51 1.24-1.146.003-.637-.546-1.156-1.227-1.16zm-.745 2.486-7.154 6.805 2.33.215.721 1.945 1.498-1.174 1.803 1.247zm3.9 1.485c-.682-.003-1.237.51-1.24 1.147-.004.637.545 1.156 1.226 1.16.681.002 1.237-.511 1.24-1.148.004-.636-.546-1.155-1.227-1.159zm-56.117 1.858c-.681-.003-1.236.51-1.24 1.147-.003.637.546 1.156 1.227 1.16.681.002 1.237-.604 1.24-1.148.003-.543-.546-1.155-1.227-1.159zm-30.228.557-2.324 1.647.571-.078s1.392 1.53 1.391 1.637c0 .107.86-.024.86-.024zm36.052 1.182c-.681-.003-1.236.51-1.24 1.147-.003.637.546 1.156 1.227 1.159.681.003 1.237-.51 1.24-1.147.004-.636-.546-1.155-1.227-1.159zm-8.845 1.601c-.681-.003-1.237.51-1.24 1.147-.004.637.546 1.156 1.227 1.159.681.003 1.236-.51 1.24-1.147.003-.637-.546-1.155-1.227-1.159zm50.941 2.572c-.68-.003-1.236.51-1.24 1.147-.003.637.546 1.156 1.228 1.16.68.002 1.236-.511 1.24-1.148.003-.636-.546-1.155-1.228-1.159zm-4.877 1.668c-.681-.003-1.236.51-1.24 1.147-.004.637.546 1.156 1.227 1.159.681.003 1.236-.51 1.24-1.147.003-.637-.546-1.155-1.227-1.159zm49.69.528 2.548 2.616-.213 38.09-2.503.036zm-99.773-.218c2.088.012 4.414.305 5.148 1.494 1.145 1.336-1.304.81-3.368 1.09-1.907.208-.804.576 1.886.736 3.708.223 5.165.32 5.713 1.122.309.746.077 1.247.139 2.049l-4.21-.205c-2.184-.008-3.467-.053-4.116.098-.516.12-.37.508-.196.675.092.087 1.768.116 3.725.174 5.269.155 6.433.327 6.799 1.913.274 1.455-.992 1.228-6.404.65-2.408-.196-3.708.327-4.057.485-.595.27 1.718.549 2.475.437.473-.067 3.946.302 5.224.532 1.075.157.128.125-.419.735-.362.505-.252 1.088-.816 1.37-.693.339-2.061.325-4.516.314-2.807-.013-4.12.617-.268.792 2.489.114 2.63.074 2.837.747.553 1.658-.647 1.944-3.187 2.309-1.215.188-3.014.07-4.373-.027-5.368-.383-7.222-1.588-7.935-3.804-2.662-8.266.709-13.288 8.533-13.655.435-.02.904-.034 1.386-.031zm54.275.633-6.11 8.215 2.342-.838 1.1 2.24 1.877-1.238 1.862 1.086zm-45.376.78c.312.36.173.63-.349.892-.44.22-1.189.052-1.682-.15-.651-.267-.71-1.356-.174-1.47.771-.14 1.726.199 2.205.728zm-43.921-.635-3.333 2.95.1.115 4.377-1.585zm93.068 1.722c-.681-.004-1.236.51-1.24 1.146-.003.637.546 1.156 1.227 1.16.681.003 1.236-.51 1.24-1.148.004-.636-.546-1.155-1.227-1.158zm45.145 1.217s3.073 2.867 4.334 4.07l-1.147-.01.018 2.25 3.654.055 1.997 1.848-5.581-.051-.013 2.296 6.91.039-.03-.983 2.717 2.324.18 25.543-13.167-.103c.02-12.576.127-24.7.128-37.278zm-90.355 2.327c-.192.551-.615.55-1.336.272-1.066-.412-.908-1.513-.097-1.626 1.53-.155 1.808.505 1.433 1.354zm4.143.502c-.681-.003-1.237.51-1.24 1.147-.004.637.546 1.155 1.227 1.159.681.003 1.236-.51 1.24-1.147.003-.637-.546-1.156-1.227-1.159zm-4.348.862c.482.03.96.264 1.231.517.671.64.429 1.232-.327 1.595-.849.407-1.441-.156-1.683-1.095-.162-.633.235-.999.78-1.017zm38.703 3.213c-.684-.003-1.24.512-1.244 1.152-.004.639.547 1.16 1.231 1.163.684.004 1.242-.512 1.245-1.151.004-.64-.548-1.16-1.232-1.164zm-40.77 1.204c1.063.04 1.378 1.055.82 1.597-.8.733-2.035.411-2.207-.295-.051-.793.643-1.305 1.387-1.302zm36.34.646c-.681-.003-1.236.51-1.24 1.147-.003.636.546 1.155 1.227 1.159.681.003 1.237-.51 1.24-1.147.004-.637-.546-1.156-1.227-1.16zm4.377.787-5.569 8.628 2.24-.815 1.345 1.674 1.401-1.132 2.103.974zm-43.325 1.234c.988.009 1.26.735.538 1.396-.49.45-1.042.46-1.602.04-.85-.638-.191-1.448 1.064-1.436zm47.183.337c-.68-.003-1.236.51-1.24 1.147-.003.637.546 1.156 1.227 1.16.682.002 1.237-.511 1.24-1.148.004-.636-.546-1.155-1.227-1.159zm-40.192.713c-.681-.004-1.186.51-1.19 1.147-.003.636.546 1.155 1.227 1.159.682.003 1.237-.51 1.24-1.147.004-.637-.596-1.156-1.277-1.16zm91.45.702-.015 2.448 6.956.038.014-2.447zm-91.373 1.727-2.715 9.082 2.236-1.175 1.383 1.334 1.302-1.482 2.322.578zm4.731 1.01c-.681-.003-1.236.51-1.24 1.147-.003.637.546 1.156 1.227 1.159.681.003 1.237-.51 1.24-1.147.004-.637-.546-1.155-1.227-1.159zm-8.687.42c-.681-.003-1.236.51-1.24 1.148-.004.636.546 1.155 1.227 1.158.681.004 1.236-.51 1.24-1.146.003-.637-.546-1.156-1.227-1.16zm95.299 1.185-.008 2.197 6.956.034.007-2.182zm-57.256 2.592c-.682-.003-1.237.51-1.24 1.147-.004.637.546 1.156 1.227 1.16.68.002 1.236-.511 1.24-1.148.003-.636-.546-1.155-1.227-1.159zm57.238 1.51-.013 2.366 6.955.034.014-2.367Zm-143.424-.414 2.447.054-.19 41.26-2.374-2.368zm-1.021.075-.333 37.712-4.61-4.578 1.234-.008.014-2.57-4.013-.048-1.705-1.567 5.722.032.014-2.523-6.789-.057-.008 1.527-3.318-3.343.194-24.625zm87.373 1.58-3.764 8.954 2.343-1.23 1.202 1.115 1.254-1.047 2.118.979zm-97.684-.048-.05 2.414 6.856.034.013-2.414zm101.885.985c-.681-.003-1.236.51-1.24 1.147-.004.637.546 1.156 1.227 1.159.681.003 1.236-.51 1.24-1.147.003-.637-.546-1.155-1.227-1.159zm-8.396.088c-.68-.003-1.236.51-1.24 1.147-.003.637.546 1.156 1.227 1.159.682.003 1.237-.51 1.24-1.147.004-.637-.546-1.155-1.227-1.159zm-29.028.287c-.681-.003-1.236.51-1.24 1.147-.004.636.546 1.155 1.227 1.159.681.003 1.236-.51 1.24-1.147.003-.637-.546-1.156-1.227-1.159zm90.273 1.373-.014 2.537 6.955.034.015-2.537zm-90.438.989-1.04 1.483-2.356-.763 3.169 9.12 4.092-9.477-2.327 1.227zm-64.319.346-.014 2.41 6.82.033.013-2.41Zm154.733 2.917-.014 2.513 6.95.034.02-2.513-6.956-.034zm-154.757 1.345-.013 2.414 6.819.034.013-2.415Zm97.59.931c-.684-.003-1.241.512-1.245 1.152-.003.639.548 1.16 1.232 1.163.684.004 1.242-.512 1.245-1.151.004-.64-.548-1.16-1.232-1.164zm-37.14 1.023c-.685-.003-1.242.512-1.246 1.152-.003.639.548 1.16 1.232 1.163.684.004 1.242-.512 1.245-1.151.004-.64-.548-1.16-1.232-1.164zm7.914.256c-.684-.003-1.241.512-1.245 1.152-.003.639.548 1.16 1.232 1.163.684.004 1.242-.512 1.245-1.151.004-.64-.548-1.16-1.232-1.164zm86.37.584-.013 2.267 6.95.034.019-2.267-6.956-.034zm-57.169.778-1.484 1.443-2.115-.572 4.756 8.395 2.477-8.993-2.126 1.251zm-97.587.373-.015 2.74 6.819.034.015-2.74zm64.354 1.558c-.684-.004-1.241.512-1.245 1.151-.004.64.548 1.16 1.232 1.164.684.003 1.241-.513 1.245-1.152.003-.64-.548-1.16-1.232-1.163zm-.094 2.385c-.53.348-.764.96-1.317 1.274l-2.25-.909 1.292 11.408 6.318-10.742-2.864.435zm-64.282.059-.016 2.849 6.819.033.016-2.849Zm102.414 1.822c-.684-.003-1.241.513-1.245 1.152-.003.64.548 1.16 1.232 1.163.684.004 1.242-.512 1.245-1.151.004-.64-.548-1.16-1.232-1.164zm-8.008.093c-.684-.003-1.241.513-1.245 1.152-.003.64.548 1.16 1.232 1.164.684.003 1.242-.513 1.245-1.152.004-.64-.548-1.16-1.232-1.164zm-94.43 2.219-.016 2.854 6.82.033.016-2.854zm98.878 1.12c-.684-.003-1.24.512-1.244 1.152-.004.639.547 1.16 1.232 1.163.683.003 1.24-.512 1.244-1.151.004-.64-.548-1.16-1.232-1.164zm17.483.177c6.631.23 7.59 2.23 7.591 9.113 0 5.495-1.762 7.634-6.048 8.672-1.561.378-7.39-.008-9.04-.51-.025-.472-.843-1.567-1.024-2.408.421-.11 1.752.07 4.273.307 2.045.192 2.573-.112 1.929-.491-3.844-.868-6.465-.65-10.159-1.33-.046-1.034-.933-2.242-.933-2.242.202-.074 5.697.507 8.598.435 1.278-.043.512-.608-.003-.713-3.38-.47-5.579-.408-9.154-.847.102-.855-.36-1.635-.933-2.291 0 0 1.81-.007 5.54.065 1.964.037 3.672.122 4.53.099 1.442.005 1.314-.624.065-.716-1.523-.166-7.522-.23-7.522-.23.447-.19 1.044-2.698.814-2.726 0 0 1.554.037 2.543.007 4.808-.144 5.637-.07 5.729-.236.634-.537-1.07-.756-2.847-.76-.766-.002-1.885.148-1.874-.241.01-.358-.005-1.094-.391-1.852 2.955-1.046 5.668-1.197 8.316-1.105zm-57.188 1.133c-.684-.004-1.241.512-1.245 1.151-.004.64.548 1.16 1.232 1.164.684.003 1.241-.512 1.245-1.152.004-.639-.548-1.16-1.232-1.163zm47.309.472c.817.008 1.067 1.384.3 1.594-1.18.323-1.822.061-1.777-.59.026-.369.947-1.009 1.477-1.004zm-39.229 1.004c-.684-.004-1.241.512-1.245 1.151-.004.64.548 1.16 1.232 1.164.684.003 1.241-.512 1.245-1.152.004-.639-.548-1.16-1.232-1.163zm35.262 1.472c2.803-.01 1.332 3.545-.817 2.25-1.065-.643-.304-2.248.817-2.25zm-44.339 2.632c-.057-.006-.088.048-.082.179l.587 10.832 6.8-10.083-2.685.918-1.143-1.64-1.452 1.056c-.598.435-1.715-1.234-2.025-1.262zm41.718 1.312c1.257.17 2.089 1.35 1.213 1.912-1.97.795-3.007-1.841-1.213-1.912zm-3.033 2.362c-.684-.003-1.241.512-1.245 1.152-.003.639.548 1.16 1.232 1.163.684.004 1.242-.512 1.245-1.151.004-.64-.548-1.16-1.232-1.164zm4.758 1.003c1.071-.01 1.567 1.446.505 1.897-.226.097-.896.163-1.192-.043-1.246-.869-.593-1.769.687-1.854zm-46.381 1.559c-.684-.003-1.242.512-1.245 1.152-.004.639.548 1.16 1.232 1.163.684.003 1.241-.512 1.245-1.151.003-.64-.548-1.16-1.232-1.164zm94.594 1.914-4.599 1.418-.01 2.029c2.006-.586 3.16-2.102 4.609-3.447zm-43.02.768c.795.317 1.005 1.325.319 1.66-.541.265-2.002.215-2.357-.226-.919-1.393 1.076-1.778 2.038-1.434zm-43.273.189c-.684-.003-1.241.512-1.245 1.151-.003.64.548 1.16 1.232 1.164.684.003 1.242-.512 1.245-1.151.004-.64-.548-1.16-1.232-1.164zm-5.085 1.975c-.603-.003-1.094.452-1.097 1.015-.003.564.483 1.023 1.086 1.026.603.003 1.094-.451 1.098-1.015.003-.564-.484-1.023-1.087-1.026zm51.473 1.974c-.684-.004-1.242.512-1.245 1.151-.004.64.548 1.16 1.232 1.164.684.003 1.241-.513 1.245-1.152.003-.64-.548-1.16-1.232-1.163zm-55.473-.209-.118 10.229 7.347-8.337-2.536.503-1.07-2.08-1.567.942zm46.32 2.583c-.684-.004-1.241.512-1.245 1.151-.004.64.548 1.16 1.232 1.164.684.003 1.241-.512 1.245-1.152.004-.639-.548-1.16-1.232-1.163zm36.53.218-1.21 1.903 3.407-1.746zm-31.594 1.205c-.684-.004-1.242.512-1.245 1.151-.004.64.548 1.16 1.232 1.164.684.003 1.241-.513 1.245-1.152.003-.64-.548-1.16-1.232-1.163zm4.165 1.269-1.492 1.968-1.948-.596-.587 1.878-2.34-.092 7.573 6.226zm-59.302.5c-.684-.003-1.241.512-1.245 1.152-.003.639.548 1.16 1.232 1.163.684.004 1.242-.512 1.245-1.151.004-.64-.548-1.16-1.232-1.164zm114.07 2.22.141 84.82-43.256-.126-17.682-22.816c-.346-3.705-.111-7.505 1.584-12.465 1.735 1.136 5.553.539 5.448-3.832-.068-2.862-4.78-4.35-7.144-2.208.137-2.765 1.362-6.916 3.1-8.134 1.183 1.015 1.437 2.51 4.126 2.106 1.91-.287 3.433-2.274 2.619-4.602a5.755 5.755 0 0 1-.313-1.787c.005-.48.057-1.332-.04-1.81-.13-.63-.176-1.314-.176-1.314 23.083-6.647 39.621-17.382 51.593-27.832zm-105.416.94c-.684-.002-1.242.513-1.245 1.152-.004.64.548 1.16 1.232 1.164.684.003 1.241-.512 1.245-1.152.003-.639-.548-1.16-1.232-1.163zm-5.847 1.103c-.684-.003-1.241.512-1.245 1.151-.003.64.548 1.16 1.232 1.164.684.003 1.242-.512 1.245-1.151.004-.64-.548-1.16-1.232-1.164zm61.281.857c-.684-.003-1.241.513-1.245 1.152-.003.64.548 1.16 1.232 1.163.684.004 1.241-.512 1.245-1.151.004-.64-.548-1.16-1.232-1.164zm-65.732.914-1.992 10.767 8.477-8.014-2.29-.059-.444-1.84-2.147.637zm57.316 2.58c-.684-.004-1.242.512-1.245 1.15-.004.64.548 1.161 1.232 1.164.684.004 1.241-.512 1.245-1.151.003-.64-.548-1.16-1.232-1.164zm5.457 1.283c-.684-.003-1.241.512-1.245 1.151-.003.64.548 1.16 1.232 1.164.684.003 1.242-.512 1.245-1.152.004-.639-.548-1.16-1.232-1.163zm-68.053 1.072c-.684-.003-1.242.512-1.245 1.151-.004.64.548 1.16 1.232 1.164.684.003 1.241-.512 1.245-1.152.003-.639-.548-1.16-1.232-1.163zm72.97 1.231-2.026 1.422-1.85-1.07-.446 2.287-1.587.767 6.613 4.38zm4.887 3.106c-.684-.003-1.241.512-1.245 1.152-.004.639.548 1.16 1.232 1.163.684.003 1.241-.512 1.245-1.151.003-.64-.548-1.16-1.232-1.164zm-70.036.048c-.684-.003-1.242.512-1.245 1.151-.004.64.548 1.16 1.232 1.164.684.003 1.241-.512 1.245-1.151.003-.64-.548-1.16-1.232-1.164zm-5.509 1.485c-.684-.003-1.241.512-1.245 1.151-.003.64.548 1.16 1.232 1.164.684.003 1.242-.512 1.245-1.151.004-.64-.548-1.16-1.232-1.164zm72.344 3.414c-.684-.003-1.241.512-1.245 1.152-.003.639.548 1.16 1.232 1.163.684.003 1.242-.512 1.245-1.151.004-.64-.548-1.16-1.232-1.164zm-5.197 1.01c-.684-.003-1.241.513-1.245 1.152-.004.64.548 1.16 1.232 1.164.684.003 1.241-.512 1.245-1.152.004-.639-.548-1.16-1.232-1.163zm-47.956 1.414c.007 0 .015.005.02.01.139.14.563 1.195.177 1.73-.197-.089-1.082-.867-.853-1.13.106-.12.54-.612.656-.61zm-28.115 1.678s1.198.064 1.46.172c-.001.286-.293.91-.62 1.609-1.637 3.49-1.907 7.41-.286 11.196 2.548 5.142 9.755 17.312 9.209 18.42l-16.076-.017.083-2.285c4.517-.144 5.242-2.722 4.127-4.861-.772-1.482-2.956-2.338-4.96-1.572-2.896 1.106-3.081 2.44-4.124 4.503l-.457-.549c.874-1.073 1.17-2.107 1.105-3.288-.064-1.158-.102-.838.334-1.472 2.53-2.514.901-5.81.901-5.81-.289-2.022 7.612-14.871 9.304-16.046zm-36.762.15c4.553 3.423 8.446 14.895 8.206 15.07-.212-.161-3.704 3.661.015 7.258 0 0-.24 2.15.472 3.258-1.669 3.194-1.962 3.435-2.116 6.065-.032-.01-.287-.032-1.82-.046-7.575-.07-7.979 8.93-.412 9.461 1.036.073 1.393-.145 2.015.435.63.738 1.194 1.48 2.278 1.103.257.003.672.23 1.104.61.723.924 1.775 1.584 3.283 1.34.535.05 1.08.197 1.656.395.66.492 1.81.867 2.712.504.269-.108.784-.142 1.203.04 1.092.47 2.207.185 2.62-.106 1.018-.487 1.239.304 1.186 1.031-.527 1.664.603 3.232 2.324 3.853 3.632 1.068 5.477-1.014 6.283-5.157.198-.908.375-1.988.375-1.988l12.176.358-17.592 18.855-29.766.195.194-62.58c1.309-.065 2.295.04 3.604.047zm109.479 3.915c2.216.81 2.385 2.278.177 1.63-3.586-1.05-7.463.982-8.287 3.91-.152.54-.313.949-.405 1.052-.506.566-.478.047-.32-1.58.308-3.158 2.712-5.435 5.83-5.514 1.02.007 2.12.21 3.005.502zm-1.115 2.23c.929.004 1.91.263 2.642.863.829.859.577 1.424-.062 1.392-3.003-1.19-6.837.213-8.356 3.756-.931 2.175-1.09 1.006-.674-.678.77-3.05 3.27-5.294 6.45-5.334zm-20.933.738c-1.312-.002-2.56.234-3.199.792-1.212 1.059-.209 1.081 1.98.383 1.064-.34 3.107-.17 4.411.258 1.094.36 1.48.51 1.42.191-.052-.958-2.423-1.622-4.612-1.624zm24.512 3.684c.548 1.187.177 3.272-1.758 3.474-2.282.238-3.44-3.341.72-2.696-.53-1.431-2.402-1.045-3.325-.688-1.883.758-3.174 2.478-4.343 5.644-.347.939-.6 1.429-.73 1.334-.217-.159-.312-1.62.2-3.378.924-3.167 3.144-5.073 5.484-5.123 1.516-.21 3.278.404 3.752 1.433zm-32.62-1.536c-.203.041.149.71.697 1.746.304.575.509 1.317.508 1.463-.006.562.455.703 1.135.346.786-.413.913-.727 2.019-.26 1.04.518 2.07.847 3.026.332.519-.28.86-.266 1.86-.015 1.193.3 1.351.346 2.245.002 1.141-.44 2.493-.128 2.779.172.272.287.115-.109.742-1.447.29-.62.706-1.375.595-1.587-.152-.288-1.191.024-2.322.295-.612.147-1.195.1-2.365-.214-2.468-.664-4.025-.484-5.577.194-.867.38-3.032-.16-5.216-1.003a.255.255 0 0 0-.127-.024zm4.826 6.208a2.91 2.91 0 0 0-2.597 1.528c-.544 1.247.358 3.507 1.749 3.708 1.237.178 1.194-.53.572-.724-.942-.294-2.046-1.563-1.322-2.657.498-.753 1.99-.74 3.023.195 2.08 1.884 4.475 2.02 4.938.395.14-.65-.384-1.518-1.203-1.286-.633.18-2.094.228-3.313-.555-.632-.405-1.263-.593-1.847-.604zm22.042 6.061c5.338-.273 3.005 6.528-.065 4.764-1.097-.63-.596-2.922 2.328-2.866-2.857-2.102-4.826.431-4.14 3.287-.65.928-.838 2.702-1.266 3.704-.655 1.143-1.148-1.862-.477-4.76.65-2.806 1.73-4.032 3.62-4.129zm-30.185.089c-1.101.006.025 1.12.195 1.253 3.31 2.454 4.927 3.969 2.258 3.153-4.338-.988-5.464.155-8.78 1.502-.609.27-.78.1-1.51-.107-2.902-.818-2.699.887.33 2.44 4.572 2.343 8.356 2.886 11.928 1.164 2.297-1.107 2.41-.375.274.852-3.657 1.968-7.493 1.648-13.366-1.81-1.897-1.116-2.168-.377-.227.798 4.435 2.533 10.413 4.84 15.326 1.157.967-.795 1.162-1.209 1.9-.86 1.95.922 1.317-.67-.008-2.173-.468-.532-.814-.961-.78-1.323.117-1.298-.652-1.296-1.354-1.268-.839.035-.744-.228-1.767-1.289-1.493-1.549-3.317-3.208-4.419-3.49zm-44.447 6.69c-1.848.127-2.272.203-1.84 3.742.08.666.386 2.66.47 3.41 1.044 9.268.134 13.361-2.634 14.482-.995.403-1.972.249-2.699-.027-1.744-.662-2.453-2.65-1.17-5.005.346-.634.764-1.616.932-2.183.169-.567.548-1.81.84-2.765.708-2.318 1.105-5.851.714-9.228-.266-2.294-.203-2.486.417-4.029 1.354-2.278 2.227-3.443 5.052-3.458 3.158.326 4.017 4.798-.082 5.06zm67.906.129-.865.033c-1.023-3.243-3.203-2.205-3.577.066l-.734-.011c.15-4.323 5.93-3.123 5.176-.088zm-81.156-2.815c5.896.574 6.963 1.95 7.39 8.61.025 3.223-.213 5.167-.747 5.898-.886.393-1.727-.353-2.99.387-.695.392-.563.433-.858.003-.278-.405.06-2.104.52-3.46.438-1.291-.297-2.048-2.24-3.719-.527-.452-.987-1.078-1.456-1.972-1.001-2.553-1.524-1.434-.69.767.413.949.509 1.416-.76 1.002-.747-.245-1.402.037-1.98.321-1.621.377-3.012-.457-1.605-.947.856-.298 2.391-.728 2.865-.724.344.003.511-.069.512-.22.007-.637-3.116-.583-5.502.172-2.932 1.244-3.098 1.02-2.818-.937.713-4.96 5.66-5.542 10.36-5.181zm57.686.716c1.509-.056 2.884 1.567 2.602 2.937l-.717-.046c-.323-2.583-2.935-2.707-3.646.18l-1.037.02c.672-2.229 1.766-3.053 2.798-3.091zm17.537.137c.594.333.176 1.225-.46 1.401-.24.055-.997-.443-.813-.744.344-.361.865-.549 1.273-.657zm6.758.471c.416.002.952.203 1.022.725.019.763-.601.603-.807.533-.41-.359-.56-1.231-.215-1.258zm-20.682.51c1.105.127 1.499 1.428.245 1.504-.56.105-.58-1.194-.245-1.504zm-6.729.109c.132.002-.078 1.067-.355 1.222-.549.308-1.244-.034-1.217-.356.066-.768 1.063-.873 1.572-.866zm19.28 2.684c2.103.755 4.837 1.493 7.418.664.942-.327 1.696-.718 1.692-.344-.004.39-.752.979-2.1 1.325-2.779.713-4.785.422-6.683-.924-.537-.38-.722-.73-.326-.721zm-.875 1.107c3.406 1.88 6.49 2.08 9.273.736 1.126-.36 1.16-.025 1.154.649-5.026 4.084-11.254-.212-10.427-1.385zm-83.879 2.428c-.856 1.592-1.333 5.524-2.723 6.683-9.436-.553-3.3-12.16 2.723-6.683zm58.504-1.018c-.535.26-.07 1.514.768 1.856 7.204 2.939 10.905 3.302 15.018 1.987 1.704-.545 2.641-1.84 2.729-2.472.104-.75-.994-.83-2.922-.043-5.866 2.117-9.53.426-14.247-1.26-.438-.155-.884-.211-1.346-.068zm-27.646-.046-.08 9.837-6.875-.147.09-1.455 5.144.167-.041-7.026-5.97-.081-.003-1.304 7.735.01zm1.597.032 6.86.043.338 1.003-7.204-.035.006-1.011zm-27.694 2.988c-.453.375-1.24.456-1.563.148-.722-.688.018-1.944 1.179-1.93 1.16.013 1.253 1.061.384 1.782zm3.17-1.584c1.037.01 1.374.916.581 1.643-.537.452-.81.48-1.29.144-.603-.5-.28-1.76.708-1.787zm-6.772.21c.273-.008.512.019.686.273.625 1.21-1.45 2.034-1.876 1.134-.315-.73.493-1.386 1.19-1.407zm38.792.322.392 1.268-7.906-.005.007-1.267zm-28.302.226c1.178.138.99 1.245.44 1.736-.944.808-1.855.54-1.61-.551.154-.683.63-1.175 1.17-1.185zm-6.378 3.597c-.423 1.383.448 4.19.182 4.481-.58.636-1.506.304-1.916.084-1.423-.864-1.485-5.892-.102-6.185.886.42 1.487-.322 1.894-.428.406-.107.13.577-.058 2.048zm20.91-1.963c.778.004 1.407.598 1.402 1.325-.004.728-.639 1.315-1.417 1.312-.78-.004-1.407-.597-1.403-1.325.004-.728.639-1.316 1.417-1.312zm6.252.201 8.088.04c.48.632.429 1.058.29 1.494l-8.387-.032.009-1.502zm-23.753.055c.369-.002.55.738.298 1.58-.454 1.521-.442 3.595-.142 4.496.202.622.402 1.049.281 1.225-.422.616-1.7.187-2.24-.63-1.316-2.309-1.08-6.604.505-6.263.594.283.938-.153 1.298-.408zm-7.133.545c-.394.581-.134 3.854-.175 4.124-.051.34-1.05.16-1.607-.079-1.37-.608-.988-2.135-.714-3.367.305-.968.966-1.037 1.781-1.121.45-.045 1.044-.006.715.443zm11 .234c.437-.012.496.289.39 1.5-.084.947-.126 1.755.035 2.65.341 1.902.381 2.418-.131 2.787-.61.438-1.426.3-2.057-.223-1.292-.968-1.352-5.684-.33-6.087.947.225 1.548-.472 2.094-.627zm27.925 1.563-1.17 1.487-6.896-.033.013-1.489 8.053.035zm-24.598 1.877c1.076.017.888 1.794.303 2.908-.495.672-.855.738-1.588.102-.833-.723.174-3.02 1.285-3.01zm22.572.608-.975.827-5.055-.02.005-.827 6.025.02z" />
  <path fill="#d40000"
      d="m49.06 236.256-8.347-6.183c9.97-.155 19.934.109 29.9.317l-9.992 6.58c-2.026-2.091-3.214-4.893-6.099-6.256-2.158.82-3.646 3.678-5.462 5.542zm73.529-1.78c-.17-.025-.307-.039-.408-.099-.229-.135-.375-.436-.537-1.424-2.427-10.856-14.66-10.148-14.581-9.83-.09-.427 15.274-13.256 24.318-23.336 2.673 7.75 10.81 25.466 10.467 25.4 0 0-2.383.007-8.56-.167-5.636 2.345-9.56 4.637-9.395 7.983-.038 1.178-.345 1.666-.764 1.563-.06-.013-.302-.053-.54-.09zm27.653-34.77c7.955-.078 9.476-3.702 10.385-4.136 5.23-.777 8.44 2.417 10.71 5.83 2.915 1.659 2.558.138 3.178-2.422l7.292-1.959-.02 2.168c-2.254 1.12-5.606 4.002-5.606 4.002l-2.215-.133-1.28 1.577c-5.072 2.532-10.048 5.555-15.393 7.505 0 0-6.347-7.754-7.05-12.433zm-99.115.194.157-42.875c3.292-.2 9.35-.143 9.35-.143 2.556-4.166 6.021-6.113 9.595-8.523.47 5.288.632 10.336.489 15.623-9.488 10.708-14.798 23.919-9.096 43.73l-3.486-.38zm52.077 2.658c2.735-8.93 4.87-17.993 5.787-27.357l17.949-.161.326 5.746zm61.22-19.224-.244-16.043c13.18-14.56 14.026-27.311 9.259-43.46 4.32.952 6.53 4.115 10.629 8.48l-.232 41.83c-2.867.386-9.971.741-9.971.741-.226 1.959-6.254 6.616-9.441 8.452zm-55.318-25.554-.759-7.077L131.784 130c-1.975 9.012-4.356 18.263-5.089 27.863zm-38.568-22.283c-1.67 1.012-7.772-4.977-8.753-8.988 1.55-1.935 15.086-8.051 15.086-8.051s7.838 9.505 7.493 13.45c-3.51.854-6.55 1.088-9.227 3.745-1.522.12-2.048-1.484-4.599-.156zm-10.604-8.056c1.876.291.658 2.654.36 4.387l-9.938 2.7c3.427-2.703 5.859-5.007 9.578-7.087zm32.428-20.772c2.04-.048 4.162.749 5.738.164.59-.21 1.766-.537 3.053-.303 2.961.872 4.019-2.177 5.91-2.18 2.446.017 3.812-1.577 3.847-4.78.014-1.386.14-1.541.419-1.678.836-.408 1.725.175 1.832.936 1.721 5.91 6.123 11.238 13.113 10.85-5.594 5.273-22.61 21.484-22.61 21.484-3.001-8.696-7.006-16.796-11.302-24.493zm72.032-4.733 10.233-6.865 6.064 6.97 5.312-6.581c3.09 2.09 10.115 6.753 10.115 6.753s-21.146.189-31.724-.277z" />
  <path
      d="m170.529 39.275-93.724.103 18.086 22.825c19.37-3.587 36.2-1.113 53.666 1.826zm-2.403 1.141-6.278 7.212c-1.717-1.467-5.573-.959-5.046 2.235-4.768-2.346-5.817 4.026-1.757 3.785-.516 1.25-4.615 1.56-5.759-.718-4.22 2.183-5.493.039-6.6-1.356 5.329 3.42 7.97-3.541 2.086-3.963 2.337-4.36-5.9-6.385-5.446-.693-5.433-1.179-4.226 5.981-.223 4.535-2.615 3.634-6.859 1.163-7.716.449-2.198 1.523-6.337 1.552-7.482-.906 6.048 1.167 5.427-6.287.041-4.597 2.898-5.709-6.64-4.985-4.35-.286-5.424-.22-4.258 6.037.512 4.996-4.254 3.708-7.405.218-8.074.14-2.52 2.572-6.913 1.135-7.51-.395 4.31 1.615 5.763-5.158.317-4.777 1.419-4.36-6.41-4.928-4.71.04-4.31-.934-4.58 5.523.26 4.542.289 1.77-3.524 3.445-5.854 1.724-1.721.87-3.608 2.227-5.83.193 3.405-.495 3.995-5.866-1.505-4.732.28-3.297-1.745-3.487-4.254-2.662l-3.983-5.098zm-64.699 7.786c-.301.613-.807 1.03-.692 1.499.095.385.514.92 1.099 1.645 4.657 5.736 14.165 5.591 17.058-.285.589-1.09.471-1.34-.225-2.273-.841-1.128.123-2.321 1.16-2.215 1.548.158 1.81 1.421 1.059 2.315-1.629 1.896 2.791 6.226 7.225 6.924 5.684.896 11.099-2.817 10.367-6.171-.042-.193-.146-.372-.188-.573-.59-2.809 4.163-1.441 2.44.338-.648.643-.997.834-.914 1.545 1.349 5.944 9.07 6.604 12.758 4.792-4.787 7.211-12.274 1.599-13.57-3.463-6.714 8.96-14.71 7.052-19.128-.874.524.496-8.87 14.124-19.367.052-4.54 11.263-12.66 3.595-12.1 3.135 3.74 1.97 10.554 1.297 11.244-4.736.095-.745-.51-.794-.856-1.384-1.757-2.992 3.964-2.985 2.63-.27zm-17.626.656c.848.078.988.409.842 1.214zm72.715 2.477-1.236 1.435c-.289-.706-.294-1.353 1.236-1.435zm13.358.543c-2.916.1-5.189 3.855-5.07 8.877.058 2.435.482 8.547.655 9.457.242 1.272-.039 2.993-.518 3.173-1.265.473-1.741.78-2.085 1.34-.894 1.46-.17 3.115 1.692 3.864 1.33.536 3.023-.186 4.175-1.775.64-.882.792-1.275 1.364-3.499.264-1.023.25-2.724-.036-4.285-.652-3.55-.128-7.966 1.188-10.035 2.36-3.71 2.331-6.146-.082-6.927a3.733 3.733 0 0 0-1.283-.19zm-.155.566c3.393.028 3.284 3.191 1.397 4.155-.73.301-1.623.368-2.511-.182-.999-.546-.866.072.167.78 1.213.832 1.733.784 1.067 2.718-.62 1.8-.962 5.698-.64 7.915.878 6.066.09 9.084-2.646 10.122-1.348.512-2.796-.226-3.164-1.238-.575-1.583.473-2.935 3.04-2.543 0 0 .184-.502-.454-5.766-.888-7.323-.494-12.43.954-14.208.773-.95 1.77-1.761 2.79-1.753zm22.973 7.658c-.793.002-1.648.2-2.52.654 0 0-.113 3.29-.22 3.788-.591 2.781-.424 3.113.962 3.515 3.362.975 6.14-1.1 6.035-4.374-.059-1.84-1.878-3.59-4.257-3.583zm.453.442c1.841-.043 3.501 1.976 3.31 3.871-.11 2.268-2.438 3.493-4.517 3.087-.615-.09-1.252-.202-1.447-.635-.414-.603.258-.818 1.657-.805 1.533.014 1.818-.18 2.331-.98 1.017-1.586-.261-3.607-1.908-3.237-.561.126-.644.363.013.539 2.01.858 1.253 2.039.552 2.516-.835.567-2.205-.223-2.438-.697l.159-3.07s.669-.58 2.288-.59zm-20.836 14.129s-.77.339-1.141.656c-.818.698-.995 1.76-.602 2.808.174.464.146.542-.477 1.292-1.775 2.138-2.008 3.21-1.116 5.15.405.88.408.88.014 2.04-1.69 4.977-5.001 10.611-8.524 14.507-.544.602-.765 1.22-.765 1.22s.82-.035 1.275-.245c3.627-1.664 7.466-4.904 11.03-7.023-5.641 4.231-11.647 8.013-11.647 8.013l7.641.42c-1.93 1.83-35.593 28.207-26.96 75.857 10.476-2.38 15.367-6.391 20.97-11.03.031 3.837.063 14.161.098 14.161.108-.169-4.831-1.765-3.676 2.047.688 2.092 1.012 7.379-.245 10.356-.053.126.531.329.472.446-.067.135-.794.133-.794.133-1.918 3.302-6.815 4.004-9.226 3.892-.889-.083-.536 1.059-.42 1.471.438 1.708 2.52 5.37 6.414 11.253l1.03.132-.6.512c.46.792 1.69 2.283 1.69 2.283l.051.504s2.139 2.813 3.287 4.134c.078.09.26-.122.339-.032.637.723 1.402 1.534 2.05 2.256.05.056-.103.26-.051.313a534.27 534.27 0 0 1 3.62 3.796l.48-.105 1.887 2.008c15.783-6.615 32.32-21.339 32.149-21.308l.313-31.86-18.643-.143.157-42.208 18.527 17.298-.094-4.938c-4.203-3.774-21.09-19.867-21.09-19.867 2.473-.31 4.87-1.048 7.196-2.214 4.037 2.103 8.36 3.375 13.325 2.782l.006-4.682c-5.632-.037-9.116-1.798-11.63-3.917l-3.478-.126c-6.45 4.535-10.98 2.394-15.86 1.473l-3.352-4.562 34.592.004-.186-11.034-5.252.083-3.4-2.374 3.95 1.583s-.059-.607-.844-1.766c-2.114-3.267-4.793-8.072-6.392-12.26-.773-2.126-.772-2.038-.103-3.279.92-1.704.734-3.774-.458-4.944-.84-.825-.812-1-.532-1.61 1.137-2.414-1.567-3.318-1.58-3.163-5.805 2.059-13.565-.13-13.425-.193zm13.472.944c1.157-.003 1.28.472 1.272 1.278-.107 1.475-2.166 2-3.096 2.2-4.45.93-12.196.329-12.69-1.611-.362-1.426.592-2.211 3.744-1.49 5.068 1.044 8.213-.036 10.77-.377zm-14.37 4.04c.462 0 1.013.442 1.167 1.16.132.612-.56 2.411-1.133 2.824-1.418 1.021-2.685-.584-1.731-2.319.55-1 1.105-1.663 1.698-1.664zm15.165.278c.21.006.588.049.833.212 1.115.746 1.204 3.307.156 3.672-1.068.372-2.052-.672-2.034-2.301.01-.999.411-1.601 1.045-1.583zm-3.557.512c.228-.01.47.037.717.145.93.407 1.368 3.095.438 3.947-.72.661-2.263.618-2.705-.764-.529-1.651.32-3.277 1.55-3.328zm-7.881.037c1.365.015 1.66 2.855.316 4.018-1.123.971-2.825 0-2.28-1.935.274-.967.894-2.02 1.964-2.083zm3.88.472c1.996.33 1.802 4.902-.814 4.433-1.485-.98-1.426-4.375.814-4.433zm-8.768 4.857 2.824.26s-3.699 7.38-7.058 10.19c-1.257 1.178-1.978 1.225-1.021-.034 2.11-2.41 5.255-10.416 5.255-10.416zm16.94.13c1.626 4.121 3.297 8.304 5.525 12.52-3.405-3.1-6.411-7.856-9.182-12.32zm-13.288.332 1.87.028c.608 2.667 1.676 4.37 2.935 5.836 1.106-1.726 1.81-3.625 2.494-5.649l1.486-.011c.567.32-1.796 8.337-4.071 9.302-2.394-1.836-4.393-6.778-4.714-9.506zm-.799 1.896c-.158.19 2.865 7.083 5.443 9.301 2.454-2.202 4.027-5.112 5.093-8.584l7.973 10.576-7.802-5.047c-1.578 2.42-3.25 4.728-5.254 6.646-2.137-2.183-3.983-4.77-5.92-7.23-3.033 2.078-5.165 4.302-9.098 6.235.017.082 7.729-7.693 9.565-11.897zm-.795 7.485 5.43 6.268-14.548-.265zm11.833.157 9.147 5.95-13.68.066zm-73.158 2.547s.075.375.164.601c1.594 6.22 6.06 11.406 12.825 10.826l-22.343 20.656s-3.605-11.657-10.974-23.625c0 0 1.355.267 2.413.465.993.146 1.747.106 2.493-.073.57-.076 1.006-.421 1.514-.522.858-.163 1.933.13 2.501.32 1.526.277 2.57-.517 4.49-2.086.512-.417.706-.314 1.347-.31 2.396.018 3.935-1.896 3.682-4.876l-.114-1.324-.311 1.487c-.588 2.803-.994 4.01-3.966 4.115-.72.025-.994.476-2.136 1.383-1.6 1.27-2.726 1.375-3.852.87-1.15-.516-1.258-.217-2.347.262-1.248.548-3.06.474-4.692.029-2.277-.622-2-.416-2-.416 13.086 22.036 17.608 43.133 17.21 61.851-.565 26.672-10.67 48.15-19.5 61.086 0 0 1.503-.135 2.842-.312.647-.164 1.142 0 1.779.212.594.199 1.043.191 1.627.13.456-.045 1.568.016 2.284.116 1.624.226 1.733.027 3.512-1.57 5.049-4.535 4.72-4.368 8.36-4.24 5.459.192 9.807 3.58 11.596 9.048.226.691.522 1.661.563 1.661l-.347-1.447c-1.557-7.327-8.239-10.037-13.83-9.966l23.72-21.996c-.12.02 5.375 16.85 10.202 24.363.007.052-1.474-.605-4.19-.289-1.477.172-3.127-.018-4.054-.171-1.193-.034-1.921.291-3.414 1.429-.62.49-1.18 1.03-2.39 1.5-2.876 1.118-4.026 2.284-4.058 5.224-.005.535-.096 1.219-.089 1.484.002.07-.004.196.014.196.049 0 .116-.11.173-.186.145-.195.437-.726.667-1.957.41-2.197.909-2.964 3.143-3.928.67-.29 2.082-1.079 2.71-1.541 2.062-1.52 2.749-1.867 4.414-1.497.948.211 1.753.322 3.027.184 1.515-.164 1.604-.236 3.22.162 1.098.27 2.456.534 2.456.534-22.63-43.036-21.652-82.825 1.147-123.087 0 0-6.682.041-6.967.202-.109.062-.92-.01-1.804-.164-1.817-.316-1.42-.108-5.734 3.903-5.334 4.958-13.798.94-16.307-7.437-.131-.438-.245-.702-.444-1.013-.064-.099-.232-.266-.232-.266zm21.594 5.015c.982.102 1.713.348 1.586 1.207l-31.66 28.672-.48-1.86zm6.64.207c-.391.714-1.448 1.605-1.913 2.278l1.703 2.002-.96 1.602-2.622-2.082-5.04 4.6 4.156 4.405-3.98 3.714-1.31-1.4 2.103-2.036-3.234-2.86-5.757 5.173 4.641 4.455-3.44 3.05-1.357-1.217 1.805-1.843-3.027-2.954-5.361 5.058 4.196 4.41-3.278 3.008-1.438-1.377 1.576-1.519-3.001-2.968-5.463 4.982 4.383 4.491-3.255 2.692-1.136-1.135 1.576-1.566-2.946-2.977-3.388 2.842-.55-1.963 33.527-30.803zm1.92.468-1.421 2.63-1.08-1.12 1.422-1.354zm-78.669-.215c-.865.193-20.782 10.435-32.15 21.728l-.06 4.229-.422.503.165 6.545.281.35.081 2.67-.453.702-.047 7.328.601.098.046 8.968 18.572.138-.26 42.843s-10.843-11.257-18.66-17.908l.003 5.008 20.664 20.162c-1.43.181-3.291.495-6.103 1.927-6.719-3.968-14.518-2.802-14.518-2.802l.002 5.102c4.957-.422 9.426.233 14.615 3.535 4.303-2.695 9.479-4.322 17.17-2.127 1.68 2.517 3.36 5.114 5.046 6.805l-36.786.075-.013 10.333c1.632.039 5.713.028 5.713.028 2.048 3.799 6.085 8.99 7.737 15.506-2.332 2.59-2.159 4.686.081 7.317-.026 1.182-.415 2.486 1 3.81 4.691-2.117 9.97-1.142 13.897-.03 1.33.376 1.842-1.04 1.805-2.826-.112-1.023-.104-1.46.74-2.137 2.01-1.612.787-4.949.473-5.024-.1-2.922 10-17.507 10.005-17.238l-2 .666-8.564-.006c22.637-20.187 32.18-43.294 30.356-69.448-.402-6.589-1.483-9.612-1.483-9.612-7.951 3.255-14.485 5.619-20.853 11.927l-.344-13.628c.35.647 2.697 1.254 3.754.434.723-.437.798-.908.14-2.565-.953-2.405-1.154-7.555-.422-9.3.085-.204.16-.747.224-1.28.087-.716-.082-.758-.152-.747.184-.04.958.11 1.051.034 2.718-2.212 5.629-3.588 9.19-3.716l.101-1.625c-2.606-6.246-4.829-8.7-7.201-12.197 0 0-.677-.214-1.106-.133l.554-.54c-3.328-4.994-8.078-9.546-12.444-13.867.012-.015.002-.021-.026-.015zm-.15.845 2.369 2.067c-11.391 5.049-22.643 12.472-33.739 22.561l.173-3.727c12.538-10.905 21.98-16.127 31.196-20.9zm72.948 4.085 1.423 1.34-1.994 2.14 1.282 1.234-.727 1.636-3.277-3.215zm-70.934-.177c.749.004 1.352.574 1.348 1.273-.004.7-.614 1.263-1.362 1.26-.748-.004-1.351-.574-1.347-1.273.004-.7.613-1.264 1.361-1.26zm97.22 2.224c23.026 24.207 10.937 59.164-20.028 67.424l-.332-1.981c31.247-9.667 38.748-42.483 18.623-63.236Zm-93.217-.296 1.468 1.605c-13.238 5.826-26.168 14.595-38.689 27.276l-.103-3.219c11.757-11.43 24.304-19.679 37.324-25.662zm-8.52.45c.748.004 1.352.574 1.348 1.273-.004.7-.614 1.263-1.362 1.26-.748-.004-1.352-.574-1.348-1.273.004-.7.614-1.263 1.362-1.26zm-4.138 2.361c.748.004 1.351.574 1.347 1.273-.004.7-.613 1.263-1.361 1.26-.749-.004-1.352-.574-1.348-1.273.004-.7.614-1.263 1.362-1.26zm13.73.899c.748.004 1.351.574 1.347 1.273-.004.7-.613 1.263-1.362 1.26-.748-.004-1.351-.574-1.347-1.273.004-.7.613-1.264 1.362-1.26zm58.83 1.162 1.348 1.344-2.16 2.002 3.042 3 2.956-2.63-1.498 3.933-26.073 24.1-.527-2.544 2.053-1.908-3.112-2.935-.54-1.95 3.093-2.677 1.282 1.244-1.81 1.933 2.881 2.679 5.288-4.5-4.317-4.477 3.602-3.224 1.232 1.135-1.723 1.64 3.001 3.072 5.426-4.806-4.409-4.402 3.582-3.266 1.343 1.211-1.806 2.004 3.053 2.789 5.315-4.855-4.323-4.293zm-76.619.475c.749.004 1.352.574 1.348 1.273-.004.7-.614 1.264-1.362 1.26-.748-.004-1.351-.574-1.347-1.273.003-.7.613-1.263 1.361-1.26zm21.362.35 1.022 1.607c-15.761 7.345-26.675 14.727-42.859 31.73l.012-2.15c12.5-14.19 25.465-23.316 41.825-31.186zm-7.897.151c.748.004 1.351.574 1.347 1.273-.004.7-.613 1.263-1.362 1.26-.748-.004-1.351-.574-1.347-1.273.004-.7.613-1.264 1.362-1.26zm121.626 1.082c2.76 2.32 8.571 4.647 12.325 4.421l.086 2.774c-6.55.549-12.245-3.396-12.245-3.396-5.058 2.848-10.192 3.186-15.535 1.914l-2.034-4.13c7.914 3.476 15.374.232 17.403-1.583zm-31.33.598c.288.503 1.263 1.088 1.263 1.088 6.115-1.456 7.984 4.436 5.117 7.783l.8 2.47c1.09.19 2.043.553 2.815 1.058 1.48.97 2.29 2.642 2.094 4.39.197 1.897-2.849 3.648-3.012 3.515l-.056 2.712c.85.669 1.875 1.317 2.525 2.261 1.447 2.297.855 4.601-1.404 6.041-1.345.84-2.798.944-2.856.856l-1.427 3.073c1.238.661 1.58 1.777 1.77 2.574.412 1.729-.898 3.971-2.53 4.793-2.06 1.038-4.855.093-4.853.095l-2.012 1.86c.506 1.624.642 2.592.364 3.541-.688 2.35-3.332 3.26-5.451 3.073-1.665-.147-2.91-1.29-2.91-1.29l-2.224.783c.063 0 .019 2.627-1.106 3.425-.354.339-1.608 1.088-1.608 1.088l-.283-1.81c.882-.588 1.437-2.02 1.265-3.07l4.805-2.17c-.001.163 1.304 1.358 2.2 1.533 1.838.36 3.768-.973 3.78-2.552.008-.92-.557-1.55-.714-2.295l4.091-3.916c1.681.55 2.863.647 3.618.245 1.427-.76 1.819-2.342 1.55-3.295-.317-1.128-1.387-1.861-1.46-1.968l2.3-5.352c1.058 0 1.714-.151 2.542-.649 1.688-1.024 1.482-3.032.77-3.988-.866-1.164-2.132-1.385-2.232-1.358l.198-5.57c0 .046 2.302-1.019 2.556-2.26.374-1.827-.445-2.994-2.847-3.524-1.332-.294-1.263-.053-1.263-.053l-1.873-5.05c3.022-1.703 2.082-4.437.561-5.36-1.604-.975-3.882-.09-3.882-.09s-1.03-.966-1.81-1.744zm-80.614.626c1.966 2.497 5.29 7.497 7.137 11.965.08.195.034 1.181.034 1.181-5.347.409-7.193 2.358-9.1 3.726-1.469-.714-2.085-1.545-4.757 0-.009.074-6.769-3.867-8.037-9.177 4.864-2.768 9.499-5.404 14.723-7.695zm-27.13-.1c.748.004 1.351.574 1.348 1.273-.004.7-.614 1.263-1.362 1.26-.749-.004-1.352-.574-1.348-1.273.004-.7.614-1.263 1.362-1.26zm12.843.313c.749.004 1.352.574 1.348 1.273-.004.7-.614 1.264-1.362 1.26-.748-.004-1.351-.574-1.347-1.273.003-.7.613-1.263 1.361-1.26zm92.701 2.009c2.32 2.883 5.81 8.333 6.62 13.148 1.14 6.772.315 13.866-3.033 18.814-6.082 10.572-16.54 12.779-16.548 13.148l-.094-2.174c.095.49 7.997-2.577 13.404-9.559 3.34-4.733 5.26-11.512 4.649-16.811-.356-7.636-6.112-14.703-6.16-14.73zm-109.786.497c.748.004 1.352.574 1.348 1.273-.004.7-.614 1.263-1.362 1.26-.748-.004-1.352-.574-1.348-1.273.004-.7.614-1.264 1.362-1.26zm12.83.082c.748.003 1.351.573 1.347 1.273-.004.699-.613 1.263-1.362 1.26-.748-.005-1.351-.574-1.347-1.274.004-.699.613-1.263 1.362-1.26zm115.657 2.701c3.005.32 6.653 5.432 9.983 8.355l-.197 41.53-9.995.14c-1.318 2.916-4.353 5.789-9.178 8.616l.082-15.563c16.492-16.34 12.13-34.335 9.305-43.078zm-132.182-.174c.748.004 1.352.573 1.348 1.273-.004.7-.614 1.263-1.362 1.26-.748-.004-1.352-.574-1.348-1.273.004-.7.614-1.264 1.362-1.26zm12.348.287c.749.004 1.352.574 1.348 1.273-.004.7-.614 1.263-1.362 1.26-.748-.004-1.351-.574-1.347-1.273.003-.7.613-1.263 1.361-1.26zm126.876.72 20.325 19.353-.087 2.825-22.903-21.978zm-119.395 1.226.528 2.421c-.655-.972-.678-1.331-1.822-1.506zm-11.064.65c.748.003 1.351.573 1.348 1.272-.004.7-.614 1.264-1.362 1.26-.749-.004-1.352-.574-1.348-1.273.004-.7.614-1.263 1.362-1.26zm-12.24.294c.748.004 1.351.573 1.347 1.273-.004.7-.613 1.263-1.362 1.26-.748-.004-1.351-.574-1.347-1.274.004-.699.613-1.263 1.362-1.26zm114.956.562 4.02 2.69-1.342 4.808-4.11-3.488zm-93.222-.064.716.4-.853 3.29-9.303 3.087c2.999-2.368 6.083-4.95 9.44-6.777zm1.513 1.539c.647 2.444 2.058 6.06 3.797 9.125-1.195.57-5.493 2.815-5.487 3.869.594 1.913 5.11 3.687 5.11 3.687a46.72 46.72 0 0 0-4.732 9.166c-.767-1.234-.83-6.088.849-8.099-1.64-.613-3.881-2.008-5.582-3.448 1.123-3.64 5.832-5.793 6.038-5.82-.083.184-1.345-7.62.007-8.48zm-15.077.54c.748.004 1.351.574 1.347 1.273-.004.7-.613 1.263-1.362 1.26-.748-.004-1.351-.574-1.347-1.273.004-.7.613-1.264 1.362-1.26zm103.425.61c5.97 10.526 2.333 19.625-7.32 26.111l.237-2.474c6.66-4.466 11.006-13.301 6.208-21.77zm-114.872-.26c.748.004 1.351.574 1.347 1.273-.004.7-.613 1.264-1.362 1.26-.748-.004-1.351-.574-1.347-1.273.004-.7.613-1.263 1.362-1.26zm96.424.538c-4.51 15.39-4.44 22.453-4.977 26.629l-17.172.053-.637-5.56Zm-68.604.09s3.706 3.25 7.033 6.087l-.404.735-3.252.39c-2.461-4.589-3.377-7.212-3.377-7.212zm-3.093 1.676.025.005.194 2.297c-1.115-.044-13.218 4.612-22.538 12.094 1.396-2.27 3.74-4.442 6.006-6.292 4.821-4.378 16.313-8.104 16.313-8.104zm-17.17.44c.748.004 1.351.574 1.348 1.274-.004.699-.614 1.263-1.362 1.26-.748-.005-1.352-.574-1.348-1.274.004-.699.614-1.263 1.362-1.26zm7.595 1.479.683.665-3.213 1.534zm22.34.785c.043-.001.09 0 .136.005.495.061.7.282.983.506-.627-.125-1.242-.196-1.83-.17.15-.164.404-.332.71-.341zm-12.267.417.284 1.717c-6.97 3.658-15.255 7.107-27.342 17.675l.02-3.536c7.585-6.498 16.42-11.936 27.038-15.856zm9.346.206c.433.102.818.11 1.213.02 0 0-.255.466-.554.475-.315.01-.66-.495-.66-.495zm2.946.114c.874-.046 1.466.704 1.285 1.665-.69 3.256-.681 6.558.026 8.868.552 1.801.69 2.434.223 2.732-4.111 2.62-6.29-9.293-2.851-12.652.466-.406.92-.592 1.317-.613zm-33.451.252c.748.004 1.351.574 1.347 1.273-.003.7-.613 1.263-1.361 1.26-.749-.004-1.352-.574-1.348-1.273.004-.7.614-1.263 1.362-1.26zm117.715.87 2.525 4.004-3.57 3.696-2.133-4.324zm-87.687 1.739-.14 1.378c-1.832.51-3.431 1.238-4.81 2.32-.266.212 4.227 2.133 4.703 1.696l-.019 1.47c-.065.482-7.437-1.746-7.928-3.384.844-1.084 5.53-3.591 8.194-3.48zm-33.61.568c.748.003 1.352.573 1.348 1.272-.004.7-.614 1.264-1.362 1.26-.748-.004-1.352-.573-1.348-1.273.004-.7.614-1.263 1.362-1.26zm20.133 1.552c-.53.928-1.313 2.16-1.47 3.511-5.082 2.847-10.292 5.503-16.65 12.06l-3.408-.036-.071-.837c6.944-6.122 14.455-11.396 21.599-14.698zm13.048.462.026 1.734c-1.178.008-1.82-.354-2.695-.774.742-.433 1.317-.863 2.67-.96zm38.12.37.944.936-.594.517zm-51.35 3.355 1.87 1.1c-4.843 2.331-9.946 5.786-14.37 10.31l-3.715-.018c4.719-4.73 9.797-8.97 16.215-11.392zm100.043 1.741.347 4.717-4.725 2.392.12-4.975zm-89.596-.42 3.238.347.327 1.282c-2.728 1.603-5.1 3.487-7.376 5.445a26.137 26.137 0 0 1 3.81-7.073zm-7.773.468 1.387.607-.563 2.213c-3.98 1.63-7.155 3.842-10.558 6.828l-3.812-.019c3.357-3.327 8.93-7.508 13.546-9.629zm12.045 2.143c.011-.001.016-.001.015.005l.424 14.535c-14.081 15.245-13.404 30.058-9.398 43.507l-2.669-.126c-3.082-3.617-7.188-7.307-7.188-7.307l.227-42.276 9.65.08c2.303-4.91 8.581-8.38 8.939-8.418zm-11.406 1.985.106 1.938c-2.002 1.097-3.703 2.307-5.167 3.608l-3.624-.018c2.518-2.167 5.017-4.349 8.685-5.528zm32.898 1.11.518 2.29c-32.546 10.824-38.595 42.723-19.547 64.734l-1.311 1.354c-21.891-22.203-12.027-58.249 20.34-68.377Zm-32.658 2.128s.168 1.752.22 2.335l-3.64-.018c.824-.893 1.556-1.82 3.42-2.317zm91.411 1.18-2.118 4.549-5.586.053 2.563-4.547zm-35.377 2.95 5.09.024-.025 4.546-5.09-.025zm-22.032.34.074 2c-2.267 1.064-1.706 2.777-2.275 2.748-1.392.322-5.067 2.12-5.067 2.12-1.294-1.108-3.048-.84-3.865-.307-1.134.685-1.392 2.293-1.077 3.656l-3.911 4.229c-1.874-.76-3.705-.722-4.623.445-1.037 1.315-.656 2.956 1.034 4.8l-2.146 5.07c-.242-.306-3.792.65-3.852 2.617-.063 2.082 2.912 3.455 2.907 3.614l-.173 5.603c-.133-.27-3.048.825-2.669 3.512.35 2.474 3.952 2.19 4.026 2.396l1.926 5.372c-.13-.164-2.663 2.13-1.131 4.318 1.277 1.824 5.022.666 4.991.549l1.03 1.37-1.155 1.157s-.493-.558-.77-.51c-2.179.379-4.607-.1-5.764-1.729-1.574-2.298.218-5.868.781-5.836l-1.327-3.096c-2.45-.057-4.513-2.112-4.614-3.826-.212-3.59 2.948-5.074 2.955-5.05l.11-3.345c-.194.199-3.104-1.752-3.021-3.975.06-1.624 1.534-3.528 3.34-4.288.523-.226 1.338-.584 1.338-.584l1.233-2.734s-1.712-2.337-1.252-4.684c.85-3.551 5.806-3.283 6.588-2.935l2.315-2.681c-1.119-2.463.854-5.305 3.414-5.757 1.138-.165 4.32.555 4.32.555l2.954-1.408c-.042-1.506 1.721-2.477 3.356-3.385zm16.73 5.058 4.362.02-.026 4.546-4.362-.021zm11.62.056 4.92.025-.026 4.545-4.919-.024zm-28.03 1.002-.066 1.738c-28.235 12.625-16.865 39.107-12.864 42.2l-.916 1.863c-4.926-2.833-17.496-33.388 13.845-45.801zm21.65 4.708 5.292.026.02 4.673-5.293-.026Zm-22.913 2.16-1.702 4.25-5.173.38 1.934-4.238zm105.654 3.631 3.538.036c-6.656 7.2-13.823 12.093-20.885 14.758 0 0-.02-.644.199-1.152.174-.403-.098-1.423-.098-1.423 7.853-3.567 13.257-7.729 17.246-12.219zm-18.134-.027c-.915 1.018-1.96 1.915-3.254 2.576l-.496-2.637c1.082-.007 3.75.06 3.75.06zm6.229-.026c.353.843-9.319 5.663-9.351 5.248l.034-1.618 5.225-3.584zm2.083.01h.02l2.714.027c-2.472 3.603-15.476 10.102-14.932 9.181l.538-2.64c4.19-1.699 7.996-4.017 11.66-6.568zm4.574.022 3.572.032c-5.41 6.352-10.874 8.653-16.118 11.372-.314-.045-.172-.154-1.15-.132l-1.782-1.312c.332.288 12.052-6.057 15.478-9.96zm-99.944-.262-.132 1.927c-7.552 6.005-10.61 13.712-6.75 22.693l-.94 1.91c-4.153-9.584-2.86-18.87 7.822-26.53zm34.23.47.371 5.204-23.458 21.118c3.62-11.845 4.642-19 5.638-26.38zm74.733 1.59-.006 2.886c-9.255 9.428-18.552 13.628-26.575 15.306l-.176-1.111 3.723-2.118c11.982-4.808 17.246-9.684 23.034-14.964zm-27.927-.06c.15 2.087-1.86 6.016-4.143 8.227l-3.893-.028-.42-1.58c3.235-1.61 6.236-3.798 8.456-6.619zm1.172.627c1.417 2.158-.759 7.71-.846 7.49-.174.383 12.212 2.893-.559 8.563.268 1.686 1.442 5.288.51 7.506-.283-.853-2.467-6.634-4.171-8.119 3.983-1.04 6.86-3.3 6.554-4.05-.641-1.07-2.415-2.388-5.406-3.362 2.57-3.296 3.342-5.776 3.918-8.028zm-91.073.608.375 4.387-4.544 2.524-.322-4.816zm78.775 4.459c.354.006.686.093.848.259 2.233.857 2.338 11.06.301 12.088-1.48.859-2.51-.54-2.457-.787 1.005-4.69.41-7.594.02-10.877.046-.477.7-.693 1.288-.683zm39.02.342-.02 3.628c-13.226 12.68-27.455 22.654-41.955 28.224l-1.308-2.1c17.615-7.508 32.37-18.27 43.282-29.752zm-2.313.32c-6.137 7.896-13.588 13.034-23.769 15.333l-.18-2.25c12.68-2.627 24.278-13.082 23.95-13.084zM33.26 183.8c7.892 7.62 15.98 15.174 24.014 22.995l-3.21.14-20.915-20.494zm94.456.84.273 1.873-2.324 2.355 3.63 3.685.182.865-3.152 3.046-1.408-1.315 1.744-1.81-2.925-2.907-5.482 4.878 4.468 4.581-3.409 2.998-1.327-1.297 1.744-1.862-2.996-2.987-5.59 5.142 4.182 4.362-2.822 2.888-1.322-1.316 1.45-1.537-3.032-2.95-5.37 4.784 4.372 4.567-3.592 3.309-1.378-1.264 2.018-2.031-3.28-2.95-2.657 2.32s1.01-2.31 1.158-2.701c.216-.574 1.094-1.025 6.682-6.124 6.67-6.14 13.506-11.89 20.163-18.602zm38.048 1.434c1.939.04 5.235.493 6.832 1.29 2.963 1.48 2.022 2.627.087 3.478-2.314 1.016-4.21 1.51-6.818 1.568l.082-1.195c1.516-.335 3.089-.672 4.431-1.358.923-.471 1.162-.854 1.162-.854s-.892-.857-2.317-1.348c-1.044-.36-2.537-.365-3.35-.494zm-86.794 1.153 2.422 3.433-2.917 4.516-2.753-3.92Zm49.249.61c.083.645.94 3.155.485 2.667l-1.613-1.714zm37.683.52c1.35.112 2.77.157 3.753.608-1.148.824-2.445 1.002-3.737 1.201zm33.865 1.876c.815.004 1.472.625 1.468 1.386-.004.762-.669 1.377-1.484 1.373-.815-.004-1.472-.625-1.468-1.387.004-.762.668-1.376 1.484-1.372zm-76.193 2.017 1.252 1.145-1.638 1.764 2.936 2.92 3.673-3.18.474 2.033-34.42 31.323-1.9-.137 2.193-2.394-2.464-2.38 1.026-1.695 2.908 2.442 5.38-4.76-4.313-4.287 3.73-3.54 1.394 1.136-2.14 2.145 3.082 2.972 5.63-5.122-4.358-4.477 3.516-3.101 1.277 1.145-1.637 1.603 3.178 3.124 4.747-4.569-4.272-4.443 3.836-3.454 1.167 1.102-1.77 1.824 3.193 3.12 5.178-4.921-4.217-4.32zm72.747 1.179c.816.004 1.473.625 1.469 1.386-.005.762-.669 1.377-1.484 1.373-.815-.004-1.473-.625-1.468-1.387.004-.762.668-1.376 1.483-1.372zm-27.833-.075c2.311 2.564 3.694 5.41 3.956 8.467-1.843-2.644-4.194-4.992-7.28-7.038l.538-1.277zm32.836.368-.017 3.08c-10.435 10.935-23.074 19.153-36.036 24.852l-2.185-2.51c15.327-6.306 26.437-14.175 38.238-25.422zm-15.273 2.075-4.223 3.032.003-1.323 4.22-1.709zm-21.677.121c3.57 1.651 6.557 4.427 8.323 8.527-4.906 2.844-10.283 5.14-15.409 7.427-2.434-3.707-4.886-7.181-6.797-11.948 7.886-.016 10.072-4.031 10.127-4.062 1.897.68 2.294.763 3.756.056zm28.33.739c.735.017 1.468.546 1.489 1.335-.004.762-.669 1.376-1.484 1.372-.815-.004-1.473-.625-1.468-1.387.164-.95.815-1.335 1.463-1.32zm-10.919.854.003 1.332c-2.023 1.64-5.95 4.29-5.95 4.29l-1.616-.089.547-3.777c2.452-.45 4.83-1.107 7.016-1.756zm-103.007-.349 3.845 2.986-1.209 4.596-3.786-2.716zm51.86 1.124.35 1.334-31.894 29.161-1.803-.283zm58.53 1.42c.816.004 1.473.625 1.469 1.387-.004.762-.669 1.376-1.484 1.372-.815-.004-1.473-.625-1.468-1.387.004-.762.668-1.376 1.484-1.372zm11.718.048c.174 0 .38-.01.379.143l-.015 2.538c-.155.05-.322.078-.496.077-.815-.004-1.356-.624-1.352-1.386.005-.762.669-1.376 1.484-1.372zm-3.598 3.058c.815.004 1.473.625 1.469 1.387-.005.762-.669 1.376-1.484 1.372-.815-.004-1.473-.625-1.469-1.387.005-.762.669-1.376 1.484-1.372zm-12.403-.046c.815.004 1.472.624 1.468 1.386-.004.762-.668 1.377-1.484 1.373-.815-.004-1.472-.625-1.468-1.387.004-.762.669-1.376 1.484-1.372zm-10.674.373 1.516.054-2.829 1.555c.521-.603 1.007-1.065 1.313-1.61zm27.051.777.005 2.837c-7.297 6.745-16.5 13.735-30.552 20.446l-1.777-1.699c11.455-5.037 22.217-12.12 32.324-21.584Zm-20.618 1.446c.815.004 1.473.625 1.468 1.387-.004.762-.668 1.377-1.483 1.373-.816-.004-1.473-.625-1.469-1.387.005-.762.669-1.377 1.484-1.373zm13.122.169c.816.003 1.473.624 1.469 1.386-.004.762-.669 1.377-1.484 1.373-.815-.004-1.473-.625-1.468-1.387.004-.762.668-1.376 1.483-1.372zm-147.031 4.817c5.023-2.692 9.05-2.99 14.783-2.143l1.696 3.169c-5.581-.953-11.467-.899-16.52 2.707-5.198-3.106-9.156-4.014-13.441-3.534l-.059-3.333c5.586-.701 10.585 1.11 13.54 3.134zm129.825-2.37c.815.005 1.473.626 1.468 1.388-.004.762-.668 1.376-1.483 1.372-.816-.004-1.473-.625-1.469-1.387.005-.762.669-1.376 1.484-1.372zm13.494.634c.815.004 1.472.625 1.468 1.387-.004.762-.669 1.376-1.484 1.372-.815-.004-1.472-.625-1.468-1.387.004-.762.668-1.376 1.484-1.372zm-17.947 1.972c.815.004 1.473.625 1.468 1.387-.004.762-.668 1.376-1.483 1.372-.816-.004-1.473-.625-1.469-1.387.004-.762.669-1.376 1.484-1.372zm13.757.867c.815.004 1.473.625 1.468 1.387-.004.762-.668 1.376-1.484 1.372-.815-.004-1.472-.624-1.468-1.386.004-.762.669-1.377 1.484-1.373zM167.544 213c.826.004 1.493.633 1.488 1.405-.004.773-.677 1.396-1.504 1.392-.826-.004-1.493-.634-1.488-1.406.004-.773.677-1.395 1.504-1.391zm14.36 1.227c.815.004 1.472.625 1.468 1.387-.004.762-.669 1.377-1.484 1.373-.815-.004-1.472-.625-1.468-1.387.004-.762.668-1.377 1.484-1.373zm-18.745.863c.816.004 1.473.625 1.469 1.387-.005.762-.669 1.376-1.484 1.372-.815-.004-1.473-.625-1.468-1.386.004-.762.668-1.377 1.483-1.373zm-65.262.928 3.652 3.16-3.816 3.544-1.383-1.254 2.124-2.055-1.42-1.807zm79.92.697c.815.004 1.473.625 1.468 1.386-.004.762-.668 1.377-1.484 1.373-.815-.004-1.472-.625-1.468-1.387.004-.762.669-1.376 1.484-1.372zm-4.263 2.314c.815.004 1.473.625 1.468 1.387-.004.762-.668 1.377-1.483 1.373-.816-.004-1.473-.625-1.469-1.387.005-.762.669-1.377 1.484-1.373zm-4.632 2.321c.816.004 1.473.625 1.469 1.387-.004.762-.669 1.376-1.484 1.372-.815-.004-1.473-.624-1.468-1.386.004-.762.668-1.377 1.483-1.373zm-75.933 3.531 1.193.918-1.892 2.108-1.436-.026zm-23.22 5.594c-4.194 1.915-6.189 3.13-9.12 5.489l-4.15-5.44zm-28.465-.101 11.14.2-3.732 4.882c-2.43-2.419-4.898-4.066-7.408-5.082zm13.267.599c1.205.365 4.341 4.589 5.815 6.893 3.182-2.34 6.3-4.956 9.691-6.354-4.046 3.951-7.601 8.043-10.137 12.003-.703-1.795-2.658-6.932-5.155-9.172-3.98 3.435-5.568 7.598-5.568 7.598a66.462 66.462 0 0 0-7.608-10.006c-.488-.622 3.602 1.78 7.643 5.494 1.159-2.687 4.24-6.356 5.319-6.456zm-13.396 2.58c1.905 1.43 7.073 7.693 7.65 11.448l-2.492.134c-1.304-3.86-3.509-7.72-5.158-11.582zm27.704.773c-1.905 3.602-4.263 7.28-5.963 11.268l-2.461-.111c2.727-5.495 3.715-6.498 8.424-11.157zm-14.128 1.538a.09.09 0 0 1 .06.014c2.323 2.996 3.411 5.903 4.088 9.437l-1.81-.075s-1.242-3.55-2.1-4.806c-.557-.768-1.007-.672-1.406-.04-.902 1.494-1.244 2.993-1.755 4.622l-2.082-.152c-.37-2.678 4.274-8.935 5.005-9zm-.386 10.284c.846.015 1.726.876 1.71 2.381.062.707-.534 2.27-1.17 2.346-1.184.579-2.57-1.246-2.21-2.76.307-1.292.923-1.98 1.67-1.967zm-4.1.265c1.671.147 2.012 3.654 1.33 4.367-.782.717-2.837.196-3.025-1.054-.663-1.594.571-3.303 1.695-3.313zm8.243.02c1.82.247 1.34 4.093.395 4.654-1.469.717-2.577-.499-2.073-2.305.406-1.455 1.005-2.319 1.678-2.35zm4.208.658c2.084.228.86 3.61-.055 4.296-1.329.957-2.598-.49-1.954-2.208.5-1.331 1.322-2.101 2.009-2.088zm-16.838.022c1.516.234 2.377 3.447 1.469 4.36-.474.523-1.842-.25-2.464-1.133-.746-1.06-.03-3.237.995-3.227zm16.113 7.068c.171 1.686-1.189 1.679-5.103.838-1.977-.424-5.486-.18-7.28.116-3.02.496-3.445.299-3.433-.849.014-1.331 1.71-2.079 5.623-2.172 2.8-.067 9.77-.059 10.193 2.067zm6.1-.96c-4.67.388-5.942 5.848-5.439 7.87.391 3.376.197 6.91-.511 9.23-.508 1.665-.961 3.44-1.772 4.947-1.24 2.278-.934 3.975.882 4.894 1.491.755 3.333.509 4.493-.644 2.097-2.084 2.37-6.527 1.15-16.616-.431-3.56-.186-4.269 1.66-4.06 3.877-.01 3.753-5.594-.464-5.62zm-.588 4.59c-1.041-.381-1.754.501-1.627 2.71.03.979.21 2.081.337 2.959 1.455 9.681.854 16.16-2.327 16.464-2.77.4-4.633-1.512-3.271-3.475.77-1.112 1.43-1.259 2.915-.666 2.039 1.195 1.536-.534-.298-1.816-1.176-.786-1.266-.787-.619-3.225.873-3.29 1.174-5.637.884-9.805-.424-2.948.65-6.852 4.665-7.062 4.06-.095 2.805 5.285-.659 3.916zm-28.718 12.603c1.318.602 2.603.507 3.862.028.502-2.054.541-3.765 2.038-6.555-2.454-2.32-6.611-1.433-7.794.98-1.183 2.413-.106 4.632 1.894 5.547zm3.998-7.121c1.494.304 1.261 1.771-.144 1.286-3.346-1.493-6.106 2.937-3.407 4.623 1.377.729 1.99.317.625-.682-.558-.607-.415-.852-.072-1.456.71-1.218 3.264-1.007 3.079-.122-.598 2.811-.986 3.622-1.89 3.624-5.212.225-6.142-8.894 1.81-7.273zm44.229 5.278S71.4 284.896 63.877 293.259l93.698.052-17.7-23.077c-15.314 3.225-33.279 2.184-52.863-1.662zm-.495 5.237c2.34.035 4.994 1.637 7.266 6.943.125.05 10.386-14.397 19.115.656 1.458-3.362 9.808-12.11 19.34-.784 3.452-7.532 11.298-4.94 12.02-2.304-.163-.567-7.478-2.228-10.677 2.76-.593 1.056-.628 2.06.04 2.66 1.577 1.411-.16 3.415-1.957 2.262-.701-.45-.785-1.386-.242-2.059 1.599-1.102-1.644-4.57-4.32-5.825-3.673-1.722-8.813-.995-11.295 1.439-1.336 1.309-2.154 2.486-2.353 3.43-.105.438-.044.667.233.961 1.065 1.213.349 2.862-1.1 2.655-1.896-.272-1.633-1.93-.358-2.83.39-.177.244-.391.128-.701-3.415-9.14-16.342-7.465-17.774-1.155-.052.23-.165.47-.11.705.142.605.517 1.117.37 1.591-.604 1.937-3.197 1.368-3.306-.24-.05-.73.796-.947 1.213-1.612.25-.417.366-.928.132-1.394-3.463-6.871-9.48-5.466-12.47-3.932-.062.032 2.685-3.277 6.105-3.226zm-3.904 3.955c1.28-.037 2.442.557 3.524 1.741 3.678-1.795 6.27 1.357 5.834 1.659-5.177-3.177-6.905 4.158-1.785 3.905-2.274 4.337 5.75 6.24 4.88.678 4.948 1.641 5.802-4.717.779-4.646 1.637-2.618 5.846-1.875 7.618-.22 2.108-2.381 7.24-.076 7.739 1.97-5.754-2.791-6.382 5.648-.785 3.88-1.685 5.365 7.202 4.643 4.772 0 5.523 1.726 4.812-6.005-.632-4.464-.328-.402 4.325-4.847 7.667-.634.46-.737 5.726-3.132 8.58.685-6.218-2-5.083 5.843-.61 4.306-1.224 5.186 6.834 4.382 4.802-.052 6.232 1.505 3.518-7.393-.885-4.134.735-3.568 5.971-2.062 5.911-1.511 0-.003 2.801-2.802 5.909-.727-4.876.359-3.252 6.51 1.362 4.783-.061 2.085 1.785 3.475 4.297 2.78l3.91 5.165-89.822.09 7.22-7.959c2.39 1.866 4.882 1.002 5.205-1.904 5.207 3.02 6.603-4.086 1.704-4.418.999-.628 1.93-.948 2.806-.973zm-5.033 2.285c.31.207-.118 1.194-.804.904zm70.021 2.408c.265.358.453.59.718.948.127.32-1.4-.176-.718-.948z" />
</svg>
