<svg xmlns="http://www.w3.org/2000/svg" width="167" height="251.6" viewBox="33.4 40.8 167 251.6">
  <path fill="#131f67"
      d="M30.528 38.041h172.77l.316 256.918-173.228-.429s-.007-167.652.142-256.489zm122.72 255.068c-6.434-10.799-16.603-28.391-16.904-28.53-3.76 1.853-42.097 6.605-60.538 2.003-6.306 8.772-12.499 17.46-17.99 26.155zm-58.88-32.301c-.965.02-2.04.564-1.842.09.115-.273.387-3.043.506-4.033.289-.441.695.714.649 1.787-.027.616.292.176 2.476.282 2.361.115 4.296.525 5.097.685 2.793.559 8.197.158 10.512-1.401 1.253-.844 1.727.067.435.973-5.835 4.09-10.461 2.53-15.53 1.845-.756-.102-1.52-.244-2.303-.228zm2.48-3.88c-.362-.22-.6-.242-1.065-.042-1.79.774-1.322-.335-.032-1.453.59-.51.572-.77.125-1.306-.227-.271-.605-.305-.515-.712.388-1.752 3.048-4.404 6.022-5.589 1.237-.492 1.433.047-.131.897-2.406 1.307-3.184 2.423-1.823 1.97 2.638-.881 5.044-.26 8.42 1.298.964.445 1.406.532 2.226.45.607-.465 1.15.095 1.525.387.236.175.287.26.556.201 1.92-.417.77.715-1.856 2.487-4.702 3.073-9.832 4.523-13.451 1.411zm7.235.755c1.922-.535 4.266-1.654 5.703-2.82 1.748-1.419.76-1.203-1.248-.31-2.906 1.294-4.94 1.668-8.21 1.599-2.735-.058-2.65-.16-2.75.155-.35 1.106 3.416 2.237 6.505 1.376zm-5.308-4.321c.156-.477.275-1.112.135-1.318-.253-.374-.797-.098-1.488.71-.429.5-.37.568.05.963.21.132.371.23.498.298.584.23.678-.27.805-.653zm1.196.653c.841-2.647 2.725-2.596 4.07-.062l.947.004c-1.949-4.929-5.721-2.432-5.848.02.445.136.83.038.83.038zm7.038-.446c.89-.458.759-.77-.374-1.31-.805-.384-1.232-.461-1.378-.214.011.546.035 1.328.377 1.76.355.2.843.004 1.375-.236zm-12.468-7.54c-.163-.248-.134-.703.484-.968 3.816-1.632 1.036-5.077-1.91-2.493-.934.708-2.323 1.037-3.396.615-1.009-.406-1.028-1.546.313-1.789.44-.08 1.568-.301 1.985-.569 5.12-2.531 7.84 2.973 4.207 4.806-.747.402-1.54.627-1.683.398zm-14.345-4.998c-2.078-.87-2.363-3.89-.415-5.067 1.24-.783 2.507-.997 5.922.564 2.412 1.103 3.793-.084 3.73 1.199-.038.78-.088 1.567-1.49 1.755-2.28.305-3.836-2.552-6.763-2.283-2.112.195-1.845 2.529-.319 3.003 2.034.632.801 1.381-.665.829zm38.211.439c-.381.165-.56-.606-.395-1.017 1.039-2.276 1.994-4.085 2.935-6.217.751-1.699 1.255-2.429 1.592-2.427.344.002.504.25-.072 1.297-.87 2.11-4.055 8.544-4.06 8.364zm-17.062-.59c-.92-.605-.764-1.502.282-.823 1.344.874 3.548-.724 3.099-2.232-.543-1.822-3.164-2.264-5.358-.632-3.462 2.575-7.26 2.706-7.26.693.007-.575-.08-.706 1.36-.796 1.675-.104 3.564-.813 4.503-1.341 4.21-2.371 8.69-.734 7.762 3.221-.418 1.866-2.894 2.77-4.388 1.91zm-15.44-5.838c-.341-.01-.966.308-1.145.185-.35-.242-.3-.944-.588-1.696-.512-1.333-.013-.916.888-.556 1.222.437 2.381.352 3.412.022 1.064-.342 2.46-.264 4.694.006 1.797.216 2.806.153 4.437-.277 1.77-.513 1.302-.328 1.007.68-.192.662-.435 1.55-.66 1.763-1.223-.633-2.153-.388-2.957.043-1.321.538-2.258.63-3.34.331-1.019-.535-1.623-.491-2.44-.03-1.41.632-2.035-.411-3.307-.471zm26.398-2.773c.248-.402.609-.957.947-1.578 2.735-5.02 2.922-6.416.992-8.107-2.595-2.273-4.806-1.287-7.291 3.251-.604 1.102-.964 1.93-1.208 2.27-.281.391-.61.09-.771-.063-.307-.289 2.452-5.107 3.533-6.158 2.83-2.752 8.087-.55 7.752 3.193-.168 1.885-.556 2.918-2.422 6.375-.461.856-.862 1.58-1.107 1.93-.875.541-.675-.701-.425-1.113zm-25.779-.2c.432-1.788 6.634-2.615 8.268-.27.16.229.066.22-.635.041-3.153-.963-3.779-.91-6.8.193-.454.162-.777.229-.833.036zm23.663-.34c.001-.167.23-.828.581-1.468 2.068-3.776 2.638-4.687 2.007-5.394-1.229-1.376-2.88-.18-4.396 3.764-.567 1.474-.954 1.16-1.23.927-.53-.446 1.815-5.034 2.946-5.719 2.564-1.506 4.581.237 3.449 3.32-.884 1.39-1.614 3.532-2.44 4.658-.391.505-.92.356-.917-.087zm-9.273-6.134c-.125-.19.117-.446 1.005-2.205 1.221-2.418 1.6-3.315 1.104-4.695-.884-2.46-4.218-3.063-6.243-1.449-.662.521-1.112 1.242-1.424 1.89-.731 1.5-1.341 3.439-1.775 3.845-.379.354-.908.425-.873-.19.481-1.306.708-2.318 1.846-4.232 2.838-5.698 11.016-3.06 9.102 2.939-.712 2.177-1.53 3.826-2.015 4.362-.27.298-.716.039-.727-.265zm-1.898-1.046c.001-.188.308-.722.633-1.467 1.383-3.162 1.393-4.13-.623-4.171-1.206.143-1.385.6-2.444 3.094-.344.81-.533 1.388-.738 1.635-.219.265-.63.108-.8-.051-.431-.408 1.456-4.499 2.454-5.27 2.294-1.846 5.267.775 3.874 3.128-.652 1.645-1.215 2.761-1.598 3.27-.338.45-.762.386-.758-.168zm-48.84-36.865-6.97-.443c1.235 6.895 1.298 14.484.05 19.865-1.066 4.602-1.078 7.991-.76 11.98.37 4.642 2.495 8.578 3.03 13.505.387 3.57-.467 7.296-1.23 10.845-1.274 5.932-1.011 6.551-.824 13.511.174 6.454-.476 6.222-.876 5.845-.06-.057-.117-1.198-.108-2.555.01-1.357-.081-4.677-.165-6.98-.167-4.604.386-8.672.787-10.346.816-3.407 1.732-6.897 1.168-10.668-1.147-4.76-2.764-9.513-3.331-14.1-.7-5.657 1.02-11.332 1.588-15.44.549-3.967-.033-10.829-1.156-13.685-.193-.95-1.11-2.188-1.11-2.188-1.052-.14-2.107-.277-3.58-.268-.082 27.24-.001 54.49.022 81.735l6.499 5.582 6.677-5.877zm.468 31.248s9.916 5.285 20.849 10.478c-1.041-5.942 2.26-6.838 5.36-7.528-.742-11.48 10.618-9.125 12.359.85l1.12.004c1.968-4.973 3.915-8.405 8.396-9.224 3.474-.635 6.9 1.402 7.768 6.198-.153-.337 11.517-6.341 11.838 6.344 5.3-3.046 9.082-.414 10.61 3.454 2.238-3.157 7.838-3.296 9.629-3.526.623-.666 1.724-1.046 3.723-1.034 1.714-.08 4.017-1.269 5.201.179 1.802.263 3.175-.039 4.715 1.063 1.226.862 2.593 2.785 4.633 1.46 3.89-1.735 8.262-2.517 11.74-4.609 0 0-.922-1.1-.653-.942.099.058.532.578 1.184.82.234.087 2.371-1.099 2.371-1.099-14.488-15.455-26.407-45.627-18.537-73.542.218-.476-.657-.658-1.087-.827.132-.214 2.26.074 1.356 1.848-.91 5.349-1.94 11.145-2.169 15.58-.003.54.05 1.023.05 1.023 32.486 13.874 28.502 43.925 20.157 54.385l1.315 1.623c.582.36 25.557-13.124 24.733-13.678l4.726-2.178-.766-58.927-18.69-1.323s.199-.495.435-.624c.171-3.597-.176-8.918.01-13.371.073-12.728.211-17.056.033-17.408-5.765-3.514-14.36-8.654-21.594-11.146.297.079-.118 5.274-.338 5.57-6.768 2-3.626 4.556-6.128 7.301-1.68 1.71-5.613 2.036-7.512-.016-2.269-2.033-3.333-6.697-3.333-6.697-3.58 3.545-2.845 7.828-7.64 9.44-7.706 3.54-10.153-7.043-9.705-6.797-2.953 2.636-11.24 4.78-12.135-6.352-3.726 3.177-7.902 1.6-9.674-2.308-2.274.074-4.825 1.724-7.127 2.616-2.136.875-4.869 1.39-6.897 1.35-2.537.285-4.627.274-6.913-.357-1.074.323-3.496-.643-4.243-2.026-1.143-1.244-2.14-1.316-3.227-1.092-3.702 1.806-7.672 2.242-12.042 4.132-.273.176.383.506.163.442-.094-.028-2.296 1-2.296 1 22.138 26.95 23.342 54.16 18.702 73.445-.182.668-.282 1.154.196 1.68-.702-.112-.713.078-.845-.339l2.302-16.187c.068-1.955.332-1.81-1.523-2.54-1.716-.674-3.338-1.324-4.754-2.13-5.398-3.704-11.5-8.263-14.473-13.951-8.483-12.226-5.684-26.814.67-38.372l-1.58-1.52c-18.556 8.608-29.511 17.89-29.511 17.89l.08 57.822 19.068 2.036zm-9.198-38.613c-.612-.626-2.169-.735-2.818-.26-.15.117-.47.73-.564.708-.864-.205-1.462-.372-1.577-1.047l.917-1.283c.726-1.015 1.772-1.375 3.535-1.757.625-.135 1.57-.26 1.903-.39 1.325-.53 1.786-1.678.444-1.164-.98.25-2.349.167-2.53-.663-.15-.681-.777-.948-1.476-.868-1.291.287-2.471.912-3.615 1.54-.507.284-1.47.925-1.47.925-.15.22-.71-1.387-.189-1.856.648.073 1.206.078 1.838-.155 1.576-.582 3.094-1.283 4.685-1.847 1.013-.368 1.106-.337.839-1.003-.132-.245-.249-1.06-.074-1.488.185-.454.165-.682-.15-.876-.716-.442-2.433-.03-4.847 1.044-.736.327-1.22.458-1.686.806.3-.708.126-.838.118-1.58.986.115 1.873-.247 2.66-.631.649-.314 1.377-.625 3.16-.836.488-.057.266-1.709-.289-2.187-.524-.453-1.628-.463-2.962-.097-1.192.253-2.673.51-3.493 1.695-1.034.907.025-1.503 1.91-2.464.827-.016 2.651-.379 3.08-.467.728-.149.844-1.73-.213-2.407-.662-.535 2.406-.55 2.347-.386-.04.093-.068.769.167.941 1.321.368 1.31 1.369 1.425 1.79 1.518 2.307 2.265.86 3.31.065-.22 5.024 1.676 5.595 1.927 5.913-2.606 4.5-.64 4.611 1.802 5.647 0 0-.928.348-1.546.313-.972-.055-2.833 1.012-3.647 1.64-.448.348-.462.058-2.257.01-1.69-.045-1.815.071-2.586.388-1.52.624-1.513 1.213-.027.98 1.583-.247 3.134.643 3.316 1.855.125.23.013.635-.012.621-.33-.057-1.075.058-1.063-.088.01-.146 0-.695-.292-1.08zm2.31-6.087c.429-.254.503-.977.129-1.269-.34-.266-1.785-.124-2.193.216-.923.673.764 1.798 2.064 1.053zm.925-3.024c.53-.384.596-1.306.135-1.841-.78-.909-2.819-.365-2.93.78-.117 1.22 1.684 1.863 2.795 1.06zm-.664-4.149c.096-1.001-.975-1.636-1.96-1.16-1.227.59-.482 1.838 1.055 1.765.85-.041.85-.041.905-.605zm-3.591-4.064c-.573.26-.602.884-.06 1.286 2.153 1.101 1.497-1.847.06-1.286zm150.317 5.987c-.945-3.225-3.55-.027-3.553.017-.092-3.305.583-4.775-2.092-5.904 2.684-3.768 2.125-4.287-.722-5.732.262.02 3.779-.71 4.38-2.57.134.087 5.52 1.316 6.192-1.407-1.625.686-4.822.789-4.858-2.139.302-.084 1.06.06.997.153-.425 1.878 3.267 2.342 3.871.86 0 0 1.24.77 1.786.888.06.038-1.68 2.274-3.266 2.61-2.861.878-3.848 1.115-3.852 1.642 0 .204.468.237 1.317.398 1.777.113 1.74.467 1.973 1.012.206.482.407.579 1 .53 2.028-.625 3.043-.953 4.458-2.263.172-.03.372 1.377.481 1.425.017-.224-1.436.168-3.667 1.377-1.82.987-2.533 1.13-2.765 1.397-.171.198.271.82.318 1.496.039.569-.374.844-.07 1.022.35.205.893.167 1.607-.005 1.574-.351 2.732-.924 4.147-1.734-.3.527.203 1.864.203 1.864s-.698-.455-1.273-.219c-1.107.45-2.897 1.064-3.38 1.17-.469.101-.672.158-.855.301-.225.177-.188.603-.192 1.228-.003.438-.138.843.16.975.66.197 1.995.135 3.353-.304.58-.234 1.808-.854 1.808-.854l-.385 1.85c-.515-.539-1.995-.142-2.985.22-.5.145-.65.436-.776.84-.221.69.252 1.165.798 1.392.363.15.923.089.923.089-2.566.905-2.055 1.238-3.553.552-.647-.65-1.281-1.335-1.528-2.177zm2.686.001c-.426-.456-1.168-.717-1.6-.537-.384.19-.246.585-.123.887.325.837 2.58.567 1.723-.35zm-1.498-2.305c.602-.73-.06-1.713-1.171-1.72-.773-.004-1.184.442-1.176 1.001.015 1.061 1.845 1.329 2.347.719zm-1.234-2.784c1.114-.28 1.456-1.281.685-2.007-.547-.516-2.266-.58-2.726-.113-1.173 1.191.142 2.599 2.04 2.12zm.926-3.66c.654-.31.78-.827.202-1.415-1.049-.827-2.88-.182-2.289 1.025.29.59 1.29.767 2.087.39zm-134.112-27.79c.984-.332 1.695-1.039 2.73-1.582.7-.353.489-.297-.405-.781-.703-.3-2.112-1.621-2.244-1.306-.32.563-.274 3.644-.08 3.67zm24.88 32.264c.041-.63.123-1.576.104-2.27.133-1.324-.124-.937-.897-.505-.572.342-1.49.861-1.85 1.028-1.418.655-1.249.69.749 1.58 1.676.695 1.865.627 1.894.167zm-1.946-3.098c1.355-.792 1.805-1.2 1.871-2.088.007-1.022-.122-1.394-1.089-.686-3.3 2.413-6.696-2.323-3.675-4.954.616-.536 1.398-1.376 1.405-1.59.05-1.525-1.805-.043-3.32 2.052-1.678 1.905-2.723 4.29-1.25 6.579 1.177 1.675 3.797 2.006 6.058.687zm-7.498-3.082c-.06-.747.167-1.582.273-1.83.37-.875.354-.983-1.327-.256-.67.205-1.471.372-1.78.37-1.372-.008-1.03.392.939 1.912 1.978 1.528 2.044 1.666 1.895-.196zm4.677-7.316c.21-.46-.226-.637-.643-.55-.033.006-.753.504-1.6 1.12-2.564 1.871-4.445 2.09-5.717.665-1.29-1.445-.75-3.159 2.133-5.12 1.272-.866 1.577-.925.965-1.303-.465-.287-.493-.243-2.322.903-3.685 2.311-4.788 3.889-4.419 6.189.076.944.61 1.439 1.127 1.806 3.513 2.884 8.388-1.092 10.476-3.71zm3.72 1.364-.223-3.182c-3.746-2.992-7.3-8.102-8.528-12.334-1.251-3.764-.254-11.615-.066-11.032l-2.024-3.551c-1.762 3.768-2.531 9.516-.615 15.371 1.627 4.971 4.885 10.992 11.455 14.728zm-15.78-1.854c1.19-2.117 1.226-1.888-1.073-1.907-2.625-.02-2.332-.317-.852 1.76 1.188 1.667.988 1.812 1.924.147zm1.576-2.901c1.512-.45 1.167-.346 3.173-1.555 2.303-1.387 2.4-2.146.087-1.077-2.968 1.373-5.575 1.022-6.543-.77-.862-1.596.938-3.587 3.902-4.366 1.013-.266 1.546-.49 1.549-.902.008-1.252-5.037.419-7.116 2.31-4.013 3.65-.501 7.98 4.948 6.36zm-6.488-5.683c.136-.19.496-.646.829-1.12 1.42-1.529.226-1.072-1.035-1.49-.667-.228-1.35-.454-1.741-.4-.755.107.254 1.457.497 2.328.679 1.94.6 1.881 1.45.682zm5.372-3.497c2.544-.23 2.803-.458 2.807-.947.003-.484-.312-.391-1.588-.227-3.382.435-5.621-.362-6.105-2.031-.499-1.724 1.792-3.356 4.844-3.26 1.653.053 2.754-.476 1.747-.985-.524-.265-5.077-.208-6.107.07-3.025.816-4.258 2.374-3.982 4.532.418 2.664 1.99 3.428 5.819 3.238.733-.036 1.668-.309 2.565-.39zm1.968-8.678c.003-.416-.723-.477-3.124-.807-3.197-.44-4.625-3.18-2.698-4.828.73-.625 2.471-.893 3.441-.73 2.108.356 3.397.758 3.417.095.004-.59-.608-.633-4.565-1.407-5.978-1.17-9.26 4.264-4.48 6.922 1.816 1.01 8.004 1.584 8.01.755zm1.482-7.776c.002-.209-.192-.369-.645-.533-.658-.238-1.1-.282-2.584-1.208-1.973-1.232-2.572-3.634-1.255-4.972 1.278-1.25-1.022-2.725-2.854-1.315-1.904 1.465-1.744 3.765.448 5.586 2.02 1.676 6.884 3.42 6.89 2.442zm-9.686-.325c2.078-.903 3.57-.384 1.98-1.63-.892-.765-1.654-2.943-2.274-1.096-.475 1.1-.824 3.043-.837 3.234.14.13.108-.094 1.131-.508zm73.494-4.687c-2.366-.546-3.983-3.09-3.38-5.537.34-1.382 1.744-4.639 2.02-4.842 1.045-.767.901.254-.057 2.027-.874 1.809-1.555 3.264-1.284 4.34.384 1.533 1.054 2.703 2.774 3.092 1.21.273 2.35-.194 3.122-.699 1.02-.668 1.986-2.38 3.14-4.753.369-.667.864-2.716 1.479-1.466.296.648-2.166 4.952-3.087 6.042-1.158 1.373-3.114 2.178-4.727 1.796zm14.267-1.44c1.153 1.023 3.102 1.538 4.374 1.171 3.121-1.019 4.54-3.75 3.358-8.14-.599-2.461-1.11-3.992-1.628-4.296-.251-.148-.526.128-.771.47-.218.306.115.736.47 1.894 1.491 4.879 1.101 7.085-.72 8.017-2.64 1.353-4.903-.205-5.67-3.686-.123-.538-.485-1.634-.485-1.634-.202-.484-1.838-.377-1.243 1.243.179 1.254 1.426 4.244 2.315 4.961zm13.39-12.778c-.041-1.716-3.94-9.164-4.205-8.374 0 0-.017 1.741.136 2.426.058.259.26.498.427.774 3.388 5.594 2.864 9.536-.073 10.4-1 .42-1.218.834-.77 1.268.904.912 3.175-.891 3.617-1.546 1.111-1.468.957-4.146.868-4.948zm-56.731-1.266c1.277-1.32 4.076-5.877 4.94-8.268 2.656-7.115 5.448-15.3 6.219-22.864.085-.955.14-2.407.19-2.531-.208-.21-1.525-.1-1.967.11-.212.255-.07.821-.146 1.56-1.188 8.504-3.383 16.252-6.636 24.139-1.423 3.426-2.745 5.682-4.46 8.065-.298.416-.68.844-.829 1.086-.433.58-.115.958.387.713.892-.467 1.661-1.365 2.302-2.01zm-4.354 2.07c4.073-5.192 6.969-11.424 9.219-18.78 1.422-4.762 2.674-9.58 3.424-14.488.154-1.048.278-1.75.058-2.063-.55-.137-1.577-.052-1.933.202-.218.305-.072.916-.274 2.33-.52 3.653-1.301 7.321-2.618 12.124-3.476 10.63-6.67 16.58-10.867 21.787-.339.438-.64.723-.61.908.044.273.451.25 1.118-.135.872-.635 1.868-1.189 2.483-1.886zm-6.205 2.758c1.993-1.048 5.501-5.606 7.98-10.515 2.78-5.796 5.109-12.343 6.632-18.013.662-2.484 1.602-8.689 1.468-9.097-.16-.486-2.107-.082-1.837.253 0 0-1.935 9.975-4.016 15.472-3.865 10.207-7.207 17.132-10.804 20.461l-1.4 1.29s.02.381.32.44c.717.122 1.195-.07 1.657-.29zm-3.05-.407c4.497-2.33 9.763-13.22 14.061-26.891.735-2.34 2.08-10.17 2.08-10.17s-1.792.061-2.138.41c-.347.474-.291 1.678-.793 4.54-1.933 8.648-4.849 16.536-9.23 24.332-1.896 3.455-5.045 6.708-7.033 7.635-1.112.518-1.437 1.089-.623 1.13 1.37.045 1.493.311 2.488-.185zm61.61 121.773c-3.372-.01-6.236 2.99-8.787 6.76-5.428 7.727-9.076 20.64-9.964 27.502l2.048-.358c-.308.13 3.827-18.265 10.127-26.142 3.406-4.97 3.262-5.045 5.174-5.501 2.417-.577 4.356 1.85 3.157 3.311-.434.495-.91.132-.776-.573.429-2.25-3.11-2.683-4.098-.472-1.137 2.542 1.886 4.81 4.84 3.81 2.64-.865 3.745-4.288 1.892-6.817-.953-.855-2.33-1.615-3.613-1.52zm-17.75-.315c-4.037 4.703-6.037 9.537-8.516 16.136-2.477 6.593-4.256 13.042-5.027 20.442l2.178-.26c-.08-4.757 5.54-27.41 13.437-35.894.44-.537.795-.984.761-1.109-.438-1.145-2.31.235-2.833.685zm8.92-1.756c-5.232 3.977-9.412 12.667-12.169 20.7-2.98 8.682-4.316 16.639-4.092 16.639l2.079-.284c-.155-.504 5.84-31.099 16.967-36.669.964-.446 1.167-.896.353-1.091-1.252-.163-2.26.218-3.138.705zm5.859.02c-11.426 1.396-18.892 33.918-19.142 36.618a7.06 7.06 0 0 1-.041.252l2.274-.435.03-.156c1.566-8.31 3.093-14.135 6.654-21.646 2.776-5.566 6.605-12.683 12.326-13.373.465-.056.906.117.743-.385-.348-.798-2.059-.9-2.844-.875zm-68.094-10.242c-4.13.985-4.264 5.58-1.514 11.449.208.443.17.685.381.856.47.382.84-.15.892-.502.079-.533-.167-1.251-.603-2.294-1.702-4.063-1.294-6.404.391-7.439 4.32-2.066 5.482 2.176 6.135 4.127.16.476.215 1.13.497 1.165.862.11 1.272-.174 1.26-.174 0 0-1.144-3.653-1.842-5.025-1.129-2.22-3.813-2.685-5.597-2.163zm-29.96 4.337-.043 48.417-7.904 6.893c-3.393-2.7-7.85-6.928-7.85-6.928l.14-81.85-2.543-.19c-.622 35.167-.179 70.858-.208 106.092l23.373.16 19.345-28.054s.245-.334.322-.51c.238-.543.21-1.35.094-4.333-.048-1.213.099-2.144-.093-2.428-.195-.288-.608-.082-.993.078-.393.164-.626.106-.415-.324.12-.243.507-.778.842-1.288 1.086-1.655 1.351-2.185.984-4.021-.09-.451-.536-.833-.924-1.365-3.255-4.463-4.581-11.08-2.965-15.925.515-2.142.33-2.576-.783-4.245zm102.32-52.06c-2.125-1.013-2.084-.99-2.097.928.012 1.434.041 1.781.62 1.588.839-.396 1.863-.759 2.636-1.063 1.477-.472-.398-1.075-1.159-1.452zm8.413 4.987c-1.649-1.223-1.04-1.082-1.507 1.675-.282 1.666-.646 1.709 1.21 1.158 1.052-.338 3.217-.125 2.246-1.273.006.02-1.625-1.305-1.949-1.56zm-66.27 42.33c-2.53 1.423-5.114 8.315-5.114 8.315-8.842.979-12.543 9.058-12.938 15.794-.312 5.318-.7 11.528-.123 12.072 5.797-2.422 8.03.373 8.58-.38.25-.33-1.286-1.42-3.216-2.399-.448-.227-1.142-.636-1.405-.838-.704-.542 1.405-.076 2.738.767 1.7 1.075 1.986.851 1.248-2.291-.803-3.416-.934-3.835 1.892-5.189 1.13-.541 1.773-1.002 2.582-1.845.648-.674.814-.839.575.153-.413 1.717-2.057 2.466-3.537 3.163-.736.351-1.04 1.057-1.045 1.663-.004.618.76 3.956 1.114 5.023.328 1.013.448 2.029.701 3.062.664 2.681.707 3.207.371 5.153-.196 1.142-.296 1.792-.228 2.481.062.627.156 1.48.156 1.48.003-.03-1.579-1.507-5.04-.24-2.497.912-4.469-.04-5.867-.715-.322 1.056-.25 2.203-.21 3.414 14.393 2.446 26.686 2.118 37.037 1.111.268-2.844 1.573-11.888 4.314-20.043 1.14-3.393 2.43-6.97 3.884-9.358.992-1.627 2.004-2.724 2.362-2.914.111-.062.121-.096.118-.14-.001-.09.003-.167-.002-.254-.037-.529-.174-1.348-.664-1.71-1.194-.886-3.1.254-3.726 2.23-.55 1.183-3.055 6.3-3.234 6.215-.147-.086-.495-.093-.369-.488.96-2.075 2.277-4.268 3.019-6.13 1.025-2.682 3.254-4.097 4.92-2.406.57.58.8 1.114 1.062 1.298.197.139.463.044.627-.185.628-.88-.828-2.877-2.39-3.278-2.255-.579-3.935.95-6.492 5.907-1.476 2.862-1.74 3.58-1.974 3.36-.052.02-.444.02-.302-.535.304-1.192 2.264-4.655 3.683-6.851 2.1-3.252 6-3.515 7.64-.693.25.384.263.887.541 1.23.504.605 1.332.485 1.537-.508-.223-.658-1.594-3.033-2.547-3.447-2.193-1.401-4.855-1.126-7.095.733-.508.422-1.038 1.28-2.524 4.083-2.188 4.495-2.246 4.512-2.844 3.788.88-2.187 3.195-5.74 4.13-7.921.177-.325.213-.675.2-1.01-.054-1.586.224-4.387-3.383-6.378-3.075-1.54-7.136.08-8.518 3.112-1.06 2.323-1.833 3.919-2.367 4.248-.75.462-.61-.182-.535-.416 1.066-2.102 2.565-4.226 2.802-6.341.155-5.724-6.086-7.84-10.144-4.951zm-32.22-107.26c4.87-2.106 8.205-3.166 13.167-4.526.67-.273.778-.336.066-1.646-3.144-5.788 5.483-10.402 8.415-4.72.391.757.482 1.176.867.814.72-.88 1.578-2.128 2.468-3.552 3.3-4.756 4.794-10.18 6.554-14.968.73-2.813 1.749-5.753 2.037-8.77-6.547-10.599-11.108-20.797-18.058-30.233l-45.833-.031-.172 85.202c12.815-9.944 21.54-13.54 30.49-17.57Zm51.592-3.131c.556-.546 1.037-1.452 3.03-5.256.356-.678.924-1.73 1.155-2.22.3-.895 1.42-1.455.874.148-.124.346-.338.812-.676 1.432-.663 1.109-1.293 2.467-1.765 3.353-2.548 4.75-2.427 7.518.42 9.58 2.127 1.89 6.595 2.104 8.972-.95a8.74 8.74 0 0 0 .776-1.356c1.033-2.332 1.796-3.498 1.991-3.729 1.058-1.248 1.227.298-.353 2.68-1.81 2.728-1.842 5.685-.277 7.766 2.32 3.083 6.726 3.17 9.492.697 1.437-1.567 2.58-3.56 3.5-6.109.204-.564.415-.984.564-1.315.23-.51.562-.7 1.42-.853 5.887-1.049 10.827-6.668 11.529-12.803.092-.83.346-2.298.438-3.17.185-1.738.189-10.744.005-11.281-.1-.29-.275-.443-.658-.439-.294.003-.71.1-1.309.298-1.94.644-2.844.807-4.708.187-.616-.205-1.042-.275-1.295-.254-.823.066.27 1.163 2.668 2.375 1.028.52 1.84 1.22 1.007 1.168-.242-.015-3.136-1.406-3.536-1.634-1.318-.752-.974.195-.295 2.685.912 3.345.387 4.284-2.453 5.594-.53.244-1.232.754-1.59 1.082-1.505 2.068-1.116.545-.358-.557 1.295-1.26.5-1.69-2.154-.817-3.029.997-4.398.27-5.245-1.296-.958-1.771.844-4.048 2.347-4.004.487.015.4.178-.318.633-.866.55-1.276 1.08-1.367 2.02-.183 1.914 1.29 2.727 3.348 1.443.972-.606 1.737-1.025 2.474-1.18.73-.155 1.825.097 1.821.64-.001.223-.034.772.017.894.193.606 1.236-.252 1.69-.557 1.55-1.078 1.5-1.29 1.076-3.038-.692-2.446-1.042-4.683-1.701-7.163-.353-1.3-.413-2.768-.198-4.092.108-.663.385-2.028.442-2.962.056-.933-.007-2.268.03-2.268 1.54 1.096 2.166 1.287 3.668.757 2.324-.886 3.793-.794 5.751.077.725.323 1.385.55 1.385.55l.09-2.808s-1.814-.348-5.164-.757c-10.087-1.232-30.784-1.493-31.555-.36-.196.288-.391 2.294-.94 5.083-1.221 5.796-2.59 11.573-4.42 17.228-.375 1.153-.734 1.617-.542 1.651.079.014.453-.432.627-.619.981-1.053.23 1.448-1.252 4.46-.134.272-.243.57-.244.662-.001.181-.932 2.28-1.574 3.55-.398.788-.729 1.026-.726.522.45-1.736 1.64-3.98 1.812-5.526-1.043 1.4-2.56 3.712-3.71 5.09-.211.372.013.487.198.946.69 1.715 2.363 1.868 3.33.316.538-.866 2.212-4.127 2.794-5.555.6-1.468 1.02-2.242 1.22-2.338.4-.193.478.642-.233 2.03-2.155 4.215-3.079 6.578-4.134 7.449-.82.676-2.236.633-3.023-.57-1.335-2.04-2.474-1.365-1.25.727 1.266 2.161 4.156 2.363 5.666.417.498-.643 2.844-4.806 3.581-6.499.412-.945.851-1.68.998-1.733.788-.282-.111 1.876-2.372 6.196-.733 1.668-1.91 3.419-3.503 3.96-3.871.789-4.395-1.115-5.741-3.284-.655-.54-1.248.323-.997 1.277.406 1.547 1.166 2.153 2.339 2.93 2.45 1.45 5.857.452 7.091-1.201zm17.27 9.039c-.351-.723-.3-1.456-.122-2.14.406-1.543 1.078-3.04 1.863-4.342 1.272-.559.3 1.666.142 1.996-1.534 2.973-1.679 4.123-.248 4.466 1.226.294 1.885-.404 3.044-3.069.595-1.367.833-1.973 1.043-2.052.447-.167.661 0 .635.418-.766 1.75-1.366 3.59-2.625 5.043-1.232.959-3.088.964-3.732-.32zm-11.5-2.284c-.533-.097-1.448-.737-2.083-1.278-2.166-1.844-1.809-4.394.877-9.187.209-.373.99-1.822 1.241-2.298.45-.852.892-.519.889.046-.002.158-.673 1.482-1.35 2.71-2.967 5.391-2.865 7.59.018 8.873 2.813 1.252 4.073.531 6.317-3.584 1.297-3.09 1.937-3.14 1.866-1.966-.003.438-1.573 3.4-2.587 4.777-1.47 1.996-2.741 2.35-5.187 1.907zm.214-2.601c-1.105-.636-1.555-2.216-.902-3.51.593-1.067 2.114-5.157 2.83-5.387 1.149-.037.535.858-.889 3.373-1.684 3.332-1.624 4.223-.324 4.733 1.204.472 1.775-.496 3.55-4.393.278-.611.667-1.247.895-1.114.282-.02.773.178-.16 1.944-.222.422-.598 1.307-1.013 2.132-1.213 2.411-2.59 3.026-3.987 2.222zm19.937-7.072c-.486-.233-2.764-1.065-2.427-1.754.042-.065.174-.014.242.028 2.085 1.299 4.68 1.629 7.385-.174.455-.373.795-.121.541.347-.82 1.51-4.466 2.156-5.741 1.553zm-6.7-2.19c.063-.146.25-.577.417-1.158.25-.872.191-1.514.413-1.403.945.474 2.635.486 3.462.017.907-.515 2.746-.672 3.417-.267.958.58 1.445.31 2.117-.176.757-.549.771-.314 2.14.127 1.01.326 1.407.549 1.837.476.164-.027.498-.376.605-.358.329.055.366.922.668 1.911.268.876.116 1.087-.729.562-.627-.39-2.432-.574-4.309-.039-1.39.396-1.71.237-2.73.076-2.543-.399-4.378-.707-6.273.312-1.012.545-1.38.828-1.035-.08zm-6.325-4.324c-1.232-2.297 1.602-5.338 4.093-4.264.826.356 1.56 1.705.338 1.086-5.665-1.063-4.25 6.646 1.834 2.574 4.043-2.494 6.904-2.88 7.142-.466-.113.886-.96.744-1.603.825-1.675.218-2.295.47-4.237 1.244-2.954.865-5.842 1.572-7.567-1zm22.168 1.061c-1.382-.33-2.583-.837-4.024-1.08-1.428-.23-2.072-.923-1.814-1.855.268-.968 1.697-1.07 3.846.148 2.381 1.351 4.109 1.678 4.98 1.17 1.762-1.031.812-2.708-.87-3.138-1.263-.326-.334-.782 1.023-.406 2.19.771 2.237 4.449-.015 5.212-.754.255-2.081.186-3.126-.051zm-19.297-12.173c1.609-.923 3.163-1.749 3.716-2.3.29-.29 1.097-1.26.47-.964-3.28 1.83-7.088.31-9.847-.943-1.325-.576-1-.32-2.017-.258-.69.043-1.244.178-1.367-.28-.055-.203-.44-.118-.688-.14-1.02-.094-.375-1.348 1.767-2.73 2.525-1.63 4.729-2.694 6.916-3.133 2.272-.456 4.589-.198 6.288 1.322.653.584.596.973 1.192.615 1.362-.819 1.373.267.225 1.272-.789.69-.5.878.464 1.535.46.314.083.612-.174 1.069-.097.28-.02.585-.067.797-.215.981-5.025 4.45-6.766 5.043-1.198.207-.57-.632-.112-.905zm3.34-6.373-.799.01c-.908 2.578-2.586 3.457-3.983.366l-.636.06c-.028 2.617 4.82 4.262 5.418-.436zm-5.251 2.418c-.33-.514-.7-1.692-1.045-1.709-.937-.037-2.233.12-1.926.66.484.854 3.353 1.644 2.971 1.049zm6.426-.46c.864-.483 1.048-.817.485-1.348-.729-.686-1.109-.336-1.337.76-.197.941-.055 1.095.852.588zm-11.719-1.813c5.79-2.434 7.986-2.748 10.338-2.146.545.14 1.028.422 1.332.406 1.127-.063.408-1.235-1.614-1.907-2.309-.766-3.773-.418-8.212 1.732-2.599 1.258-4.71 3.12-1.844 1.915zm16.78-2.954c-.082-.146-.432-1.114-.532-1.467-.1-.354-.19-.719-.297-.72-2.687.398-5.049-.068-5.683-.209-4.063-.9-7.99-.718-10.92.349-.715.26-1.603.682-1.688.756-.232.201-.574-.028-.572-.279.002-.295 1.8-1.617 2.934-2.139 3.448-1.587 7.087-1.858 11.083-.86 2.603.928 4.28.778 5.945.1.817-.331.237.49-.021 1.58-.18.756.017 1.402.05 1.83.103 1.03-.023 1.547-.298 1.06zm60.526 217.668v-85.373c-15.233 10.439-44.043 21.327-44.043 21.327 3.627 6.867-4.365 12.744-8.95 5.77-4.717 4.92-11.215 22.153-11.446 27.875 0 0 12.549 20.354 18.672 30.401zm-83.902-28.111c.419-4.286 1.405-11.553 4.478-20.01 1.289-3.547 2.844-7.618 5.04-11.262.877-1.273.938-1.766.003-1.308-.588.288-3.273 3.1-3.638 3.81-4.119 8.073-6.025 17.771-7.532 25.176-.342 1.664-.442 3.734-.442 3.734zm3.013-.352c.98-10.413 5.105-24.471 11.301-33.634.583-.873 1.3-1.63 1.273-1.933-.08-.89-2.466.649-4.318 3.277-2.066 3.807-4.137 7.867-5.72 12.363-2.237 6.347-3.87 12.21-4.506 20.166zm5.955-.87c.621-6 2.626-11.505 4.307-17.02 2.056-6.742 4.8-11.705 7.996-16.174 1.026-1.433 2.236-2.775 3.386-4.142.147-.164.294-.46.26-.583-.738-.12-1.326.093-1.897.39-.797.415-1.919 1.461-2.574 2.237-4.554 5.395-7.004 11.693-9.278 18.056-2.183 6.111-3.756 11.988-4.064 17.521zm-40.9-4.599c.915-.066 1.505.094 1.771-.132.264-.225.178-.829.26-1.601.178-1.651-.006-1.561-1.117-.494-1.839 1.766-5.195 2.447-7.19 1.38-1.008-.54-1.708-.913-1.803-.465-.11.523.042.923.473 1.202 2.418 1.024 4.714.32 7.605.11zm-2.162-1.265c1.273-.393 2.568-1.024 3.296-1.988.695-.92.683-1.052.157-.877-2.588 1.182-4.29 1.783-6.603 1.457-3.133-.443-3.263-.072-1.192 1.132 1.355.788 2.48.812 4.342.276zm-4.6-3.69c.486-.332.61-1.685.219-1.762-.396-.078-.973.594-1.114 1.14-.158.727.421.912.895.622zm4.85-.058.833-.07c-.426-3.394-4.394-3.54-5.126.34l.629.087c.819-3.094 3.218-3.009 3.664-.357zm2.617-.547c1.214-.628.794-1.407-.843-1.705-1.075-.234-1.016.582-.459 1.689.277.55.47.447 1.302.016zm-9.345-4.16c-.011-.378-.178-.988-.371-1.356-1.399-2.66-2.171-5.805-2.013-9.712.114-2.801.152-3.667-.475-3.67-.876.39-1.393 5.602-.278 9.941.786 3.062 3.195 6.861 3.137 4.797zm-.034-4.241c-.086-1.463.26-4.743.088-5.459-.227-.94-.827-1.79-1.165-2.016-.526-.35-.657.322-.475 2.08.426 4.125 1.14 7.248 1.552 5.395zm.442-7.508c.346-.579.21-1.192-.55-2.572-3-5.433-3.39-9.146-.256-10.495.35-.151.572-.18.805-.3.989-.509.612-1.432-.865-1.05-4.082 1.052-4.887 4.6-1.446 11.164 1.752 3.276 2.024 3.734 2.312 3.253zm.743-3.081c.054-.228.16-1.116.2-1.298.04-.182-.37-.705-.812-1.753-1.154-2.735-1.178-3.87.077-4.663.407-.222.827-.233.89-.488.098-.397.091-1.05-.165-1.238-1.8.011-2.632.986-2.948 1.913-.475 1.467.02 3.615 1.434 6.278.685.83 1.043 2.348 1.324 1.249zm1.376-3.54c.963-1.804.05-4.142-1.275-3.345-.86.517-.903 1.064-.376 2.567.642 1.829 1.023 1.956 1.651.778zm3.377-4.827c.385-.354.043-.863-.67-2.856-.61-1.707-.33-2.874.832-3.21 1.667-.382 2.257 2.148 2.607 3.215.181.823.765 1.05 1.282.478.145-.16.187-.294-.06-1.192-1.076-3.923-2.483-5.171-4.748-4.194-2.1.906-1.825 2.932-.303 7.193.204.57.34.993.487 1.052.12.049.36-.29.573-.486zm1.86-1.332c.498-.458.469-.251-.101-1.888-.65-1.866-.991-2.255-1.69-1.614-.428.394-.212.827.278 2.355.568 1.774.72 1.875 1.513 1.147zm87.073-6.39c3.315-2.122 1.948-5.93-2.415-7.342a18.747 18.747 0 0 1-1.26-.448c-2.004-.894-3.564-1.171-3.568-.471-.003.41.599.618 2.52 1.487 2.843 1.285 3.486 2.77 2.082 4.643-1.01 1.35.884 2.895 2.641 2.131zm3.008-4.634c.288-1.09.716-2.023.92-2.658.282-.993-.08-.762-.79-.607-1.827.88-3.134.402-2.246 1.61.985 1.61 1.8 2.852 2.116 1.655zm-.227-3.807c2.277-1.265 2.782-4.562.663-6.133-.507-.375-1.383-.87-2.445-1.171-2.156-.61-5.269-.887-6.41-.567-.244.268-.255.69-.009.813.318.11.892.181 1.72.26 3.17.298 4.733 1.173 4.58 3.26-.156 2.15-2.008 2.977-5.353 2.297-1.799-.366-2.637-.19-1.915.201.858.464 2.704 1.074 4.522 1.406 1.555.253 3.328.35 4.647-.366zm-10.928-.542c2.563-5.337 3.912-19.335-10.732-29.454l.484 2.8c8.629 7.015 10.701 15.948 8.914 24.142zm13.074-9.568c-.916.552-1.683 1.124-2.86 1.612-.705.292-.723.364.235.848.463.235 1.226.666 1.518.958.506.507 1.104.701 1.328.517-.024-.794.269-3.42-.22-3.935zm-4.334 1.012c2.966-.87 4.554-2.194 4.216-4.409-.496-3.249-3.426-3.936-8.913-2.666-2.639.611-2.875 1.76-.37 1.168 3.164-.749 5.647.383 5.31 2.53-.195 1.854-1.802 2.933-4.622 2.933-1.49 0-1.95.124-1.748.622.137.337 4.905.18 6.127-.178zm-4.897-7.72c4.849-1.54 7.103-3.937 5.996-6.622-1.304-3.161-5.537-3.193-9.789-.25-1.986 1.348-1.682 1.848.243 1.161 2.495-1.063 4.1-1.227 5.122-.382 1.845 1.527.6 4.19-2.198 5.144-1.355.523-1.79.811-1.793 1.188-.004.597.243.453 2.419-.238zm8.18-.049c.124-.935-1.015-4.18-1.508-3.433-.13.198-.583 1.114-1.155 1.59-1.668 1.386-1.353.86.304 1.285.92.236 2.221.837 2.358.558zm-12.825-6.934c4.902-2.635 6.773-6.396 4.232-8.895-2.283-2.248-6.069-.94-9.585 3.146-1.612 1.874-.401 1.638 1.772-.143 2.532-2.076 5.752-1.074 5.735 1.517-.008 1.106-1.696 2.967-3.292 3.832-.496.269-.568.68-.393.948.19.29.587.103 1.53-.405zm8.593-2.748c-.256-.709-2.1-3.748-2.497-3.645-.418.78-.449 1.806-.95 2.632-.684 1.243-.597 1.048 1.58 1.042 1.62-.005 1.817.205 1.867-.03zm-14.408-3.437c4.118-3.964 4.482-8.606.623-9.674-2.137-.592-5.555.841-5.565 2.321-.006.921.18 1.089 1.046.758 3.64-1.256 6.524 1.99 3.18 5.72-.813 1.08-.922 1.351-.685 1.575.278.261.503.163 1.4-.7zm44.36-33.898V40.774h-24.103L157.6 68.512l-.029 6.865c0 .237.435.384.717.086 1.087-.78.668.04-.583 1.806-1.265 1.786-.878 3.258.505 5.165 2.932 4.041 4.46 11.461 3.213 15.383-.471 1.481-.576 2.08-.269 2.908.352.947.568 1.453 1.585 2.064.885.572 8.166 3.205 19.896 10.2l-.058-49.361 7.39-6.57 7.807 6.927.274 81.495c.003.862 1.818 1.254 2.799.361zm-4.228-81.622-6.537-5.647-6.462 5.563c-.034 26.545.164 81.025.164 81.025l6.422.428s.472-1.242-.13-4.455c-.902-4.822-.846-10.71.604-19.665.903-5.495.006-10.26-1.364-15.276-1.19-3.343-1.232-6.436-1.016-9.427.457-4.768 1.872-8.369 2.045-15.23.1-3.91-.102-7.74.052-12.563.063-.647.358-.567.41.1.196 4.366.38 8.513.422 12.777-.141 5.544-1.603 11.25-1.763 16.325-.121 3.516-.182 4.732 1.418 9.013 2.516 6.727.86 17.063.83 17.246-1.065 6.621-1.842 15.092 1.757 21.429l3.488.288zm-44.972 50.076c1.929-.822 2.31-2.274 1.272-5.77a65.08 65.08 0 0 1-.47-1.647c-.222-.863-.64-.958-1.198-.271-.334.41-.026.505.486 2.427.774 2.905.324 3.865-.84 3.859-1.032-.006-1.836-.795-2.13-2.68-.102-.644-.249-1.083-.416-1.34-.28-.432-.619-.354-.891.123-.353.617.31 3.159 1.19 4.39.955 1.243 1.612 1.498 2.997.909zm-.526-2.609c.411-.715-.098-2.476-.363-3.63-.245-.643-.524-.8-.983-.695-.683.155-.65.849-.403 1.99.504 2.326.777 2.62 1.75 2.335zm5.863-4.196c2.207-1.167 2.418-3.179.935-6.84-.608-1.5-1.365-2.556-1.782-2.568-.164.955-.315 1.464-.132 1.838.172.348.462.88.669 1.326 1.255 2.7.917 4.256-.295 5.1-1.132.787-.416 1.45.605 1.144zm-72.22-1.407c5.175-1.027 9.843-8.742 12.783-15.622 2.678-6.932 5.525-14.547 5.976-20.898 0 0-1.957.083-2.198.459-.221.37-.318 1.166-.526 2.3-1.35 5.843-2.422 10.28-4.776 15.772-1.634 3.812-3.417 8.127-7.843 13.923-1.454 1.62-3.117 2.624-5.207 2.894-.532.069-1.427-.023-1.653.124-.396.26-.039.849.984 1.086.916.213 1.847.074 2.46-.038zm71.312-.902c.79-.779.867-1.704-.019-3.66-.248-.548-.362-.86-.656-.783-.625.162-1.353 1.683-.922 2.971.562 1.679.89 2.17 1.597 1.472zm-73.118-1.225c1.516-.188 3.436-1.306 4.824-3.059 2.852-3.46 4.82-7.396 6.279-10.456 1.168-2.466 3.278-7.789 3.851-9.717 1.218-4.094 1.884-6.737 2.439-9.668.05-.27.099-.7.013-.84-.6-.151-1.917-.06-2.321.315-.727 4.701-2.416 9.418-3.65 13.338-2.083 6.669-8.019 17.336-11.255 17.84-1.74.27-3.734-1.133-3.414-2.572.197-.884.328-1.221.795-1.442 1.128-.369 1.785.343.547.808-1.434 1.156 1.147 2.924 2.732 1.689 2.687-2.094-1.26-6.103-4.492-4.26-3.58 2.041-2.66 5.577-.409 7.258 1.135.847 2.45.966 4.06.766zm25.349-4.788c2.211-2.105 3.872-4.83 5.08-8.237 2.62-7.651 4.79-16.422 5.577-23.294 0 0-1.89-.18-2.31.19-.296.261-.013.51-.816 5.532-1.35 7.32-3.316 14.59-6.162 20.882-1.166 2.545-1.497 2.857-2.32 4.178-1.15 1.867-.724 2.343.95.75zm49.068-15.95c-.205-.1-.188-.035-.275.021-.301.194-.104 1.171.58 2.68 1.803 2.699 2.014 7.936 1.896 9.905-.036.59-.102.93.092 1.456.191.515.527 1.114 1.067.11.593-3.878.127-7.938-1.476-11.225-.565-1.17-1.118-2.312-1.884-2.948zm1.388 11.435c.316-1.043-.268-5.181-.992-6.635-.291-.586-.819-.632-.756.034.006 1.434-.16 4.16.006 4.968.787 1.685 1.4 2.759 1.742 1.633zm-4.082-16.716h-.851c.029 2.707-2.559 3.459-3.513.21l-.766.164c1.018 4.586 5.62 2.483 5.13-.374zm-5.174 2.04c-.442-1.2-.259-1.64-1.38-1.1-.858.413-1.371.852-.165 1.39 1.074.422 1.825.47 1.545-.29zm6.482-.691c.355-.667.313-1.267-.222-1.27-.413-.003-.528.302-.645.949-.21 1.154.31 1.367.867.32zm.45-4.497c.328-.096.235-.525.147-1.07-1.402-1.808-4.872-1.254-6.118-.895-1.44.433-1.8.272-2.78-.144-.809-.14-.923.043-1.12.4-.173.317-.204.917-.26 1.962-.047.883-.013 1.294.318 1.018 1.284-1.07 2.771-2.406 4.94-2.49 2.63-.1 4.875 1.259 4.873 1.22zm-9.551 2.448c-.003.364.333.137 1.188-.361 3.114-1.716 4.918-1.473 7.583-.655.594.182.961-.394.318-.884-3.166-2.413-7.066-.875-9.09 1.9Zm11.282-11.114 16.891-25.909-94.103-.064 15.978 27.508c13.03-2.798 34.478-6.37 61.234-1.535Z" />
  <path fill="#e2cf00"
      d="M74.714 268.798c1.993-2.758 11.864 2.156 12.386 4.103 5.842-4.266 12.935-4.576 18.643.763 5.87-5.952 12.153-5.545 18.69-2.097-.73-1.345 8.357-7.284 13.88-3.51l14.938 24.68-95.696.286c5.653-7.872 10.66-17.274 17.159-24.225zm-41.8-128.722c-.52-1.336-2.62-15.046 2.707-15.388 8.61 3.541 19.602 16.209 24.695 23.95 6.312 9.592 12.689 31.65 9.167 30.687-.508-.14 10.869 10.428 11.653 11.46 1.29 1.697-19.18 33.32-22.56 32.186-1.023-.343-7.839-4.118-7.839-4.118l.195-10.551s10.712-19.62 11.306-26.175c.224-2.477-7.37-6.717-7.718-7.573-.866-2.133-.763-10.057-5.188-13.517-2.44-1.376-4.743-.937-7.218-.645-10.044-1.555-4.84-17.258-9.2-20.316zm167.973 7.043.06 3.892c-6.612 1.337-18.3-3.86-21.838 4.512.439 9.041 2.622 13.096 4.147 15.826 1.146 2.453 9.187-.345 12.02 2.128 8.125 9.28 6.207 21.636 6.279 32.77l-3.526 1.651c-24.362-13.33-43.069-54.742-45.66-66.532-.166-7.569 22.35-31.893 22.35-31.893.05-.053 8.203 4.604 8.203 4.604.197.074-.173 31.924-.172 31.776 6.438.308 12.68.89 18.137 1.266zm-49.494-29.112c-12.499 16.63-16.727 41.483-15.923 58.818 1.62 25.882 21.498 48.957 20.169 51.138-.226-.151-.75.106-.95-.059-4.579-3.778-7.777-3.116-10.118-3.15-4.476-.066-5.713 1.172-8.28 1.408-6.557.603-6.025.758-11.586-1.186-7.019-5.31-16.42-9.382-23.9-11.523-5.997.5-15.141 3.13-18.6 1 24.056-41.192 20.453-67.562-4.45-110.738 2.064.565 2.385 2.354 3.931 2.795 5.12 1.834 12.173 1.139 16.4-.573 4.59-1.918 8.923.89 8.864.798 9.038 5.92 19.974 9.74 25.666 12.38 1.683.805 3.809-.466 5.666-.815 3.806-.715 7.067-2.226 9.906-1.341.911.284 2.27.63 3.205 1.048zM95.234 64.102c-1.224-2.115-13.75-24.226-13.75-24.226l93.172.52-13.978 21.333c-1.32 1.158-7.886 4.385-14.583-2.923-.126 1.05-9.94 7.545-18.374-.276-5.077 4.28-10.254 6.76-18.795 1.942-.19 1.343-6.85 7.37-13.692 3.63z" />
  <path fill="#d40000"
      d="M105.428 273.17c-9.027-7.854-18.425-.764-18.21-.316-3.572-3.37-7.066-6.131-11.776-4.775 0 0 0-1.183.035-1.21 14.042 2.387 35.549 3.005 60.689-1.88l1.29 2.506c-6.742-2.225-10.216.777-13.205 4.281-10.82-6.27-13.46-.769-18.823 1.394zm21.055-91.344 6.387-.116c1.203 17.26 16.72 43.67 17.094 43.67-1.081-1.394-11.326-.295-11.25-.119-5.633-13.965-11.818-27.916-12.23-43.435zM89.235 222.77s-2.054-4.947-3.284-7.064c6.705-10.64 12.205-21.653 15.026-33.899l4.567.038c-1.353 16.907-15.915 42.583-16.309 40.925zm82.16-2.263c10.059-16.866 8.323-41.177-20.215-54.612 0 0 .744-17.819 2.866-17.86.48.139 12.917-.148 12.917-.148 3.259-7.431 8.503-16.418 15.83-22.487l.183 19.918c-5.423.497-8.73 2.105-10.372 6.046l-7.514 1.555c.552 20.01 8.655 38.497 32.685 55.101-5.743 4.586-25.37 13.897-25.295 13.733zM50.987 207.935l.214-20.741c3.644-.732 6.516.25 9.525-5.82 0 0 5.049 2.228 6.726 3.049-4.719 7.847-8.793 16.233-16.465 23.512zm47.842-36.722.247-10.53 10.759.288c-.913 3.57-1.199 7.141.021 10.712zm24.545-.128c.734-3.446 1.26-6.91-.265-10.567l11.65.185-.275 10.487zm-22.155-20.59c-1.938-20.654-17.167-44.03-17.38-43.533 1.794.267 4.953 1.093 6.693.328 2.105.324 3.929.103 4.029-.078.14-.722 14.156 29.987 12.285 43.235-.223.448-5.17.478-5.627.047zm26.926.18c1.644-9.54 5.888-26.994 15.91-41.147 1.14 2.513 2.095 5.097 3.658 7.446-7.556 10.217-12.213 21.894-15.038 33.815zm-69.66-5.143c-4.585-8.693-23.661-22.38-22.685-20.997 7.896-6.578 16.704-10.756 25.495-14.977 0 0 1.562 1.379 1.325 1.726-5.404 7.916-8.024 24.688-2.792 34.3 5.029 10.269 13.95 16.338 23.044 21.103-.704 6.42-1.047 11.06-2.746 17.442 0 0-5.715-2.793-10.399-4.59-.745-12.123-3.444-22.966-11.241-34.007Zm50.525-85.188c6.723 3.81 12.745 3.408 18.583-1.762 7.329 6.18 15.254 3.302 18.604.516 3.099 3.245 7.137 5.045 13.042 3.973l-1.463 2.853c.35-1.516-40.725-3.99-60.598 1.18 0 0-1.162-2.152-1.033-2.17 1.73-.098 7.487 1.884 12.865-4.59z" />
  <path
      d="m80.116 39.19 16.603 28.747s.486-.083.73-.127c23.012-4.18 41.238-4.753 60.814-1.553l17.402-26.762c-31.671-.335-95.549-.304-95.549-.304zm1.85 1.225 92.327.094-5.193 7.918c-3.11-.892-4.844.434-5.28 3.204 0 0-.384-.154-1.105-.227-4.55-.457-5.124 5.117-.877 5.79 1.085.171 1.268-.029 1.268-.029-3.789 2.959-5.94.963-7.724-.014-.048.346-3.395 2.683-6.552-.113 4.52.42 5.224-3.791 3.063-5.393a10.342 10.342 0 0 0-.912-.736c1.063-.862 1.295-2.007.613-3.317-1.37-2.636-5.667-2.482-6.324.396-.255 1.12-.263 1.316-.263 1.316-3.47.211-4.174 3.256-2.982 4.945.678.96 2.168 1.17 3.545 1.104-1.855 2.443-6.101 1.612-7.993-.4-3.005 3.282-6.43 2.883-8.139 1.122 1.161-.011 1.962-.027 3.028-.943 1.823-1.567.927-4.347-1.648-5.125-.5-.15-.86-.181-.888-.184.018-.023.067-.177.178-1.014.64-4.847-7.17-4.368-6.415.401.087.553.248.85.248.85s-.829-.044-1.303.16c-4.338 1.859-1.35 6.979 2.003 5.662.318-.125 1.183-.52 1.308-.514-4.152 4.785-7.637 1.393-8.555.872-2.804 3.867-7.674 1.23-7.774.958.303.079 1.216-.097 2.084-.51 2.744-1.33 1.968-4.751-.172-5.496-.656-.213-1.448-.235-2.338-.17 0 0 .068-.862-.02-1.166-1.35-4.66-7.583-2.333-6.05 1.605.134.345.497.693.497.693s-.845.478-1.222.793c-2.977 2.49.052 6.596 3.53 4.888.448-.22.883-.683 1.008-.656-1.635 2.78-4.117 3.75-7.657 1.449-2.183 3.218-5.746 1.881-6.75.269 3.328.283 5.49-5.649-.908-5.841-.497-1.611-.472-4.066-4.528-3.643zm45.089 10.178c.733 0 1.323.554 1.323 1.236 0 .682-.59 1.236-1.323 1.236s-1.329-.554-1.329-1.236c0-.682.596-1.236 1.329-1.236zm20.63.146c.776 0 1.404.59 1.404 1.312 0 .722-.628 1.306-1.405 1.306-.776 0-1.404-.584-1.404-1.306 0-.723.628-1.312 1.404-1.312zm-40.438 1.43c.748 0 1.354.563 1.354 1.26 0 .696-.606 1.264-1.354 1.264-.749 0-1.36-.568-1.36-1.265 0-.696.611-1.26 1.36-1.26zm57.928 1.552-1.177 1.944c-1.297-1.059-.403-2.446 1.177-1.944zm-74.08 2.68-1.17-2.01c2.094.131 1.477 1.526 1.17 2.01zm35.787-1.095c7.924 8.4 15.03 5.915 19.677.33 1.992 4.76 6.434 8.052 14.077 4.85-.462.762-1.623 2.105-1.623 2.105-6.754 1.693-10.107-1.264-12.713-4.081-6.872 5.308-13.343 4.021-18.682-.66-4.558 5.338-11.938 6.485-18.769 2.127-3.123 4.289-7.603 6.02-13.236 3.874 0 0-1.195-1.748-1.298-1.859.816.637 11.19 4.644 13.723-4.992 3.611 5.702 15.451 6.005 18.844-1.694Zm.797 3.454c8.912 7.754 18.266 1.049 18.504.576.14.43 5.227 6.082 12.562 3.958l-1.192 1.902c-13.801-2.173-26.496-3.568-55.57.41 0 0 4.64-1.278 6.988-4.723 1.307.79 11.393 6.028 18.708-2.123zM96.44 65.186s3.88.424 4.184.496c.34.246-3.267 1.167-3.281 1.1zm7.865 36.997c-.234.007-.527.253-1.014.698-1.052.964-1.291 1.09-2.312 1.227-.77.103-2.396.973-3.383 1.812-.266.226-.776.416-1.384.514l-1.618.26c-.36.057-.753.163-.872.23-.518.294-1.362.34-2.308.128-.912-.203-1.058-.198-2.064.09-1.464.42-2.423.42-3.144 0-.72-.42-1.865-.577-2.591-.359-1.074.323-3.855-1.226-3.85-2.142.003-.208-1.58-1.31-1.977-1.312-1.41-.194-13.796 4.356-13.733 4.62 15.21 17.478 28.013 44.106 18.368 76.692l-1.704-.76c1.432-5.923 1.999-11.884 2.44-17.94-28.548-11.466-31.006-38.133-19.925-54.968l-1.882-1.864c-6.714 3.334-13.537 5.227-30.133 18.18l.046 20.969c.04 18.955.03 37.425.03 37.425 6.006.62 12.62 1.125 19.144 1.647 0 0-.084 18.746-.233 26.078-.126 6.202.122 5.813.122 5.813L71.93 229.82c-1.518-5.582 2.229-7.8 5.365-7.567-1.386-5.382 2.055-7.845 5.984-7.154 2.654.466 3.583 1.828 5.102 6.327.247.73.586 1.71.586 1.71l1.514-.053c1.895-3.787 3.161-8.605 7.62-9.23 5.837-.817 8.01 2.914 8.007 6.644 5.655-4.636 12.429-1.048 11.989 5.878 2.845-1.702 7.666-3.24 10.703 3.322 1.142-.224 1.724-1.408 3.33-1.779.6-.116 1.963-.797 1.963-.797l.016-.227s1.263-.407 2.955-.665c1.453.504 1.029.487 1.812-.411.871-.416 2.285-.69 3.376-.599 1.144.096 1.652.173 2.323-.099 1.043-.424 2.019-.532 2.637.109.444.46 1.086.238 1.775.212 1.378-.051 3.215.476 3.788 1.628.845.801 2.693 1.614 2.693 1.614l1.496-.321.172-.514 12.237-4.346c-24.952-25.42-24.302-59.145-18.424-76.215l2.257 1.01c-1.197 5.059-2.555 10.255-2.378 17.797 22.47 9.321 33.648 33.415 20.026 54.445l1.44 1.731c5.667-2.213 19.922-9.66 24.849-13.706l1.05.08s2.987-1.8 4.305-2.76l.177-55.809-1.044.255-.188-3.26-18.525-1.369c.236-.164.413-.23.467-.557l-.107-30.895c-.688-.98-16.204-9.436-21.973-11.414-.231-.001-.073.362.01 1.246.283 3.03-1.916 5.728-4.463 5.732-.917.002-1.075.365-1.03 2.105.065 2.474-.896 4.137-3.696 5.077-3.32 1.114-5.567-.502-7.414-6.856-.486-1.669-1.434-1.251-2.343 1.029-.451 1.131-1.912 3.878-2.784 5.327-.672 1.112-1.735 1.606-3.18 2.198-1.126.519-3.565.429-4.97-.236-2.547-1.204-3.536-2.65-4.27-6.232-.096-.469-.426-.428-1.252.15-4.498 3.154-10.824-.106-10.787-5.558.011-1.6-.06-1.664-1.07-.896-3.05 2.317-7.195 1.142-8.854-2.51-.388-.855-.596-1.236-.898-1.227zm-25.853 1.934c.318-.013 1.309 1.213 1.309 1.213.913.94 2.14 1.416 3.418 2.114.119-.166 14.892 18.281 17.404 43.715l6.872.033c-1.282-24.714-8.608-36.592-11.968-44.215l2.464-.727c5.527 9.852 12.263 29.848 12.04 47.353H98.64c-1.602-17.534-8.93-34.63-19.18-47.598-.713-.996-1.272-1.691-1.064-1.869a.09.09 0 0 1 .055-.019zm-4.346 2.61 1.152 3.36s.138-.785.492-1.081c2.242-1.88 4.388.595 3.377 3.954-.23 1.034-.68 3.071-.68 3.071s-2.253-1.075-3.387-1.42c-3.127-1.236-4.17-3.673-1.78-3.95.4-.046 1.222-.08 1.222-.08-.993-.726-3.185-2.387-3.185-2.387zm10.498.377c.944.499 3.382 1.037 4.782.547 1.131-.395 1.993-.178 3.17-.084.674.053 2.018-.222 2.018-.222 6.719 13.151 11.34 28.756 12.11 43.026l-5.284.029c-1.995-15.16-8.302-30.56-16.304-41.984-.354-.498-.825-1.293-.492-1.312zm22.075.227c2.046.022 4.186 1.92 5.35 5.025.648 1.729.9 1.624 1.77 1.344 2.232-.711 4.608 1.569 1.617 1.949-2.936.451-1.26 5.795-1.51 6.266-1.19.193-3.426-4.348-3.368-5.7.143-3.312-3.201-6.082-5.28-4.69-.984.66-.877 1.125-1.18.887-.936-.73-1.125-2.746-.031-3.888.79-.825 1.702-1.204 2.632-1.193zm60.783 1.141s.116 4.356-.06 5.318c-.35 2.904-4.426 3.209-4.585.887-.666.928-1.124 2.082-1.39 3.119l-2.89-1.85c1.097-.733 2.144-1.376 2.956-2.283-2.143.15-3.34-1.575-1.907-3.044 1.593-1.682 5.997-1.863 7.876-2.147zM61.18 109.85l1.278 1.34c-11.39 18.784-7.374 42.797 20.117 55.412-.182 5.764-.975 11.592-2.454 17l-10.142-4.576c.068-21.238-12.857-41.485-33.49-54.794 7.486-5.597 15.77-10.514 24.691-14.382zm83.046.16c.483 2.48 3.007 6.972 3.19 6.715-.027-.148-10.503 12.485-15.057 33.613l-3.89.014c2.55-14.078 7.639-27.362 15.757-40.341zm32.288.59 2.07 1.166c-10.857 8.457-18.006 19.178-23.257 30.74l-2.744-1.208c8.142-16.772 16.186-24.22 23.931-30.698zm2.896 1.874c.568.033 1.242.702 2.287 1.236 1.022.521.767.798-1.156 2.17-2.275 1.623-2.49 1.55-2.47-.764.013-1.536.43-2.56 1.227-2.638a.705.705 0 0 1 .112-.004zm-2.5 2.387c.12-.006.216.03.279.123.166.612.149 2.016-.117 3.402-.215.912-3.133 3.203-4.174 4.11-.417.254-.608.161-.684-.293.033-.72.107-1.677.121-2.652.004-.3-.063-.615.229-.844 1.43-1.57 3.51-3.805 4.346-3.846zm5.42.746c.018 0 .03.002.041.009.27.15.225 3.298.036 3.506-.847.203-3.123-.13-3.707-.42-.128-.366 3.085-3.116 3.63-3.095zm-101.692 1.019.791 3.086s.227-.414.284-.496c1.572-2.237 3.485-.925 3.454 2.18-.01.98-.969 4.902-.969 4.902s-5.9-2.636-6.364-3.793c-.457-1.138.192-2.14 1.278-2.232.406-.043.832-.074 1.298 0l-2.536-2.411Zm67.559.41 2.677.92c-5.584 8.451-11.346 16.799-15.543 35.836h-11.223c1.57-11.634 4.75-23.071 10.427-34.203 0 0 2.204-.63 3.448-1.005 0 0-9.275 19.747-10.355 32.443l5.42.109c2.893-12.372 8.308-25.195 15.149-34.1zm-21.249.307c1.508-.052 2.62.934 2.536 2.685-.02 1.6-.177 1.833-1.395 1.193-1.598-.84-2.863-.858-4.295.095-.788.524-1.562.958-1.562.958s.691-2.781 1.75-3.657c1.014-.84 2.062-1.243 2.966-1.274zm-5.756 4.114c-.108.941-.407 1.373-.674 2.175 0 0 .878-.317 1.298-.5 1.994-.865 4.073.737 4.042 2.614.09 1.252-1.373 2.752-3.114 2.765-.607.005-1.25-.173-1.871-.604.45 2.294.54 3.355-1.263 4.506-1.508.934-4.687-.133-4.508-2.699l.112-1.58-1.527.184c-4.263.162-4.338-4.72-.897-5.488 1.373-.302 2.865.746 2.865.746-.654-1.197-.667-3.257.213-4.209 2.165-2.342 5.59-.213 5.324 2.09zm37.228-3.048c.233 1.828 1.013 3.82.791 5.525-.332 2.18-2.324 3.471-3.89 2.058-.193-.175-.542-.538-.542-.538-.706.831-1.146 3.185-1.146 3.185l-2.764-1.586s1.92-1.253 2.45-1.967c.147-.199.218-.576.218-.576-1.539.447-2.844-1.016-2.425-2.307.833-2.115 4.97-2.9 7.308-3.794zm19.316 1.321c1.035-.03 2.636.243 3.9.368.973.158.433.668-1.745 2.643-2 1.813-1.937 1.642-3.478 1.618-3.6-.056-4.231.019-2.135-2.085 1.098-1.103 2.057-2.099 2.845-2.468a2.73 2.73 0 0 1 .613-.076zm-6.49.383a.182.182 0 0 1 .116.047c.238.207.158 1.151.132 2.548-.028 1.486-.01 1.487-.68 2.264-.852.994-1.56 2.007-2.45 2.964-.77.777-.745.694-1.206-1.175-.447-1.813-.198-2.378 2.312-5.006.85-1.015 1.455-1.656 1.775-1.642zm11.242 1.033.03 3.676c-7.428 6.758-12.476 14.36-15.908 22.737l-2.586-.958c4.48-10.704 11.188-19.051 18.464-25.455zm-64.394 2.222c-1.228 0-2.221.924-2.221 2.067 0 1.142.993 2.071 2.221 2.071 1.228 0 2.226-.929 2.226-2.071 0-1.143-.998-2.067-2.226-2.067zm-.015.651c.847 0 1.536.641 1.536 1.43 0 .789-.689 1.43-1.536 1.43-.848 0-1.532-.641-1.532-1.43 0-.789.684-1.43 1.532-1.43zm-82.529.873c23.172 13.832 33.562 35.274 33.516 53.695l-1.309-.547c-1.356-26.03-16.562-42.032-32.998-52.388Zm137.186.198c.525.002 1.238.078 2.272.19 1.918.094 2.153.207.832 1.618a39.461 39.461 0 0 0-1.547 1.802c-.49.608-1.086 1.243-1.36 1.33-.402.13-3.77-.018-4.73-.141-.315-.04.098-.34 1.739-2.52 1.257-1.67 1.39-2.224 2.581-2.274a4.78 4.78 0 0 1 .213-.005zm9.65.708s.46 11.864.127 19.43c-5.286-.182-8.39 1.685-9.68 5.219l-5.554-2.558c4.075-9.736 9.524-16.511 15.107-22.09zm-16.36.274c.301.004.473.582.559 1.722.35 2.04.31 2.277-.604 3.586a76.045 76.045 0 0 0-1.384 2.048c-.53.83-.908 1.077-1.04.674-.723-2.2-.952-3.562-.695-4.005.423-.73 2.395-3.337 2.673-3.676.193-.235.355-.351.492-.35zm-132.18.222c18.627 10.73 32.253 29.055 32.816 51.194 0 0-3.97-1.734-6.42-3.001l-.127-2.152 1.293-.038.416 2.426 2.845-.085-.756-6.054-4.452.392-.898-3.43 1.35-.27.745 2.213 2.895-.712-1.541-5.393-4.473 1.137-1.43-3.642 1.486-.496 1.202 2.18 2.723-.882-2.571-5.408-4.113 1.808-2.09-3.53 1.608-.797 1.293 2.1 2.546-1.227-3.15-4.973-3.904 2.028-1.963-2.736 1.212-.788 1.34 1.439 2.236-1.472-3.428-4.29-3.738 2.723-2.764-2.977 1.273-1.005 1.902 1.585 2.125-1.727-4.073-4.133-3.56 3.02-2.652-2.142 1.299-1.335L42 137.018l1.76-1.939-4.433-3.397-3.321 3.057-3.185-1.958v-1.458c1.034.372 2.128.804 3.109 1.288l1.648-2.32-4.757-2.988zm51.873.915.705 3.784c.669-1.029 1.201-1.738 2.648-1.34 1.737.659 1.76 3.092.289 6.818-.273.69-.609 1.288-.609 1.288s-.761-.294-1.268-.618c-1.063-.676-2.853-1.441-3.768-2.784-.958-1.405-.979-3.372.781-3.203.35.002 1.04.155 1.04.155l-2.642-3.133zm-52.897 1.128 3.225 1.934-.67 1.133-2.555-1.071zm80.86.891c.934 1.216-2.354 4.798 1.947 6.229 0 0 .106.824-.79 1.326-2.105 1.423-5.127-1.176-4.19-3.85.6-1.711 2.333-3.695 3.033-3.705zm8.925.114s1.297.881 1.557 1.113c2.395 2.137 2.418 5.2.249 6.27-1.443.713-3.075.14-3.641-.896-.263-.478.169-.98.72-.976 1.033.006 1.822-1.836 1.516-3.775-.121-.768-.4-1.736-.4-1.736zm28.257.712s.285 2.619.695 3.78c1.257 3.255-.35 5.237-2.698 4.147-.336-.156-.928-.863-.928-.863l-.233 3.741-3.342-.906c.723-1.081 1.763-1.85 2.54-3.067 0 0-.5-.016-.938-.019-1.996.064-2.732-1.994-.639-3.69 1.56-1.25 5.543-3.123 5.543-3.123zm17.47.868c.405-.002.909.028 1.603.029 2.12.001 2.664-.266 1.729.962a35.248 35.248 0 0 0-1.516 2.265c-.535.92-.642 1.21-1.532 1.392-1.289.237-2.75.073-4.224.137-.32-.015.338-1.036.705-1.67.9-1.555 1.448-2.623 2.221-2.95.304-.128.61-.162 1.014-.165zm-6.552 1.203c.257-.012.446.415.69 1.298.569 2.06.716 2.112-.203 3.803-.463.853-1.252 2.299-1.577 2.897-.833 1.534-.88 1.52-1.405.146-1.006-2.634-1.094-2.363.568-5.322 1.038-1.848 1.553-2.803 1.927-2.822zm-122.226.722 2.997 2.237-.851.769-1.659-1.137-2.45 2.44 4.027 3.415 3.408-3.123 2.921 2.84-.892.703-1.714-1.538-2.566 2.038 3.828 4.21 3.86-2.737 2.419 2.948-.99.576-1.577-1.425-2.51 1.619 3.124 4.095 3.935-2.1 2.237 3.421-1.243.557-1.268-1.878-2.824 1.515 2.667 4.789 4.25-1.652 1.709 3.657-1.298.49-1.09-2.198-2.86 1.052 1.916 5.03 4.31-1.151 1.045 3.737-1.328.344-.655-2.071-2.743.613 1.146 5.049 4.387-.26.522 4.082-1.364.056-.34-2.434-2.794.033c.015.858.122 2.609.122 2.609l-1.69-.727c-2.508-15.52-11.456-28.454-24.787-37.459l-.071-1.854 3.245 1.916s2.977-2.467 3.49-3.096zm128.043 3.62c.93-.007.519.664-.614 2.67-1.263 2.238-1.488 2.285-3.854 2.822-2.878.653-2.794.799-1.237-2.289.6-1.19 1.038-2.232 1.587-2.628.721-.52 2.119-.32 3.636-.533.19-.027.35-.042.482-.043zm-134.62.66c13.845 8.31 22.596 25.5 23.683 35.92 0 0-.375-.233-1.131-.556-1.05-.448-1.307-.742-1.613-2.161-2.742-12.744-10.474-23.558-20.878-31.193zm124.848 2.128c.586-.114 1.652 3.799 1.333 4.62-.229.59-2.288-.804-3.037-1.1-.375-.148 1.308-3.443 1.704-3.52zm-66.762.18-.066 4.057s.525-.58.796-.764c1.03-.7 2.603.27 2.662 1.467.083 1.661-.187 2.335-1.618 4.643a30.692 30.692 0 0 1-1.11 1.623s-1.689-1.12-3.535-2.831c-1.995-1.85-1.614-4.319.132-4.327.523-.004.988.162 1.445.298-.377-1.196-1.78-3.516-1.78-3.516Zm54.114 3.038s.904 1.107 1.942 4.02c.992 2.781-.534 4.875-2.606 3.826-.371-.187-.76-.594-.76-.594-.146 1.348.112 3.774.146 3.793l-3.342-.542s1.836-2.712 1.968-3.383c0 0-.207.151-1.126.15-3.358 0-2.661-3.717 1.217-5.78.583-.309 2.561-1.49 2.561-1.49zm19.25.047c.727-.03.384.624-.42 2.152-.89 1.689-.667 1.542-2.546.65-2.628-1.194-2.473-1.38.857-2.217 1.052-.362 1.729-.57 2.11-.585zm-47.659.495c2.632.015 4.573 2.431 4.184 5.865-.669 5.896-.284 5.532.406 6.12 1.257 1.072-.445 1.715-1.942.694-1.043-.712-1.383-1.414-1.334-4.667.056-3.739-.161-4.69-1.598-4.364-.896.204-1.179.913-1.08 3.435.14 3.539-.112 4.43-1.557 5.563-1.557 1.121-3.238.121-1.815-.619.65-.68.773-1.546.522-3.685-.274-1.821-1.416-8.373 4.214-8.342zm65.069 2.973c.33-.006.663-.002.999.01 5.064.176 17.87 1.146 17.87 1.146l.112 3.52c-.572.327-10.13-1.029-17.16-.906-1.644.029-2.808.704-3.997.137 1.142.44 1.037 5.75-3.99 4.463-4.264-1.426-2.187-6.79 3.265-8.144a26.966 26.966 0 0 1 2.9-.226zm-28.18 2.36 10.943 5.02c1.532 19.115 8.624 39.31 32.78 54.619-3.913 2.605-13.73 9.004-24.95 13.386l-.918-.915c13.322-21.079 3.257-44.28-20.072-54.78.063-5.85.853-11.623 2.216-17.33zm38.495 3.203c2.098-.076 2.644.148 2.824 1.033.17.836.837 1.033 1.628.765 1.926-.654 3.102 2.525 1.506 3.935-.99.875-.817 1.212-.005 1.217 2.012.012 1.953 2.461-.091 3.85-.848.576-.837.838.05 1.246 1.487.682 1.188 2.032-.7 3.142-1.026.605-1.06.753-.212.968 2.134.54-.044 3.37-2.379 2.868-.957-.206-1.869-.013-2.784.543-2.5.97-2.92 1.161-5.618.85-2.371-.405-3.43-1.131-4.042-3.068-1.39-3.937-2.89-8.299-2.906-12.598-.21-2.639 4.545-5.025 6.797-5.128 1.834-.257 3.938.36 5.932.377zm-149.687.066c2.515 0 4.554 1.897 4.554 4.237s-2.039 4.237-4.554 4.237-4.554-1.897-4.554-4.237 2.04-4.237 4.554-4.237zm50.61 1.246-.41 3.704s.67-.487.827-.61c1.184-.92 3.057.11 2.632 1.544-.139 1.263-2.484 5.02-3.418 5.808 0 0-3.762-3.812-4.164-4.558-.894-1.657.328-3.384 1.953-2.652.231.105.902.567.902.567l-1.192-3.516Zm-50.305.297c-1.61.05-3.138.97-2.932 2.194.138.523.996-.232 1.841-.727a2.433 2.433 0 0 1 2.166-.141c.654.217.934.778 1.313 1.212.322.367.673.666.872.486.17-.194.101-.437.056-.656-.347-1.668-1.83-2.41-3.316-2.368zm122.636.575 1.628.774c2.191 27.014 16.872 42.895 32.298 52.355l-1.227.689c-18.93-11.284-32.074-31.501-32.699-53.818zm2.465 1.11s4.087 1.946 6.227 2.844l.081 2.445-1.43.047-.487-2.298-2.971.198.928 5.653 4.792-.548.67 3.416-1.623.317-.832-2.1-2.749.623 1.78 5.492 4.321-1.298 1.354 3.591-1.45.49-.928-2.104-2.845.925 2.2 5.36 4.499-1.345 1.815 3.355-1.364.562-1.303-2.081-2.698 1.283 3.164 5.006 4.062-1.981 1.897 2.675-1.49.93-1.355-1.638-2.186 1.34 3.5 4.445 3.499-2.44 2.616 2.808-1.156.953-1.785-1.684-2.115 1.755 4.169 4.256 3.62-2.926 2.572 2.227-.76.746-1.73-1.005-2.292 2.265 4.376 3.543 3.474-3.543 2.946 2.02v1.49l-2.632-1.24-1.764 2.472 4.396 3.095-.03 1.217c-25.1-13.932-31.704-35.541-32.983-51.614zm-51.387.268c1.085-.03 2.23.92 4.123 2.959 5.29 5.7 3.877 14.52-3.037 19.118-1.008.67-1.413.611-2.642-.372-7.093-5.67-7.502-13.252-1.187-19.912 1.091-1.15 1.9-1.769 2.743-1.793zm25.351.784c1.305 1.86 2.951 3.774 3.14 6.034-.094 2.234-1.713 2.646-3.388 1.345-.212 1.173.507 3.459.507 3.459l-3.033-.302s1.19-1.934 1.238-3.143c-2.106 1.365-3.714-.415-3.428-1.85.602-2.44 2.758-4.086 4.964-5.543zm-25.26 1.457c-.248.019-.506.177-.902.472-1.847 1.379-3.299 3.094-4.052 4.874-1.59 3.759-.552 7.995 3.033 11.282 1.821 1.67 2.462 1.555 5.253-1.897 2.339-2.891 2.825-6.626 1.385-9.87-.703-1.584-1.977-3.127-3.504-4.247-.587-.43-.893-.637-1.212-.614zm58.34.694 2.353 1.076c3.001 18.422 12.732 29.662 23.637 37.412l-.02 1.708-2.927-2.11-3.504 3.412-2.84-2.166 1.065-.962 1.618.957 2.069-2.156-4.072-3.378-3.55 2.864-2.957-2.831.898-.698 2.044 1.66 2.287-1.887-3.956-4.128-3.54 2.496-2.47-3.049 1.076-.594 1.293 1.651 2.728-1.58-2.885-4.129-4.113 1.963-2.104-3.53 1.196-.532 1.365 1.981 2.56-1.146-2.576-4.87-4.204 1.293-1.546-3.831 1.201-.41 1.06 2.264 2.845-.85-1.932-5.241-4.346 1.142-1.075-3.855 1.344-.27.705 2.082 2.987-.557-1.096-4.992-4.447.524c-.148-.849-.804-3.133-.791-3.997l1.369-.104.431 2.2 2.992-.095zm-58.182.401c1.63.208 3.622 3.129 4.072 4.19.86 2.098.931 4.528.147 6.412-.642 1.541-2.56 4.274-3.778 5.044-.983.495-1.806.128-3.21-1.647-2.774-3.507-3.31-7.726-1.12-10.616 1.672-2.207 2.912-3.385 3.889-3.383zm61.336.91 1.182.52c1.45 10.675 8.25 25.326 21.633 34.09v1.34c-10.408-6.95-19.963-18.938-22.815-35.95zm-61.544.728c-4.66 3.268-3.915 8.385-.385 11.832 3.804-2.341 5.149-8.666.385-11.832zm-71.123.216c2.629-.056 4.295.796 5.096 2.492 1.244 2.633 1.413 3.133 1.669 4.515.145.79.371 1.982.496 2.647 1.365 7.157.36 9.854-4.31 10.97-1.394.333-3.338.441-4.696.137-.357-.08-1.661-.087-2.688-.118-2.036-.061-2.659-.262-3.681-1.033-.369-.278-.724-.5-1.167-.566-2.33-.344-3.026-2.33-1.257-3.799 1.007-.836 1.107-.947 1.014-1.09-.053-.08-.483-.148-.959-.15-2.349-.014-2.325-2.263.04-3.87 1.125-.763 1.632-1.483.888-1.307-2.142.47-2.898-2.443-.659-3.346 1.193-.62 2.048-1.14.898-1.197-.966.077-1.752-.586-1.457-1.368.358-.947 2.319-1.81 3.45-1.487.883.252 1.745.483 2.297.113 1.34-.896 1.94-1.3 3.093-1.443.67-.084 1.37-.102 1.933-.1zm78.131.548 10.802.193-.32 9.857-10.172-.18s2.23-4.403-.31-9.87zm-24.204.226 10.345.118c-1.705 3.715-1.068 7.532-.441 9.682l-10.128-.146zm17.277.015c2.78 1.506 3.545 6.994-.317 9.815-3.675-3.514-2.939-7.792.317-9.815zm-25.523 4.284 2.774.24-.99 3.695s.448-.439.594-.482c3.564-1.556 3.82 1.972.193 5.158-.802.702-2.09 1.665-2.09 1.665s-1.008-1.42-1.81-2.703c-.91-1.291-1.53-2.674-1.374-3.407.226-1.065 1.602-1.769 2.48-1.118.432.32.933.807.933.807zm49.525 2.708s1.164 1.11 1.871 1.83c2.45 2.494 2.87 4.826 1.628 5.535-1.066.454-1.728.143-2.586-.505.178 1.546 1.497 3.827 1.465 3.832l-3.656.547s.903-3.096.827-4.265c0 0-.751.537-1.086.67-2.386.81-3.57-1.713-1.607-4.228 1.646-2.11 3.144-3.416 3.144-3.416zm49.946 4.671c2.454 0 4.443 1.85 4.443 4.133s-1.99 4.134-4.443 4.134c-2.453 0-4.442-1.85-4.442-4.134 0-2.282 1.989-4.133 4.442-4.133zm2.191 1.892c-.192.04-.348.45-.37 1.354-.221 1.855-1.88 2.6-3.692 1.741-.733-.347-1.357-.862-1.36-.467 0 .212.588 1.317 1.005 1.694 1.536 1.286 5.278.981 5.193-2.015-.04-1.41-.457-2.373-.776-2.307zM112.09 176.2c.482-.03 1.094.155 1.486.533 1.214.772 1.444 1.757 1.52 5.478.069 3.281-.004 3.362.579 3.76 1.425.975 2.284-.51 1.876-3.836-.392-3.2.848-5.528 2.926-5.516 1.023.006 1.213.565.437 1.28-.82.752-1.018 1.672-.761 3.524.659 4.744.09 7.072-2.054 8.035-2.235 1.004-5.11-.15-5.614-2.774-.323-1.752-.32-3.828-.096-5.785.04-2.058-.01-2.293-.781-3.473-.545-.792-.139-1.187.482-1.226zm-56.21 1.538c1.236-.003 2.52.664 3.287 2.137 1.85 3.556-2.16 6.48-5.837 6.71-6.385.088-13.973-.769-20.381-1.562l.101-3.36c5.881.317 12.512.76 19.656 1.071-.814-3.123 1.115-4.992 3.175-4.996zm33.582.689 3.555.73-2.262 3.44c.671-.27 1.135-.458 1.806-.23 1.448.486 1.467 2.193.405 3.788-.84 1.159-3.201 2.543-4.812 3.393-.906-1.809-2.906-4.975-2.11-6.705.422-.919 1.593-1.365 2.683-.863.36.2 1.05.528 1.05.528zm8.403.094 10.832.118c-1.574 10.19-4.655 23.796-10.725 34.887l-2.551.614c5.353-11.02 8.914-21.357 10.578-32.91h-5.416c-3.115 12.4-7.725 23.893-14.813 33.877l-3.149-.953c7.573-11.172 13.575-23.64 15.244-35.633zm24.707.18h12.074c2.221 20.747 9.756 34.907 20.97 48.914 0 0-.708.148-1.126-.019-1.163-1.35-2.228-2.175-3.97-2.59-9.425-12.625-15.749-30.275-17.273-43.777h-7.181c.817 16.959 5.867 30.863 12.587 44.33l-3.647.622c-5.396-12.052-11.312-22.539-12.434-47.48zm18.789 2.561c.993.715 2.067 1.418 3.078 2.1 2.719 1.775 2.683 5.13.04 5.115-.28-.002-.933-.038-.933-.038s1.08 2.2 1.76 3.312c-1.101.273-3.403.675-3.403.675s.33-2.16.264-3.95c0 0-.442.46-.806.619-1.754.681-3.237-.742-3.018-2.425.296-2.272 3.018-5.408 3.018-5.408zm-80.668.406 5.944 2.746c-4.05 8.578-8.689 16.61-15.397 22.714l.173-19.821c3.662-.1 7.418-.13 9.28-5.639zm40.64.312h3.657c-1.622 15.824-12.86 37.232-14.97 39.813l-.695.486c.042-.021-1.44-4.853-3.124-6.592 6.34-7.956 12.983-23.246 15.133-33.707zm25.712 0h5.522c1.72 12.61 5.91 26.231 16.527 42.776 0 0-1.064.1-1.886-.359-1.81-1.043-3.067.339-4.148.285-1.69-.085-1.969-.179-3.713.206-8.761-17.193-11.247-30.727-12.302-42.908zm-59.653 2.83 1.973.864c-4.242 9.128-8.04 16.381-18.089 25.286l-.036-2.652c7.06-6.36 11.816-14.744 16.152-23.497zm2.87 1.274c.934.328 1.994.865 2.876 1.307.295.11.215.356.218.614-.373.867-2.02 1.247-2.642 1.415-.752.2-1.494.34-1.628.368-.86.188-.588-.613.345-2.368.42-.79.585-1.318.832-1.336zm3.94 1.935c.591-.034 2.976 1.192 3.485 1.633.18.52-.333 1.34-1.086 2.854-1.157 2.33-1.387 2.381-1.734.467-.06-.33-.405-1.419-.613-2.142-.484-1.677-.53-2.642-.051-2.812zm4.316 1.883s1.386.626 1.836.9c-6.187 17.242-22.665 31.494-22.577 31.165l-2.57-1.406c10.965-9.218 19.002-20.104 23.311-30.66zm-6.541.245c.598.011.077.696-.73 2.354-.767 1.624-1.018 2.2-1.735 2.459-1.028.346-2.504.357-3.814.57-.56.09-.325-.308.538-1.939 1.013-1.913 1.07-2.31 2.657-2.708.918-.133 2.154-.743 3.084-.736zm2.17 3.425c.638 2.136.624 2.557.198 3.299a81.954 81.954 0 0 1-2.135 3.453c-.721 1.1-.926.87-1.354-1.802-.266-1.658-.498-2.403-.302-3.125.36-.816 1.433-2.742 2.04-3.868.868-2.403 1.333 1.83 1.553 2.043zm11.39-1.863 3.246.99-2.546 2.86s1.068-.179 1.191-.132c2.554.158 2.13 2.52.153 3.949-.82.698-4.859 2.406-4.859 2.406-.432-2.113-1.323-3.464-1.11-5.633.15-1.169.262-2.223 1.8-2.256.81-.04 1.137.73 1.663 1.35zm58.836 2.562s1.955.938 3.768 2.236c2.364 1.693 2.768 3.683.405 4.45-.273.089-1.05.052-1.05.052.652 1.054 2.197 2.623 2.197 2.623-.775.504-1.867.899-3.079 1.25 0 0-.3-2.624-.588-3.638 0 0-.312.574-.7.798-2.276 1.318-4.063-1.166-2.84-4.308a17.028 17.028 0 0 1 1.887-3.463zm-25.026.439c5.684-.13 2.354 8.533-.487 7.974-.049-.079 2.346-5.124-.878-5.927-1.478-.368-.204-2.065 1.365-2.047zm-9.321.613c1.766-.01 3.051 1.149 1.364 1.878-2.656 1.148-1.075 3.897-1.014 5.454.037.953-2.365-.83-2.876-2.765-.66-2.5-.354-4.353 2.526-4.567zm-42.046.91c.392 0 .687.028.787.1.166.408-.628 1.686-1.786 3.321-.616.871-.88 1.116-1.257 1.322-.896.468-2.153.346-3.2.415-1.562.018-1.287-.01.441-2.515.772-1.119 1.26-2.034 1.72-2.326.091-.055 2.12-.313 3.295-.316zm2.05 1.808c0 3.132 1.143 4.16.303 5.147-1.026 1.54-2.338 3.224-2.814 3.756-.802.897-.713.728-.923-1.618-.152-1.701-.319-2.838-.081-3.369.687-1.535 1.503-2.27 2.353-3.902.666-1.315 1.161-1.096 1.161-.014zm44.87 1.57c1.65.022 2.67 1.654 2.596 3.153l-.071 1.434c2.133-.761 4.781-.021 4.898 1.925.2 3.3-2.414 2.918-4.625 2.78.223.077.55 2.983-.765 4.095-2.064 2.149-5.911-.047-4.945-3.2.201-.654.244-1.066.244-1.066s-1.38.463-1.867.444c-4.185-.167-3.865-5.673.34-5.025.86.132 1.44.326 1.44.326s-.09-.348-.233-.84c-.611-2.12.673-4.054 2.987-4.025zm83.73.982 2.256 1.208v2.34l-3.21-2.208zM63.356 202.16c.889-.008 1.588.056 1.45.255-.003.417-1.948 2.935-3.099 4.086-.98.98-1.12.84-3.519.731-.941-.043-1.557-.05-1.531-.283 1.105-1.349 2.628-3.085 3.681-4.534.414-.118 1.874-.245 3.018-.255zm2.195 1.1c.166-.003.217.332.213 1.06a38.12 38.12 0 0 0 .168 2.992c.156 1.343.156 1.341-.462 2.142-.754.754-1.523 1.864-2.495 2.728-1.46 1.505-1.31 1.59-1.288-1.628.017-2.515-.186-2.514.36-3.105.3-.325 1.23-1.381 1.841-2.208.929-1.255 1.42-1.978 1.663-1.982zm13.916.443 3.002 1.49-3.007 2.836s.752-.003 1.004.043c1.932.349 1.787 2.254-.157 3.676-1.194.701-5.295 2.09-5.295 2.09-.14-1.602-.505-3.075-.436-4.794.03-.793.107-1.655.76-2.34.453-.466 1.208-.736 2.268-.1.556.46.846.982.846.982zm35.427.967c-1.176 0-2.13.887-2.13 1.982 0 1.094.954 1.981 2.13 1.981s2.13-.887 2.13-1.981c0-1.095-.954-1.982-2.13-1.982zm33.561.467s3.93 1.374 5.7 2.883c1.653 1.283.876 3.396-.766 3.44-.119 0-.816-.095-.816-.095.556.787 2.419 2.718 2.419 2.718l-3.038 1.147s-.486-2.176-.862-3.398c-1.058 2.275-3.67.795-3.844-.622-.421-2.078.528-4.107 1.207-6.073zm-33.56.175c.817 0 1.48.617 1.48 1.377 0 .761-.663 1.378-1.48 1.378-.819 0-1.482-.617-1.482-1.378 0-.76.663-1.377 1.481-1.377zM56.9 208.129c1.059-.01 2.38.036 2.972.07.45.322-.492 1.322-2.313 3.1-1.46 1.426-1.675 1.228-3.443 1.241-2.967.022-3.041.04-1.679-1.401 1.492-1.58 2.363-2.597 3.053-2.926.232-.056.775-.079 1.41-.084zm3.616 1.387c.314-.059.228.687.177 2.373l-.086 2.86-2.307 2.066c-2.671 2.224-2.352 2.363-2.333.283.015-1.653-.004-2.815.38-3.548 1.166-1.308 2.381-2.465 3.707-3.713.21-.193.357-.302.462-.321zm58.658.712c.643-.05 2.282 2.56 2.693 4.747.937 4.994 4.152 7.36 6.415 5.355.92-1.179 1.024.108.979.722-.475 6.326-8.18 3.693-9.057-2.59-2.705 1.633-5.228-1.666-3.616-1.614 3.812-1.127 2.77-4.384 2.586-6.62zm-8.925.047c.377 2.189-3.863 5.937-6.248 3.308-1.213-1.337-.108-4.096 1.435-2.397 1.706 1.174 3.36-.188 4.813-.91zm-58.258 3.001c.872-.017 2.133.137 2.683.066.778.073.222.422-1.46 1.85-1.45 1.23-1.864 1.777-2.03 1.24-.08-.83-.045-1.819-.04-2.99.133-.116.45-.158.847-.166zm19.768 1.454 2.586 1.755-2.566 2.198c2.3-.105 2.506 1.902 1.633 3.02-.566.785-2.748 1.61-4.93 1.94-1.313.198-2.383.344-2.383.344s-.05-.942-.086-2.506c-.075-3.198.159-4.458 1.48-5.081.947-.447 2.549.254 2.942 1.07.13.27.472.742.472.742zm-16.644.174c.01-.002.017 0 .02.005.146.183-.38 5.388-.38 5.388l-3.748-1.963s3.793-3.368 4.108-3.43zm99.182.613c2.67 1.17 4.67.943 6.466 2.393 1.564.761 1.1 2.858-.04 3.326-.517.147-1.37.066-1.37.066.944 1.084 3.012 2.454 3.012 2.454l-3.286 1.278s-.449-2.061-.867-3.185c-.598 1.672-2.624 1.63-3.778.845-.818-.583-1.155-2.535-.766-4.228.103-.446.63-2.949.63-2.949zm-17.551 48.453c-32.404 7.145-58.725 2.727-61.336 1.883l-2.064 2.864c-.252.487-.406 1.94-1.806 2.335l-2.099 2.916.41.406-1.86 1.51.451.505-1.354 1.83-.533-.051-3.134 4.43.477.496-7.196 10.479 97.352.028c-5.659-9.93-11.713-19.669-17.308-29.63zm-.588 1.288.578 1.496c-1.61-.184-3.49-.275-5.401-.354a54.759 54.759 0 0 0 4.823-1.142zm-5.655 1.302c-3.096 1.322-4.951 2.91-6.374 4.587-1.772-1.28-4.025-2.187-6.715-2.756zm-54.708.727 1.38.146s-.463.334-.792.265c-.252-.054-.588-.41-.588-.41zm62.016.746.877 1.613c-2.109-1.04-11.128-3.42-13.687 4.922-2.693-3.388-13.797-8.298-19.428 2.142-1.601-2.828-10.924-10.966-19.428-.595-3.35-6.445-6.15-6.986-12.302-6.105 4.371-3.91 10.523.16 13.13 3.487 7.335-5.661 13.47-3.96 18.828.646 6.915-7.005 13.812-5.318 18.662-1.802 3.408-4.666 6.737-6.073 13.348-4.308zm-56.64.042c4.36.548 8.719.796 13.078.996-2.523.861-5.11 1.603-7.165 3.336-1.557-2.023-3.72-3.198-5.913-4.332zm31.451.647c-2.38 1.042-4.943 2.61-6.998 4.255-2.218-1.68-4.501-3.133-6.988-3.864 4.562.209 9.617.022 13.986-.391zm27.912 3.312s-.88.138-1.161.207c-3.85.952-3.012 5.998.948 5.997.376 0 1.313-.136 1.313-.136-.074 3.416 1.041 4.25 4.793 4.057l6.359 10.579-94.07-.378 5.973-8.889c3.005.328 4.894-1.227 4.225-3.6 0 0 1.85.525 2.368.528 3.4.02 4.28-4.835 1.02-5.676-.363-.093-1.274-.187-1.385-.217 1.49-3.465 5.586-1.42 6.76.019 2.64-2.02 5.559-1.116 6.81 1.5 0 0-.492-.255-.644-.358-3.092-2.105-5.97 2.255-2.941 4.265.298.198.928.368.928.368s-.368.28-.705.807c-1.572 2.46.96 5.456 4.016 4.685 2.347-.854 2.38-2.496 2.379-4.303 0 0 .81.058 1.536.066 2.817.032 3.623-3.324 1.9-4.885-.931-.842-2.149-.777-2.752-.885 3.247-2.966 5.448-.92 7.739.448.347-.008 3.976-4.063 8.291-.08-2.094-.51-4.239.753-4.267 2.782.041 1.305 1.044 2.459 3.214 2.551-.234.655-.39 1.145-.402 1.782-.042 2.13 1.737 3.455 3.996 3.128 1.888-.224 3.284-2.232 2.612-3.902-.304-.753-.72-1.028-.72-1.028 5.084.592 4.995-5.4 1.042-5.764-.937-.086-1.66.292-2.604 1.097 2.325-4.423 6.577-3.536 8.17-1.727 2.184-1.476 5.195-3.492 8.798.1-.594-.117-1.43-.144-2.156.035-2.851.704-2.864 4.078-.603 5.105a5.072 5.072 0 0 0 2.257.427c-.752 2.835 2.631 4.86 5.026 3.503 1.716-.973 2.166-3.27.309-5.367 3.125-.13 3.433-3.754 1.628-5.025-1.416-.996-3.082-.523-4.29.793-.39-1.04 2.7-4.658 7.064-2.052 2.31-1.803 4.603-2.358 7.226-.557zm1.364 2.83 1.222 2.067c-.814.076-1.978-.735-1.222-2.066zm-15.771 2.1c.764 0 1.384.577 1.384 1.289 0 .71-.62 1.288-1.384 1.288-.765 0-1.385-.577-1.385-1.288 0-.712.62-1.289 1.385-1.289zm-57.097.076c.185.691.266 1.381-1.085 1.515zm15.903 1.246c.7 0 1.268.528 1.268 1.18 0 .65-.567 1.179-1.268 1.179-.7 0-1.267-.528-1.267-1.18 0-.651.567-1.18 1.267-1.18zm21.102.368c.742 0 1.344.56 1.344 1.25s-.602 1.25-1.344 1.25c-.743 0-1.344-.56-1.344-1.25s.601-1.25 1.344-1.25z" />
</svg>
