<svg xmlns="http://www.w3.org/2000/svg" width="167" height="251.6" viewBox="33.4 40.8 167 251.6">
  <path fill="#e2cf00"
      d="m106.826 292.997 24.766-41.552c-.003.01 5.972 2.123 12.96 3.809-6.74 16.124-.118 37.419-.118 37.419s-37.627.289-37.608.324zM39.11 221.808c-1.371-17.679-1.384-34.756 1.797-48.898.059-.227-8.81-4.973-7.89-5.515 1.407-.83 18.913-9.215 18.913-9.215s1.18.622 2.2.528c.796-.074 1.543-.74 1.235-1.453-.727-1.688-2.024-5.886-1.233-10.108.454-2.426 1.884-5.094 3.366-6.727 3.303-3.64 10.823-1.701 13.011-1.759 1.39-.036 5.613-13.578-1.068-16.103-1.84-.695-6.086 8.547-3.152 10.627.441.313-5.902-3.095-10.763-5.13-.45-.188-2.434-1.603-2.878-3.466-.553-2.325 7.468-6.783 5.9-9.405-2.285-3.82-8.194-9.536-10.73-7.974-2.4 1.993-8.12 6.062-8.087 8.854 1.775 5.007 6.31 5.362 8.685 10.1.593 1.025 4.969 5.332 4.969 5.332-1.65 2.32 1.005 6.381 1.13 5.761l-20.752-8.382s4.698 33.058-.338 37.942c-.533.516 4.45-1.29 4.534-1.007 1.51 1.77 18.264 11.637 23.059 15.181 8.546-10.958 11.67-15.78 22.676-25.496 2.415-1.836 7.798-5.187 10.88-9.218 2.477-3.24 3.508-6.89 3.07-9.726-.567-3.667-.916-6.177-3.363-9.103-5.653-6.759-14.654-13.212-14.494-13.329l3.084-2.306s11.098 8.497 15.794 14.742c3.163 4.207 1.731 9.023 4.464 9.89.657.208 5.149-.13 6.623.133.178.032 32.657 21.26 26.759 22.472-8.166 1.678-21.179.554-21.179.554-9.276-8.384-13.756-11.143-19.299-8.53 0 0-14.055 11.304-22.17 20.16-4.626 5.046-8.492 11.364-11.587 15.427-1.193 1.566-16.07-11.67-15.922-10.085 2.187 14.384 3.417 31.71 1.681 43.453-1.194 9.975-2.824 20.688-3.56 29.888 0 0 2.502-.666 4.408-.038 1.03.34 1.777 1.222 1.865 2.202.548 4.381-5.563 3.355-5.705 2.975.007-.004 3.4 6.763 3.4 6.763s-5.311 8.418-5.164 8.052c.092-.227-4.798-7.488-4.798-7.488s3.731-6.057 4.202-7.318c.282-.757-5.373 2.499-5.8-2.231-.431-4.77 6.172-3.48 5.875-2.895-.778-9.779-2.538-19.891-3.648-28.13zm79.576 22.125c.146-.101-14.043-5.28-27.087-4.814-4.592-1.658-12.083-3.398-17.092-.329-5.619-3.523-10.468-7.4-15.396-11.24 1.382-.014 6.616-30.723 10.022-41.42-1.485-13.294 12.396-13.262 13.581-2.613 14.928 14.288 33.21 29.072 52.057 43.618-3.014 5.74-13.86 10.103-16.085 16.798zm32.871-93.979c-17.019-16.062-52.646-44.785-52.646-44.785l16.731-15.012c8.763 2.425 17.769 4.453 27.954 4.565.04.037 11.153 4.686 17.088.015l15.397 11.295s-6.453 31.016-10.228 41.84c.072 4.289-1.698 9.51-6.292 10.279-3.923.656-6.93-4.478-8.004-8.197zm34.529-37.089c1.797-10.084 2.177-17.425 3.434-29.19-7.694 2.065-7.572-7.496-.023-4.97l-3.488-7.123 5.2-8.009 4.745 7.622-4.111 6.743c8.518.4 6.45 7.691-.884 5.918 1.362 11.275 4.387 22.668 4.218 33.812 2.603 17.878-3.324 42.74-2.351 43.33l8.298 5.285-1.493 38.884-13.109-5.325-3.909 2.423c1.25 2.29 2.84 4.488 3.373 6.975 0 0 9.022 6.87 7.764 9.004.582.315-6.446 8.864-8.503 8.647-3.928-.413-8.514-5.096-9.765-8.429-1.102-3.351 8.125-6.62 6.966-9.072-1.386-2.933-4.895-4.349-8.007-5.216-4.29-1.194-6.248-4.332-6.444-4.332 0 0-1.691 12.426-3.296 11.43-6.453-4.008-2.01-16.683-.813-16.328 0 0 2.82.603 6.153.897 11.742 1.154 10.971-12.165 8.707-18.615-.568-1.531.325-1.541.262-1.561-.545-.174 1.9-.044 3.975-.605 5.705-1.54 14.452-6.878 14.452-6.878-9.17-4.71-17.262-10.081-24.521-15.173 0 0-6.768 10.61-14.78 17.964-5.832 5.353-6.782 7.178-16.54 14.068-.189.133-7.399 8.056-3.99 17.326 2.917 7.934 16.992 16.54 16.888 17.112l-2.779 2.44c.112.142-19.926-11.51-19.435-24.007-.022-.472-9.116-.65-9.116-.65l-26.39-22.638 22.392-.052 11.48 8.679 7.183.355c.469.382.733-1.75 7.068-6.092 12.103-8.296 27.12-29.627 27.12-29.627s15.818 10.298 15.834 10.3c-.763-15.43-3.43-32.026-1.765-45.322zm-57.524-73.008s-16.51 28.484-25.56 41.9l-12.777-3.402c5.382-13.103.3-38.102-1.047-38.734z" />
  <path fill="#131f67"
      d="m30.414 38.02.478 256.741 172.747.172-.004-256.638zm119.705 186.243c8.208-7.011 16.326-12.796 23.913-16.999 2.942-1.63 3.834-1.867 4.987-.896 1.88 1.583 3.05 2.96 2.433 4.066-.139.25-.583.663-.583.663l-4.524-1.596 1.457 4.741c-4.076 1.524-4.01 5.59-.084 7.75l-2.716 5.74 6.294-2.544c.238 1.252 4.717 4.286 7.515.013l5.674 2.566-1.945-6.418c1.868-1.636 2.96-4.254.032-6.673l1.36-5.023-5.132 1.532c-1.282-1.623-2.028-1.513-2.323-1.955-.086-.604-.1-2.011-.95-3.31-.703-1.073-1.507-2.212-2.26-3.011-.398-.625-.079-.677 1.971-1.696.963-.478 1.76-.963 1.76-.963s10.084 4.688 14.198 6.473l.068 86.024-55.364-.237c-6.193-17.156-1.691-31.97-.03-38.205-2.902-.228-17.866-4.726-18.312-6.266 5.948-8.684 14.013-16.571 22.56-23.776zM42.34 249.12c-7.217-2.163-7.305 5.86-3.617 6.488.956.162 1.955.296 3.451-.147.372.072-4.338 6.72-4.338 6.72s3.749 6.307 5.545 8.988l5.704-9.299-3.705-6.447c5.816 2.746 8.845-5.4 2.735-6.475-1.476-.189-3.11.49-3.11.49l3.268-27.875c2.588 1.628 7.308 4.893 7.308 4.893 1.046 15.362.233 28.163 9.498 50.525l.066 15.55-31.956-.051.032-81.183 5.585 3.7c.119.46-.892.151-.357 5.802.482 5.104 2.15 13.957 3.891 28.321zM157.48 40.606c.255.333.235.843.454 1.52 1.286 3.978 5.772 8.76 9.354 10.02 1.253.441 1.74 1.11 1.013 1.777-.917.844-4.69-1.473-7.472-4.473-2.527-2.724-4.211-4.978-4.582-6.687-.22-1.014-.33-1.666-.165-2.193.465-.591 1.04-.426 1.399.036zm4.47-.423c.473-.002 1.11.514 1.49 1.451.916 2.253 2.355 3.938 4.609 5.398.597.387.834.965.529 1.303-.113.125-.26.187-.426.23-1.76.45-6.382-4.503-6.746-7.573-.078-.667.175-.808.544-.81zm5.764.07c.935-.002 1.38 1.8.837 2.742-.354.297-1.13-.163-1.816-1.347-.59-1.017-.352-1.391.979-1.395zm-3.136.024c.21-.006.644-.108.862.173.358 1.862 1.876 3.213 3.088 4.293.203.353.297 1.092-.15 1.283-1.064.433-4.259-2.93-4.277-4.872-.005-.585.189-.87.477-.877zm-4.064 1.173c1.115 3.4 3.828 6.176 6.259 7.618 1.737 1.025 2.408 1.607 1.6 2.127-.2.13-.403.228-.45.221-4.072-1.441-9.07-6.893-9.23-10.746.89-1.047 1.67.128 1.82.78zm-14.128 14.728c-2.143-.001-4.768.445-6.9 1.334-2.968 1.237-3.713 2.06-3.281 2.36.31.211 2.221-.541 3.178-.654 5.165-1.171 8.718-1.455 12.08-.096 2.6 1.05 2.617.57.874-1.175-1.264-1.266-3.523-1.769-5.951-1.77zm18.194 2.64c1.708-.013 3.452.358 4.07 1.094.478 2.38-.807 1.29-1.843.814-1.498-.64-3.213-1.194-4.816-.97-1.03.145-1.059.097-.475-.207.881-.493 2.129-.72 3.064-.73zm-20.24.894c-4.884.342-6.58 2.618-9.737 4.964-1.297.906-1.003 1.61.575 1.374 1.95-.291 2.735-.22 5.39.622 2.9.919 4.978 1.3 6.574.738 3.017-1.064 2.758-.887-1.56 2.958-2.31 1.706-1.38 1.618.96.141 1.729-1.27 2.918-2.079 3.28-2.776.176-.338.193-1.553.518-1.552 1.097.002.534-1.262-.462-1.8-.653-.43-.507-.88.343-1.707 1.333-1.29.882-1.874-.565-1.072-.254.127-.379-.268-1.26-.76-1.394-.779-2.57-1.142-4.056-1.13zm3.517 1.697c1.178.918.673 1.171-1.903 1.145-2.177-.023-4.03.185-6.618.972-2.938.894-3.117.917-1.39-.437 2.376-1.862 7.2-3.726 9.91-1.68zm15.255-.767c1.185-.022 2.184.135 3.085.595 2.458 1.255 3.003 2.341.267 1.452-1.717-.557-4.038-.483-5.642-.075-1.657.42-1.942.569-1.716-.255.276-1.01 2.032-1.681 4.006-1.717zm-19.352 3.661c.578 2.697 2.796 1.82 3.019.192l.809.005c-.348 2.164-3.547 3.971-4.78-.198.262-.006 1.422.07.952.001zm17.68.074.6-.017c.392 2.068 2.473 2.747 3.383.163l.727.015c-.565 4.312-5.507 2.203-4.71-.161zm-19.377.17c.4.131.58 1.143.512 1.41-.14.552-2.095-.04-2.508-.58.409-.4 1.375-1.033 1.996-.83zm26.616.502-.007.755c-.904.198-1.28.666-2.123.511.049-.482-.039-1.145.453-1.708.616-.299 1.348.07 1.677.442zm-19.714.842c-.41.297-.973.329-.973.329-.087-.724-.217-1.537.76-1.542.64.174.594.907.213 1.213zm11.275-1.181c.344.023.745.812.79 1.27-.101.755-2.112.45-2.111-.3 0-.316.843-.97 1.321-.97zm-18.467 28.527c-1.552-.72-13.318-7.343-16.313-19.028l-.602 1.194c1.274 2.799 3.152 7.343 3.152 7.343-.078-.39.475 3.044 1.664 8.876-.637.006-1.34-.162-2.031-.334-1.544-5.34-1.903-9.525-3.198-14.75l-.57 1.458s1.622 9.375 2.726 13.04c-.635-.056-1.804-.3-1.804-.3-.919-3.954-1.63-6.607-2.493-10.572l-.803.957c1.144 3.255 1.587 6.165 2.16 9.283-.79-.111-1.584-.182-2.336-.57 0 0-1.178-5.687-1.335-5.77-.454.42-.641.961-.641.961-.048-.05 1.024 3.154.945 4.472-.757-.116-2.068-.467-2.992-.755-.484.296-.738.79-1.11 1.235.452 1.81 27.468 5.769 25.85 4.27-.01.156 11.906 4.835 18.569.886 0 0 11.56 7.94 16.075 11.11 0 .36 1.562 2.042 3.19 3.112l4.577 3.264c1.33.956 1.864.266 2.07-1.53.229-2.002 1.83-15.492 2.204-18.368 1.395-9.689 1.393-9.586-.203-9.143-2.44.678-4.634-.211-4.63-2.513.004-1.409.712-2.575 2.34-3.117.461-.145 1.063-.157 1.754-.143.315.053.9.09.961.1.777-.039-2.995-6.367-2.995-6.367s3.627-5.94 5.37-8.152l4.666 7.833-3.846 6.897c7.465-.505 6.718 8.151-.583 5.24 0 0-.049 2.573-.034 2.384.072-.736.062-1.365.315-1.503 7.074 2.487 8.535-7.037.906-6.61 1.259-2.017 2.662-4.102 3.97-6.326l-5.497-9.286-6.25 9.554 3.125 5.976c-.704-.17-1.27-.068-2.026.002-4.619.865-3.64 7.724 1.64 6.79.603-.107 1.51-.526 1.51-.526l-3.461 28.004s-.336.25-1.702-.66c-1.577-1.053-4.88-3.338-5.09-3.573 1.216-17.906-3.601-36.754-9.12-48.559-.351-.905-.108-18.67-.108-18.67l31.425.125-.041 82.509c-1.642-.963-3.416-2.23-5.103-3.331-.506-.38-.82-.828-.601-1.55-.558 1.097-.223 1.568-.223 1.568l6.93 5.127-.432 81.199s-11.193-5.345-18.085-7.927c-3.11-1.176-3.25-.84-3.25-.84.01-.004 2.191 4.558 1.565 5.38 1.48 1.317 3.966 4.074 4.083 6.768 1.325 1.063 1.697 1.196 2.69 2.724l4.165-1.382-.952 4c4.42 2.868.151 6.708-.668 6.352 0 0 1.945 3.87 2.388 5.631-.7-.044-4.201-1.804-5.177-2.221-2.549 4.609-6.831.73-6.864.05l-4.762 1.948 1.694-4.996c-3.06-1.724-5.125-4.327-.166-7.119l-1.136-3.9 4.072 1.483s.762-1.126 1.342-1.947c-1.513-6.126-11.536-4.984-14.744-10.497 0 0-.804 6.875-1.62 9.361-.328 6.576-5.308-.084-5.295-7.04.003-1.572 2.153-6.854 2.878-7.11.754-.095 7.9 3.108 12.71-.055 2.191-2.095 5.975-7.994 2.369-17.245-1.195-2.138 2.284-2.403 3.412-1.68 0 0 10.464-5.029 15.188-7.452-7.91-4.027-24.35-14.733-24.339-15.24-2.201 3.214-4.723 5.908-8.267 10.452-5.744 6.219-10.236 12.13-17.52 17.096-10.244 6.857-12.66 13.772-9.822 21.9 1.148 3.511 3.466 7.076 7.272 8.314 1.933 1.81 9.701 8.62 9.701 8.62-13.011 10.895-21.947 19.857-28.22 29.767 5.273 2.57 18 6.301 18 6.301-4.758 14.498-2.627 26.023.467 37.593 0 0-36.961-.015-56.14-.602-.163.149-2.239.044-2.266-.078-.073-1.294 3.464-4.843 4.52-4.345.532-.482 1.655-.726 1.454-1.32-2.645-.295-6.668 3.918-6.83 5.663l-1.579-.002c-.323-.261 2.878-7.123 9.267-7.66-.067.247.859-.533.166-.869-7.448.803-10.931 8.422-10.711 8.527l-1.151-.002c2.546-7.495 9.144-9.85 12.96-10.17.036-.015 1.238-.399.917-1.056-8.435 1.338-12.645 4.699-14.684 11.225l-1.52-.003c1.11-6.62 8.502-12.41 16.845-12.207.262-.153.582-.332.447-1.085-9.261.948-13.884 3.792-17.703 11.125-3.387-8.156-12.836-12.038-12.948-12.072 0 0-.225-2.282.303-2.187 8.063 2.708 11.156-3.752 10.825-7.508-.183-2.09-.054-3.241-.806-6.255-.67-2.687-1.166-4.498-1.11-5.664.055-1.155.447-1.388 1.371-1.772 1.732-.721 2.82-3.339 2.435-3.66-.892 1.904-3.241 2.229-4.326 3.507-.866 1.054-.488 2.733 1.039 8.565.93 3.554-.178 1.92-2.363.803l-1.46-.765c.978.932 2.012 1.81 3.01 2.722.891.755.39 1.22-.89.782-1.845-.853-5.403-.503-6.768.566-.532.348-.72.311-.854-.011-.579-9.055.464-14.623 3.726-21.421 2.11-4.622 5.244-8.08 9.418-8.32 4.204-.316 10.246 1.053 15.73 4.503 6.439 4.051 12.71 10.206 13.364 17.746.025.087.497-.644.711-1.03.297-.896-.774-3.59-2.448-6.712-.306-2.348-1.173-6.464-1.855-9.25.523-.218 1.637-.093 1.95.259 1.17 4.604 2.004 8.19 3.005 14.358.013.601.853-.891.856-1.287-.144-.92-2.905-12.99-2.85-12.716.017-.41 2.642.134 2.28.514 0 0 1.977 10.124 2.12 9.811l.676-.858s-1.891-7.395-1.65-8.82c.163-.217 1.639.227 2.106.462.587.728.958 3.366 1.202 5.165.679.48.816-.903.765-1.268-.488-.717-1-3.39-.612-3.527.305-.108 1.996.515 2.32.783.382.314 1.86-1.568 1.486-1.895-7.977-2.835-18.045-4.497-25.624-4.62-1.762.004-2.46-.227-5.16-1.131-6.874-2.303-12.565-.029-13.4.694-8.389-5.399-17.75-12.935-25.205-17.746-.35-.215-1.187-.344-1.279-.344-1.2 8.353-2.046 18.019-3.07 25.728-.417 3.052-.466 3.29-.315 3.377.132.075.39-.046.494-.095 2.458-.831 4.676-.284 5.847 1.765.586 2.929-2.193 4.851-5.116 3.456-1.085-.518-1.241-.416-.748.56.853 1.76 3.313 6.392 3.313 6.392.004.002-3.348 6.277-5.038 7.983-1.64-2.454-3.735-4.936-4.64-7.616 1.297-2.332 3.745-5.334 4.52-7.634-.109-.074-.774-.012-1.238.21-4.272 1.857-4.951-1.653-4.892-2.914.12-2.564 2.542-3.106 6.055-1.905-3.755-23.301-4.54-36.576-3.572-35.138 0 0-4.584-3.034-6.861-5.092l.12-169.65 54.911.164c5.571 13.857 3.998 30.509.635 39.175 5.941 1.013 11.942 2.317 18.717 5.92C95.52 100.8 77.5 117.526 57.998 128.22c-1.105.458-4.73-1.635-5.151-3.699-.098-.48.192-1.423.776-1.405 1.43.431 2.816 1.022 4.213 1.55 0 0-1.938-4.51-.997-5.194.611-.37 1.112-.678 1.505-1.059 1.402-1.664 1.293-3.556-.185-5.011-.595-.578-1.29-.976-1.637-1.124 0 0 1.38-3.515 2.071-5.171l-5.408 1.641c-1.747-2.242-4.962-3.989-7.347-.659-.455.888-.36.752-3.705-.62a60.728 60.728 0 0 0-3.063-1.176c.707 1.956 1.634 3.793 2.443 6.057-3.729 2.185-2.887 5.881.246 6.989l-1.661 4.989s3.523-1.206 5.433-1.674c0 0 1.67 1.556 2.164 3.03.847 2.532 2.777 4.369 3.997 5.415-2.039 1.374-3.046 1.837-5.342 2.85l7.913 2.965c-.49-1.545-1.536-2.694-1.638-4.648-.09-1.674-.194-1.705-1.364-2.84-1.915-1.529-2.2-3.572-3.274-5.241-.75-.42-1.348-1.26-1.907-2.21-1.205.104-3.93 1.348-4.444.9-.63-.623 1.104-3.808.913-4.127-1.39-.112-5.278-2.918-.635-6.03l-1.47-5.076s3.528 1.43 5.218 2.23c1.185-5.068 6.54-2.628 7.402-.442 0 0 4.251-1.282 3.986-.236-.12.938-.815 3.28-.815 3.28 3.814 3.127 3.02 4.658-.086 6.7-.051 1.654.697 4.227.697 4.227s-2.16-.889-3.583-1.263c-.57.525-1.219 1.474-1.112 1.963.958 3.947 6.228 5.053 14.03 9.098.273-2.549 2.186-6.03 2.407-9.087.139-2.23.222-2.265 1.921-1.55 4.47 2.99 3.088 11.185 1.45 14.545-.969 1.902-1.128 1.853-3.004 1.298-2.6-.769-7.198-.468-9.73.32-3.5 1.316-5.164 8.513-5.206 10.7-.065 2.079.104 4.14 1.281 6.71.487 1.643-.415 2.908-2.02 2.465a27.027 27.027 0 0 1-1.216-.403l-15.113 7.184 2.842 1.548s-2.095-1.158-.794-1.782l12.957-6.213c2.41.872 2.087 1.049 3.654-.453.937-.887 1.396-.904 2.65-.791 7.63.688 11.014-.333 12.339-3.282.198-.443.123-.427.903-.79 1.445-.515 2.126-1.451 2.202-2.627.049-.771.412-.876 1.049-1.414 1.19-1.004 1.432-2.265.687-3.563-.35-.61-.62-.803-.472-1.435.247-1.06-.176-2.165-1.277-3.335-1.268-1.346-1.26-1.119 1.136-3.172 4.708-4.115 8.856-7.265 13.435-10.988 3.131-2.547 2.793-2.365 4.008-1.195 4.472 4.305 6.217 11.01 4.188 16.902-.095.276-.137.245.097 0 1.27-1.324 1.319-7.995.241-10.955-1.312-3.637-2.588-5.532-6.948-9.098-2.721-2.276-10.127-8.845-10.127-8.845 10.809-8.62 22.455-19.336 28.991-29.196-3.338-3.315-18.84-6.392-18.84-6.392 1.938-3.692 5.788-20.286-.714-38.704l55.71.683 1.98.127s.3-.105.458-.143c.534-.128.8.22.67.77-.413 1.404-2.654 4.69-4.23 4.416-.702-.253-.506.994-.822 1.512 2.486-.293 5.405-3.194 6.14-6.072.402-.604.662-.706 1.06-.589.46.136.343.539-.157 1.93-1.562 3.481-4.724 6.713-8.39 6.384l-.478 1.187c4.948-.065 8.782-4.34 9.918-7.54.794-1.903.825-2.16 1.619-1.976.654.562.247 1.366.022 2.028-2.5 7.33-9.337 9.279-12.738 8.955-.41-.048-.483.306-.36.91 7.308.457 13.14-5.344 13.973-10.329.403-1.384 1.099-1.855 1.498-1.222.225.558.149 1.128.037 1.66-2.013 7.867-11.113 12.321-16.666 11.036-.257-.222-.677.865-.073 1.255 11.215-.373 14.688-5.708 17.255-10.422 3.043 4.252 5.53 8.636 12.837 11.22 0 0 .726 1.484.15 1.815-.303.175-.766.093-1.437-.009-8.91-1.342-11.872 6.34-8.1 17.83 1.032 3.145.568 2.663-1.656 4.627-1.06.936-1.567 2.598-1.289 2.637.381-.198.508-.736 1.435-1.443.404-.307 1.232-.6 1.843-.988 1.65-.88 1.637-1.483 1.05-3.57-.438-1.551-1.55-6.27-1.55-6.749-.001-.903.23-.808 1.454.004 1.708 1.173 2.678 1.09.612-.412-.8-.582-1.32-1.035-1.562-1.361-.329-.444-.124-.73.543-.536 3.069.893 5.706.833 8.69-.836.326 7.575-.826 19.066-7.719 27.273-5.286 5.46-15.38 1.306-19.112-.427zm8.114-17.395c-.205.008-.941.148-1.397.388-2.028 1.067-1.552 4.865.658 5.374.889.205 1.696.318 3.192-.338.89-.39 2.137-.695 2.487-.56.733.284.967-.314 1.125-.989.353-1.509-2.33-1.549-4.468.008-2.697 1.965-4.756-.944-2.214-3.128.847-.503.822-.763.617-.755zm-20.941 8.092 2.258 2.417 1.41 5.752c-.862.134-1.907-.31-1.907-.31-.7-2.602-1.385-5.207-1.761-7.859zm30.81 1.496a.293.293 0 0 0-.077.019c-.096.038-.518.213-1.1.272-.337.034-.845-.187-1.207-.167-.99.055-1.917.322-2.165.416-.304.116-.604.164-.864.022-.738-.402-2.89-.292-3.545.061-.775.303-1.646.305-2.28 0-.274-.13-.554-.46-.604-.415-.1.093-.518 1.72-.643 2.35.003.22-.167.59-.068.627.126.048.532-.292 1.034-.527 1.029-.482 2.177-.443 4.194.016 2.49.567 3.46.405 4.931-.285 1.172-.549 1.883-.68 2.66-.482.193.05.703.295.773.233.137-.122-.238-.804-.56-1.478-.233-.489-.318-.68-.48-.662zm-26.875 2.552c2.184 1.916 2.02 1.752 3.399 2.7l-.071 1.843s-1.692.032-2.521-.207c-.26-.718-1.392-4.318-.807-4.336zm17.99 1.267c.149.094.364.193.66.287 3.48 1.21-.161.901-.51 2.048-.001.104.158.12.33.058 1.195-.431 4.115-.707 5.442-.468 1.722.54 1.83.169.175-.632-1.211-.442.26-.74.755-1.125 1.029-.608.322-.86-.987-.284-1.311.578-3.644.565-4.706.013-.47-.22-.928-.427-1.145-.44-.445-.017-.21.413-.013.543zm-13.712 2.043 2.036 1.473-2.084-.188zm-46.233 36.873a.748.69-.018 0 0-.748.687.748.69-.018 0 0 .745.69.748.69-.018 0 0 .749-.687.748.69-.018 0 0-.746-.69zm2.72.7-9.357 4.08 2.47.767-.025 2.36 2.277-.666.96 2.206zm.41 1.929a.748.69-.018 0 0-.748.688.748.69-.018 0 0 .745.69.748.69-.018 0 0 .749-.688.748.69-.018 0 0-.746-.69zm-11.86 4.172c-.411 0-.747.303-.748.683a.748.69-.018 0 0 .746.69.748.69-.018 0 0 .748-.687c0-.38-.334-.685-.746-.686zm2.871 1.286-10.502 4.432 3.108.877-.827 2.954 2.536-.977 1.41 1.986zm.305 2.118a.748.69-.018 0 0-.748.688.748.69-.018 0 0 .745.69c.412.001.742-.308.743-.688 0-.38-.328-.69-.74-.69zm-20.822.41c3.946.002 8.369 1.394 9.873 4.514.399 1.559-1.263 2.484-4.806 1.582-5.856-1.492-6.95-1.66-5.977-.74.128.121.385.418 1.262.696 2.205.697 6.476 1.507 7.628 1.4 1.575-.19 2.663.487 2.268 1.698-.45 1.374-2.495 1.934-5.568 1.53-3.183-.42-4.935-.76-5.992-1.058-1.358-.381-1.405-.349-.764.532.335.459.367.826.863.912 2.102-.106 4.34.27 6.27.44 3.464.292 4.005 1.199 1.458 2.58-1.208.654-4.815.468-6.864-.216-1.464-.489-4.822-1.19-3.529-.245.311.227.204.784.745.96 1.777.229 6.799.561 7.583 1.218.505.424-.637 1.494-2.983 2.05-3.53.612-8.808.346-10.2-.535-2.572-4.855-1.167-12.79 2.88-15.888 1.29-.928 3.485-1.43 5.853-1.43zm23.134 2.567c-.412-.001-.743.308-.743.688a.74.682-.018 0 0 .74.685c.412 0 .747-.303.748-.683a.748.69-.018 0 0-.745-.69zm3.115.74-10.845 4.962 2.74.756-.655 2.908 2.54-.961 1.535 1.96zm.08 2.437a.748.69-.018 0 0-.749.688.748.69-.018 0 0 .746.69.748.69-.018 0 0 .748-.688.748.69-.018 0 0-.746-.69zm6.29 5.881c-4.814 4.308-10.235 7.717-15.19 11.9l1.072-.038 2.7-2.239 75.902-.099-1.778 2.386.746.297s2.282-3.102 2.128-3.245c-16.677.017-29.549-.039-47.843.049-3.328-3.053-6.845-5.914-10.325-8.815zm-23.078 2.73a.748.69-.018 0 0-.748.689.748.69-.018 0 0 .746.69c.411 0 .742-.308.743-.688 0-.38-.33-.69-.74-.69zm99.09.685c6.549 4.5 14.307 10.02 20.747 13.3 2.58 1.039 2.33 1.391-.296 2.531-2.581 1.475-6.877 3.374-10.46 5.034-1.551.538-2.228-.168-3.329.018-.794.186-1.02.323-1.495.9-.777.944-.566.912-4.712.733-4.183-.181-5.908-.098-6.808.324-.866.406-2.352 1.794-2.353 2.37-.001.556-.475 1.267-1.337 1.504-1.004.224-2.164.955-2.117 2.093-.27.855-.838 1.234-1.343 1.703-1.194 1.108-1.077 1.981-.734 3.012.158.463.402.356.275 1.721-.29 3.128-.523 2.864 3.1 5.185l-18.559 14.87c-.43.312-.556.281-.946.032-2.257-1.552-3.825-4.113-4.726-6.675-3.115-7.963.72-14.494 5.808-18.487 1.763-1.383 4.13-3.032 4.79-3.447 9.58-7.514 17.922-18.164 24.496-26.721zm-96.326.43-10.602 4.598 3.41.536-.658 2.72 2.474-.86 1.303 2.294zm.644 2.158a.748.69-.018 0 0-.748.688c-.001.38.334.685.745.685a.74.682-.018 0 0 .743-.683c0-.38-.329-.69-.74-.69zm97.06 3.18-1.197-2.626s-3.36 7.6-4.073 10.177c2.837-1.344 11.15-5.232 11.15-5.232l-3.553-.614.407-2.978zm-121.005.278a.748.69-.018 0 0-.748.688.748.69-.018 0 0 .745.69.748.69-.018 0 0 .748-.688.748.69-.018 0 0-.745-.69zm3.243.633s-7.89 3.4-11.45 4.868l3.321.647-.59 2.98 3.001-1.074 1.203 2.948zm.418 2.252a.748.69-.018 0 0-.749.688c0 .38.334.685.746.685.412.001.747-.303.748-.683a.748.69-.018 0 0-.745-.69zm111.546.673c-.412-.001-.747.303-.748.683a.748.69-.018 0 0 .745.69c.412 0 .742-.308.743-.688a.74.682-.018 0 0-.74-.685zm12.887.643-3.77 9.616 10.155-4.698-2.753-.699.019-2.38-2.268.605zM61.73 166.19a.748.69-.018 0 0-.748.687.748.69-.018 0 0 .745.69.748.69-.018 0 0 .748-.687.748.69-.018 0 0-.745-.69zm110.977.35c-.412 0-.742.309-.743.689a.74.682-.018 0 0 .74.685c.412 0 .748-.303.748-.683a.748.69-.018 0 0-.745-.69zm-107.868.535-10.76 4.823 3.335.727-.372 3.097 2.715-1.418 1.468 2.828zm.668 2.047a.685.685 0 0 0-.707.688c0 .38.334.685.746.686a.74.682-.018 0 0 .743-.683c0-.38-.37-.69-.782-.69zm111.803.786a.748.69-.018 0 0-.748.688c0 .38.334.685.746.686.411 0 .747-.304.748-.683a.748.69-.018 0 0-.746-.69zm-14.821 3.142-.994-2.592-3.996 9.492 10.706-4.505-3.393-.74.065-2.48zm-10.864-2.063c-.123-.006-.23.025-.231.1 0 .219-2.738 2.68-2.738 2.68l-31.574.218c.065.005 2.627.663 2.627.663 4.136 3.06 10.616 8.487 10.616 8.487l7.838-.276c4.348-3.925 10.876-6.905 13.794-11.758-.071-.065-.21-.107-.332-.114zm29.591 2.006a.748.69-.018 0 0-.748.687c0 .38.334.685.745.686a.74.682-.018 0 0 .743-.683c0-.38-.328-.69-.74-.69zm-24.379 3.277a.74.682-.018 0 0-.743.683c0 .38.329.69.74.69a.748.69-.018 0 0 .749-.687c0-.38-.334-.685-.746-.686zm16.026 1.02c2.263-.007 4.443.068 5.007.467 3.492 2.723 1.81 15.425-2.602 17.023-4.84.997-8.187 1.178-12.382-1.385-1.19-.537-3.55-2.16-3.086-3.497.632-1.642 2.362-1.52 7.32-.087 1.809.522 2.805.42 3.268.094.432-.303-.133-.643-1.058-.648-.373-.002-1.976-.37-3.313-.75-1.887-.54-2.43-.698-3.65-.767-2.053-.115-2.65-.19-2.647-1.349.004-2.164 3.266-2.445 9.265-1.165.717.153 2.017.323 2.337.315.231.082-.456-.718-.57-1.195-.217-.17-.605-.252-1.627-.286-3.859-.355-7.062-.602-7.13-1.069-.337-2.29 4.656-2.906 9.83-1.06 1.328.474 1.355.278 1.345-.078-.018-.66-2.24-1.816-5.523-1.79-3.192.026-2.744-1.47-.117-2.591.897-.383 3.07-.175 5.333-.182zm-12.35 2.436c-.411-.001-.742.308-.743.687s.329.69.74.69a.748.69-.018 0 0 .749-.687.748.69-.018 0 0-.746-.69zm-11.512 4.735-.67-2.568-4.363 9.981 10.98-5.138-3.616-.633.322-2.101zm-5.598 4.002a.748.69-.018 0 0-.748.688.748.69-.018 0 0 .745.69c.412 0 .743-.308.743-.688.001-.38-.328-.69-.74-.69zm10.925 2.85-.92-2.428-3.705 8.689 9.369-3.844-2.764-.701.398-2.634zm-7.452.014a.748.69-.018 0 0-.748.688.748.69-.018 0 0 .745.69c.412.001.742-.308.743-.687s-.329-.69-.74-.69zm2.39 3.325c-.412 0-.748.303-.748.683a.748.69-.018 0 0 .745.69c.412.001.742-.308.743-.687a.74.682-.018 0 0-.74-.686zm-4.709 2.028-3.175 8.23 8.804-3.916-2.57-.785s.146-1.852-.097-1.766c-.153.054-1.81.478-1.81.478zm7.828.998c-.412 0-.747.303-.748.683a.748.69-.018 0 0 .745.69.748.69-.018 0 0 .748-.688c.001-.38-.333-.685-.745-.685zm-11.67 3.943a.748.69-.018 0 0-.748.688.748.69-.018 0 0 .746.69.748.69-.018 0 0 .748-.688.748.69-.018 0 0-.746-.69zm3.357 3.19c-.412 0-.748.304-.748.684a.748.69-.018 0 0 .745.69.748.69-.018 0 0 .748-.688c0-.38-.334-.684-.745-.685zm-46.47 37.853c-.403.054-1.448-.83-1.651-1.245.597-.14 1.213-.035 1.546.224.276.242.47.862.105 1.02zm3.186-.59c-.144 1.005.528 2.825.399 3.257-.346.156-2.093-1.579-2.523-2-.09-.576.009-1.305.045-1.635.601-.097 1.668-.059 2.08.377zm3.15.505c.37 2.23 1.426 5.816 1.258 7.025-.158-.117-1.505-1.346-2.498-2.65-.35-.78-.89-3.495-.84-4.794.672-.084 1.573.017 2.08.42zm-21.11-.284c-1.076.504-2.3.867-3.836.859-1.232-.007-3.352-.6-3.138-.454.56.926 2.025.443 2.052 1.047-.365.597-1.339.54-1.824 1.11-.102.152.143.281.828.215 2.083-.867 4.8-.847 7.286-.089.523.102.18-.36.003-.483-.322-.22-.856-.45-1.305-.5-2.173-.36-1.217-.56.238-1.158 1.067-.358 1.337-1.243-.304-.547zm4.703 2.84c-.29.02-1.013.359-1.807.653-1.34.497-2.578.379-4.378-.087-1.563-.404-2.134-.294-3.692.427-1.034.61-2.166.779-2.984.35-1.06-.558-1.053-.367-.53 1.01.13.343-.131 1.383.33 1.624.351.183.758-.424 1.03-.508.271-.084 1.977.625 2.93-.151 1.7-.566 2.21.357 3.386.27 1.911-.619 3.108-1.265 4.746-.062.098-.45.485-2.903 1.097-3.483-.016-.034-.062-.048-.128-.043zm-3.493 7.06c-1.375.013-2.12.791-3.893.64-1.415-.094-1.902 1.063-1.304 1.909.42.595.986.706 2.918-.107.794-.335 1.899-1.072 2.543-1.011 1.888.177 2.341 1.861.767 3.281-.766.415-.774.865-.54.873.62.023 1.88-.66 2.167-1.458.787-2.185-.616-4.163-2.658-4.127zm6.147 10.086c-1.789.345-4.37 2.236-5.249 3.46-.822 1.194-1.61 2.544-1.038 3.213.469.548 1.125 1.08 1.18 1.377.05.26-.335.516-.695.886-1.573 1.618-1.2 1.708 1.005.659 1.116-.532 1.636-.745 2.364-.568 2.121.514 4.765.154 6.563-.452.812-.274 1.607-.646 1.668-.456-3.286 3.325-7.373 2.48-8.832 2.276-.254-.062-.451-.048-.45.032 0 .162.421.514 1.322.885 1.506.619 5.127-.031 7.394-1.551 4.481-2.695 6.954-5.273 3.425-4.2-1.62.492-2.225.405-4.188-.417-2.943-1.233-5.199-1.596-7.64-.815-3.092.99-.718-1.357 2.763-3.39.754-.44.85-.945.408-.939zm-16.683 6.998-1.03.013c-.733-2.292-2.514-2.29-3.29.009l-.86-.058c.849-2.854 4.035-3.437 5.18.036zm18.332.219-.775.03c-.466-1.387-2.12-2.61-3.29-.339l-.537-.103c.96-3.63 4.757-1.604 4.602.412zm-5.16-2.095c.483 0 .604.506.055 1.326-.388.577-.846.524-1.305.088-.414-.384-.39-.452.063-.831.482-.404.899-.584 1.188-.583zm5.704.023c.21-.006.607.154 1.054.294 1.174.368 1.44.672.958 1.116-.474.435-1.372.566-1.785.317-.018-.546-.603-.967-.622-1.515.002-.147.185-.207.395-.212zm-18.408-.01c.815-.034 1.906.413 1.826.847-.088.474-.893.784-1.555.834-.444.052-.426-.113-.541-.405-.104-.259-.237-.59-.312-.85-.182-.498.165-.413.582-.427zm-5.572.155s-.458 1.253-.663 1.68c-1.705-.087-1.542-.78-.736-1.28.433-.304.871-.31 1.4-.4zm-1.329 2.977c.309.006.691.252 1.227.413 1.509.45 4.017.404 5.974-.01.937-.198 1.38-.465 1.586-.328.366.246-.015 1.099-1.369 1.645-1.763.597-4.451.918-6.485-.043-1.74-.822-1.932-1.695-.933-1.677zm-.469 1.793c1.595.976 3.193 1.285 5.169 1.12 2.958-.096 3.485-.432.991.782-2.305 1.122-5.855.91-6.536-.312-.39-.7-.136-1.532.376-1.59zm14.329 1.656a.059.054-.018 0 0-.026.004c.236 1.473 2.913 2.825 4.198 3.146 2.727 1.121 7.067.022 10.334-1.272 2.387-.945 3.25-2.376.407-1.567-4.572 1.303-10.309 1.393-13.18.371-.934-.41-1.573-.688-1.734-.682zm-15.05 5.49c5.717 1.2 12.614 9.35 12.581 12.91l-1.847-.004c-2.794-9.057-10.093-11.028-10.806-11.57-.325-1.11.086-1.362.072-1.335zm-.095 2.293c6.792 2.758 9.2 7.664 10.212 10.612l-1.987-.003c-1.473-4.057-4.129-6.953-8.243-8.76-.279-.564.018-1.849.018-1.849zm-.015 2.775c3.48.953 6.544 5.189 7.411 7.833l-1.739-.012c-1.226-2.95-2.97-4.845-5.742-5.938-.114-.556-.09-1.184.07-1.883zm-.062 2.874c1.635.307 4.4 2.657 4.793 4.955l-1.596-.003c-.56-1.55-2.296-2.967-3.187-3.545l-.01-1.407zm.164 2.453c.175-.1 2.613 1.932 2.2 2.498l-2.2-.004c-.024-.63-.036-2.5 0-2.494z" />
  <path fill="#d40000"
      d="M128.632 40.229c-4.16 7.402-25.491 40.736-25.71 41.897l5.443 2.232 26.527-43.95s-5.48-.173-6.26-.18zm62.382 27.966-2.477 3.2 2.096 3.52 2.14-3.475zm-97.216 33.324s-7.64 6.98-10.626 10.237c6.395 5.91 18.626 13.336 18.694 24.733l8.443.043 27.284 22.6s24.746.205 25.208.107c.498-.106 9.313-11.707 9.313-11.707l15.661 10.575s-.73-11.364-1.31-18.327c-.184-4.658-.346-7.522 3.347-9.577-5.065-2.238-4.736-6.336-1.003-9.34-1.227-1.57-3.064-1.864-3.33-7.426-.774-.769-1.507-1.22-2.476-1.873l-1.015.834c-3.259 2.69-5.48 5.437-5.85 7.226-.7 3.406 3.044 5.746 5.216 3.26.613-.7 1.157-.503 1.156.413-.004 1.858-2.539 2.903-4.679 1.932-.5-.226-.942-.377-.986-.336-.078.071 2.116 5.055 2.709 6.154.987 1.83 1.502 3.666 1.575 5.587.078 2.05.032 2.313-1.014 5.855-.986 3.338-.528 5.324 1.222 5.327.986.001.953.875-.043 1.194-2.117.677-3.427-.764-3.496-3.839-.042-1.868-.077-1.914-1.117-1.464-3.622 1.563-7.547-1.249-5.838-4.182.359-.617.78-.421 1.001.46.414 1.652 1.35 2.381 3.044 2.378 3.905-.007 5.55-5.097 3.308-10.228-.45-1.03-.678-.971-1.274.329-.935 2.04-2.497 2.638-3.782 1.448-.431-.4-.639-1.046-.346-1.077a28.4 28.4 0 0 1 .951-.036c2.276-.064 3.065-2.1 2.005-5.166-.932-2.693-1.075-3.182-1.352-4.642-.426-2.255-.122-3.967 1.091-6.153.215-.386 1.552-1.76 3.214-3.303 1.696-1.576 3.156-2.785 3.156-2.785s-.856-.683-2.016-1.49c-2.443-1.7-2.875-1.993-2.875-1.993s-11.686 29.449-10.884 40.93c-1.505 15.124-13.547 10.92-14.414.443zm-.527 4.418c3.975-.055 6.586 4.8 8.063 14.866.49 3.336 2.683 8.01 4.279 9.117 4.026 2.791 10.34.655 10.353-3.505.017-5.179-7.861-5.959-7.992-.791-.031 1.218-.709 1.28-1.356.12-.577-1.034-.052-2.966 1.077-3.94.723-.623.666-.741-.709-1.445-4.788-2.45-6.82-6.094-4.256-7.639 1.122-.675 2.651.183 1.947 1.094-1.1 1.422-1.115 1.647-.2 2.831 1.04 1.346 2.276 2.019 5.207 2.822 2.46.674 2.865.8 4.002 1.28 3.327 1.406 4.841 4.491 3.673 7.483-.275.705-.543 1.402-.596 1.547-.12.328.076.33 2.42.046 3.729-.452 7.869.784 9.906 2.957 1.095 1.167 1.97 3.79 1.993 5.978.005.422.143 1.373.313 2.115.17.742.395 1.997.496 2.786.961 7.489 7.709 11.329 10.637 6.054 1.844-3.32-2.397-6.65-4.565-3.585-.762 1.076-1.544.58-1.104-.7.855-2.488 4.224-2.906 6.513-.807 1.238 1.135 1.828 3.706 1.222 5.336-.317.855-.284.91.403.69 1.542-.494 4.205-.012 5.159.933 2.248 2.227 1.791 4.896-.983 5.757-1.261.387-2.688-.02-3.153-1.384-.203-.971.522-1.25 1.08-.413 1.045 1.567 3.331.309 2.796-1.54-.61-2.102-2.555-2.55-6.15-1.416-5.716 1.805-7.56 1.651-10.29-.86-1.949-1.794-2.68-3.341-3.199-6.755-.573-3.77-.628-3.868-1.64-3.076-4.842 3.788-11.217-1.958-7.115-5.722 1.269-1.167 2.199-.147 1.057 1.158-1.667 1.905.496 4.565 3.214 3.95 4.95-1.118 3.953-7.801-1.398-9.37-1.631-.479-6.116-.289-9.566.404-9.633 1.936-13.88-1.864-15.838-14.157-.229-1.436-.498-2.497-1.406-5.59-1.078-3.67-4.763-5.666-6.78-3.674-1.609 1.589-.769 3.732 1.466 3.74 2.227.01 1.541 1.417-.781 1.604-4.03.324-4.719-5.866-.85-7.633.945-.432 1.826-.655 2.65-.666zm-52.59 2.2 1.24 4.407 4.977 1.306-1.57-4.194zm12.77 1.336-1.345 3.983 3.777-.848 1.239-4.155zm40.946 6.59a1.432 1.322-.018 0 1 1.43 1.324 1.432 1.322-.018 1 1-1.43-1.324zm-48.003 2.302-3.929 1.261-.761 3.159 4.11-.97zm9.365 1.013-3.206-.515.895 3.263 3.395 1.287zM195 119.35l-2.065 1.477c6.003 4.833-.496 9.47-.697 9.155 4.342 2.662 3.56 6.848 2.988 10.681-1.042 6.839-1.455 13.308-2.591 20.316 0 0 5.23 3.343 8.711 4.64.066.007.1-41.13.1-41.13zm-74.21 6.077a1.432 1.322-.018 0 1 1.43 1.324 1.432 1.322-.018 1 1-1.43-1.324zm-87.919 3.243.106 38.387 8.638-14.195-5.912-6.316 5.13-5.037zm83.83 5.983a1.432 1.322-.018 0 1 1.43 1.323 1.432 1.322-.018 1 1-1.43-1.323zm19.541 3.958a1.432 1.322-.018 1 1-.005 2.643 1.432 1.322-.018 0 1 .005-2.643zm55.913 42.852 6.314 6-4.952 5.67 7.756 12.193-.053-37.69zm-159.44-12.86.221 41.287 6.754 4.564 1.718-1.492c-4.356-4.308-1.743-7.504 1.551-9.35-5.802-1.256-4.026-8.357-3.673-11.649-.13-6.112 2.31-13.081 1.574-18.959zm38.94 5.8-9.717 12.448s-10.636-7.462-16-10.83c.564 5.38 1.075 12.241 1.776 18.027 1.726 8.45-2.809 8.588-2.852 9.397 7.197 5.059 1.14 9.77.055 9.53 3.835 1.935 3.508 7.793 3.508 7.793l1.818.953s.593-.332.844-.457c1.949-.963 5.128-4.402 5.86-6.674 1.24-3.851-2.381-7.058-4.667-4.132-1.124 1.437-2.02.473-1.098-1.182.84-1.51 3.03-2.266 4.484-1.546.845.42.657-.665-.643-3.701-.436-1.02-.79-2.13-1.403-4.383-.593-2.179-.356-4.804.684-7.475 1.5-3.85.975-6.268-1.414-6.483-1.275-.115-1.412-.483-.372-1.025 2.324-1.21 4.571.521 4.474 3.448-.052 1.583-.033 1.61.872 1.276 4.583-1.688 8.194 2.703 4.986 6.064-.981 1.027-1.596.373-.95-1.007 1-2.133.055-3.656-2.274-3.676-3.378-.03-5.256 4.275-3.935 9.014.413 1.479.477 1.497 1.6.512.997-.875 1.742-1.154 2.513-.94 1.598.444 2.015 2.015.483 1.818-2.633-.339-3.33 2.206-1.85 6.737 1.965 6.011-.045 10.904-5.899 14.377-.296.176-.768.514-.768.514 2.252 1.858 3.693 2.914 6.67 4.593l10.717-39.662s-.175-2.254-.435-3.316c.012-10.65 10.782-11.653 14.134-1.978.322.93 2.03 3.303 2.03 3.303l55.972 45.997s10.484-9.316 10.34-9.564c-7.936-7.407-18.664-12.653-19.033-24.387-1.905-.054-8.275.044-8.275.044l-27.215-23.115c-8.554.037-16.14-.54-25.02-.312zm15.273.889c1.497-.041 3.006.68 3.004 1.831-.002.995-.725 1.221-1.32.414-.834-1.129-1.804-1.22-2.793-.264-2.741 2.65 1.506 5.081 6.397 3.663 2.995-.869 4.445-1.102 5.54-.897 4.617.862 6.842 3.741 7.225 9.342.195 2.849.19 2.838 1.526 1.712 3.254-2.743 7.946-1.206 8.669 2.84.31 1.737-1.719 3.92-3.644 3.917-.755 0-.634-.728.181-1.085 1.96-.859 2.042-3.707.142-4.824-2.522-1.481-5.853.818-5.818 4.017.042 3.846 3.151 5.622 9.299 5.306.9-.046 3.16-.14 5.018-.21 2.936-.11 6.093-.615 9.08 1.474 3.13 2.304 5.2 6.879 6.077 13.485 1.385 8.132 2.464 10.312 5.421 10.512 1.755.119 3.246-1.259 3.249-2.861.002-1.13-1.616-2.128-2.846-1.756-1.485.45-1.782-1.034-.32-1.596 2.028-.777 4.498.731 5.043 3.081.319 1.37-1.36 3.993-3.118 4.646-4.584 1.701-7.834-1.796-8.892-9.612-.65-3.584-1.007-6-2.212-9.066-2.212-5.64-5.86-7.973-9.839-6.293-4.507 1.903-3.626 8.126 1.145 8.087 2.621.196 3.173-1.58 3.231-3.483.064-1.404 1.786-.083 1.932.883.139 1.172-1.003 2.62-2.01 3.305-1.625 1-1.047.939.613 1.345 4.464.767 7.773 6.225 5.1 8.073-1.39.778-2.861-.373-1.897-1.5 1.533-1.792-1.05-4.63-5.76-5.59-6.167-1.258-8.616-5.5-6.382-9.852.74-1.44.803-1.406-2.207-1.254-6.623.334-8.972-.514-11.188-4.058-.669-1.07-.962-2.5-1.1-5.34-.246-5.085-.742-8.234-1.435-9.122-3.43-4.394-10.586-3.092-9.7 1.765.464 2.55 3.317 3.371 5.27 1.518 1.474-1.4 2.158-.096.718 1.37-3.464 3.527-9.474-.606-7.677-5.28.411-1.07.466-1.035-1.753-1.097-4.934-.14-7.275-4.04-4.088-6.808.558-.485 1.334-.717 2.119-.738zm11.874 16.746a1.432 1.322-.018 1 1-.005 2.644 1.432 1.322-.018 0 1 .005-2.644zm19.831 4.724a1.432 1.322-.018 1 1-.005 2.643 1.432 1.322-.018 0 1 .005-2.643zm-4.277 8.616a1.432 1.322-.018 0 1 1.43 1.324 1.432 1.322-.018 1 1-1.43-1.324zm63.04 5.24.9 3.91 3.285.804-.507-3.35zm11.495 1.372-.076 2.318 2.924.322 1.042-3.995zm-49.093 3.421a1.432 1.322-.018 1 1-.005 2.643 1.432 1.322-.018 0 1 .005-2.643zm41.979 5.45-3.439.875-1.66 4.402 4.403-1.463zm6.722.408.415 3.264 4.23 1.773-1.423-4.654zm-62.465 27.72-26.371 43.814 7.183-.08 24.89-41.314zm-82.697 10.486-2.328 2.88 2.198 3.35 2.539-3.357z" />
  <path
      d="M88.409 39.083c4.814 13.55 5.238 26.897 1.013 39.713 2.393.116 12.829 2.604 18.57 5.886-1.069 2.522-17.397 20.988-28.473 29.305 3.138 2.878 6.592 5.756 10.222 8.928 5.49 4.824 7.427 8.143 7.778 14.394-.055 3.018-1.235 6.74-3.322 9.373-1.579 1.99-3.253 3.52-6.609 5.564-3.096 1.886-7.625 5.946-13.321 11.935-2.171 2.283-5.837 6.441-8.874 10.407-1.149 1.442-4.532 5.942-4.532 5.942-11.24-8.495-23.283-15.053-23.591-15.004 0 0 12.173-5.962 14.734-7.177 1.963 1.167 4.633.176 3.357-2.387-2.45-5.832-.722-11.829 2.31-16.012.725-1.008 2.47-1.594 5.291-1.77 1.225-.073 2.519-.034 3.816-.047.468 0 1.728.17 2.418.518 2.297 1.163 2.76-.326 4.205-5.34 1.436-4.99-.848-11.305-4.122-11.33-.77-.007-1.202.255-1.046 2.03.116 1.341-.234 2.036-.61 2.88-.82 1.843-1.257 3.648-1.521 6.054.478.09-3.033-3.235-8.573-4.56-3.6-.398-5.422-4.54-5.27-4.548 0 0 .542-1.12 1.016-1.556 1.23.545 2.436 1.185 3.894 1.582 0 0-.333-1.663-.461-2.11-.665-2.313-.628-2.665.338-3.143 2.396-1.186 2.653-3.313.788-5.252-.471-.496-.868-.814-1.502-1.065l1.19-4.34s-1.083.213-1.95.455c-2.506.698-2.319.722-3.385-.402-2.32-2.447-5.87-1.988-6.405.83a9.11 9.11 0 0 1-.216.807l-5.339-2.402c.154 1.157 1.534 5.076 1.534 5.076-4.681 3.344-.736 6.318.539 6.634 0 0-1.098 3.205-1.477 4.537l5.276-1.382c.44.928.986 1.632 2.08 2.283.282 2.738 2.563 4.948 4.135 6.279 0 0 .225 1.002.087 1.641-.343 1.591 1.405 4.114 1.702 4.266-7.231-2.744-14.768-6.033-22.043-9.263l.296 82.596s1.693 1.404 5.052 3.633c1.613 1.07 1.613 1.075 1.274 2.305-.447 1.623-.34 2.862 1.14 13.548.784 5.652 1.638 11.513 2.402 16.77.304 1.914.345 3.142.345 3.142-1.606-.69-3.947-.763-5.16.49-2.09 2.19-.427 5.724 2.665 5.653.703-.038 1.18-.226 1.786-.606.42-.206.851-.025.851-.025l-4.628 7.475 5.295 8.26 5.316-8.817-3.84-6.987s.376-.039.898.204c.517.241 1.214.425 1.697.451 2.689.023 3.243-1.107 3.53-3.142.005-2.62-2.253-3.81-5.365-2.827-.488.155-1.028.197-1.028.197l3.319-28.801 1.746 1.187.574-.287-1.527-1.206c.34-4.615-1.306-6.252-3.086-7.372 5.966-3.119 3.392-8.069-.568-9.597 0 0 2.578-1.384 3.097-2.84.441-1.302.281-3.367-.21-7.03-.362-5.647-1.655-17.316-1.655-17.316 5.2 3.631 10.538 7.517 15.558 11.188l10.101-12.907 24.284.194s18.428 15.494 27.703 23.394l8.02.079s.086.791.166 1.317c.745 7.637 6.286 12.89 11.333 16.576 2.056 1.71 7.138 6.204 7.138 6.204l-9.453 8.764-57.695-47.721s-.275-.696-.386-1.12c-1.325-5.046-4.943-7.165-8.237-6.814-3.457.367-6.41 3.504-6.272 8.85.02.826.343 2.284.343 2.284L58.244 227.22s-4.215-2.98-6.492-4.414l-.502.268 6.17 4.296.461-.183 1.752 1.268.131.864c5.4 3.402 14.553 9.75 14.553 9.75 4.333-2.96 8.88-1.96 13.433-.837 0 0 3.31 1.027 5.072 1.023 8.952.2 16.876 1.817 25.192 4.604l-30.426 49.568 57.775.2c-2.828-10.389-5.833-20.942-.39-38.647-5.697-1.07-18.357-5.769-18.357-5.769s-.06-.266.478-.873c2.347-3.087 8.286-11.454 13.846-16.29.677-.445 10.367-9.093 10.462-9.367.053-.153.287-.737.667-.966.892-.548 3.267-2.612 3.267-2.612l-12.088-9.707s-.532-.049-.705-.138c-1.688-.875-4.73-5.746-5.475-9.005-1.715-7.497 1.489-13.418 10.507-19.487 8.804-5.542 25.52-27.084 25.575-27.562 8.978 6.883 15.99 10.451 23.892 14.969-4.783 2.522-8.683 4.207-12.03 5.875-2.172 1.139-2.47 1.377-4.303.894-2.077.013-2.789.75-2.265 2.404 3.135 4.59 1.765 15.262-2.49 17.312-3.694 1.78-7.281 1.291-10.244.274-2.287-.68-2.257-.688-3.28 1.226-2.254 4.408-2.405 8.123-.342 12.357 1.694 3.399 4.217 4.95 4.537.372.188-2.688 1.478-5.828 1.443-8.717 2.572 2.63 4.278 3.832 8.507 4.908 2.836.412 5.843 3.7 5.747 5.04-.78.724-1.02 1.651-1.146 1.585-1.38-.419-4.37-1.598-4.37-1.598l1.265 4.156s-.21.187-.824.475c-2.82 1.322-2.644 4.906.31 6.344.601.293.644.43.386 1.195-.37 1.703-1.18 2.846-1.62 4.534 0 0 .402.014 3.778-1.42l1.325-.564.797.79c1.743 1.725 3.842 1.719 5.677-.02l.84-.796 2.34 1.098c2.206 1.037 2.786 1.25 2.786 1.25s-1.264-4.558-1.5-5.08c-.126-.282-.386-.568-.576-.634-.315-.108-.264-.176.575-.787 2.126-1.55 2.343-3.692.536-5.323-.688-.622-.776-.752-.776-.752l1.108-4.223-4.563 1.387a4.892 4.892 0 0 0-2.58-2.347c-.074-1.906-.33-3.866-3.873-6.852 1.198-1.006-.22-3.438-1.389-4.897 1.996.622 6.986 2.58 6.986 2.58l.754-.028 2.383 1.06.279.39s7.494 3.28 10.936 4.813c-.008-.17-.03-3.59.033-41.229.037-22.44.113-40.899.063-41.017-.048-.118-.871-.703-1.726-1.3-1.577-1.103-1.9-1.318-3.903-2.556-1.607-.992-1.498-.984-1.162-2.125.387-1.31.382-3.113-.12-6.49-.37-2.494-1.715-11.261-2.65-18.337-.656-4.964-.812-6.066-.974-6.865-.26-2.01.025-2.885-.023-2.915 7.527 3.023 8.14-6.96.587-5.624 1.45-2.687 2.669-3.933 3.913-6.804-1.57-3.131-5.045-8.428-5.045-8.428l-5.536 8.86 3.236 6.142c-3.735-.627-5.723 1.88-5.036 4.131.748 1.992 2.815 2.553 4.641 1.754 1.407-.51 1.405-.64.141 9.086a3118.688 3118.688 0 0 0-2.265 18.324c-.154 1.344-.249 1.717-.841 1.42-.804-.32-1.263-.787-2.07-1.278l-.45.386a53.784 53.784 0 0 1 2.43 1.97c-.206 3.563-.131 5.626 3.078 7.37-5.83 3.36-2.435 8.548.984 9.302-2.04.483-4.054 2.9-3.576 7.71l1.614 19.822-15.769-10.843-9.291 12.224-24.418-.01-27.498-22.979s-6.038-.085-8.516-.145c.281-.12-.506-7.09-4.484-11.647-4.323-4.76-14.17-12.622-14.163-12.625l10.375-9.688 58.057 48.392s.279 1.368.426 1.95c1.929 7.629 11.329 8.106 13.343.342.326-1.254.72-4.173.577-4.52-.047-.112.248-1.385.655-2.831 3.147-11.31 5.829-21.065 8.925-31.922.427-1.495.88-3.159 1.004-3.699.511-2.203.435-2.19 2.932-.448 1.528 1.066 2.16 1.448 2.16 1.448l.487-.467c-1.714-1.229-4.648-3.189-4.648-3.189l.032-.83c-9.429-6.254-11.37-7.914-16.952-12.011-4.338 3.513-10.53 2.077-14.41.826-1-.364-3.456-.959-3.456-.959-9.669-.003-18.16-1.74-26.179-4.171l31.031-50.786-11.947-.018-.419.432-6.216-.01-.02-.432zm113.757 167.37c.001.032.005 0 .005 0zM123.668 40.288l4.23.082-25.111 41.176-2.658-.963s.244-.117.244-1.854c0-1.865-.435-2.662-1.343-3.764-.76-.954-1.085-1.007 1.147-.72 4.563.586 7.815-3.989 6.009-7.567-.697-1.38-.598-1.464 1.251-1.63 5.091-.461 7.083-6.418 3.486-9.393-.744-.623-.41-1.018.978-.74 4.403.884 7.823-3.617 6.08-7.15-.568-.986-.055-1.149.75-1.245 3.771-.81 5.06-3.54 4.937-6.232zm-33.737-.049 19.594.036c-2.643 3.717 2.008 5.928 2.598 5.668-4.228 2.123-3.075 5.125-.885 6.16 2.124 1.004 5.314.108 4.472-4.224l1.05-.418c1.016 1.065 2.015 7.66-5.758 6.73-1.383-.165-2.136 1.027-.98 1.69 6.131 6.527-3.491 9.392-3.908 8.31l-.03-1.104c2.6.446 5.934-2.642 3.021-5.395-1.656-1.566-6.47-.812-5.655 3.932-2.835-3.922-5.94-2.745-6.78-.676-.652 1.604.169 3.802 3.003 4.18-3.17 2.442-1.638 5.176.537 5.782 2.401.67 4.856-.23 4.201-4.258.039-.382.877-.256.947-.277 2.473 5.724-3.469 7.816-6.672 6.63-1.187-.428-1.812 1.26-.551 2.123 1.911 1.31 1.313 5.068 1.089 5.105-3.558-1.252-8.657-2.182-8.466-2.111 3.425-12.408 3.229-25.031-.827-37.883zm31.24.055 1.77.007c.02 2.338-1.087 5.214-5.412 5.65a6.358 6.358 0 0 0-.2-1.883c1.622-.336 3.772.083 3.843-3.774zm7.729.14 5.651.032-26.675 43.514-4.246-2.022Zm-13.95 3.281c1 .002 1.81.748 1.808 1.669-.002.922-.815 1.67-1.814 1.668s-1.804-.752-1.802-1.674c.002-.921.81-1.664 1.809-1.663zM103.58 62.69c.925.002 1.671.693 1.67 1.546-.002.854-.751 1.547-1.676 1.546-.925-.002-1.671-.698-1.67-1.55s.751-1.543 1.676-1.542zm87.536 1.371 4.487 7.239-5.152 8.384-4.27-8.05zm-.087 2.464-3.175 4.819 2.865 4.946 3.277-4.691zm.057 2.068 1.631 2.919-1.995 2.956-1.646-3.132zm-4.381 9.791c.34.002.704.07 1.078.214 3.03 1.174 2.056 5.426-1.18 5.157-.428-.041-.99-.243-1.396-.497-2.242-1.704-.885-4.884 1.498-4.874zm7.41.092c2.652.049 4.244 3.456 1.449 5.044-1.349.69-3.362.266-4.152-.965-.677-1.057-.38-2.817 1.143-3.727a3.51 3.51 0 0 1 1.56-.352zm-3.691 4.851c.264.021.55 1.21.812 3.273.095.747.35 2.617.565 4.154.41 3.287.835 6.349 1.199 9.517.072.624.252 1.95.398 2.946 1.514 10.293 1.856 13.58 1.491 14.456-.973 3.066-5.51 3.294-7.403 1.508-1.43-1.35-1.639-2.83-1.067-6.686.33-2.226.467-3.346 1.44-11.854.228-1.993.557-4.644.732-5.89.386-3.328.84-6.448 1.339-9.73.143-1.174.313-1.708.494-1.694zm-74.326 7.529s14.524 4.443 25.58 4.26c1.624.001 1.887-.011 3.907.6 1.198.364 3.082.856 4.187 1.093 3.408.615 6.404.447 9.06-.547.416-.156 1.03-.628 1.647-.455.377.105.924.799.924.799-9.685 2.356-32.332 1.883-46.42-3.623zm74.661 1.525c-.06.009-.123.085-.194.188-.238.345-.046 2.61.82 9.814 1.654 13.763 1.647 14.057-.393 15.5-1.003.71-1.159.995-.678 1.255.358.193.329.192 1.059.006 1.714-.436 2.426-1.69 2.417-4.253-.007-1.954-.031-2.19-.682-6.992a761.547 761.547 0 0 1-.686-5.212c-1.086-8.573-1.337-10.356-1.663-10.306zm-76.13 1.318c14.46 4.805 29.574 6.183 47.8 3.63 0 0 1.75 1.051 2.632 1.567l-.614.131.272 2.323 3.095-.453s1.671 1.231 2.916 1.987c-16.256 4.552-42.495 3.722-58.67-2.944a9.132 9.132 0 0 1-.976-.592c.351-.79.775-1.26 1.206-1.702l2.955.784.858-2.486-2.259-.764zm3.785 2.985-.951 2.448 4.13 1.14.711-2.501zm6.319 1.525-.553 2.789 4.147.714.521-2.713zm6.861 1.318-.332 2.69 4.397.437.277-2.723zm30.233.09-3.745.372.231 2.37 3.786-.404zm-6.604.675-3.714.22.123 2.483 3.734-.21zm-16.73.025-.01 2.639 3.804.138.051-2.695zm10.463.347-3.508.009-.02 2.51 3.544.02zm-40.683.38c.378-.01 1.242.768 1.598 1.64.7 1.713.374 3.61-.73 4.237-1.5.853-3.26-.49-2.226-1.698.183-.214.477-.428.656-.48.77-.225.953-1.345.538-3.285-.062-.287.016-.411.164-.415zm5.61.664c15.652 4.757 33.42 6.374 51.734 2.943 0 0-8.738 32.685-8.926 32.7zm-7.678.087c.825.001.972 1.293.227 1.978-.951.875-2.762.169-2.382-.929.11-.319 1.611-1.05 2.155-1.049zm4.5.767c.17-.011.494.303 1.006.941 1.755 2.188 1.888 4.63.31 5.74-1.848 1.301-3.194-.725-1.651-2.49.399-.457.46-1.303.226-3.176-.084-.667-.062-1.004.109-1.015zm60.725.885c.202-.006.56.139 1.278.465 1.121.509 1.51 1.251.968 1.851-.787.872-2.935-.86-2.528-2.038.062-.18.125-.274.282-.278zm-1.69 1.135c.281.026.73.502 1.25 1.47.334.621.528.799 1.093.988 1.338.448 1.584 1.728.405 2.106-1.28.41-2.232-.441-2.813-2.516-.384-1.368-.297-2.082.065-2.048zm-56.023.826c.194-.01.566.392 1.154 1.196 1.746 2.387 1.134 6.963-1.074 8.027-.974.47-1.65.368-2.43-.353-1.137-1.054-.855-1.885.84-2.457 1.442-.488 1.91-2 1.471-4.756-.175-1.101-.181-1.645.04-1.657zm8.336.769c10.68 8.156 20.318 16.896 32.743 27.102 2.972-8.386 7.314-25.8 7.328-25.859-.471.358-20.91 3-40.071-1.243zm40.071 1.244c.01-.008.013-.014.005-.02l-.005.02zm6.636-1.146c.178 0 .691 1.225.983 2.342.264 1.013 1.32 2.71 1.728 2.774 2.107.332 3.002 1.418 1.96 2.377-.766.704-2.42.302-3.216-.78-1.495-2.03-2.51-6.715-1.455-6.713zm-119.338.933c1.272.012 2.492.754 2.798 2.28.356 1.776-.734 3.065-1.654 2.857-.999-.347-1.336-1.809-1.336-1.809s-.24 1.191-.652 1.792c-.899 1.262-2.78-.616-2.44-2.434.333-1.776 1.842-2.699 3.284-2.686zm76.12.589c11.645 1.633 21.665 2.068 35.562.698l-6.592 23.448zm-8.796.023c.172.011.526.298 1.077.837 1.807 1.77 2.324 4.221 1.146 5.435-.718.74-1.2.824-1.96.341-.97-.615-1.042-1.54-.15-1.963.821-.39.896-1.25.251-2.879-.48-1.215-.617-1.786-.364-1.77zm-75.985.484 4.252 1.635 1.518 3.32-4.244-1.016zm16.09.464-1.27 3.302-3.276 1.123 1.28-3.57zm111.002.87c.158-.001.39.417.673 1.28.699 2.14.995 2.68 1.636 2.963 1.044.461 1.117 1.63.13 2.044-.628.262-.834.208-1.279-.333-.693-.841-1.25-2.452-1.348-3.896-.092-1.353-.014-2.055.188-2.057zm-47.375 1.417c.124-.008.305.16.572.454 1.65 1.816 1.825 4.598.343 5.428-1.436.805-3.438-.863-2.186-1.82.113-.086.372-.279.579-.424.348-.245.379-.388.413-1.963.025-1.17.074-1.662.28-1.675zm12.56.213 20.34 17.118 4.71-16.894c-8.049.654-16.455.442-25.05-.224zm-50.047.78c6.424 6.282 14.835 11.365 16.824 17.604 3.569 8.59.92 18.545-7.483 24.23-4.64 3.228-9.187 6.626-12.971 10.732-6.21 6.078-10.359 12.725-14.509 17.544-.703.81-2.559 3.362-2.559 3.362s-.907.954-3.93-1.394c-8.02-6.604-16.439-11.398-25.01-15.965l3.634-1.868c7.157 3.78 16.052 9.16 24.051 15.425 0 0 6.387-8.575 8.424-11.031 2.955-3.526 5.03-5.796 7.78-8.522 7.027-7.976 14.271-10.607 17.29-14.647 4.425-5.918 4.627-12.942 1.009-18.944-3.568-5.728-10.52-9.662-15.132-14.406zm61.089.56 7.963.012s-1.171.898-2.069 1.45c-.563.347-1.22.298-2.46-.183a243.957 243.957 0 0 0-3.434-1.28zm9.119.014 1.857.055c-1.392 1.607-2.817 2.642-4.683 4.07-.241.096-.376.135-.936-.034-3.804-1.168-7.295-2.65-11-4.053l3.305-.01s1.59.472 3.977 1.39c2.737 1.053 3.446 1.377 4.504.739 1.02-.624 1.866-1.564 2.976-2.157zm3.76.006-.67 2.25c-1.113 1.279-3.362 2.75-5.24 4.202-.44.211-.426.25-2.347-.442-7.074-2.549-10.493-4.204-10.493-4.204l-1.434-1.187s1.844.49 3.061.935c.83.303 2.244.8 3.144 1.11.9.308 2.889 1.092 4.216 1.578 3.062 1.12 2.893 1.155 5.834-1.232 3.184-2.585 3.928-3.01 3.928-3.01zm-107.24.037 3.082 3.271-4.123 3.19-3.104-3.385zm117.215.19c.708 1.228 1.182 2.68 2.333 3.715.867.765 1.082 1.355.566 1.785-1.346.764-1.575-.474-1.99-1.284-.73-1.426-1.62-3.353-.91-4.216zm-111.713.15a3.84 3.84 0 0 1 .24 0c3.294.05 4.064 4.544.961 5.618-1.112.385-2.39.207-3.078-.43-.667-.618-.76-1.14-.3-1.462.715-.468 2.416-.497 2.416-.497s-1.544-.486-2.23-.842c-1.354-.715-.178-2.311 1.99-2.388zm67.826.112c.186.01.506.36.96 1.054 1.656 2.535 1.56 7.354-.176 8.571-.902.633-2.024.54-2.777-.23-.992-1.017-.684-2.043.793-2.643 1.426-.579 1.719-1.878 1.145-5.09-.2-1.12-.185-1.675.055-1.662zm-79.938-.047c.984-.03 1.932.326 2.402 1.042.348.53.178.918-.48 1.181-.802.291-2.321.553-2.321.553s1.472.226 2.362.56c1.113.457 1.025 1.29-.608 2.003-3.145 1.372-6.106-2.397-3.51-4.554.605-.502 1.39-.761 2.155-.785zm82.62 1.949a.295.295 0 0 1 .076 0c.288.033.82.419 1.353 1.073 1.87 2.293 2.188 5.734.592 6.402-1.686.705-2.895-.757-1.68-2.033.862-.903.757-2.226-.379-4.848-.165-.381-.125-.57.037-.594zm40.451.172c.148-.01.416.541.846 1.654.948 2.449 1.76 3.476 2.74 3.478 1.231.002 1.874 1.56.9 2.187-1.92 1.237-4.43-1.806-4.607-5.596-.053-1.139-.027-1.712.121-1.723zm-10.15 1.207-.571 1.996s-1.311 1.172-2.25 1.917c-1.489 1.183-1.855 1.419-3.03 1.048a158.223 158.223 0 0 0-5.474-1.633l-4.346-3.33 9.926 3.594s.86.235 1.16-.04c1.304-1.198 2.734-2.126 4.585-3.552zm9.367 1.884c.124-.026.25.12.336.487.447 1.88 1.097 3.244 1.646 3.457.696.27.961.827.667 1.394-.848 1.634-3.066-1.259-3.06-3.994 0-.776.203-1.301.41-1.344zm-35.85.075c.122-.007.318.16.624.445 1.37 1.269 1.78 4.771.674 5.787-1.597 1.469-3.295-.72-1.745-2.25.41-.403.41-.432.316-2.226-.065-1.25-.07-1.745.132-1.756zm-83.206.217-1.08 3.283-3.434.812.809-2.704zm4.112.342c.272-.01.58.086.904.303 1.397.937 1.509 2.534.853 3.711-.628 1.15-1.907 1.478-3.143 1.36-1.604-.168-2.814-1.201-2.726-2.78.03-.792.405-1.668.986-2.042.409-.264.743-.155 1.096.387.329.53.89 1.73.89 1.73s.02-1.23.21-1.863c.156-.503.496-.79.93-.806zm2.618.292 2.484.787.976 3.117-2.78-1zm141.727.806s.713.28 4.102 2.772c.847.623 2.277 1.816 2.277 1.816l-.16 40.653s-6.686-3.349-7.551-4.142c-.462-.456-.236-1.732-.07-4.05.8-6.086 1.129-10.751 1.986-16.384.604-6.28 1.916-8.08-2.635-10.75 4.91-2.834 3.533-7.256.46-9.102zm-39.977.092-.453 1.859c-1.62 2.546-3.064 2.413-5.532 1.228l-2.962-2.332c1.919.372 2.95.941 4.826 1.49.93.239 1.272.087 1.929-.455a87.713 87.713 0 0 1 2.192-1.79zm-21.995.942c1.004 1.014 1.264 2.012 1.173 4.476-.197 1.753-.114 3.058-1.675 4.038-.762.46-2.078.458-2.665 0-1.409-.873-.628-2.616 1.22-2.698 1.167-.017 1.654-3.534.996-5.733-.102-.341-.075-.565.108-.58.183-.016.524.174.843.497zm31.522-.082c.227-.002.626.534.862 1.408.342 1.265.824 1.976 1.581 2.334.97.459 1.283 1.338.661 1.856-1.238 1.03-2.499-.21-2.9-2.85-.018-.3-.58-2.72-.204-2.748zm26.534.476c2.757.044 4.313 1.827 4.306 3.985-.034 1.555-.957 3.136-2.655 3.79-4.05 1.093-6.256-1.412-6.213-3.845.035-1.963 1.806-3.974 4.562-3.93zm-55.65 1.323c2.315 2.144 2.41 6.72.14 6.717-2.72-.836-.594-2.316-.541-2.7.216-1.577-.174-2.588-.57-4.061-.175-.87.716-.211.97.044zm55.796-.12c-.486-.013-.452.439.438 1.149 1.614 1.288.818 3.658-1.23 3.665-.944.003-1.177.59-.354.896 3.178 1.184 5.357-3.273 2.51-5.136-.593-.389-1.072-.564-1.364-.573zm-121.607.407c2.558.809 3.432 5.31 3.526 6.897.11 2.762-1.293 7.275-2.538 8.176-3.223 2.33-4.716-5.93-1.952-11.242.242-.435.544-1.023.433-2.109-.11-1.077.089-1.715.531-1.722zm84.56.569s-.325 1.348-.67 2.085c-.397.853-.689.88-1.61.149-.514-.407-1.364-1.249-1.364-1.249.804.117 1.521.503 2.204.193.73-.332 1.318-.954 1.44-1.178zm9.712.086c.182.006.413.476.719 1.408.837 2.55 1.572 3.51 2.689 3.511 1.828.003 2.223 2.036.496 2.554-.64.193-.856.19-1.673-.012-1.23-.305-2.908-4.142-2.663-6.093.115-.917.25-1.374.432-1.368zM51.065 125.01c.672-.014.935.292 1.328 1.045.447.858 1.623 1.95 2.62 2.426 2.4 1.094 4.93 1.95 7.302 3.047 3.076 1.432 5.827 5.807 3.937 6.26-.685.144-1.473.15-2.174.09-.229-.11-.675-.589-.99-1.068-1.4-2.122-4.023-4.203-8.072-5.18-2.854-.69-5.406-3.94-5.953-5.467-.142-.395-.148-.705.237-.806.813-.215 1.362-.338 1.765-.347zm86.827.403c.127-.02.314.131.597.411 1.697 1.68 1.902 4.758.373 5.627-1.657.942-3.104-.622-1.802-1.948.574-.584.574-.583.578-2.34.002-1.21.041-1.719.254-1.75zm24.74 1.993c.205.008.51.529.877 1.554.522 1.455.594 1.57 1.194 1.857 1.014.486 1.177 1.212.43 1.898-1.39 1.28-2.786-.786-2.784-4.12 0-.802.104-1.196.284-1.19zm-22.22.195c.127.011.479.268.753.568 2.078 2.283 1.649 7.618-.676 8.415-.776.266-1.012.28-1.494.087-1.73-.694-1.516-2.38.62-3.449 1.598-.798.47-5.6.797-5.621zm-106.474 1.512 8.59 3.95s2.349 4.583 3.43 6.302c.743 1.192 2.232 2.344.69 3.135-2.59 1.614-4.058 2.534-4.037 3.539.017.813 1.11 1.643 2.582 3.246 2.113 2.303 2.093 1.773.164 5.278-1.479 2.457-2.742 8.024-2.742 8.024l-8.693 4.116c2.596-5.692 5.648-10.535 9.065-13.994a39.171 39.171 0 0 1-6.873-5.954c1.643-2.023 3.81-3.656 5.81-5.414-4.048-4.237-6.58-8.3-7.986-12.228zm108.738.244a.236.236 0 0 1 .046 0c.361.022 1.183.85 1.904 2.179.932 1.715 1.018 3.874.186 4.64-1.435 1.319-3.297-.383-1.956-1.788.946-.631.692-2.207-.049-3.846-.342-.787-.336-1.155-.13-1.185zm-109.69.595c2.228 4.39 4.723 7.961 7.281 11.344l-5.605 5.41c1.719 1.847 3.803 3.832 6.729 6.137-3.605 3.687-5.976 8.853-8.348 13.731zm128.685.299c.194.013.468.545.748 1.615.355 1.349.599 1.694 1.45 2.032 1.352.537 1.38 1.744.051 2.176-.487.158-1.397-.295-1.773-.886-.495-.844-.748-1.979-.74-3.017-.077-1.285.044-1.936.264-1.92zm31.022.861c2.114.55 2.875 2.508 2.455 6.13-.561 4.845-1.22 10.235-1.757 14.686-.617 5.135-.974 7.802-1.11 8.003-.43.64-.496-1.773-.18-4.456.48-3.834.748-7.192 1.156-11.024.915-8.524.7-11.22-.969-12.009-1.291-.61-1.848-.253-.896.58 1.817 1.296 1.758 1.838-.228 22.83-.204 2.171-.288 3.709-.288 3.709l-2.468-1.42s-.18-1.8-.406-4.518c-.548-5.119-.863-10.576-1.223-15.483-.387-5.235.679-7.065 4.198-7.187.562-.019 1.186.024 1.716.16zm-45.396 2.97c.268.694 1.484 5.858-1.652 4.37-.835-.436-.88-1.118-.261-1.78.691-.74.855-1.805.512-3.327a23.47 21.659-.018 0 0-.462-1.693c.605.205 1.793 2.249 1.863 2.43zm-93.336-1.767c2.655.47 5.569 1.903 7.446 3.694 1.163 1.146 1.103 2.067-.72 2.171-1.757.236-1.795.499-2.632-.172-.377-.273-1.108-.942-1.944-1.062-2.649-.383-3.992-4.957-2.15-4.631zm107.181 1.522c.28.416.307 1.232.539 1.818.393 1.636 1.607 2.849 2.7 2.7.735-.081 1.748.125 1.855.937.212.686-.179 1.335-.985 1.631-.91.335-1.935.127-2.71-.547-1.631-1.42-2.62-6.047-1.399-6.54zm-12.772.044c.951.338 2.161 3.154 2.287 5.386-.007 1.599-.278 3.609-1.773 4.368-.95.451-1.93.224-2.357-.542-.524-.939-.132-1.908.956-2.358 1.33-.551 1.767-3.039.962-5.47-.045-.404-.708-1.553-.075-1.384zm-101.436 1.006 7 3.287c-1.021 1.283-1.825 2.473-2.38 3.829-2.222-2.335-3.385-4.712-4.62-7.116zm104.065 1.287c.12-.002.523.353.875.669 1.746 1.566 2.494 4.404 1.437 5.44-.846.828-2.323.768-2.568-.104-.088-.427.405-1.225.622-1.608.324-.57.386-2.201-.1-3.394-.219-.535-.421-1-.266-1.003zm-48.682.567 7.918.262 26.482 22.09-2.49-.056-24.333-20.533-7.585.007zm-45.623 3.899c-3.032 4.428-3.867 10.016-2.02 14.985 1.402 3.525-1.675 3.73-2.933 1.408-.967-1.737-1.52-4.76-1.218-7.975.423-5.2 3.035-10.418 5.12-11.042 2.115-.633 1.646 1.917 1.05 2.624zm108.665 10.842c-.812 3.467-2.305 5.19-4.42 5.907-8.666 2.938-12.407-13.186-4.366-17.027 7.66-2.336 9.857 6.542 8.786 11.12zm-63.53-10.631 7.467.153c6.797 5.725 14.104 11.068 21.376 18.027l-3.524-.005-1.272-1.121c-6.574-5.438-11.443-9.876-17.78-14.93l-6.665-.18zm56.97 1.153c-4.037.145-4.376 5.192-4.259 7.105.289 2.755 1.471 6.828 5.261 6.513 2.782-.251 4.074-3.288 3.827-6.938-.232-3.434-1.744-6.678-4.828-6.68zm-57.656 1.583 6.552.148c5.763 4.654 11.858 9.71 17.913 15.288l-2.86-.005s-.745-.658-.97-.87c-4.902-4.104-9.885-8.677-14.64-12.366l-6.796-.256Zm57.76.29c1.146.394 1.333 2.971.33 4.037-.687.73-2.261-.657-2.4-2.402-.084-1.064 1.04-1.989 2.07-1.634zm-108.289.15c-.53 1.665-.88 3.537-1.1 5.563l-2.735-3.219zm110.364 3.276a1.212 1.118-.018 0 1 1.21 1.12 1.212 1.118-.018 0 1-1.214 1.117 1.212 1.118-.018 0 1-1.21-1.12 1.212 1.118-.018 0 1 1.214-1.117zm-55.05.474 13.036 11.349-3.719.032-10.693-8.976-6.797-.247 1.334-2.136zm50.783.274a1.212 1.118-.018 0 1 1.21 1.12 1.212 1.118-.018 0 1-1.214 1.118 1.212 1.118-.018 0 1-1.21-1.121 1.212 1.118-.018 0 1 1.214-1.117zm15.544.048c7.35 5.292 17.728 12.313 28.51 18.01 0-.02-1.78 1.287-3.42 1.699-8.392-4.287-18.375-10.331-24.557-15.228-5.86 7.93-17.114 22.356-27.107 29.008-6.306 4.148-9.488 9.268-9.481 15.26.006 6.197 2.37 10.234 8.967 15.32 4.255 3.281 8.906 7.468 8.906 7.468l-2.454 1.945c-.408-.046-7.138-5.417-13.946-11.747-3.74-3.478-5.394-11.102-4.748-15.215.879-5.592 2.906-9.597 8.66-13.906 2.21-1.572 4.44-2.793 6.388-4.582 17.886-17.594 24.282-28.032 24.282-28.032zm-11.954 2.86c.673 1.282 1.04 2.962-1.075 3.072-1.253.065-1.967-1.862-.878-3.575.825-1.348 1.554-.198 1.953.504zm-62.91-.439 7.048.205s6.94 5.602 10.443 8.706l23.61.037c12.983.02 23.655.086 23.716.142.161.15-1.683 2.423-1.683 2.423l-77.866-.08c.016-.012 4.818-3.944 6.536-5.046 3.044-1.951 5.834-3.769 8.196-6.387zm-47.72 2.629c.506 1.736.93 3.505 1.806 5.105l-5.411 2.64c.998-2.64 2.14-5.178 3.605-7.745zm150.099 14.663c-1.08 2.698-3.9 8.203-7.302 12.373-.676.8-1.139 1.424-1.139 1.424l6.613 5.863-5.76 5.631c3.223 3.106 5.944 7.86 7.374 11.642-2.606-.954-4.07-1.531-7.283-3.188-.905-2.106-1.828-4.339-2.847-6.263-2.338-4.39-2.306-3.962-.389-5.25 2.808-1.885 3.644-2.321 2.917-3.275-.511-.67-3.812-4.3-4.012-4.415-.304-.174-.167-.71.397-1.566 1.923-3.174 3.5-6.673 4.484-9.783zm1.252.223.103 36.883c-2.363-4.41-4.823-8.915-7.567-11.732-.104-.192 6.01-5.683 6.01-5.683-2.233-1.916-3.54-3.061-6.658-5.722 3.05-4.042 5.47-9.329 8.112-13.746zm-167.974 1.013 7.587 4.08c-.412 5.202-.931 12.03-1.723 18.958-.663 5.405-.937 7.896.099 9.398.877 1.098 3.247 2.29 3.247 2.29-3.997 1.485-5.545 5.883-1.075 9.183 0 0-1.088.787-1.572 1.262l-6.222-4.31zm118.857 2.053c-1.897 1.955-4.871 4.853-7.152 6.238-3.042 1.847-7.314 5.395-7.11 5.45 0 0-4.47-.028-7.498-.144l-10.427-8.617s.373-.126-13.84-.04c-18.37.11-33.256-.1-33.256-.1l2.092-2.702zm37.227 1.749c-1.035 3.048-2.635 5.863-4.66 8.503-.465-1.876-.718-3.866-1.693-5.46zm-147.535.743.909.6s-.555 6.364-.737 8.226c-.327 3.441-.49 6.542-.822 10.048-.668 6.96-.56 7.986.918 9.064 1.138.788 1.915.432.906-.565-.663-.79-.66-.775-.86-1.937-.139-.807-.114-2.011.092-5.277 1.163-18.39 1.398-19.009 1.422-19.014l2.268 1.358c-.127.282 2.045 18.541 1.812 23.079-.273 5.306-8.01 4.122-8.37.183-.15-.905 1.348-15.803 1.348-15.803zm63.128 1.171 3.038.085 18.71 15.927 6.388.138-.562 2.005-6.173-.024zm11.62.019 2.942.004 10.708 8.99 6.603.105-1.262 1.725-6.566-.185zm-3.661.003 15.83 13.218 5.405.268-.837 1.802-6.408-.175-17.786-15.086Zm-15.288.023 3.294.006 24.746 20.632 6.495.12-.1 1.854-7.82-.046zm83.409.718c1.307.305 1.95 1.476 2.863 5.815 1.066 5.06-1.28 13.269-4.202 14.805-1.512 1.093-3.153-.072-2.084-1.5 3.492-4.662 3.966-12.3 1.914-16.574-.65-1.374.025-2.795 1.509-2.546zm-105.16.593c7.92.1 9.938 15.113 2.143 17.206-5.062.681-7.66-3.55-8.387-7.366-.856-4.741 1.416-9.9 6.244-9.84zm-4.37 8.998c.467 3.009 2.482 6.457 5.422 6.167 3.866-.381 4.36-5.142 3.982-7.54-.457-2.893-2.18-5.517-4.94-5.666-4.116-.222-4.824 4.717-4.464 7.039zm4.257-5.836c1.105-.015 1.916 1.348 1.61 3.038-.197 1.093-.65 2.44-1.982 1.522-.62-.523-1.173-2.057-1.021-3.203.1-.753.503-1.337 1.393-1.357zm109.202 3.643 3.71 3.975-4.23 2.726c.599-2.088.799-4.308.52-6.701zm-106.514.19c.67 0 1.211.506 1.21 1.125a1.212 1.118-.018 0 1-1.214 1.116 1.212 1.118-.018 0 1-1.21-1.12c.001-.618.544-1.123 1.214-1.122zm-4.338.682a1.212 1.118-.018 0 1 1.21 1.12 1.212 1.118-.018 0 1-1.215 1.117c-.67-.001-1.216-.503-1.215-1.12.001-.619.55-1.118 1.22-1.117zm2.452 1.448c.609.171.997.689 1.322 1.138.81 1.114.913 2.512.335 3.096-1.167 1.276-2.984-.093-2.761-2.065.163-1.445.58-2.316 1.104-2.17zm10.374 4.397c1.74.002 2.226 1.896.726 2.819-.975.6-1.195 2.556-.598 5.266.484 1.958.228 2.26-1.034.494-2.155-3.2-1.587-8.583.906-8.58zm-4.068 1.022c1.526-.051 2.013 1.025 1.122 1.847-.523.533-.473 1.942.106 3.101.82 1.68.626 2.186-.911.57-2.124-2.103-2.085-5.459-.317-5.518zm100.83.977c1.726 2.126 3.254 4.899 4.649 8.04l-7.498-3.193zm-109.664 8.362c-.53-.568-.784-2.405-1.218-3.19-.336-.943-.63-1.492-1.18-1.462-3.172.243-3.032-2.554-1.211-3.08 3.769-1.087 5.126 7.307 3.609 7.732zm15.735-2.798c-.54 1.465-.15 2.343-.042 3.91.093.71.132.898-.5.352-1.502-1.214-2.293-5.347-.937-6.11 1.823-1.027 2.372.712 1.479 1.848zm75.176-1.842c.736-.03 1.57.5 1.982 1.471.592 1.399.53 4.824.227 6.647-.465 2.79-1.2 5.352-1.502 7.27-1.064 1.164-3.672-2.96-3.911-6.212-.407-2.58.566-7.935 2.718-9.063a1.247 1.15-.018 0 1 .486-.113zm10.13.456c.657-.027.507.177.992.648.738.714 1.037.888 2.08 1.192 2.15.628 4.511 3.4 3.598 4.24-.721.527-2.68-.472-3.35-.685a455.56 420.405-.018 0 0-1.998-.636c-1.802-.564-4.39-3.637-3.583-4.253.433-.33 1.749-.486 2.26-.506zm-5.247.5c1.333.015 1.696.322 2.457 1.647 1.126 1.964 3.224 3.352 6.273 4.154 3.891 1.103 7.247 3.191 7.076 7.05-.93.007-1.859.062-2.788.322-1.073-2.8-3.751-4.41-6.058-4.896-5.321-1.124-10.252-6.115-8.843-8.09.615-.289 1.273-.194 1.883-.186zm-91.825.1 45.915 37.031c-19.393-6.675-37.198-6.56-54.417-4.131zm19.607 2.478c-.088 1.151-1.8 1.394-2.154 1.678-.861.688-.75 2.68-.387 5.005.278 1.395-.098 1.333-.89.24-1.405-1.938-1.37-5.294-.432-7.27 1.207-2.544 3.987-1.264 3.863.347zm-26.441-1.851c1.763.172 2.244 2.387 2.314 3.855-.003 2.023-.625 1.946-.971-.002-.166-.863-.455-1.198-1.21-1.408-1.714-.477-1.822-2.448-.133-2.445zm21.365 2.295c-.453.458-.468 2.602-.06 4.045.227.797-.194.858-.777.225-1.899-2.062-2.067-5.554-.3-6.226 1.438-.343 1.808 1.277 1.137 1.956zM72.4 203.439c.04 2.055-.47 2.244-1.136.272-.17-.458-.475-.92-.693-1.058-1.25-.793-1.47-1.41-.743-2.078 1.785-1.34 2.55 2.253 2.572 2.864zm6.725-1.802-6.282 24.53c15.348-1.163 22.32-1.401 38.71 1.58zm18.59.436c.939.218 1.26 1.349.165 2.417-.36.422-.695 1.076-.261 2.811.594 2.375-.413 1.614-1.636-.63-.783-1.436-.415-5.099 1.733-4.598zm-29.353.028c1.668.003 3.208 2.503 3.228 5.235.013 2.209-.327 2.049-1.212-.063-.623-1.396-1.127-1.903-2.262-2.27-2.102-.678-1.915-2.905.246-2.902zm11.267.726 28.833 23.335c-11.822-1.763-23.431-1.916-34.708-.626zm24.032.916c2.265.004 3.152 2.588.372 3.487-1.656.536-.956 3.626-.655 5.462.113.692-.123.74-.599.122-1.74-2.38-2.704-8.373.882-9.07zm-3.064 2.898c-.412.598-.46 1.24-.179 2.398.73 2.492.92 2.953-.612 1.684-1.61-1.577-2.31-4.697-.956-5.618 1.521-1.035 2.888.118 1.747 1.536zm-57.061-2.013c2.68-.013 4.625 1.591 4.518 3.824-.118 2.46-1.79 4.008-4.242 4.133-2.737.124-4.424-1.894-4.48-3.982-.05-1.844 1.225-3.96 4.204-3.974zm-.048.988c-3.068-.014-4.224 3.717-1.688 5.444 1.087.74 1.948.534 1.054-.253-1.684-1.482-1.001-3.927 1.22-4.373 1.1-.221.674-.812-.586-.818zm37.351.692-3.724 16.524c7.556-1.072 16.695-.727 23.747-.104zm-12.44.608c1.837-.083 2.37 2.468 2.382 3.482 0 1.313-.17 1.996-.431 1.294-.615-1.656-1.223-2.566-1.887-2.567-.36-.086-.668-.22-.957-.52-.651-.798-.017-1.657.893-1.689zm12.78.681 2.431 1.91c-1.565-.635-2.902 1.002-2.902 1.002zm25.051 3.16c-.707.819-.706 2.549-.162 4.564.152.564-.417.145-.991-.526-1.087-1.269-1.596-2.754-1.396-3.972.225-3.078 4.456-2.472 2.55-.066zm-38.51-1.534c1.575.167 2.164 3.204 2.124 4.124-.053.962-.292 1.61-.497 1.026-.403-1.27-1.238-3.094-1.963-3.513-1.243-.718-.89-1.538.336-1.637zm120.63 3.593c.054 1.071-.43 2.167-1.146 2.518-.731.36-1.176-.13-1.61-1.364-.319-.908-.431-1.257-.431-1.257s-.273 1.135-.36 1.372c-.572 1.574-2.427 1.586-3.2-.175-.823-2.054 1.49-4.153 3.266-4.075 1.968.086 3.38 1.26 3.482 2.981zm-105.232-2.46c.553.002 2.699.892 2.699.892l2.134 1.75s-1.964-.791-2.657-1.019c-1.655-.543-1.62-.547-2.958.458-1.378 1.035-2.51 1.794-2.51 1.794l.43-2.241s2.016-1.635 2.862-1.633zm-14.04 5.487c.31 2.37-.408 2.568-1.1.305-.594-1.939-1.18-2.645-2.195-2.647-1.868.254-2.492-2.304-.813-2.814 3.169-.816 3.974 4.22 4.108 5.156zm108.543-5.025 2.918 1.256.614 2.79-2.69-.618zm-65.457.153c2.813-.714 3.154 2.515.998 2.988-1.316.29-1.312 2.17-.943 4.902.085.623.265 1.379.223 1.483-.201.493-.869-.262-1.766-2.014-1.338-3.194-.912-6.748 1.488-7.359zm80.346.088-.82 3.227-2.47-.16-.088-1.977zm-83.234 1.967c-1.357 1.806-.144 3.477.153 4.893.052.822-1.097.016-1.758-1.184-1.377-2.502-1.453-4.52-.209-5.42 1.742-.937 2.538.747 1.814 1.711zm-25.344-.483c.478.006 1.125.246 2.484.731a320.72 320.72 0 0 1 3.414 1.266l3.151 2.577s-2.769-.947-4.697-1.702c-4.341-1.7-3.717-1.754-7.157.654-.992.695-2.028 1.489-2.028 1.489l.423-2.067s1.3-1.187 2.92-2.26c.698-.463 1.012-.693 1.49-.688zm-40.418.913c2.223-.053 3.682 1.581 4.213 3.405.307 1.057.038 2.031-.026 3.045-1.556 10.85-2.25 20.92-3.681 30.967-.174.479-.363.3-.587-.563-1.617-9.114-2.661-19.116-4.017-28.147-.308-3.372-1.243-7.782 3.382-8.637a4.444 4.1-.018 0 1 .716-.07zm-.135 1.204c-.981.034-2.142.654-2.556 1.454-.844 1.634-.63 4.964.949 14.945.131.83.313 2.218.403 3.083.275 2.65.652 4.755.926 5.146.521.745.59-.054.22-2.647a161.195 161.195 0 0 1-.57-4.495c-.709-4.733-.858-8.101-1.295-12.42-.219-2.123.71-3.686 2.447-4.107.941-.228.992-.619.115-.883a1.977 1.977 0 0 0-.64-.076zm147.046.366c3.248.012 4.434 4.21 1.253 5.684-1.18.547-3.158.286-3.648-.592-.236-.683.03-1.08.62-1.368.718-.351 1.77-.652 1.77-.652s-1.719-.31-2.202-1.062c-1.041-1.622.877-1.982 2.207-2.01zm-122.198 4.332c-.038.79-.475.464-.583-.001-.348-1.053-1.076-2.196-1.688-2.65-.739-.55-.914-1.295-.41-1.757 1.887-1.534 2.672 3.915 2.681 4.408zm110.192-4.363c.832-.02 1.962.242 2.676.903.921.853.87 1.173-.677 1.69-.752.257-1.27.456-1.27.456s.698.255 1.216.389c1.482.459 1.402 1.253.038 2.19-1.857 1.274-4.834-.427-4.794-2.676.031-1.783 1.224-2.912 2.811-2.952zm6.856-.002 2.96 3.021-3.473 3.308-3.257-3.309zm-100.81.124c.041-.002.082 0 .127 0 .92.017 2.385.592 5.98 1.935 1.976.738 4.258 1.579 4.258 1.579l3.232 2.648s-4.433-1.292-5.975-2.015a21.493 21.493 0 0 0-1.635-.645c-.565-.197-1.965-.705-3.113-1.133-2.467-.92-2.495-.927-3.324-.284a60.88 60.88 0 0 1-1.93 1.394 1380.652 1274.11-.018 0 0-2.295 1.601 26.11 26.11 0 0 0-1.48 1.15l.526-2.548s.467-.42 1.301-1.008l2.56-1.804c.745-.524 1.133-.844 1.767-.87zm31.834 2.287c.09.531.036.633-.627 1.255-.836.785-.953 2.074-.345 3.747.168.461.373 1.008.327 1.05-.884.813-3.197-4.332-2.64-5.863.667-1.831 2.848-1.855 3.285-.189zm-50.918.141c.608-.025 1.313.402 1.665 1.287.956 2.475.363 5.509-.613 2.68-.254-.599-.692-1.242-1.025-1.569-.344-.338-1.117-.73-1.098-1.28.077-.722.535-1.095 1.071-1.118zm19.85.103c.39.012.909.192 1.84.545.843.32 3.216 1.054 4.565 1.537a66.37 66.37 0 0 1 4.283 1.74l-4.746-.254s-1.612-.498-2.57-.863c-3.475-1.324-3.281-1.316-5.013-.107-.62.432-1.399 1.13-1.399 1.13l-2.414.12s1.137-1.116 2.776-2.234a45.12 45.12 0 0 0 1.624-1.158c.408-.313.665-.468 1.055-.456zm37.133.922c1.321-.229 2.043.935 1.958 1.66-.093.794-.895 1.585-2.126 1.804-.26.888-1.002 2.916-.578 5.942.344 1.419-.306 1.449-.967.088-1.07-2.204-2.624-8.742 1.713-9.494zm-3.776 2.42c-.562 1.105-.758 1.995-.451 3.389.34 1.55.412 1.931-.539.962-1.843-2.276-2.105-5.894-.402-6.307 1.644-.398 2 1.248 1.392 1.956zm-55.368-1.782c2.882.426 3.723 4.96 3.316 6.897-.768 2.344-.727.76-.991-.22-.706-2.361-1.524-3.648-2.402-3.784-2.364-.366-2.027-3.203.077-2.893zm22.094.927a.624.624 0 0 1 .138.01c.948.148 3.487.875 2.391 1.118l-3.749.013c-.728.023.476-1.093 1.22-1.14zm100.952.902c.364-.03.859.364 1.44.913 1.332 1.256.743 3.232-1.061 4.204-2.832 1.525-6.047-1.364-4.488-4.01.855-1.452 1.879-1.191 2.75.861.159.25-.002-.256.298-.88.3-.62.697-1.058 1.06-1.088zm-4.747.138-.855 3.152-3.45 1.524 1.266-3.883zm7.17.55 2.746.207 1.517 4.1-3.956-1.564zm-64.905 2.212c1.998.08 2.197 1.821 1.049 2.581-.644.567-.868 1.39-.737 2.704.059.584.183 1.3.177 1.383-.02.28-.271.236-.614-.11-2.105-2.125-1.816-6.635.125-6.558zm-60.431.586c1.266.002 2.695 3.352 1.986 4.631-.446.75-.875.565-1.036-.308-.12-.635-.513-1.505-1.533-1.662-1.483-.44-.996-2.663.583-2.661zm64.078 2.127c.966.463 1.055 1.49.18 2.063-.678.444-.858.82-.965 2.028.216 2.748-1.454 1-1.606-1.499-.083-1.36.718-3.379 2.391-2.592zm-65.147.741c.908.002 1.985 1.508 1.744 2.387-.129.698-.525.574-1.079.054-.215-.155-.696-.315-.921-.378-1.36-.382-1.128-2.065.256-2.063zm25.821 1.197c12.282-.033 25.054 1.786 35.665 5.717l-.878 1.447-2.786-.887-.96 2.33 2.294.811-1.083 2.15c-12.525-3.823-26.035-6.677-48.5-3.645-1.114-.718-3.127-2.133-3.127-2.133l1.796-.361-.23-2.304-4.539.739-1.322-1.281c7.095-1.668 15.267-2.56 23.67-2.583zm41.193.571c1.176.004 1.904 1.223 1.04 1.743-.604.365-1.946.462-2.215.162-.555-.62.237-1.908 1.175-1.905zm-42.93 1.357-.056 2.388 3.703-.102.081-2.266zm6.47.062.01 2.346 3.596.115.173-2.299zm-9.406.146-3.637.216.108 2.19 3.606-.14zm16.259.39-.097 2.26 3.656.379.27-2.299zm-23.027.071-3.658.424.308 2.252 3.555-.358zm30.093.78-.362 2.36 3.41.472.445-2.241zm6.76 1.332-.343 2.383 3.467.685.47-2.213zm-24.551 2.708c11.514.006 22.004 1.853 30.837 4.967 0 0-1.15 2.277-1.555 2.523-6.337-2.346-17.14-4.535-24.444-4.664-2.676-.096-3.27-.163-4.254-.48-5.563-1.697-10.476-2.436-15.012.052l-1.85-1.21a112.943 112.943 0 0 1 16.278-1.188zM40.31 249.55c2.634.032 3.88 3.76 1.095 5.321-.747.388-1.728.335-2.517.005-2.252-.994-2.414-4.088.215-5.097a3.256 3.256 0 0 1 1.207-.23zm86.06.26c.941.532 4.42 1.96 4.42 1.96l-24.532 40.756-5.917.033zm-78.873-.03c1.466-.148 2.504 1.014 2.88 1.985.513 1.325-.416 3.675-3 3.536-2.962-.16-4.28-5.075.12-5.52zm84.09 2.256c.656.334 3.03.7 3.236 1.124.089.211-.092.627-.145 1.165a5.699 5.699 0 0 0 1.066 3.887c1.39 1.789-.117.965-1.51.95-3.142-.745-7.155 3.2-5.64 7.27.35.9.28.972-1.405 1.442-3.826 1.068-5.5 4.81-3.67 8.156.954 1.744.982 1.656-.702 1.782-4.679.351-7.403 4.177-5.447 8.096.303.606.11.773-.912.947-3.195.536-4.63 2.998-5.039 5.703l-4.225.031zm4.049 1.446 8.113 2.057c-3.391 10.57-3.88 22.857.148 37.076l-18.663-.016c2.596-2.143 1.578-5.11-1.45-5.769 2.943-1.553 2.952-5.698-.57-6.201-3.097-.443-4.702 2.272-3.331 4.998l-1.324.33s-.591-.688-.727-1.054c-1.162-3.146 1.29-6.262 5.46-6.245 2.571.01 3.105-.66 1.686-2.122-2.535-2.611-1.729-6.275 1.591-7.712 1.529-.66 2.429-.22 2.429-.22l.075 1.728s-.62.055-1.101.124c-3.666.535-2.996 5.926.728 5.885 2.05-.022 3.519-1.454 3.523-3.514 0-.58.006-1.433.006-1.433 1.876 2.975 5.11 3.192 6.49.777 1.627-2.844-1.31-4.637-4.26-4.348 0 0 .62-.37 1.011-.555 3.143-1.485 2.07-5.744-1.403-5.75-2.382-.003-3.776 2.038-3.012 4.205.122.348.413.906.413.906l-1.418.33s-.321-.228-.465-.436c-2.425-3.511 1.488-7.368 6.406-6.484 1.8.523 1.744-.626.735-1.665-1.085-1.499-1.893-3.195-1.09-4.892zM43.9 254.865l4.247 6.936-4.787 7.974-4.717-7.484zm-.427 3.606-2.963 3.752 2.886 4.32 2.756-4.363zm-.13 1.411 1.919 2.382-1.945 2.919-1.892-2.746zm88.03 7.626c.896.001 1.625.672 1.623 1.499-.001.826-.733 1.495-1.629 1.493a1.62 1.496-.018 0 1-1.619-1.499 1.62 1.496-.018 0 1 1.625-1.493zm-11.506 18.767c.928.002 1.68.695 1.68 1.55-.002.857-.758 1.553-1.686 1.551-.928-.001-1.677-.699-1.675-1.555.002-.857.753-1.547 1.68-1.546zm-2.546 1.051c-.153.06.001 1.407.367 1.965-2.423.133-3.068 1.843-3.306 3.287l-2.171-.01c.37-4.882 4.956-4.985 5.11-5.242z" />
</svg>
