<svg xmlns="http://www.w3.org/2000/svg" width="167" height="251.6" viewBox="33.4 40.8 167 251.6">
  <path fill="#d40000"
      d="M125.095 292.933c.597-7.93.114-16.447.517-22.902-.265-.456.693-1.707.743-1.707-.566-.96-.752-3.417-.03-5.596 5.649-19.772 15.841-35.15 26.337-49.488 8.47 23.738-18.294 40.34-23.954 61.06-1.889 7.176-1.617 12.189-2.349 18.672zm-44.445.23-31.717-45.496 6.912-3.098 32.598 48.448Zm41.291-84.118c.279 1.305 1.387 2.007 2.566 1.412 1.154-.583 1.288-.622.568.406-1.59 2.268 1.617 4.472 3.68 2.526.734-.691.859-1.818.195-2.392-.75-.647-.913-.982.194-.488 2.78 1.046 4.32-2.674 1.627-3.931-.695-.324-2.05-.04-2.56.45-.616.593-.703.385-.538-.075.098-.273.167-.715.4-1.241.183-.413.314-.977.314-.977l-2.843.023s.23.603.46 1.11c.219.478.301.835.407 1.034.382.715-.078.45-.845-.08-1.084-.749-2.445-.541-3.221.44-.287.577-.527 1.178-.404 1.783zm4.175-36.965 6.113-.158 6.69 17.172c-5.395 8.254-6.863 17.571-.62 27.028l-19.387-.003c4.574-14.227 5.305-29.323 7.204-44.04zm6.35 22.34a1.88 1.88 0 0 0 .183-2.73c-.938-1.034-.722-1.086.537-.41 1.818.975 3.563-1.125 2.492-2.987-.68-1.182-2.884-1.447-3.73-.398-.704.874-.624.073-.081-1.09.2-.428.486-1.23.486-1.23l-2.963.051s.381.777.584 1.275c.539 1.323.56 1.742-.272.89-1.806-1.408-3.928-.393-3.952 1.625.016 1.552 1.535 2.55 2.867 1.827.81-.439 1.173-.544.26.467-.63.963-.407 2.193.422 2.771 1.135.638 2.352.604 3.167-.062zm-40.963 5.28c.239-.162.326-.055.18.163-.125.187-.444.451-.717.731-1.386 1.42.4 3.231 2.63 2.955 1.517-.188 2.411-2.393 1.292-3.267-.363-.225-.648-.268-.922-.575-.022-.123.04-.206.174-.157.198.077.601.38.805.43 1.41.357 2.475-.18 2.834-1.1.229-1.064.013-2.208-.927-2.808-.873-.544-2.166-.39-2.921.534-.773.946-.878.045-.245-1.262.238-.49.401-1.186.401-1.186l-2.723.13s.144.541.382 1.165c.603 1.424 1.036 1.833.264 1.096-3.324-1.818-4.433.645-4.49 1.625-.106 1.846 2.797 2.897 3.983 1.526zm13.37-27.81 4.915.023c-3.74 18.219-11.361 33.473-24.157 43.959l-24.043-.108-11.571-7.512 4.484-5.368c30.518 2.959 43.543-11.019 50.373-30.995Zm-22.198 42.213c1.44-.585 2.04-2.09 1.09-3.103-.858-.916-.945-1.202.375-.487 1.767.956 3.48-.944 2.616-2.807-.537-1.16-2.237-1.52-3.463-.735-1.077.741-1.056.41-.492-.762.28-.58.496-1.51.496-1.51l-3.013.035s.216.662.435 1.117c.5 1.044.682 1.523.448 1.525-.113 0-.484-.318-.702-.503-.599-.511-2.238-.61-2.848-.073-1.806 1.588-.796 4.373 1.499 3.863 1.482-.33 1.821-.85.592.437-1.515 1.586.823 3.874 2.967 3.003zm-19.001-.584c1.247-.54 1.666-1.869.97-2.728-.7-.865-1.047-1.422.2-.642 1.659.775 3.111-.248 3.093-1.994-.018-1.83-2.237-2.686-3.872-1.587-.276.185-.616.352-.677.353-.199.002.165-.987.563-1.634.173-.28.478-.853.478-.853l-3.013-.111s.167.76.403 1.344c.477 1.187.594 1.583-.246.907-2.262-1.962-4.683.529-3.733 2.684.502 1.213 2.048 1.215 2.962.61.829-.592.404.195-.165.82-1.55 1.706.714 3.831 3.037 2.831zm137.66-45.47.151 3.37-38.986 29.948-1.628-2.316zm-144.806 6.075c5.612-3.68 11.859-10.294 18.02-13.736 4.477 9.565-6.086 18.919-18.02 13.736Zm102.872-2.25c-5.604-17.914 21.022-16.679 17.672-12.882ZM32.875 159.97l38.592-29 1.746 2.447L32.5 164.16Zm105.623-29.144c.108.303 1.271 1.463 1.273 1.569-.332-.23-2.31-1.26-3.278-.264-.339.364-.77 1.237-.725 2.14.402 1.62 2.393 2.195 3.81 1.089.408-.319.759-.705.841-.569.072.119-.152.675-.334 1.115-.21.452-.988 1.402-.425 1.402h2.737s-.1-.594-.426-1.25c-.61-1.227-.583-1.893.154-1.009 1.434 1.723 4.224.293 3.936-1.77-.207-1.489-1.835-2.343-3.035-1.635-.131.077-.516.43-.571.431-.147.006.256-.561.522-1.032.886-1.564-.43-3.016-2.446-2.863-.652.049-1.366.428-1.37.481-.759.565-.885 1.54-.663 2.165zm33.3-14.526c3.85 3.287 7.7 5.698 11.552 7.805l-3.648 5.308c-24.655-2.152-42.605 6.837-50.133 31.274l-4.066.717c1.557-15.249 7.11-30.364 23.473-45.117Zm-23.64 3.61c.005.724 1.44 1.586 1.12 1.785-.147.072-1.001-.618-1.394-.657-2.846-.284-3.444 3.81-.624 4.274.555.091 1.701-.226 2.042-.484.452-.342.766-.624.859-.592.172.058-.223.788-.533 1.328-.289.502-.692 1.486-.692 1.486 1.128.19 2.217.235 3.236.019 0 0-.291-.856-.581-1.509-.371-.834-.449-1.362-.199-1.306.108.024.23.285.456.466 1.4 1.115 3.458.643 4.002-1.095.511-1.635-1.602-3.322-3.077-2.41-.515.32-.515.08 0-.637.47-.654.357-1.646-.067-2.236-1.545-1.522-4.615-.44-4.548 1.569zm23.232 4.888c-.077-.364.023-.26.437.14 1.296 1.251 3.531 1.061 4.103-.594.57-1.652-1.16-3.547-2.673-2.9-.788.337-.801.217-.35-.323 1.162-1.393-.113-3.234-2.102-3.217-1.818.016-2.892 1.633-2.01 3.024.361.57.243.691-.394.404-1.858-.837-3.597 1.882-2.238 3.499.799.95 2.652 1.053 3.714.112.565-.5.56-.26.148.777-.358.903-.756 1.633-.756 1.633l3.218.031s-.857-1.512-1.097-2.586zm-68.967 36.46s-4.753-12.304-6.377-18.202c3.554-7.836 8.412-15.427.29-26.73l19.79-.02c-6.138 12.814-6.328 45.178-7.765 45.254Zm1.763-14.39s-.975-1.244-1.033-2.252c-.116-.646.064-.685.426-.026 1.76 1.806 4.15.07 4.163-1.527.205-1.46-1.64-2.715-2.826-1.988-.833.51-1.058.363-.315-.587 1.046-1.338-.088-3.084-1.955-3.067-2.43.02-3.363 2.118-1.625 3.62 1.284 1.108.087.452-.934.055-1.987-.774-3.295 1.097-2.406 2.99.613 1.305 2.42 1.649 3.482.594.582-.578 1.12-.916.803-.042-.166.707-1.057 2.206-1.057 2.206zm3.1-19.704s-1.169-1.36-1.37-2.383c-.067-.377.221-.28.885.249 2.127 1.694 5.057-1.333 3.077-3.188-.68-.637-1.374-.823-2.171-.44-.995.48-.915.246-.418-.25.729-.727.677-2.055-.104-2.702-2.162-1.788-5.593.865-3.585 2.776.875.832.46.723-.503.188-1.822-1.012-3.845 1.75-2.479 3.375 1.621 1.272 2.839.65 3.963-.146.244-.119.455-.172.456-.074.002.183-1.126 2.628-1.126 2.628zm-25.942-7.703c-1.208-.076-2.051-10.515-.569-13.817 3.173-13.935 12.797-24.073 18.79-32.602 9.614-12.7 8.46-33.824 8.867-32.981l1.36.149s-1.076 12.38-.491 17.975c.61 4.92.473 5.225.092 5.712-.102.459.045 1.8-.064 2.26-4.302 18.205-14.523 36.916-25.067 51.036zm98.665-31.656-32.299-47.29 7.784-.636c2.88 4.238 30.94 44.646 30.94 44.646z" />
  <path fill="#e2cf00"
      d="M46.271 293.95c3.706-12.483-6.217-41.546-12.445-45.351 7.313-.274 16.108-.137 15.832-.771 0 0 31.012 45.294 30.758 45.534-.24.226-34.145.588-34.145.588zm126.169-70.651c-7.535-1.003-4.552-6.785.295-7.378-.631.097.524-2.876 4.434-4.072.89-1.488 1.591-4.029 2.406-5.208-2.344.7-5.194 2.526-15.833 1.066.935-4.663 11.116-5.442 14.786-4.715 2.119.459 4.206 3.384 4.85 3.446 6.536-.996 14.838 4.486 12.313 10.032-.39.79-1.381-.942-3.58-1.683-7.105-2.396-7.596-5.956-9.228-7.552-.594-.105-3.748 5.645-3.748 5.645l.974 3.91c1.706-.14 9.275 4.203-.164 7.122-2.624 8.312-7.526 2.435-7.505-.613zm17.927-37.108c-.402-.38.323-2.967 1.282-4.455.519-.803 1.714-1.341 2.414-1.227 1.247.205 1.049 1.882-.613 6.791-.07.71-1.757.78-3.083-1.109zm-150.012-34.64c-2.068-.01-.203-5.209 1.072-6.858.418-.512 2.067.583 2.15 1.337.15 1.35-2.1 6.06-3.222 5.522zm-1.401-35.373c2.523.567 6.503 2.924 8.404 4.217 2.364 1.638 1.712 4.845 3.606 5.133 1.28-.583 3.636-5.833 3.636-5.833s.594-2.699-1.073-3.533c-4.148-2.075-4.07-4.31-3.806-4.508 1.237-2.95 3.687-2.42 5.012-2.583.031-1.616-.02-5.028 3.595-4.67 3.163.281 3.467 4.462 2.136 4.498-.025-.07 5.983-.788 5.917 2.878-.035 1.987-3.603 4.523-4.71 3.598 0 0 .587 3.962-4.798 5.31-1.26 1.183-2.295 6.216-2.295 5.77 3.25-2.705 8.335-3.332 16.352-2.346-4.984 8.511-18.712 4.502-19.783 2.851-6.908-1.94-13.385-4.461-12.193-10.782Zm59.205-20.323c7.309.626 15.31-1.483 21.387-.35.692.089 1.443 1.038 1.86 1.249 3.14 1.59 6.429 1.103 11.49-.66 1.25-.434 24.427-.23 24.427-.23 5.266 7.223 14.628 20.81 14.832 20.35 0 0-12.848-.156-18.768.159-4.162.221-1.716.75-4.607.861-20.28 14.038-24.192 44.44-24.192 44.44s6.44-1.557 8.118.09c8.003-21.534 23.138-31.347 44.215-29.386 9.74.906 21.347 9.786 21.347 9.786l-20.877 15.659c-16.135-7.563-23.096 14.638-18.196 14.702l42.039-31.675s.713 2.592.641 2.68c-2.998 3.624-53.116 41.12-53.116 41.12l-2.194-2.248s-1.382 1.131-2.11 1.885c-.074 1.23.393 2.275 1.4 3.24-9.928 7.344-10.28 20.846-2.986 28.23 0 0-3.241.207-3.582.26-4.12.646-8.345-18.148-.164-26.876-4.105-7.479-6.624-17.648-7.14-18.12.109 1.197-6.503.788-6.503.788-.533 15.183-2.273 30.07-6.244 44.41l30.372.653-12.968 20.736s-14.509-.359-20.759-.774c-6.52-3.523-10.287-.858-16.414.432-8.717.223-21.546-.173-21.547-.064-4.337-8.001-9.002-13.887-15.345-20.75-.805-1.246 25.8-.434 25.8-.434s13.335-18.59 15.768-23.842c1.899-4.1 6.168-19.028 6.168-19.028.195.779-2.408-3.888-8.49-3.792-5.088 30.92-44.837 41.272-68.706 21.328l-.216-3.597 52.756-39.443 2.336 2.507c-.502-.373-32.387 24.083-31.857 23.929 9.428 4.584 20.353.904 19.111-14.096 7.486-4.987 14.117-10.8 20.637-16.735.14-.232 7.235 14.795 7.054 17.684 4.1-1.266 6.52 1.406 6.444.95-1.457-8.685 6.825-41.596 6.989-45.38-4.566-.348-10.62-.202-20.114-.566 7.6 13.667 4.934 22.913-5.742 31.308l-2.225-2.595c.905.467 15.593-11.25 3.817-28.81-.54.042-6.224-.485-6.224-.485s11.685-17.081 12.278-19.5zm56.711-56.343s33.251-.685 33.26.217c-1.092 16.523 3.044 31.603 13.066 45.56 0 0-14.726-.507-14.457-.336z" />
  <path fill="#131f67"
      d="m203.258 38.5-172.857-.472.581 256.645 172.645.274zm-15.813.991c-.013-.014-2.28 27.146 13.008 44.962-9.357-1.327-14.719-.008-20.175 3.545l.745.711c7.514-4.254 13.869-3.121 20.384-2.446l-.244 34.947c-.05 1.697-7.617.927-12.396-2.41-2.27-1.244-5.196-3.854-6.506-5.812-.399-.595-.818-1.183-.934-1.307-.438-.469-3.16-5.177-8.153-14.091-2.539-4.533-5.895-10.715-8.62-15.507-1.765-3.103-5.046-8.964-5.277-9.43-.483-.975-4.054-7.449-5.445-9.805-3.673-6.223-9.602-17.08-11.717-20.972-.467-1.01-1.18-1.476.097-1.44.284.006.567.023.73.059.225.104.5-.357.5-.357zm-154.2 146.71-.104-2.748 50.307-38.246 1.6 1.91zm48.665-67.054a15.98 15.98 0 0 1-.665.21c-1.28-5.324-.53-12.433 1-17.776 2.23-7.418 6.38-13.363 10.998-19.336 10.557-13.642 15.24-23.93 15.087-42.277l1.505.15c-.07 2.898-.488 5.077-.616 8.933-.197 4.132-.128 7.273.34 11.309.229 1.983.367 3.268.005 3.525-.172.13-.329.815-.172 1.068-.026.55-.109 1.648-.109 1.648-2.433 10.92-15.42 38.908-27.373 52.546zm6.234 24.843-2.655-3.026s-2.045-1.53-.202-3.253c5.328-4.98 5.376-11.321.245-17.032-.344-.725 1.606-4.38 1.606-4.38l4.048.069c6.3 7.115 7.997 19.672-3.042 27.622zm3.774-28.192c.127-.486-5.997-.308-5.997-.308 3.813-5.24 7.059-10.63 10.248-16.035 4.948-8.18 11.814-22.515 13.978-32.91 1.573 12.165 3.86 30.22 15.109 30.95 3.689.239 7.965-2.093 8.66-1.705l23.374-.134c4.776 8.998 9.915 14.798 16.001 20.957 4.378 2.319 9.719 4.157 14.881 5.352 2.933.68 3.216.231 9.002 1.004 1.527.204 3.856-.39 3.832-.39-4.63 3.367-9.963 2.402-15.835.948a13.333 12.334-.02 0 1-1.017-.288l-4.448 6.166c-9.87-2.18-41.573-.698-49.991 31.171 0 0 .858.407.658.187 6.69-27.663 34.736-33.135 48.097-30.358l-1.152 1.621c-22.173-2.544-40.255 10.258-44.59 28.447l.427.36c8.375-27.496 43.379-37.62 65.032-18.517l3.984-2.6-.136 3.528-53.404 41.244-2.13-2.044s-.375.263-.8.59c-1.379 1.057-1.922 1.315-1.538 1.907.385.592 1.878 1.926 1.943 2.075-8.857 6.653-11.688 19.506-3.302 28.523.937.956.766 1.212.596.137-7.525-7.601-6.543-21.022 2.868-27.367l1.89 2.299c-4.154 8.399-6.387 21.506 4.493 22.658 3.88 9.67-.627 21.115-5.649 28.783-5.322 8.835-11.767 16.175-15.8 25.8-1.958 4.017-5.085 15.933-4.939 25.042l-1.17-.013c.006-3.717.283-8.124.321-10.942.19-13.738.167-12.922.502-13.27.11-.116.422-.238.452-.334.045-.145-.242-.43-.354-.766-.116-.344-.311-.95-.29-1.458.02-.509.537-1.25.44-1.416-2.327-7.585-2.493-21.21-10.037-27.48-3.7-2.95-8.62-3.077-15-.672-14.065 0-11.98.673-23.338.055-4.685-7.966-10.369-15.726-16.523-21.483-2.877-2.978-6.88-4.613-10.644-6.773 1.516-2.65 3.234-4.586 5.11-5.842.39-.512.655-1.065 1.159-1.498 38.294 3.465 46.666-30.835 44.916-29.965l-.34.271c-10.539 35.337-47.801 33.99-66.504 18.676 0 0-2.65 2.122-2.655-.211-.004-2.122.834-2.735.834-2.735l52.653-39.575c.96.567 1.991 2.454 2.423 2.243.97-.475 2.398-1.428 2.355-1.998-.033-.438-1.916-3.194-1.916-3.194 14.09-13.448 7.758-19.476 3.26-28.713zm20.076-75.674c.253-.001.492.11.67.37.319.469-.963 3.199-1.752 3.679-.748.455-.8-.075-.256-2.717.16-.774.78-1.33 1.338-1.332zm77.144.17 12.18.02.006 43.264c-9.078-11.847-13.66-25.481-12.186-43.284zm-73.876-.013c.304-.013.572.066.66.27.31.73-1.481 3.878-3.696 6.487-1.15 1.353-1.728 1.745-2.085 1.421-.3-.617-.29-1.334.767-2.46.872-.927 2.358-3.096 2.971-4.312.265-.712.529-1.357 1.383-1.406zm12.504.174c.355.004.72-.001.822.154 2.118 4.014 6.115 7.64 10.208 9.58.597.315.313 1.101.513 1.654-4.6-.64-10.629-6.68-12.236-11.085-.008-.319.338-.306.693-.303zm7.196.008c.914.862 2.353 1.904 2.675 2.886.198.603.343 1.294.202 1.62-.8.46-4.766-3.81-4.611-4.308.505-.306 1.14-.37 1.734-.198zm-17.23-.089c.391.015.988-.005 1.075.267.493 1.86-4.112 9.1-7.465 11.147-1.191.727-1.268.536-1.17-.688.065-.823.15-.757 1.374-1.834 1.747-1.538 3.656-3.912 4.708-6.017 1.349-2.699 1.02-2.87 1.479-2.875zm3.116.034c.437.001.844.139.956.318.152.244-.053.638-.196 1.126-1.52 3.958-5.291 9.65-9.714 12.88-1.72 1.222-2.01 1.214-2.133-.05-.071-.736.294-.95 1.103-1.466 3.75-2.397 7.126-6.562 8.558-10.818.28-.83.175-1.574.664-1.826.226-.116.5-.165.762-.164zm23.238 6.898c.178.285 1.46 2.146.411 1.444-.43-.327-1.211-1.153-2.456-2.464-2.942-3.102-3.031-2.91-2.972-3.68.031-1.004-.742-2.652.934-2.223 1.646 1.795 2.676 4.686 4.083 6.923zm-13.41-6.821c.333-.005.729.053 1.058.115 1.935 3.38 6.669 6.351 6.65 6.336 0 0 .117 1.47-.056 1.729-.1.452-7.518-4.78-8.339-7.907.08-.201.352-.268.686-.273zm-5.287.053c1.738 2.967 5.324 9.699 13.775 12.43.608.123 1.252 1.725.786 2.165-4.635-1.251-13.037-5.464-15.876-14.556.279-.241 1.018-.203 1.314-.039zm-2.272.572c-.29.004 3.97 11.444 16.164 14.872 1.054.308 1.672.731 1.604 1.309-.086.728-.06.819-1.234.272-3.325-1.613-8.067-2.374-12.033-.517-.619.29-1.248 1.08-.75 1.581.283.254.983.067 1.875-.253 4.615-1.653 11.672-.665 12.913 1.947.882 1.854 1.03 3.22.546 3.446-.369.173-.994-.451-2.095-1.348-3.503-2.853-7.697-3.652-11.037-.921-.723.591-1.438.487-1.69.73-.245.237.044.77.248 1.288.214.544.223.692.008 1.15-.293.628-.306 1.432-.275 2.03.076 1.458 1.117 2.716 4.114 4.644 2.335 1.502 4.162 2.347 1.32.21-4.904-3.688-5.793-5.188-2.612-3.908 3.177 1.187 7.586.01 10.711-2.188 1.063-.015 1.695-.185 2.254.193 2.318 5.059 4.209 11.789 7.291 18.315-3.702 3.857-16.588 13.295-25.762 12.943-7.92-.304-10.694-12.301-12.434-18.932-.584-2.806-1.252-5.662-1.163-9.623 0 0 .144-.106.348-.07 1.328.234 3.612.398 4.773.15 2.109-.453 2.533-.8 2.656-.512.144.339-.735 1.1-2.27 2.069-.668.421-2.612 1.284-2.408 1.41.464.289 2.816-.864 3.21-1.172.616-.481 1.037-.51 1.33-.244.345.312.416-.02-.726 2.587-1.258 2.873-1.138 3.134 1.3 4.91.849.617 1.624 1.233 1.809 1.502.233.354.391.77.5.905.411.511.16-.311-.085-1.619-.283-.967-1.305-1.93-2.03-2.397-1.332-.86-1.124-1.7-.015-4.619 3.272-8.607 2.45-12.45-1.131-14.326-1.615-.846-6.14-.628-7.569.472-.704.542-.606-.524-.493-.595 8.608-5.453 10.635-10.665 12.838-15.69zm16.587 4.246c2.436 2.245 5.467 5.292 7.292 7.459 1.002 1.155 1.53 2.34 2.326 3.552.152.22.302.471.193.573-.04.044-.39-.145-.582-.28-1.787-1.25-9.155-9.04-9.155-9.04-.339-1.277-.575-1.712-.074-2.264zm1.45 5.282s6.385 6.472 10.043 9.655c.719 1.402 2.095 3.42 2.06 3.761-.016.15-.782-.399-.782-.399-4.044-3.458-7.778-7.343-11.658-11.025.037.02-.305-1.523-.308-2.145.089-.304.477.033.644.153zM155 67.223c.858 1.297 1.484 2.458 1.897 3.22.681 1.208.452 1.242-.15.795-4.571-3.473-8.396-7.698-12.7-11.571-.56-.534-1.675-1.72-1.675-1.72.04.042-1.4-2.79-.493-2.731.71.257 1.174.97 1.631 1.425 2.257 2.243 6.557 6.1 11.49 10.582zm-39.915-9.3c1.888-.049 3.747.406 4.683 1.478.852.976 1.194 2.518.72 2.965-.296.28-1.343-.51-1.343-.51-4.441-2.314-5.975-1.205-8.389-.532-.344.096-.708-.763-.266-1.61.888-1.41 3.132-1.752 4.595-1.79zm27.973 2.23c4.748 4.418 9.57 9.325 14.708 13.126.72.57 1.215.936 1.543 1.243a508.423 508.423 0 0 1 2.234 4.214c-5.508-3.575-17.908-15.892-17.77-15.81.124.058-1.036-2.251-.715-2.773zm-9.31.715c.869-.006 1.82.248 2.57.524 2.395.883 3.901 1.823 1.42 1.506-3.452-.44-4.633-.465-5.898-.279-2.35.346-2.533.587-2.737.242-.537-.907 2.04-1.974 4.645-1.993zm-19.605.228a7.23 7.23 0 0 1 2.726.548c2.927 1.19 3.441 1.962.948 1.587-1.294-.195-3.667-.179-5.367.223-.539.128-1.135.416-1.274.457-.603.178-.77-.239-.51-.937.447-1.207 1.824-1.871 3.477-1.878zm21.2 3.49.605.043c-.763 3.956-5.035 3.563-6.179.162l.605-.011c2.244 3.254 3.93 1.345 4.97-.193zm2.381.21c1.975-.017 1.845 1.08-.213 1.812-1.577.562-1.755.46-1.175-.631.557-1.049.5-1.173 1.388-1.181zm-20.345.11c.186 3.566-5.187 4.211-5.509.322l.51-.022c1.755 3.06 3.792 1.218 4.429-.3zm2.388.49c.607.386.229.913-1.093 1.655-1.192.684-1.497-.145-.513-1.293.413-.37 1.09-.675 1.606-.361zm9.316.01c.235-.067.79.898.315 1.128-.283.136-.7-.259-.746-.55-.037-.231.121-.487.43-.577zm16.083.249c3.577 3.658 7.179 7.332 17.717 15.299 0 0 1.486 2.455 1.81 3.415-.258.291-.392.258-1.131-.083-6.873-4.926-13.26-10.914-18.262-16.478-.237-.785-.766-1.542-.134-2.153zm-34.173.31c.407-.012.98.83.662 1.335-.262.19-.667-.105-.843-.337-.175-.23-.17-.651-.06-.838.064-.109.147-.157.24-.16zm35.661 5.115c-.028-.127 16.64 15.554 18.781 15.258.997.545 3.47 4.998 3.47 4.998.07.141.058.402-.344.218-2.82-1.297-14.604-10.373-20.624-17.126-.44-.983-.971-2.231-1.283-3.348zm-19.85 2.267c2.908 1.307 1.65 3.973-1.42 2.27-2.418-1.364-4.338-1.491-4.326-.314.005.498.663 1.139 1.302 1.133 1.197.074 2.28.48 3.457.72 1.834.368 3.207-.08 3.669-1.11.783-1.747-1.067-3.659-2.29-3.56-1.22.1-.914.642-.393.862zm23.045 4.316c-.204-.165 8.286 8.47 19.87 15.61.45.481 1.565 2.97 1.743 3.306-.046.234-.302.004-.302.004-5.85-3.141-13.57-9.365-20.88-16.425 0 0-.702-1.564-.917-2.58.16-.068.332.02.486.085zm-19.328 3.074c-.264.033-.617.401-1.055.623-.893.453-1.175.573-3.366-.039-1.188-.332-1.38-.309-2.092.177-.622.424-.966.494-1.658.205-1.245-.518-1.823-.143-2.978.227-1.1.366-1.476-.082-2.465-.292-.13.001-.194 3.691-.064 3.81.046.04 1.03-.556 1.588-.817.96-.45.822-.378 2.22-.323 2.066.333 4.111.225 5.495-.275 1.723-.448 3.068-.362 4.256.541.72.549 1.679.46 1.12-.547-.192-.348-.627-1.63-.573-2.107.08-.712-.09-1.168-.376-1.183-.017-.001-.034-.003-.052 0zm22.054 2.912c3.908 3.48 8.725 8.787 20.07 14.948.59.96 1.387 2.235 1.892 3.23.046.276-.028.52-.318.425-7.01-4.126-10.907-6.13-20.618-15.014-.603-.9-1.244-2.432-1.742-3.68.106-.352.555.001.716.09zm-1.655 1.322 4.328 7.55-14.625-.051c3.72-2.043 7.274-4.77 10.297-7.499zm-24.244.132c-2.403.88-2.766 1.063-5.147.522-1.387-.315-1.008.43-.298.739 1.795.781 4.4.236 5.366-.378.637-.379 1.074-1.247.08-.883zm-2.47 2.324c-2.515.03-4.89.836-5.068 1.781-.034.183.171.389.563.172 1.706-.947 5.937-1.25 9.137-.175.518.174.608-.124.072-.535-1.196-.917-2.983-1.262-4.704-1.243zm31.916 3.274c4.726 4.05 9.288 7.774 19.466 13.201.73 1.481 1.789 3.254 1.975 3.408-9.54-4.302-19.931-12.78-19.931-12.78s-1.633-2.701-2.007-3.858c-.033-.39.363-.069.497.029zm3.248 6.302s8.704 6.833 18.633 11.478c.402.359 1.398 2.554 1.724 2.79.328.238-.395.237-1.11-.106-5.197-2.224-16.337-9.334-16.337-9.334-1.067-1.623-2.595-3.313-2.91-4.828zM54.993 125.335c.8-1.576 1.617-3.33 2.147-4.76 2.373.027 3.541-.794 4.385-1.784 1.203-.028 2.123-.023 3.76-.064-.05-1.498.028-3.618.028-3.618 1.664-1.578 2.793-3.403.225-6.202 0 0-.101-1.303-.135-3.524-1.186-.177-3.846-.068-3.846-.068-2.144-2.803-5.96-2.103-7.12-.013 0 0-1.714.085-2.89.087-.025.592-.233 3.216-.233 3.216s-5.019 3.154.175 6.889l-.077 3.13c.973.075 1.671.015 2.94.243 0 0-1.997 4.27-3.31 6.296-.447.108-.34-.13-.878-1.548-.647-1.671-2.115-3.5-3.362-4.401-1.69-1.21-4.004-1.589-5.617-2.64-1.555-1.014-2.652-2.32-3.147-2.078-.162.508-.347 3.425.235 5.3.82 3.086 5.612 5.06 9.615 6.541.308.185.581.464.582.565.005.51-.527.352-1.842.228-1.986-.186-2.808.315-3.508 1.883-.209.387-.705 1.053-1.108 1.494-.402.44-.822.87-.881 1.058-.06.188-.474 1.14-.884 1.934-.252.49-.672 1.002-.704 1.727-.098 2.21-.139 5.179.217 7.05.261 1.376 2.137 2.169 2.783 2.281.992.173 1.172 1.105 1.015 1.867-.773 3.755-3.115 6.051-3.862 4.816-.196-.325-.401-1.861-.457-1.842-.035.012-.394 1.305-.259 1.83.145.567.926.985 1.697.728 1.144-.382 2.045-1.428 2.76-3.81.292-.975.568-1.519 1.062-1.588.903.059 2.308 1.783 2.308 1.783-4.698 3.608-13.74 10.158-13.74 10.158l-.11-118.453 74.328.251c.396 9.391-.852 17.29-4.513 25.65-4.338 9.005-11.054 15.691-16.2 23.977-6.213 10.004-8.216 20.388-6.126 30.84-6.343 7.651-11.68 11.321-16.75 14.873 0 0-3.787-3.696-5.891-5.765 0 0 .89-.066 1.93-.104 4.809-.49 10.014-1.113 12.032-5.74.288-.514.168-.742-.172-.814-3.766.477-7.036-.018-9.171.118-5.222.333-7.431 2.003-7.431 2.003zm.567 3.41s-6.036-2.666-6.484-2.742c-2.633-.445-8.978-3.517-10.047-5.6-.14-.271-.483-4.069-.594-4.846.039-.248.146-.24.409-.061.678.434 3.306 2.024 4.277 2.463 4.01 1.81 5.56 3.096 6.537 5.812.245.68.501 1.388.647 1.534.32.322.456.295.86.01 1.722-2.055 2.53-3.767 3.33-5.975.104-.246.329-.498.197-.855-.312-.975-1.08-2.24-.29-3.193-2.514.102-4.917-1.601-4.607-3.303.675-3.153 2.122-2.582 4.833-3.037-.299-7.296 7.079-5.512 7.05-.431 8.108.644 4.263 7.574-.445 6.506 1.86 3.944-3.754 5.414-4.542 4.742-.32 1.273-2.464 5.371-2.921 6.59 6.016-3.93 15.68-2.166 17.08-2.417-3.503 6.748-14.912 5.086-15.29 4.803zm108.235-24.692c1.524 1.09 14.447 8.594 16.834 8.767 0 0 1.141 1.19 2.083 2.27.877 1.008 1.2 1.167 1.302 1.37.1.202-.332.191-.405.184-5.815-2.35-11.732-4.822-16.757-8.72-.679-.534-.83-.777-1.164-1.185-.443-.543-1.755-2.483-1.893-2.686zm4.276 6.045c5.911 3.085 10.935 6.075 16.324 7.688.768.267 1.161.286 1.544.537.382.25 2.024 1.193 2.412 1.404 2.457 1.339 2.71 1.276 2.1 1.499-.677.247-4.994-.927-8.642-2.181-6.47-2.225-8.758-3.484-11.096-5.44-.526-.507-2.98-3.232-2.642-3.508zm-118 16.967c.5-.01 1.296.279 2.126.87.888.631 3.07 1.956 3.971 2.315.461.184.605.23.605.23l5.807 6.12-15.003 11.243s-1.214-1.153-1.6-1.539c-.366-.364-.26-.667.197-1.078.367-.33.396-1.048.335-1.4-.09-.523-.074-1.112.643-1.599.578-.392.669-1.081.642-1.272-.022-.152.314-.655.815-.992 1.053-.708 1.371-1.57 1.018-2.587-.148-.426-.228-.537.375-.908 1.071-.659 1.339-1.282 1.421-2.246.013-.153-.03-.314-.055-.435-.21-1.026.768-.765 1.57.523.436.702.559 1.853.776 3.162.256 1.544.432 1.965.524 1.747.521-1.245-.083-5.924-1.62-6.561-2.247-.932-4.123-2.827-3.558-3.57.195-.256.23-.168 1.6.42.802.344 1.545.624 1.656.627 1.587.05.625-.581.109-.648-.621-.08-2.476-1.128-2.693-1.495-.361-.61-.16-.917.34-.927zm-3.833.798c1.464-.012 1.744.351 1.757 1.517.007.689.284 1.219 1.448 2.591.474.56.791.989.76 1.208-.052.362-.193-.013-1.806-.192-.572-.063-.863-.073-1.064.202-.557.761-1.732-.035-2.453-1.159-1.721-2.68-1.11-4.145 1.358-4.167zm27.89 1.658 15.894 18.058-1.8 1.287-15.953-17.812zm-2.665 1.103 1.7 2.668s-4.942 3.893-6.242 4.991c-10.5 7.838-34.205 25.631-34.205 25.631l-.311-3.586zm-28.75.437c.31.008.665.373 1.169 1.086.436.618 1.37 1.858 2.368 2.71 1.938 1.658 2.126 1.508.55 1.662-.627.062-.83-.008-1.215.874-1.158 1.332-4.563-3.451-3.76-5.278.314-.713.576-1.061.887-1.054zm5.55 2.588c.288-.012.667.089 1.11.338.844.322.9.51.76 1.255-.135.714-.724.898-1.878-.045-.877-.767-.728-1.516.008-1.548zm25.422.482 1.867 2.238-42.54 31.708.017-3.657c1.035.125 28.316-21.726 40.656-30.289zm-32.943.31c.113-.02.29.34.76.996.956 1.336 1.835 2.217 2.839 2.92.948.663 1.053 1.033.402 1.036-.279.002-.66.272-.86.59-.404.64-.439.488-1.06.15-.887-.482-1.776-1.209-2.13-2.16-.332-.898-.366-2.262-.09-3.257.048-.174.087-.264.139-.274zm6.701 2.548c1.083-.033 1.86 1.133 1.142 2.075-.399.358-.758.53-1.55.096-1.045-.572-1.233-1.45-.375-1.94.268-.153.533-.223.783-.231zm-6.972 2.511c.227-.01.637.295 1.323.949.527.501 1.442.93 1.809 1.12.822.425.86.573.412.913-.19.145-.817.154-.988.614-.49 1.316-2.55-.217-2.743-2.1-.098-.957-.106-1.484.187-1.496zm5.187.165c1.354.054 1.992 1.517.911 2.235-.589.39-2.07-.304-2.218-1.021-.095-.462.792-1.235 1.307-1.214zm31.673 1.137c.785.001 1.42.59 1.42 1.317-.002.727-.64 1.315-1.425 1.314a1.422 1.315-.02 0 1-1.42-1.318c.001-.727.639-1.314 1.425-1.313zm-4.253.537c.786.001 1.422.591 1.42 1.318-.001.727-.639 1.315-1.425 1.313a1.422 1.315-.02 0 1-1.42-1.318c.002-.726.64-1.314 1.425-1.313zm-28.49 1.712a2.6 2.405-.02 0 1 .27 0c1.305.061 1.372 1.21.595 1.828-.464.369-.884.485-1.483.04-1.07-.794-.672-1.803.617-1.868zm31.65 1.975c.786.001 1.421.59 1.42 1.318-.002.727-.64 1.314-1.425 1.313-.786-.001-1.426-.59-1.425-1.318.002-.727.644-1.314 1.43-1.313zm124.858.275.06 3.327-50.3 38.568-1.695-2.055zm-127.746.081-3.727 7.708-1.111-1.99-2.777-.006.856-2.3-1.631-1.842zm78.978 32.207 6.618-4.89c-2.82-13.284 8.548-18.55 19.326-14.675l6.72-5.28c-12.433-9.719-41.726-3.186-32.664 24.845zm-89.362-26.096c.786.002 1.421.591 1.42 1.318-.002.727-.64 1.315-1.425 1.313a1.422 1.315-.02 0 1-1.42-1.317c.002-.727.64-1.315 1.425-1.314zm-4.318.315c.786.002 1.376.55 1.374 1.276a1.37 1.37 0 0 1-1.379 1.36c-.786-.001-1.421-.595-1.42-1.322.002-.727.64-1.315 1.425-1.314zm22.974 2.708-6.561 4.842c1.668 12.717-5.03 19.18-19.396 14.8l-6.962 5.09c18.76 11.98 43.367-3.385 32.92-24.732zm-20.168 1.116c.786.001 1.421.59 1.42 1.317-.002.727-.64 1.315-1.425 1.314a1.422 1.315-.02 0 1-1.42-1.318c.002-.727.64-1.315 1.425-1.313zm137.836.552c.786.001 1.426.591 1.424 1.318-.001.727-.643 1.314-1.43 1.313a1.422 1.315-.02 0 1-1.419-1.318c.001-.727.639-1.314 1.425-1.313zm-140.78.09-4.203 7.66-1.04-2.31-2.812.031.913-2.674-1.756-1.378zm135.151 1.023 1.299 2.03 2.75.066-1.039 1.928 1.983 1.897-8.964 2.022zm-145.159 5.336c.786.001 1.426.59 1.425 1.318-.001.727-.644 1.314-1.43 1.313a1.422 1.315-.02 0 1-1.42-1.318c.002-.727.64-1.314 1.425-1.313zm-4.092.14c.785.001 1.426.591 1.425 1.318-.002.727-.645 1.314-1.43 1.313a1.422 1.315-.02 0 1-1.42-1.318c.001-.726.639-1.314 1.425-1.313zm142.31 1.008c.786.001 1.422.591 1.42 1.318-.001.727-.639 1.315-1.425 1.313a1.422 1.315-.02 0 1-1.42-1.317c.002-.727.64-1.315 1.425-1.314zm14.386.227.057 2.921c-13.125 10.679-40.722 31.286-40.722 31.286l-1.711-2.04s28.077-21.148 42.376-32.167zm-153.854 2.605c.786.001 1.42.59 1.42 1.318-.002.727-.64 1.319-1.425 1.318-.786-.001-1.421-.596-1.42-1.323s.639-1.314 1.425-1.313zm142.373.542c.785.001 1.42.591 1.42 1.318-.002.727-.64 1.32-1.425 1.318-.786-.001-1.421-.596-1.42-1.322.002-.727.639-1.315 1.425-1.314zm-4.027.23c.786.002 1.421.591 1.42 1.318-.001.727-.639 1.32-1.425 1.318-.785-.001-1.426-.595-1.425-1.322.002-.727.645-1.315 1.43-1.314zm15.897.492-.127 3.718c-12.717 9.995-38.73 29.846-38.64 29.858l-1.957-2.51s28.516-22.642 40.724-31.066zM44.64 167.08l-3.934 8.17-1.686-2.205-2.473-.159.593-2.21-2.268-1.433zm135.84 3.445 2.501-.435-.44 2.367 1.754 1.71-9.218 1.859 4.469-7.635zm13.69 39.853c1.863 2.588 1.739 5.411.956 5.843-.824-.43-1.538-1.177-2.39-1.52-4.29-1.719-7.715-3.13-8.323-5.65-2.327-5.703 8.204-.826 9.756 1.327zm-22.534-15.174 14.464-10.855s2.212 1.06 2.63 1.54c.148.528-.251.689-.841 1.18-.271.32-.44.627-.457 1.32-.018.747.247 1.082-.08 1.41-.544-.027-.98.63-.958 1.163.017.406-.558.855-.896 1.161-.598.542-.773.655-1.16 2.495-.039.185-.027.664-.308.911-.835.068-1.444 1.958-1.825 2.078-.61-.037-1.577-.728-1.811-1.747-.153-.662-.108-1.947.062-2.774.203-.985.296-1.878.23-2.115-.156-.549-.548-.213-.544.557.002.314-.13 1.251-.347 2.134-.217.886-.803 2.061-.541 2.76.39 1.042 1.83 1.485 2.48 2.037 1.706 1.453 2.077 2.161 2.271 2.483 1.363 2.315 1.366 2.709 1.02 4.448-.198 1.001-1.253.829-1.888.421 0 0-4.055-2.74-5.82-4.101-2.674-2.061-4.55-4.166-5.68-6.506zm5.466 7.484c1.548.582 5.576 3.296 5.576 3.296l-3.687 7.063c.667 1.109.931 3.858.931 3.858 4.647-.322 7.15 6.927-.085 6.246.817 4.48-6.987 7.976-6.76-.048-8.122.57-5.378-7.937-.377-6.332-.142-3.607 2.458-4.07 4.293-4.953 1.507-1.57 2.435-5.13 2.435-5.13l-.364-1.087c-1.545 2.487-8.105 3.19-15.31 1.86 1.96-4.274 7.879-4.144 13.348-4.773zm-14.341 5.358c-.247.852-.253.842.858.74.562-.052 2.821-.044 4.398.016 2.899.214 7.463.24 9.756-1.37.443-.39.687-.364.77-.15.193 1.043-2.037 4.468-2.037 4.468l-3.673 1.87s-1.502.063-3.363.019l-.039 3.053c-1.46.795-3.968 4.209.048 6.835l-.139 3.326 3.545.066c2.348 2.086 4.264 2.08 6.427.122l4.087.01-.009-3.593c2.018-1.495 2.31-4.037.253-6.071l-.043-3.646-3.145.014s-.65-.467-.667-.837c-.002-.24 2.304-4.333 2.745-4.917.573-.76.417-.325 1.328 1.432 1.304 2.514 2.597 3.541 5.911 5.03 2.957 1.328 4.014 1.947 4.87 2.707.683.604 1.086.415 1.352-.486.575-2.002.403-4.007-.786-5.843-2.51-3.875-6.895-4.06-7.59-4.957-.092-.213.802-.459 1.762-.854 1.662-.93 4.097-3.748 4.411-4.88-.056-.546.338-2.265.625-2.645.332-.676.37-.99.359-2.806-.295-1.036-.022-2.384.118-2.848.152-.942-.387-2.052-1.153-3.416-.285-1.265-.219-.936.671-3.784.145-.46 1.147-4.429-.125-4.703.016.036.133.157.169.223.213.398.327 2.113.133 2.598-.077.192-.223.69-.325 1.107-.777 3.188-1.234 3.988-1.93 3.29-.166-.167-.803-.405-1.292-.707-.925-.57-.845-.848-.616-1.913.057-.161.426-1.624.387-1.58-.201.504-.338 1.801-.97 2.105-.34.072-.807-.207-1.687-.911-.336-.27-1.057-.739-1.057-.739s10.454-8.11 14.34-10.798l-.265 120.364-73.78-.088c-.908-7.457 1.534-17.317 5.567-27.19 2.492-6.102 6.063-10.626 10.091-16.086 7.722-10.41 13.57-20.983 11.349-34.403-.29-1.991-.584-2.945-.482-3.48.94-1.624 4.663-6.545 7.381-8.592 3.99-3.004 9.54-7.492 9.985-7.225 1.318 2.363 2.88 4.277 4.952 5.721.364.367.373.69-.47.852-5.498-.055-11.16 1.053-13.005 5.55zM34.71 173.648c.786.001 1.421.59 1.42 1.318a1.422 1.315-.02 0 1-1.425 1.313 1.422 1.315-.02 0 1-1.42-1.318c.002-.727.64-1.314 1.425-1.313zm137.926.517c.786.001 1.421.591 1.42 1.318-.002.727-.64 1.315-1.425 1.313a1.422 1.315-.02 0 1-1.42-1.317c.002-.727.64-1.315 1.425-1.314zm3.091 3.614a1.422 1.315-.02 0 1 1.42 1.318c-.001.727-.638 1.314-1.425 1.313a1.422 1.315-.02 0 1-1.42-1.318c.002-.726.64-1.314 1.425-1.313zm-4.603.553c.786.001 1.42.59 1.42 1.318a1.422 1.315-.02 0 1-1.425 1.313 1.422 1.315-.02 0 1-1.42-1.318c.002-.727.639-1.314 1.425-1.313zm-5.088 2.99 2.573-.113c-.325.853-.5 1.736-.684 2.62l2.092 1.427-9.065 1.411 3.92-7.42zm-6.223 21.653-15.225-18.252 1.843-1.374 15.349 18.053zm-1.83-17.712c.786 0 1.421.59 1.42 1.318-.002.726-.64 1.314-1.425 1.313a1.422 1.315-.02 0 1-1.42-1.318c.002-.727.64-1.315 1.425-1.313zm32.047 2.092c1.236.892-.004 2.138-1.185 1.644-1.025-.403-.946-1.365-.137-1.75.505-.22.89-.164 1.322.106zm1.645.851c1.269.02 2.666 2.806 2.407 3.623-.38.951-.728.984-2.515-.42-1.767-1.386-1.792-1.444-1.076-2.192.398-.425.59-.985 1.184-1.01zm-30.184.46a1.422 1.315-.02 0 1 1.42 1.318c-.002.727-.639 1.319-1.425 1.318-.786-.001-1.421-.596-1.42-1.323.002-.727.64-1.314 1.425-1.313zm-4.41.5c.785 0 1.42.59 1.419 1.317-.001.727-.639 1.315-1.425 1.313a1.422 1.315-.02 0 1-1.42-1.317 1.422 1.315-.02 0 1 1.425-1.314zm31.236.987c1.403.195 1.768 1.176 1.121 1.904-.879.986-2.845.086-2.376-1.087.213-.533.726-.808 1.255-.817zm2.515 1.486c.55-.043 1.376.661 2.28 1.828 1.015 1.311 1.097 1.734.807 2.533-.423 1.164-.686 1.377-1.598.24-.344-.428-1.142-1.433-1.712-1.987-1.217-1.183-1.408-.883-.679-1.783.338-.418.572-.806.902-.831zm-3.303 1.37c1.26.605 1.38 1.39.634 1.943-.878.442-2.424-.087-2.723-.89-.437-1.175.91-1.769 2.09-1.052zm2.134 1.739c.713-.041 1.299.64 2.169 1.945 1.481 2.221 1.56 2.968.292 4.429-.913 1.05-1.006 1.106-1.894-.572-.726-1.371-2.108-2.978-3.39-3.942-.534-.403-.722-.967-.335-1.004.112-.011.587-.03 1.054-.046.686-.022.934-.107 1.31-.447.25-.225.515-.348.794-.363zm-5.123 1.722c.663-.028 1.52.306 2.157.993.722.704.635 1.348-.786 1.475-.64.23-2.379-.828-2.386-1.537-.006-.595.43-.905 1.015-.93zm3.342 2.578h.102c.597.028.903.56 1.571 1.806 1.025 1.912.727 2.951-1.054 3.794-1.207.571-2.128.742-2.282.086-.045-.19-.045-.741-.143-1.276-.132-.712-.307-1.454-.986-2.405-1.084-1.517-1.276-2.055-.084-1.607.631.237 1.318.21 2.042-.139.319-.154.59-.246.834-.259zm-6.038 3.063c-.413-.009-.68.225-.57.85.376.172.97.014 1.418.164.603.202.975 1.11 1.62.963.069-.765-1.557-1.958-2.468-1.977zm-123.15 13.121c-3.322-1.47-11.551-4.873-15.519-4.93-7.353-1.92-7.849-1.054-10.428-1.67 13.663-3.254 23.05 3.06 26.485 6.125 1.56 1.443.71 1.028-.538.475zm8.639 29.793c7.789 12.55 15.045 26.705 27.224 47.667l-1.175.337-46.596.003c2.352-23.132-11.12-45.196-12.037-44.333 10.555.196 19.32-1.673 21.177-5.268l-1.504-.401c-6.152 4.894-15.05 5.105-21.187 3.58.162-12.055-.547-24.788-.118-36.84 7.259-.487 12.927 1.984 16.94 6.896 6.747 8.257 11.313 18.75 17.276 28.359zM46.027 211.59c1.869-.13 12.06 3.768 16.618 6.675 1.265 1.214 3.112 3.324 3.114 3.53.006.56-.893-.132-5.295-2.464-3.332-1.74-6.79-3.13-10.155-4.466l-.463-.184s-.249-.266-.677-.573c-1.197-.86-3.525-2.388-3.142-2.518zm4.95 4.404c-.101-.018 10.109 3.421 18.226 9.422 1.08.798 2.4 3.77 2.4 3.77-.722-1.263-13.548-8.39-18.053-10.024a7177.28 7177.28 0 0 1-2.573-3.168zm3.593 4.55c.558-.308 15.483 7.874 17.67 9.983.99.704 3.308 4.118 3.315 4.804.007.61-.719.082-2.054-1.063-6.87-5.955-16.802-10.45-16.883-10.351zm2.764 4.745c7.01 2.757 15.81 9.373 20.25 13.31 1.111 1.02 1.902 2.497 2.051 3.184.093.426-.14.397-.231.624-5.753-6.13-18.408-13.136-20.087-13.684.012.387-1.389-2.376-1.983-3.434zm23.258 19.107c.806.763 2.08 3.435 1.793 3.76-.14.16-.127.076-.465-.142-1.84-1.7-11.3-9.492-19.197-13.866-.742-.345-3.225-3.98-2.697-4.049 4.13 1.254 15.933 10.002 20.566 14.297zm-17.08-8.706c.137.01.384.173.808.39 7.262 3.72 17.783 13.078 19.776 15.327.453.692 1.166 1.963 1.112 2.74-.092.612-.355.091-3.29-2.589-4.714-4.286-10.14-8.435-15.891-11.922-1.106-.705-.894-.795-1.695-2.09-.803-1.298-1.12-1.877-.82-1.856zm46.495.216c5.191.145 7.214 3.784 10.398 10.49 2.604 6.605 3.677 12.656 3.788 17.472.007.323-.627.047-.916-.026-1.389-.347-3.119-.672-5.125-.206-1.474.342-2.874.3-1.36-.613.489-.295 1.812-1.424 2.516-1.827 1.425-.817.56-.809-.854-.167-1.07.485-1.787 1.101-2.228 1.198-.273.06-.102-.769.161-1.363 1.516-3.431 1.977-5.464-.27-6.104-.607-.174-1.427-.696-1.813-1.044-.31-.279-.57-1.39-.668-1.435-.103-.048-.178 1.012-.176 1.173.006.552.769 1.671 1.689 2.284 1.562 1.04 1.87 1.327 1.016 3.782-1.197 3.44-1.453 4.282-1.673 5.08-.126.46-.37 1.24-.494 1.745-.476 1.95-.422 3.655-.338 5.276.508 3.623 4.725 5.417 10.395 3.414.537-.192.76-.018.76-.018-4.522 4.24-9.593 6.945-12.561 15.519-3.784-7.084-9.15-12.637-18.086-14.874l-.13-1.478c3.116 1.388 9.159 3.278 13 1.17 2.057-1.295 1.434-2.133-1.062-1.242-2.97 1.061-8.333.929-11.008-.472-.544-.284-1.1-.04-1.257.008-.139-.832-1.42-3.97-1.23-5.148-.11-.165.816-.171.994.049.738.916 4.495 3.645 8.403 3.439 1.943-.103 3.542-.646 5.233-2.29.141-.117.829-.199.922-.296.151-.156.042-.39.037-.473-.042-.125-.294-.47-.459-.857a1.435 1.435 0 0 1-.224-.964c.006-.226.168-.345.295-.503.147-.303.107-.69.026-.895a.521.521 0 0 1-.116-.809c.529-.552-4.542-4.849-5.536-4.84-.36.003-.149.616.58 1.065 2.58 1.59 4.457 3.665 4.03 3.935-.33.208-1.485-.25-2.662-.51-2.361-.516-5.196-.847-8.277 1.202-1.153.873-4.196 1-4.196 1-.035-1.534-7.006-18.664-7.02-17.92 2.552-2.743 10.57-9.237 18.598-12.028 2.47-.744 5.12-1.122 6.898-.899zm-30.42 3.783 14.561.231c-3.664 1.699-10.328 7.803-10.328 7.803-1.896-3.544-2.475-5.313-4.233-8.034zm-12.592 1.757c1.085.007 12.627 8.737 14.267 10.797.198.249 1.367 1.394 2.6 2.541 2.984 2.777 4.213 4.381 4.225 5.524.005.54-.528.188-1.324-.626-5.975-6.163-9.864-9.51-17.254-14.238-.839-.418-3.44-3.633-2.555-3.99.012-.003.024-.009.041-.008zm39.533 1.666c-.325-.01-.272.279-.095.545 1.831 1.503 6.674 1.444 8.346.235 1.516-1.097-.47-.52-1.09-.276-1.448.572-3 .504-5.013.006-1.174-.29-1.823-.499-2.148-.51zm4.461 2.45c-1.693.011-3.464.478-3.07 1.054.143.21.605.605 1.713.05 1.6-.728 4.88.236 4.977.26.335.081-1.09-.872-1.569-1.068-.527-.216-1.28-.302-2.05-.297zm-40.807 1.562c6.204 3.526 13.757 10.572 18.289 15.603.754.866 1.298 1.932 1.304 2.558.01.902-.198.402-4.316-3.471-3.229-3.067-8.104-7.242-11.333-9.492-1.94-1.312-2.285-1.483-3.197-3.039-.855-1.458-1.163-2.182-.747-2.159zm38.695 1.235c-1.17.512-2.719.4-4.226-.082-1.365-.436-1.045-.064-.53 1.315.235.627.38 1.516.381 1.647.004.307.003.328.968-.169.84-.433 1.018-.582 2.808-.194 1.82.395 1.85.25 2.707-.161.747-.358.901-.574 1.41-.383.999.374 2.128.534 3.409-.087.982-.476 1.301-.153 1.755.059.616.288.856.106.615-.463-.096-.226-.274-1.198-.278-1.505-.01-.583-.163-1.108-.428-.985-.98.454-1.776.937-2.71.92-1.713-.032-3.213-.986-5.881.089zm-75.696 1.079c15.447 17.866 12.662 43.581 12.147 43.372l-12.133.03zm40.275 3.67c6.176 4.02 13.522 11.024 17.591 15.865.693.836.128 1.099.472 2.107.127.374-.557-.179-2.518-2.134-2.443-2.436-6.46-6.098-9.105-8.225-2.898-2.33-3.735-2.915-4.352-3.702-.486-.658-2.468-3.82-2.088-3.911zm34.799 1.696c-.066-.002-.13.002-.195.004-2.2.092-3.323 2.372-1.44 3.987.709.607 1.834.968 1.83.642-.001-.078-.354-.406-.602-.583-1.57-1.12-1.405-2.861.384-2.877.62-.005.658.2 2.09 1.154 1.684 1.122 3.674 1.126 3.653 0-.016-.826-.348-1.674-1.854-1.54-.396.035-.924.073-1.387-.035-.443-.105-.821-.356-.996-.428a4.066 4.066 0 0 0-1.483-.324zm-30.793 5.204c4.725 2.945 11.214 9.6 14.53 13.523.76.92.809 1.935.5 2.481-.073.108-.655-.228-.655-.228-3.834-4.192-8.184-8.003-12.454-11.874 0 0-2.533-3.785-1.92-3.902zm45.85 6.428-1.022.468c-1.545-2.15-2.962-2.181-4.153.325l-.76-.178c-.566-.579 2.05-6.03 5.935-.615zm-.225-1.832c.426.014 1.171.23 1.344.632.194.37-.025.79-.61.77-.09-.003-.654-.646-.934-1.04-.208-.24-.118-.37.2-.362zm-17.38 2.6-1.144.047c-2.173-2.652-3.806-.877-4.784.226l-1.225-.155c.201-2.909 5.76-3.913 7.153-.118zm11.133-2.244a1.467 1.357-.02 0 1 .501.09c-.452.632-.53 1.16-.633 1.732-.445.17-1.079.524-1.55.068-.875-.738.476-1.913 1.682-1.89zm-17.869.268c.54.003.378-.03.143.248a4.946 4.946 0 0 0-.735 1.235c-.074.312-.13.426-.448.435-.604.017-1.829-.184-1.82-.176-.465-.408 1.463-1.7 2.86-1.742zm6.919.382c.36-.04.275.437.16.623-.229.249-.32.33-.447.02a1.308 1.308 0 0 0-.233-.357c-.177-.212-.157-.223.064-.259a4.55 4.55 0 0 1 .456-.027zm18.69 2.143c1.332-.03.437 2.06-1.417 2.563-2.05.956-4.396.723-6.783-.54-1.361-.722-1.772-1.48-.586-1.175 4.471 1.146 5.56.937 8.26-.673.161-.127.332-.157.525-.175zm-43.04-.52c4.448 3.496 7.792 7.455 11.346 11.103.709.813 1.04 1.596.902 2.127-.172.659-1.63-.916-1.63-.916.036.014-8.677-8.619-8.677-8.619s-2.209-3.678-1.94-3.696zm13.307 1.225c.31.01.923.144 1.912.382 4.282 1.208 5.578 1.166 8.042.124 1.571-.664 2.22-.567 1.546.434-1.24 1.842-5.605 2.04-8.88 1.005-.867-.274-1.628-.753-2.463-1.334-.447-.432-.555-.623-.157-.61zm19.754 1.254c.256-.015.734.258 1.315.564 3.585 1.888 6.235 1.547 8.448.288.401-.337.617-.175.67.152.186 1.147.24 1.971-.327 2.522-.33.32-.89.465-1.735.726-3.477 1.076-7.705.297-8.51-2.116-.26-1.24-.426-2.104.139-2.136zm-28.486 5.126a.142.132-.02 0 1 .04 0c.252.035.83.505 1.742 1.465 4.767 5.02 7.405 7.903 6.92 9.352-.045 0-.076.313-.277.151-2.623-2.102-4.764-4.4-6.356-6.8-1.746-2.632-2.462-4.137-2.07-4.168zm38.5 3.587c-4.036 2.845-8.938 9.623-9.383 12.965-.085.639-.013 1.118-.268 1.348-.204.184-.66.2-1.27.088-.373-.064-.284-.102-.372-.493-.344-1.53 1.249-5.378 4.536-9.911 1.725-2.378 5.64-5.588 6.731-5.607.728.279.018 1.641.027 1.61zm-29.843-1.595c.284-.007.725.13 1.34.376 3.615 1.441 4.964 1.966 7.302 3.735 4.358 3.299 9.194 11.124 7.769 11.853-.626.32-1.07.117-1.322-.61a17.444 17.444 0 0 0-1.046-2.157c-2.916-4.979-6.715-8.405-12.073-10.833-1.98-.896-2.18-.798-2.33-1.546-.112-.562-.006-.81.36-.818zm29.783 2.92c.362-.028.448.584.322 1.816-.101 1.003-.166.982-1.379 2.157-1.936 1.445-4.23 4.843-5.295 8.306.001.12-.099.384-.282.53-.499.394-1.126.2-1.556.191-.309-.152-.222-.78-.166-1.131.89-3.144 3.075-7.004 6.496-10.391.962-.953 1.54-1.454 1.86-1.479zm-29.037.043c1.916-.038 8.715 4.679 11.463 8.801 1.795 2.695 2.28 3.8 1.864 4.191-.22.207-1.188.239-1.693.055-.46-.168-.636-.817-1.495-2.317-2.242-3.913-5.476-6.751-8.982-8.253-.653-.28-1.002-.456-1.212-.673-.234-.448-.533-1.711.055-1.804zm1.027 3.499c.594.105 2.239 1.095 3.613 2.031 2.43 1.656 6.123 6.711 5.357 7.433-.246.232-1.096.24-1.533.08-2.597-4.294-5.975-6.341-7.346-7.536-.416-.648-1.386-2.176-.091-2.008zm-5.414.749c.113-.027.568.389 1.394 1.194 2.44 2.379 3.987 5.014 3.625 6.342-.305 1.125-.66.508-3.45-4.434-1.173-2.08-1.734-3.064-1.569-3.102zm33.45.119c.054 1.366-.066 1.702-.224 2.427-.107.494-.46.723-.795 1.106-.833.957-1.78 2.612-2.258 3.948-.402 1.079-.214 1.338-1.65 1.19-.669-.082-.507-.249-.243-.961.908-2.339 3.085-6.127 5.17-7.71zm-27.794 2.53c.032-.7 6.55 5.39 5.652 6.073-.85.136-1.357.164-1.711-.117-.695-1.447-3.8-4.195-3.8-4.195zm27.423 1.96a.088.082-.02 0 1 .041 0c.292.056.123 3.795-.12 4.103-.466.216-1.346.234-1.816-.003-.288-.145-.374-.411-.265-.7.272-.724 1.692-3.311 2.16-3.4zm-24.653 4.073c-.206.297-1.477.347-1.956.011-.153-.107-.3-1.962-.12-2.298.488-.293 2.238 1.888 2.076 2.287z" />
  <path
      d="m146.492 38.77.817.995-4.783.016c.781.612 18.44 33.63 41.028 71.781 3.738 6.695 10.889 9.118 19.196 9.424l-21.945-32.82c2.347-1.177 7.007-4.331 9.82-3.74.173.8 1.01.484 1.023-.227l1.018.02.357.517 4.277.007.35-.466 3.686.496c-9.83-11.25-14.995-28.569-13.275-45.464l-32.674.014-.433-.53zm-3.966 1.01c-.018-.014-.031-.02-.03 0zM104.92 61.712c-3.736 11.091-12.94 20.206-18.412 29.391-5.866 10.022-7.257 18.75-5.63 28.3l1.07.086c12.495-15.71 22.185-34.487 27.623-52.96.118-.402-.082-1.113.018-1.52-.23-.49-.027-1.017.12-1.16.314-.305.2-1.504-.03-3.487-.576-5.89-.452-10.513.09-15.85.418-4.098.396-4.742.396-4.742l-2.134-.034c.38 6.977-.632 15.57-3.111 21.976zm51.356-21.426 3.506.073c.522 9.913 9.544 11.217 10.94 11.074-2.317 6.7 1.484 14.063 10.668 15.122-2.119 6.21 1.595 14.41 8.945 14.198l.777.456c-.476.894-.581 2.734-.553 2.762-1.634.109-2.52.327-3.582.52-9.473-13.263-30.701-44.205-30.701-44.205zm31.164.05c-1.083 11.072 1.29 26.284 6.895 35.28 0 0-.18.602-.298.766-.537.746-.801.099-1.125-.504-1.193-2.048-3.455-2.37-4.448-1.232-2.194 2.755.177 3.847 2.016 5.408-7.526-.437-10.02-8.104-8.274-11.892-.04.723.377 1.815.927 2.59 2.11 2.97 5.204.472 4.323-1.877-.365-.972-1.71-2.594-1.71-2.594s1.832-.247 2.582-.665c.7-.4 1.144-1.111.966-2.085-.143-.781-.18-1.123-.631-1.828-.554-.642-1.548-1.087-2.344-1.039-1.554.093-1.745 1.082-2.764 1.758-.249-1.782-1.48-3.139-3.494-2.805-1.532.253-2.638 1.759-1.704 3.647.472.963 1.138 1.257 1.807 2.093-10.813-1.137-9.612-13.015-8.416-12.8 0 0 .326-.056.229.399-.622 2.905 3.278 4.649 4.993 2.54 1.094-1.713-1.244-4.421-1.244-4.421s1.56-.308 2.27-.684c2.827-1.502-.174-5.836-2.804-4.777-.923.387-1.16 1.177-2.06 1.597-.6-.62-.635-1.297-1.715-1.856-2.963-1.532-4.824 2.08-3.185 3.672.672.645 1.859 1.234 1.626 1.312-9.193-1.088-9.086-9.99-8.876-9.927zm-79.033-.051 1.265.001c-.385 5.28-1.209 12.246-.688 17.396.61 4.92.636 5.618.254 6.105-.523.542-.247.798-.145 1.24.136.808.148.817.023 1.277a101.76 101.76 0 0 1-4.373 12.728c-5.945 15.082-15.63 31.52-23.217 40.139-.005-.031-.346.027-.351-.004-2.049-12.045 2.397-22.075 4.716-26.19 4.701-8.345 12.074-15.463 16.461-24.206 3.733-7.439 6.494-16.383 6.055-28.486zm46.58.023 30.752 44.408-5.633 2.542-31.468-46.8ZM173.042 49c.799.001 1.442.603 1.44 1.342-.001.738-.646 1.338-1.445 1.336-.798 0-1.446-.602-1.445-1.341.002-.739.652-1.338 1.45-1.337zm10.198 14.81c.808 0 1.462.608 1.46 1.355a1.463 1.354-.02 0 1-1.465 1.35 1.463 1.354-.02 0 1-1.46-1.355c.001-.747.657-1.352 1.465-1.35zm-73.48 2.524c.523 1.934-9.846 30.93-24.538 49.369l6.4.133.196.653c8.943 12.26 3.315 23.083-3.935 28.104l2.501 3.094-2.259 1.685-2.251-2.488c-18.372 12.702-54.227 40.824-54.227 40.824l.19 4.52 2.797-2.03c18.13 16.29 56.64 15.461 66.804-18.09l2.706.061c-6.155 24.594-31.029 34.184-49.781 30.075l-4.406 5.832 1.176.584c-.217-.311-.415-.42-.096-.705l3.743-4.438c28.06 3.37 45.035-11.298 50.571-31.195l3.581.063c-3.104 16.716-11.605 31.424-23.711 42.926-8.72-.047-24.053-.256-24.053-.256 5.573 5.013 16.207 20.302 16.63 21.852 0 0 10.967.34 22.733.092 4.316-1.788 10.089-2.499 12.782-1.238 4.731 2.215 9.167 10.414 11.142 23.56.51 3.387.974 4.822 1.115 5.506.026.123.347.212.394.19.18-.089-.288.598-.31 1.106-.02.51-.003 1.277.259 1.544.331.338.29.56.244.705-.03.095-.671.642-.671.642-.11 7.657-.077 14.608-.548 24.025l1.627.012c.017-15.154 4.986-29.168 12.623-38.808 4.643-6.327 9.557-13.146 12.28-19.642 3.064-7.313 3.499-15.001 1.877-21.491l-1.115.055c-6.692-4.259-9.404-13.33-1.14-19.797l-2.913-3.52c-8.253 5.88-10.167 16.75-1.646 25.764l-3.34-.015c-8.313-9.63-6.446-20.672 3.195-28.54l-2.148-2.534 2.344-1.905 2.109 2.142 53.821-41.452-.03-4.545-4.123 3.083c-24.068-20.655-59.845-6.245-65.134 18.58l-3.277.026c6.922-26.712 32.251-34.224 50.557-30.641l4.532-6.317c-3.323-.87-6.561-2.916-9.617-5.333-1.287-1.018-2.101-1.642-3.037-2.66-8.657-8.493-14.522-20.278-14.798-20.298l-23.584-.09c-3.463 1.577-9.392 3.367-12.638.933-6.972-5.226-9.295-15.75-10.241-22.523-.288-2.107-.527-5.774-.739-6.99-.132-.223-.39-.237-.622-.199zm83.592 11.834c.789.002 1.426.598 1.425 1.328a1.426 1.32-.02 0 1-1.43 1.318 1.426 1.32-.02 0 1-1.425-1.323c.002-.73.64-1.324 1.43-1.323zm3.066 1.562c1.16 1.396 2.19 2.834 2.765 4.354-.543-.017-1.052.138-1.654-.298-.137-1.534-.818-2.456-1.674-3.48zm-4.316 1.948c.477.217.852 1.883.518 2.168-.574.112-.966.074-1.16-.112-.287-.44.262-1.971.642-2.056zM98.28 96l21.895.058c3.804 2.708 7.528 2.356 12.937.199l24.346.039 1.371 2.313-61.74-.098C97.434 97.653 98.28 96 98.28 96zm-1.812 3.608 63.009.1 1.586 2.373-66.16-.105zm6.076 3.454 7.07.012-2.628 4.108-7.295-.012zm15.694.025 6.748.011-3.011 4.103-6.686-.01zm21.824.035-2.847 4.103-6.86-.01 2.954-4.066zm8.46.013 6.758.011-2.534 4.104-6.999-.011Zm-90.77.495c-4.382-.053-3.58 5.323-3.167 5.156-2.75-.587-4.784.618-5.127 2.786-.272 1.72 1.54 4.175 4.719 3.837-.423.45.003 3.052.425 3.29 0 0 .053.377-1.63 3.61-1.998 3.84-2.405 4.02-3.303 1.496-.965-2.716-2.463-4.094-6.368-5.855-1.04-.469-2.511-1.286-3.27-1.817-1.743-1.219-1.763-1.2-1.685 1.27.1 3.207 1.149 4.616 4.847 6.515 1.81.93 5.276 2.243 5.904 2.238.442-.004 2.064.672 4.468 1.862.47.232 2.076 1.054 4.136 1.242 2.186.146 7.111-.324 9.969-1.844 1.603-.853 2.223-1.618 3.409-3.804 0 0-4.046.187-5.893-.265-3.84-.215-5.749-.012-8.663 1.382-2.438 1.166-2.575 1.375-1.554-.556.466-.887.901-1.931 1.294-2.97.427-1.034.539-1.12 1.604-1.218 2.336-.217 3.67-1.461 3.89-3.624.059-.58-.034-1.192-.034-1.192 1.59.22 4.847-.504 4.75-3.551-.085-2.74-2.196-3.374-4.795-3.567.337-1.403-.765-4.382-3.926-4.42zm.05.85c3.84.031 3.744 3.29 2.068 5.138l-2.04-1.558-1.65 1.403c-1.79-1.062-1.775-5.01 1.623-4.983zm105.042.207 1.882 2.582-3.898-.007zm-71.682 3.591 7.228.012-2.908 3.766-6.834-.01s1.534-2.406 2.514-3.768zm22.784.036-2.739 3.914-6.318-.01 2.54-3.834zm8.467.014 6.533.01-2.592 4.174-6.456-.01zm15.372.024 6.615.01-2.699 4.175-6.522-.01Zm14.984.024 6.814.01-2.822 4.175-6.568-.01zm-94.88.625 3.242 3.034-3.173 2.929-3.258-2.892zm8.23 2.964c-.582 3.517-4.246 3.32-5.285 1.597l1.497-1.573-1.828-1.666c1.782-2.635 6.056-1.015 5.616 1.642zm-10.904-1.702-1.76 1.828 1.924 1.716c-1.245 1.594-6.016 1.46-5.051-2.38.612-2.437 3.294-2.88 4.887-1.164zm111.343-.27 2.005 2.558-3.77.023zm-78.408 3.012 80.831.37 2.16 2.45c-28.224.405-55.858-.508-84.689-.574zm-28.422 1.545c3.2 1.823.826 5.648-2.61 4.992-2.561-1.045-3.08-3.504-.772-4.928l1.803 1.38zm27.715 1.511-2.205.006-2.153 2.32c8.107 7.928 7.795 14.792.216 20.766l3.038 3.156c8.501-6.704 10.403-17.255 1.104-26.248zm8.343.317c4.54 6.587 8.453 19.057-5.133 30.453l-1.634-1.84c11.831-10.65 9.073-19.627 3.8-28.538zm1.263.162 18.355.096c-3.956 13.845-6.728 21.998-7.184 43.667l-5.305.02c.578-.499-2.722-13.089-6.592-17.459 8.158-12.76 3.789-19.971.726-26.324zm-57.735-.072c.317-.002.966.378 2.239 1.087a167.64 167.64 0 0 0 3.296 1.789c2.518 1.311 3.77 2.548 4.483 4.432.534 1.41.2 1.438-1.34.107-1.146-.99-2.367-1.844-5.421-3.785-1.076-.684-1.417-.573-.793.259.449.599 1.416 1.28 3.376 2.39 1.422.805 3.378 2.414 3.223 2.65-.14.216-.383.197-1.069-.082a159.57 159.57 0 0 0-2.27-.87c-3.994-1.506-5.698-3.352-5.932-6.416-.081-1.067-.151-1.56.208-1.561zm83.763.199s.552.675.623.957c.152.608-.493 1.165-2.526 1.998-.698.285-1.278.44-1.26.816.09.884 1.918 2.235 1.692 3.438-.423.92-2.965 1.82-3.602 2.905.003.747 1.648 1.893 1.411 2.908-.129.302-.661.611-1.45 1.242-1.614 1.291-1.715 1.489-1.125 2.497 1.369 2.341 1.42 2.169-.458 3.828-1.892 1.67-1.857 1.65-.957 3.107.97 1.57.925 1.5-.383 2.503-1.283.983-1.231 1.183-.547 2.408.661 1.184.812 1.201-.306 2.114-1.307 1.068-1.552 1.18-.634 2.526.949 1.393 1.02 1.335-.056 2.47-1.018 1.076-1.137 1.126-.587 1.86.69.92.82 1.165.093 2.176-.786 1.093-.782 1.015-.065 2.035.604.859.498 1.813.498 1.813l-2.272-.008s-.013-1.208-.278-1.652c-.641-1.078-.624-1.412.143-2.366.787-.979.656-1.063-.073-2.044-.738-.993-.632-.983.331-2.11.884-1.034.93-1.523.43-2.115-1.186-1.404-1.182-1.994.015-2.92.913-.705.999-1.02.214-2.233-.768-1.186-.865-1.295.552-2.474 1.448-1.205 1.433-1.18.465-2.55-.938-1.329-.887-1.417.624-2.71 1.53-1.309 1.55-1.312.553-2.967-.933-1.549-.94-1.522.891-3.027 1.824-1.4 2.444-1.578.631-3.595-1.009-1.6-.288-1.756 1.376-2.549 2.92-1.642 1.592-1.542.371-3.989-1.02-1.64-.436-1.65 1.35-2.468.443-.175.935-.377 1.439-.636 1.194-.614.55-1.178.55-1.178zm3.811.044 8.763.118c-10.18 11.982-15.097 27.32-16.883 43.505l-3.31-.053c-.183-12.643 4.147-28.43 11.43-43.57zm44.996.353c5.004 3.91 8.714 6.15 11.354 7.035 0 0-3.544 5.42-3.816 5.221-20.323-3.655-44.52 7.272-50.034 30.903l-3.202.013c1.2-9.274 3.854-17.016 8.73-25.09 4.836-7.839 9.286-12.418 15.997-18.186zm-34.974-.257 4.317.078s.81.902 1.175 1.227c1.86 1.959 2.02 1.57-2.09 3.707-2.595 1.35-3.745 1.978-3.897 2.545-.118.571 1.128 1.707 1.274 2.472.001.086-3.53 2.264-4.17 2.572-.89.398-.935.742-.055 2.163 1.013 1.634.931 1.577-1.264 2.989-2.14 1.377-2.56 1.24-1.652 2.614 1.261 1.91.665 2.338-2.315 3.82-.752.374-.772.75-.25 2.053.728 1.81.917 1.63-.623 2.607-1.819 1.154-2.139 1.185-1.738 1.895 1.166 2.06 1.629 2.562.066 3.232-1.193.51-1.218.8-.562 2.161.66 1.368.83 1.313-.347 2.082-1.091.712-1.732.552-.673 1.722.837.924.761 1.653.077 2.219-.588.23-.864 1.263-.693 1.286l-1.514.036c-1.183-1.48.218-2.325.43-2.47.193-.34-.043-.581-.52-1.383-.656-1.103-.633-1.235.316-1.878.958-.65.986-.48.351-1.92-.739-1.675-.704-1.866.466-2.64 1.15-.762 1.166-.932.388-2.399-.821-1.547-.822-1.548 1.223-2.8 1.438-.88 1.458-.827.7-2.464-.523-1.13-.15-1.521 1.806-2.756 1.118-.705 1.203-.845.679-1.688-1.445-2.325-1.43-2.395 1.071-3.888 2.046-1.222 2.029-1.327 1.244-2.96-.85-1.77-.927-1.634 1.878-3.182 2.31-1.276 2.435-1.202 1.49-2.743-1.178-1.917-1.104-1.603 3.516-4.035 1.666-1.052 3.167-.685 1.514-2.483a43.999 43.999 0 0 0-1.618-1.79Zm-81.508 3.022c.32-.01.568.354.55 1.028-.058.95-.546 1.89-1.013 2.833-.98 1.92-1.955 3.342-2.467 3.347-1.206.01-1.173-.24.436-3.137.734-1.323 1.492-2.833 1.612-3.126.259-.633.6-.936.882-.945zm14.827 4.378c.014 4.07-13.792 6.1-14.504 4.044 2.409-1.739 9.52-.954 11.03-2.51-1.816-.1-4.278.173-5.965.198-2.103.031-5.503.858-5.539 1.201-.218-1.071 3.618-3.076 6.655-3.198 2.838-.109 5.92.207 8.323.264zm1.17 6.215s-26.951 20.555-40.273 30.501l.073 4.444 42.634-32.173Zm-.09 1.017 1.716 1.934-40.021 30.056-.137-3.156zm126.299 10.77-1.44 1.416c-38.98-26.928-75.002 13.806-55.238 43.017-.18.376-1.56 1.305-1.56 1.305-22.026-33.91 20.318-73.482 58.238-45.739zm-21.468-5.919c2.216.02 6.29 1.433 8.01 3.354 2 2.236 1.416 3.23-1.128 1.12-2.735-1.845-4.995-2.276-1.197-.097.838.48 1.59 1.418 1.63 1.522.138.373-.563-.02-3.748-1.1-1.894-.641-4.293-2.373-4.915-3.551-.465-.882.188-1.258 1.348-1.248zm-8.216.049c.691-.004 1.307.047 1.744.164 2.79.745 3.67 1.135 4.708 1.886.711.513.482.882-.344.553-.962-.384-4.01-1.227-4.555-1.176-.794.074 0 .555 1.139.82 2.522.588 3.773 1.192 1.972 1.215-.94.127-5.05.133-6.17.009-1.87-.207-4.667-1.79-4.02-2.354.696-.609 3.453-1.105 5.526-1.117zm-8.01 2.415c3.31.041 5.099 1.188 1.48 1.412-6.222.901-7.419 2.151-.523.672 1.605-.345 1.574.19.465.691-.908.406-2.04.605-2.985 1.027-1.702.652-5.597.79-7.116.254-2.241-.793 4.805-4.105 8.679-4.056zm26.636.563c1.672.042 5.236 2.291 6.82 4.397 1.036 1.377.517 2.364-1.05 1.257-.314-.221-2.565-1.997-2.687-2.039-.211-.072 1.866 1.76 2.17 2.275.26.437.858 1.438-.264 1.457-1.754-.203-5.865-4.466-5.886-6.568-.006-.562.34-.794.897-.78zm-20.757 1.164c.697-.02.34.322-.984 1.181-2.39 1.552-1.145 1.242 1.647-.082.849-.403 1.873-.717 2.232-.777.36-.061.787-.151.952-.198.75-.211.17.643-1.052 1.546-2.57 1.9-5.473 3.39-7.476 3.845-2.552.58-3.093.654-2.147-.817 1.503-2.338 3.69-4.207 5.774-4.567a8.168 8.168 0 0 1 1.054-.131zm8.584.051c1.063-.018 2.376.188 4.444.604 1.454.422 1.073.511-.67.685-3.281.326-1.917.682 1.272.636 4.35-.023-2.182 1.447-4.3 1.74-1.653.065-2.137.01-5.74-.62-1.372-.24-.547-1.17 2.057-2.316 1.063-.468 1.875-.71 2.937-.729zm26.882.587.113 2.594-52.744 40.65-1.787-1.833zm-17.925 2.2c2.1-.022 5.133 1.33 4.805 2.142-.122.303-.357.29-1.96-.107-1.05-.26-2.934-.537-2.684-.321.086.074 1.556.597 2.116.723 1.855.415 4.075 1.389 3.583 1.676-.86.483-1.647.103-2.665 0-2.546-.33-6.727-1.527-7.414-2.122-.78-.675 1.96-1.966 4.22-1.99zm-24.565.113c.379.02.52.345.157.79-.55.67-.804 1.23-1.298 2.052-1.765 2.513-2.878 3.507-4.572 4.48-1.694.972-1.936.804-1.783-1.225.194-2.105 1.828-4.318 4.134-5.355 1.063-.137 1.673-.395.556.839-1.984 2.19-.629 1.968 1.223-.519.589-.79 1.204-1.08 1.583-1.062zm-6.84.283c1.141-.004 1.523.37.06 1.003-1.395.602-4.168 2.39-4.236 2.586-.116.334.922-.188 2.647-1.055 2.305-1.16 2.507-1.132 1.39.196-1.261 1.502-4.294 3.38-6.673 4.073-3.328.838-3.245.249-1.382-2.032 1.777-2.48 3.283-3.661 5.553-4.336.995-.295 1.956-.433 2.64-.435zm-56.416.289c12.032 19.272 5.294 38.823-8.726 48.777-14.659 10.407-37.432 9.752-50.847-2.787l1.868-1.625c-.01.008 21.147 20.008 47.874 2.327 13.564-8.973 19.2-30.205 8.053-45.03zm-54.062-.044a.18.18 0 0 0-.092.02c-.407.243-1.946 4.399-2.258 6.124-.09.505.041 1 .489 1.406.314.285.824.102.982.044 1.021-.425 1.585-1.08 2.482-3.152.6-1.135.686-2.492.568-2.967-.047-.192-.377-.64-.79-.895-.46-.283-1.106-.58-1.381-.58zm.234.867c.482-.004 1.436.724 1.552 1.242.008.903-.554 2.404-.97 2.18-.696-.802-1.499-.298-1.631-.59-.089-.888.53-2.05.957-2.823a.365.338-.02 0 1 .092-.01zm130.344.926c5.367.01 10.7 1.472 14.612 4.69l-2.096 1.77c-9.178-6.074-19.88-4.317-26.227-.24-6.284 4.037-11.856 12.985-6.439 25.61l-1.967 1.644c-6.078-10.158-2.78-23.563 8.022-29.89 3.81-2.231 8.685-3.504 13.574-3.58.173-.003.348-.004.521-.004zm-79.361 1.355c.163 0 .409.494.382 1.099-.034.726-.368 1.672-.9 1.872-.599.225-.974-1.426-.974-1.426a6.574 6.574 0 0 1 1.492-1.545zm96.08.72a3.605 3.334-.02 0 1 .614.02c.6.07.604.566.04 1.042-.61.513-.928.54-1.54.125-.548-.37-.576-.642-.101-.956.248-.146.623-.214.987-.23zm-103.07-.05 1.777 2.033-6.178 4.58-.737.052-47.297 36.102-.004-3.213zm98.669 5.055-6.442 4.9c-12.844-6.2-23.174 4.794-19.556 14.8l-5.571 4.458c-9.901-25.273 19.213-33.87 31.569-24.158Zm-33.671-3.91a.136.126-.02 0 1 .056 0 .293.293 0 0 1 .128.076c.224.204-.23 3.552-.566 4.173-.122.226-.217.517-.216.648.003.275-1.189 2.57-2.12 4.085-.352.57-.727 1.32-.832 1.67-.752 3.314-2.35-2.02-1.776-5.114.27-1.455 2.507-4.454 3.154-4.23.33.113.306.342-.274 1.504-1.618 3.24-2.025 4.912-.326 1.778 1.96-3.61 2.47-4.54 2.772-4.59zm-109.265-.107c.239.012.428.135.531.393.072.22.148.676.014.9-.331.685-1.015 1.137-1.706 1.094-.303-.018-.633-.265-.674-.569a1.317 1.317 0 0 1 .412-1.092c.492-.465 1.025-.748 1.423-.726zm48.966.286c.762.035 1.562 1.932 1.049 2.798-.42.708-.497.576-1.226-.797a15.014 15.014 0 0 1-.678-1.496l.625-.454a.48.48 0 0 1 .159-.047c.024-.003.047-.006.071-.004zm-1.285.797s.799 1.345.993 2.415c.118.654.099.532-.676.26-.61-.354-.744-.56-1.124-1-.249-.41-.5-.712-.5-.712zm4.818.297c.405-.013.84.367 1.236 1.293 1.488 3.48 1.343 7.383-.34 9.223-.28.305-.347.318-.68.127-.274-.157-.297-1.809-.032-2.277.083-.146.331-1.143.35-1.707.047-1.336-.349-1.505-.541-.266-.222 1.43-.463 2.43-.883 1.57-.211-.438-.318-.875-.478-1.34-.835-3.01.153-6.587 1.368-6.623zm-6.514.879s1.436 1.72 2.027 2.336c.208.332.2.417-.134.535-.57.2-2.472-.976-3.226-1.34-.406-.3-.229-.53-.229-.53.521-.362 1.042-.717 1.562-1.001zm56.743.152c.767-.007.767.24-.054 1.33-4.587 6.081-3.662 5.178-.745 1.853 1.621-1.85 1.903-2.025 2.08-1.61.132.31-1.8 3.91-2.798 5.215-.516.674-2.276 1.8-3.166 2.214-2.178 1.016-1.936.607-1.127-1.918 1.033-3.918 3.616-7.065 5.81-7.084zm-59.432 2.01c12.488 28.876-21.885 41.487-37.358 28.117l1.809-1.327c21.533 13.56 42.852-8.075 33.146-25.047 0 0 .884-.677 2.402-1.742zm2.904.706c2.064.199 5.108 3.698 5.258 5.644.324 1.383-.1 1.62-.83.647-1.233-2.115-1.087-.775-.038 1.325.557 1.062.684 2.333.103 2.4-.795-.15-2.509-2.688-3.032-3.734-1.248-2.292-1.34-1.904-2.02-5.299-.128-.636.052-.979.559-.983zm-6.243.936c9.522 16.966-11.072 37.3-31.953 24.103l6.276-4.59c10.902 4.86 23.087-1.127 19.627-15.05zm95.314 3.312L159.42 171.45c-3.527-11.018 9.51-17.288 17.262-13.259zm-32.014-.078c.563-.108 1.035 3.228 1.13 7.91.094 4.578.22 5.03-1.316 3.343-.643-.688-1.435-1.346-1.786-1.962-1.019-1.789-.69-3.66-.402-6.276.268-2.44 1.21-2.057 1.052.499-.102 1.644-.087 3.689.193 3.686.101 0 .13-.159.067-.383-.132-.468.487-5.767.739-6.392.108-.27.218-.405.323-.425zm-47.508 1.94c1.244.453 1.591 4.297.236 8.012-.583 1.596-1.476 2.638-2.805 3.28-.949.458-1.17.312-.74-.489.788-1.304 1.21-2.657 1.532-4.342.13-1.644-.81-.325-.732.378-.741 3.066-1.708 3.527-1.576.296.096-2.382.435-3.403 1.651-5.038.612-.818 1.266-1.945 2.434-2.097zm43.232.457c.512.005.636.64.175 1.879-.32.858-1.408 3.637-1.28 3.627.079-.006 1.246-2.504 1.483-2.912.39-.67.535-.796.877-.766.33 1.236-.016 2.778-.182 4.056-.71 3.33-3.17 6.769-4.109 5.743-1.528-1.671-.798-8.429 1.238-10.48.766-.773 1.4-1.151 1.798-1.147zm-65.65.407c1.829 11.79-8.695 16.805-17.772 13.236.193-.044 17.772-13.236 17.772-13.236zm42.98.286 1.828 2.227 3.356.166-1.724 2.34 1.703 3.002-3.745.06-2.158 2.288-1.868-2.071-3.274-.166 1.914-2.813-1.535-2.695 3.535-.15zm-28.163.968c.421.014 2.486 2.533 2.69 3.463.62 2.251.381 6.507-.493 6.36-.944-3.068-.572-4.65-.913-4.299-.59.563.356 5.264.039 6.422-.15.295-.658-.061-1.226-.82-1.519-2.029-1.299-9.95-.133-11.117a.072.066-.02 0 1 .037-.01zm112.059 4.954-41.477 31.672 2.384 2.847 39.16-29.8zm-59.818.452c.181-.034.594.236 1.37 1.025 1.351 1.695 2.783 4.022 3.303 5.811.197.696.515 1.619.707 2.05.29.648.313.827.141 1.023-.718.816-3.715-1.248-4.68-3.22-1.354-2.772-1.383-5.268-.025-2.835.495.884 1.107 2.174 1.102 1.662-.001-.145-.6-2.002-1.058-2.831-.285-.521-1.323-2.598-.86-2.685zm59.376.866.082 2.626-38.63 29.78-1.51-1.706s36.384-27.894 40.058-30.7zm-60.225 1.528c.182.016.274.257.219.79-.18 1.734-.649 5.51-.553 5.843.057.2.614-2.5.742-2.98.663-2.502 1.66 3.483 1.047 6.163-.096.422-.29 1.101-.392 1.519-.1.417-.425 1.13-.555 1.32-1.095 1.587-3.65-4.746-3.212-7.97.273-2.008 2.057-4.747 2.705-4.686zm-44.626 1.315c.505-.024.601.434.514 1.397-.298 3.3-2.677 6.763-5.278 7.681-2.591.914-2.831.73-1.293-.981 1.167-1.297 1.874-2.66 1.678-2.837-.107-.098-.367.447-1.312 1.564-1.185 1.401-1.377.213-.299-1.846.932-1.778 1.801-2.708 3.548-3.794 1.232-.766 1.997-1.163 2.442-1.184zm23.454 1.04c-.55 14.216-4.41 29.654-11.834 43.068l-6.91.004c8.484-11.518 13.913-25.786 15.449-43.015zm3.038.02s1.035.996 1.455 1.668c.463.74.592 1.387-.254 1.94-.983.765-1.391.48.205 2.385.84 1.004.567 1.167-.48 2.01-1.08.87-1.142.917-.142 2.096 1.07 1.263 1.263 1.457-.138 2.428-1.262.875-1.278 1.08-.296 2.507.904 1.315 1.179 1.302-.563 2.659-1.487 1.159-1.522.837-.092 2.976.525.787.489.838-.48 1.627-2.377 1.94-2.253 1.819-1.917 2.33 2.596 3.454 1.419 3.353-1.13 4.996-.514.406-.383.864.763 2.59.973 1.466.83 1.783-1.46 3.234-2.384 1.511-2.462 1.716-1.275 3.263 1.17 1.525 1.197 1.421-.711 2.99a41.074 41.074 0 0 0-1.568 1.36l-4.22-.006s.892-.752 1.5-1.167c3.47-2.367 3.456-2.116 1.998-3.83-1.29-1.516-1.165-1.615.148-2.48.944-.62 2.216-1.26 3.17-1.897.514-.337.135-.619-.717-2.116-.955-1.678-1.007-1.484.778-2.838 1.954-1.483 1.986-1.428.932-3.311-1.058-1.89-1.076-1.726.266-2.735 1.995-1.5 2.09-1.42 1.045-3.164-.834-1.391-.842-1.352.573-2.654 1.426-1.313 1.249-1.23.408-2.437-.854-1.225-.809-1.39.322-2.318 1.218-1 1.046-.938.04-2.219-.991-1.262-.976-1.168.234-2.143.637-.513 1.277-1.035 1.24-1.276-.092-.623-.733-1.508-1.35-2.359-.236-.325.237-.423.994-1.148.77-.738.736-.552.157-1.533a43.338 43.338 0 0 0-.908-1.426zm-11.31.015 1.202.03s.206.253.485.517c.77.73.804 1.157.027 1.547-.745.374-.46.9.16 1.747.66.897.653.795-.294 1.674-.978.733-1.483.94-.409 2.333.611.645.534 1.31-.418 1.887-.731.443-1.945.81-.67 2.502.622 1.206.672 1.129-.633 1.982-1.735 1.135-2.06.937-1.268 2.596.882 1.846.97 1.874-.85 3.108-2.115 1.434-2.187 1.55-1.311 3.272.884 1.738.907 1.298-1.33 2.904-1.64 1.177-2.012 1.24-1.53 2.217.906 1.828 1.29 2.319-1.362 3.57-3.061 1.446-3.216 1.553-1.751 3.713 1.191 1.756.926 1.506-1.049 2.553-2.854 1.514-4.115 2.173-4.205 2.644-.059.533 2.222 2.123 2.222 2.123l-3.98.093s-1.671-1.259-2.32-1.844c-1.797-1.624-1.817-1.093 4.172-3.77 3.305-1.477 3.027-1.142 2.49-2.007-1.587-2.557-1.642-2.823 1.348-4.21 2.599-1.205 2.153-1.292 1.526-3.12-.547-1.594-.46-1.448.91-2.384 3.311-2.264 3.22-2.03 2.707-3.143-.506-1.095-.895-1.605-.513-2.144 1.195-1.58 3.73-1.911 2.698-3.796-.481-1.215-.653-1.487.808-2.535 1.318-1.011 1.325-.889.485-2.228-1.023-1.23-.875-1.432.63-2.394 1.071-.904 1.057-.88.458-1.764-.826-1.22-.786-1.257.398-2.214.964-.78 1.132-.822.52-1.684-.813-1.144-.677-1.395.397-1.954.66-.343.656-.483.601-1.064-.01-.111-.352-.757-.352-.757zm14.927.09 5.54.023c1.751 9.505 4.833 13.41 6.614 16.421-7.025 10.392-5.45 19.035-1.187 26.688l-17.547-.09c4.526-14.228 6.873-28.547 6.58-43.042zm-38.03-.023c.204-.013.347.292.69.834 1.106 1.752.316 4.233-1.313 6.831-1.22 1.944-1.437.458-.876-2.344.354-1.766-.613.88-1.075 3.013-.25 1.157-.851 2.09-1.502 2.033-.614-.093-.421-1.714-.4-2.074.143-2.554 1.176-4.361 3.18-6.894.758-.96 1.065-1.384 1.296-1.399zm56.549 5.087c.263-.01.63.092 1.084.333.353.188.986.544 1.426.77 1.535.784 1.659 1.023.927 1.808-.905.972-1.483.6-3.042-1.022-1.052-1.094-1.068-1.862-.395-1.889zm-.516 2.138c.248.006.76.254 1.257.783 1.01 1.073.886 1.978-.233 1.718-.457-.62-.69-1.562-1.127-2.26-.099-.158-.046-.244.103-.24zm49.488.216c-.98 0-2.626 1.195-2.94 2.414-.961 3.716-.96 3.555-.106 4.098.251.159.44.275.563.346.5.366 1.182.933 1.272.82.814.006 2.06-4.755 2.021-5.736.054-1.037.093-1.162-.186-1.633-.127-.214-.349-.309-.624-.309zm-50.24 0c.065-.01.147.022.245.096.642.593.899 1.652 1.223 2.41.002.165-.073.434-.165.596-.557.986-1.42.028-1.505-1.672-.049-.956.006-1.395.202-1.43zm50.086.814a1.24 1.24 0 0 1 .122 0c.659.029.555.658-.36 1.57-.483.48-1.475.706-1.802.41-.476-.433.51-1.616 1.584-1.9.175-.047.326-.073.455-.08zm-111.282.344c.037 0 .072-.002.108 0 .344.02.633.165.858.408.438.503.252 1.278.043 1.926-.524 1.699-3.972 4.983-5.207 4.994-.735-.12 2.345-3.728 2.443-4.336-.228-.207-2.137 1.825-3.035 3.237-.406.64-.868 1.428-1.113 1.565-.642.067-1.383.444-1.386.045.11-1.805 3.937-5.733 5.241-6.825.8-.695 1.492-1.006 2.048-1.014zm9.213.185c2.952-.026-2.871 5.939-6.632 6.794-1.172.266-3.33.333-3.484.108-.154-.225.02-.408.502-.524.776-.188 4.622-2.443 4.62-2.71-.004-.334-1.592.218-2.95 1.028-.878.524-1.29.414-.812-.22 2.213-2.932 5.169-4.445 8.756-4.476zm51.09.09c.167.013.335.321.438 1.009.534 1.281.559 1.63.052 2.006-.867.644-1.08.463-1.067-1.019.01-1.22.298-2.017.577-1.996zm-97.236 1.545s1.076.375.628.848c-.312.328-1.636.046-1.637-.05zm148.276.273c.352-.02.36.28.172 1.037-.098.397-.527 2.489-1.28 3.069-.09.055-1.18-.548-1.476-.826-.136-.128-.562-.423-.618-.616-.185-.633.016-1.454.536-1.864.203-.16.61-.247.829-.25.172 0 .68-.154 1.131-.338.315-.129.547-.202.706-.212zm-147.9 1.208c.709-.003 1.579.068 2.317.302 2.175.589 6.165 2.25 6.778 2.794.892.791-1.443 1.63-4.25 1.654-1.488.013-1.767-.274-3.823-1.416-.264-.162-1.462-.892-1.113-1.157.382-.36 1.53.106 2.96.78.467.22 1.603.16 1.601-.034-.002-.23-2.859-1.216-5-1.85-1.405-.415-1.371-.832-.509-1.008a8.312 8.312 0 0 1 1.039-.065zm-2.816.9s.592.486 1.36 1.02c.832.578 1.799 1.293 2.47 2.242.973 1.1 2.508 3.838 2.336 4.333-.397 1.135-4.508-.864-7.866-3.983-1.091-1.013-1.73-1.767-1.73-1.767L40.97 186s1.126.874 2.427 1.939c2.439 1.998 2.424 1.313-.03-.79-.693-.595-1.333-1.129-1.333-1.129.034-.38.424-.716 1.081-.793zm100.507.254s1.31 1.263 1.797 1.844c-8.02 7.227-11.096 17.338-3.39 28.123l-3.708-.02c-6.922-12.657-3.61-22.173 5.301-29.947zm-67.716.19c.498-.02.043.522-.843 1.911-1.654 2.594-1.983 3.25-4.662 3.892-.69.164-1.673.031-2.078.077-1.152.132-.64-.002 1.128-1.058 2.448-1.463.37-.712-1.894.361-1.31.622-2.684.589-2.803.266-.066-.178.531-.646.917-.964 3.45-2.843 4.505-2.721 7.711-3.745 1.4-.447 2.183-.726 2.524-.74zm-14.4 2.576c1.246.009 2.408.126 3.442.341.684.144 1.798.272.857 1.057-1.066.925-3.943 2.185-6.071 2.267-.3.01-4.68-.284-3.743-1.152.187-.096.782-.07 1.295-.158 2.427-.422 1.771-.784-1.217-.641-3.742.178-3.912-.18-1.077-.892 2.073-.52 4.11-.786 5.976-.818a19.692 18.216-.02 0 1 .537-.004zm19.99.297c1.666-.013 2.96.264 2.966.851.01.953-3.148 3.036-5.22 3.447a206.796 191.296-.02 0 0-1.54.31c-.722.149-4.72.014-5.11-.118-1.871-.632-.568-.876 2.867-1.24 1.495-.158 2.21-.519 2.207-.782-.002-.127-1.103-.165-2.742.024-1.832.212-1.472-.286.81-1.375 1.508-.72 3.875-1.103 5.763-1.117zm-30.823 1.271c.233.006.794.185 1.728.547 1.993.54 4.731 1.151 6.603 3.048 1.512 1.36 1.88 1.798 1.561 2.274-.387.578-5.086.13-7.063-.654-1.306-.52-2.861-1.63-3.571-2.59-1.72-2.325-.993-2.935 1.194-1.309 2.636 1.96 3.027 2.162 3.496 2.074.188-.036-.276-.438-1.16-1.048-2.22-1.531-3.301-2.355-2.788-2.342zm16.257 2.52c2.211.006 2.688.16 4.833 1.072 2.684.88 2.031 1.658-2.737 2.75-2.388.514-4.79.147-6.531-.848-3.838-2.193-3.584-2.63.704-1.646 1.408.323 2.813.386 2.9.142.067-.187-1.638-.591-3.022-1.017-1.498-.462-.21-.421 2.79-.446.396-.003.748-.008 1.063-.007zm110.528 9.622s-.492.214-.709.324c-.171.087-1.5.238-2.952.336-2.865.193-4.792.614-6.531 1.258-2.626.971-4.386 3.977-4.386 3.977 1.962-.12 13.059 1.754 16.145-1.94.647-.774-1.666 5.843-2.847 6.135-2.925-.33-4.164 3.915-3.87 3.737-2.954 1.053-5.243 1.67-4.499 4.84.325 1.381 1.835 3.025 5.043 2.617-.884 5.492 6.38 6.925 7.194.304 0 0 1.417-.247 1.963-.306 3.315-.721 4.126-5.198-.734-6.626-1.349-.372-1.425-.607-1.425-.607.254-1.01.196-2.07-.592-3.25 1.077-2.363 3.756-6.919 3.756-6.919zm.51 1.368c.667.827-2.822 2.188-6.535 2.478-.833.065-2.665.217-2.712.294-.401.647 7.179.188 9.542-1.031.81-.418.882-.05.53.596-2.748 3.256-9.363 2.442-14.536 1.861-.295-.275-.043-.611 1.118-1.48 2.13-1.591 3.661-2.121 7.018-2.434.937-.027 5.154-.754 5.575-.284zm4.093 3.38c-.48 1.401-2.978 5.678-2.978 5.678-.306.283-1.398.48-1.313-.603.015-1.163 2.379-5.952 3.014-6.043.759-.053 1.316.465 1.277.968zm1.58.329c.72 4.913 4.747 6.087 8.61 7.642 1.017.433 1.879 1.201 2.898 1.698 1.915-2.407-.229-7.092-3.59-8.623-2.498-1.083-4.773-1.945-6.181-1.85-.815.054-1.725.537-1.738 1.133zm2.067-.29c.433-.004 1.052.113 3.309.672 3.407.844 5.807 3.174 6.429 6.238.025.124.195 2.498-.392 2.413-.887-.238-1.364-1.065-2.787-1.619-1.776-.69-4.268-1.598-5.795-2.886-1.234-1.04-1.907-2.16-2.056-3.117-.15-.994.209-1.095 1.11-.292 2.02 1.492 4.013 2.004 6.01 3.446.555.4 2.547 1.425 1.188.15-.92-.864-3.634-2.371-5.075-3.015-2.004-.894-3.09-1.98-1.94-1.99zM32.18 211.403l22.788 33.081c-5.629 2.736-8.404 3.933-17.742 3.242l.035.436-3.967-.22c6.835 9.907 15.27 22.832 12.826 45.353l27.836.018s.434.382.476.409c.407.255 1.019-.445 1.019-.445l12.556-.043.34.376 5.854-.029S67.52 247.2 54.117 224.168c-5.506-9.24-11.25-13.35-21.937-12.765zm144.095 1.322c1.5-.032 2.99.925 2.998 2.778.003.965-.88 2.31-.88 2.31l-2.036-1.8-1.952 1.801c-.958-.736-1.524-2.133-1.209-2.928.603-1.358 1.912-2.136 3.079-2.16zm-23.635.62c1.92 6.976 3.99 16.593-12.823 38.784-9.945 13.125-13.214 25.518-13.64 40.647l-1.002.003c.49-8.303.582-23.357.582-23.357l.938-.77s-.426-.64-.612-1.392c-.313-1.267-.048-.844.776-4.244 3.46-16.418 25.78-49.67 25.78-49.67zm-89.56 3.057 84.995.495-1.135 2.061-82.248-.675zm113.294.776 3.15 2.85-3.09 3.198-3.242-3.147zm-2.591 1.205-1.725 1.691 1.49 1.455c-1.543 2.981-5.628.647-5.487-1.586.166-2.612 3.467-3.678 5.722-1.56zm5.448 3.375 1.375-1.61-1.547-1.575c2.542-2.314 4.938-.268 5.167 1.667.243 2.062-3.238 4.385-4.995 1.518zm-100.663-2.132 6.963.072-2.597 4.478-7.06-.04zm15.511.058 6.394.01-2.71 4.538-6.47-.01zm15.101.024 6.784.01-2.761 4.539-6.968-.011Zm15.183.024 6.942.01-2.536 4.54-7.202-.012zm15.465.024 6.691.01-2.72 4.54-6.885-.012zm-73.89-.094 4.496.008-1.842 2.987zm112.117 3.045c2.57 1.915.775 5.052-1.906 5.103-1.847.036-4.522-2.858-1.617-5.208l1.929 1.636zm-94.591 2.264 6.538.01-2.469 4.086-6.404-.01zm14.534.057 7.172.011-2.535 4.085-6.825-.011zm15.357.024 7.136.011-2.336 4.085-7.207-.011zm15.3.024 7.08.012-2.212 4.085-7.484-.012zm-58.39.064 4.512.007-1.93 3.272zm3.393 4.747 66.251.65-1.129 1.985-63.444-.091zm2.321 3.562 62.083.24-1.432 2.748-21.45-.124c-4.18-2.897-8.966-1.568-14.426.067 0 0-16.421.132-22.878-.037zM55.31 245.067l32.654 47.861-7.239-.087-31.007-45.024zm-6.57 3.103 30.829 44.733c-1.419-.032-2.736.046-4.154.024.59-8.345-6.662-12.269-10.927-12.474 2.577-9.755-5.107-13.874-10.236-14.657 2.105-12.68-9.242-14.497-9.407-14.37.057-1.04-.154-1.792-.303-2.66l4.199-.596zm-5.009.7c-.067.269.577 2.797-.644 2.33l-.082-2.326zm-6.508.055c.438 1.68 1.371 2.016 2.637 3.145 0 0-1.622.252-1.997.01-.674-.431-2.077-3.17-2.077-3.17zm4.83 2.85c.784.001 1.416.593 1.414 1.318a1.416 1.31-.02 0 1-1.42 1.309 1.416 1.31-.02 0 1-1.414-1.313c.002-.725.636-1.315 1.42-1.314zm2.807 1.015c4.066-.24 9.955 3.804 8.386 11.35-.27-.527-.588-1.687-1.246-2.512-2.796-3.501-6.106 1.286-3.885 3.245 1.089.96 1.599 1.34 1.481 1.426-2.505-.444-4.408 1.606-3.37 3.887 1.734 2.951 4.152 1.393 5.553-.354 0 0 .856 2.64 1.711 2.977 1.31.516 3.118-.132 3.736-1.595.92-2.177-1.306-2.74-1.793-3.953 4.703.15 10.684 6.519 7.947 12.03.36-1.257-1.091-4.075-3.925-3.353-1.416.454-1.912 2.36-.775 4.323.364.628.561.862.561.862s-1.225.148-1.547.33c-3.678 2.088 1.048 7.806 3.79 4.24.28-.424.738-.908.738-.908.45.796.585 1.916 1.408 2.3 3.383 1.583 4.899-1.743 3.48-3.376-.8-.92-1.702-1.982-1.702-1.982-.14-.588 10.143 1.924 8.873 11.18l-27.276-.077c2.555-14.219-3.535-30.5-6.65-35.464l1.356-1.65c.338.615.899 2.162 1.894 2.46 3.162.947 4.13-1.097 3.71-3.2-.224-1.12-1.917-2.024-2.455-2.186zm7.197 13.397c.744 0 1.344.563 1.343 1.25a1.344 1.244-.02 0 1-1.348 1.243c-.744 0-1.35-.558-1.348-1.246.001-.688.61-1.249 1.353-1.247zm10.208 14.832a1.36 1.259-.02 1 1-.005 2.518 1.36 1.259-.02 0 1 .005-2.518z" />
</svg>
